<?xml version="1.0" standalone="no"?>
<!DOCTYPE svg PUBLIC "-//W3C//DTD SVG 20010904//EN"
 "http://www.w3.org/TR/2001/REC-SVG-20010904/DTD/svg10.dtd">
<svg version="1.0" xmlns="http://www.w3.org/2000/svg"
 width="354.000000pt" height="1647.000000pt" viewBox="0 0 354.000000 1647.000000"
 preserveAspectRatio="xMidYMid meet">
<metadata>
Created by potrace 1.16, written by Peter Selinger 2001-2019
</metadata>
<g transform="translate(0.000000,1647.000000) scale(0.100000,-0.100000)"
fill="#000000" stroke="none">
<path d="M330 15319 c0 -5 5 -7 10 -4 6 3 10 8 10 11 0 2 -4 4 -10 4 -5 0 -10
-5 -10 -11z"/>
<path d="M10 15262 c0 -41 3 -52 16 -52 13 0 15 7 9 43 -11 64 -25 69 -25 9z"/>
<path d="M1788 15253 c-13 -12 -19 -13 -36 -2 -17 11 -30 11 -67 1 -25 -7 -57
-9 -72 -6 -14 4 -28 2 -32 -4 -4 -8 -20 -8 -49 -1 -44 10 -67 5 -57 -12 3 -5
16 -9 28 -9 40 0 102 -7 135 -15 29 -7 32 -6 25 11 -6 16 -5 17 9 6 12 -10 14
-20 8 -43 -5 -16 -6 -29 -2 -29 3 0 1 -5 -6 -12 -19 -19 -14 -28 17 -28 37 0
48 16 27 39 -18 20 -12 31 16 31 10 0 18 7 18 15 0 18 27 20 33 3 3 -10 12
-10 43 1 21 8 65 13 96 12 46 -2 58 1 58 13 0 18 -31 29 -62 21 -16 -4 -29 -1
-38 10 -10 12 -15 13 -21 4 -6 -10 -13 -10 -32 -2 -19 9 -27 8 -39 -4z"/>
<path d="M2997 15238 c-6 -22 6 -38 31 -38 18 0 15 25 -7 44 -17 16 -19 16
-24 -6z"/>
<path d="M426 15234 c-9 -23 -8 -24 14 -24 13 0 20 7 20 20 0 24 -25 27 -34 4z"/>
<path d="M2181 15237 c-12 -15 -5 -27 16 -27 7 0 13 9 13 20 0 23 -13 26 -29
7z"/>
<path d="M2253 15238 c-35 -17 -28 -28 17 -28 41 0 49 7 28 28 -14 14 -16 14
-45 0z"/>
<path d="M2775 15236 c-18 -13 -18 -14 1 -19 10 -3 51 -5 89 -5 l70 0 -24 19
c-15 12 -31 17 -40 13 -20 -9 -42 -9 -61 0 -9 3 -24 0 -35 -8z"/>
<path d="M3233 15236 c-13 -6 -23 -14 -23 -19 0 -12 63 -4 67 9 6 17 -18 22
-44 10z"/>
<path d="M216 15233 c-11 -11 -6 -23 9 -23 8 0 15 4 15 9 0 13 -16 22 -24 14z"/>
<path d="M480 15229 c0 -5 5 -7 10 -4 6 3 10 8 10 11 0 2 -4 4 -10 4 -5 0 -10
-5 -10 -11z"/>
<path d="M525 15231 c14 -13 69 -18 75 -6 3 6 -14 11 -40 13 -30 2 -42 0 -35
-7z"/>
<path d="M767 15234 c-15 -16 -5 -24 28 -24 19 0 35 5 35 10 0 6 -6 10 -14 10
-8 0 -21 2 -28 5 -8 3 -17 2 -21 -1z"/>
<path d="M907 15234 c-9 -10 2 -24 19 -24 8 0 14 7 14 15 0 15 -21 21 -33 9z"/>
<path d="M1153 15233 c-47 -6 -41 -23 7 -23 29 0 40 4 40 15 0 8 -3 14 -7 13
-5 0 -23 -3 -40 -5z"/>
<path d="M2417 15234 c-14 -14 -7 -25 13 -22 12 2 21 8 21 13 0 12 -24 18 -34
9z"/>
<path d="M2475 15230 c-3 -5 1 -10 9 -10 8 0 18 5 21 10 3 6 -1 10 -9 10 -8 0
-18 -4 -21 -10z"/>
<path d="M654 15221 c10 -15 76 -19 76 -4 0 9 -14 13 -41 13 -22 0 -38 -4 -35
-9z"/>
<path d="M955 15220 c-3 -5 3 -10 15 -10 12 0 18 5 15 10 -3 6 -10 10 -15 10
-5 0 -12 -4 -15 -10z"/>
<path d="M1005 15220 c-3 -5 1 -10 9 -10 9 0 16 5 16 10 0 6 -4 10 -9 10 -6 0
-13 -4 -16 -10z"/>
<path d="M1265 15220 c-3 -5 1 -10 9 -10 9 0 16 5 16 10 0 6 -4 10 -9 10 -6 0
-13 -4 -16 -10z"/>
<path d="M2020 15220 c0 -12 17 -12 45 0 17 7 15 9 -12 9 -18 1 -33 -3 -33 -9z"/>
<path d="M2100 15221 c0 -12 29 -23 41 -15 5 3 7 10 4 15 -8 12 -45 12 -45 0z"/>
<path d="M3070 15220 c0 -5 14 -10 30 -10 17 0 30 5 30 10 0 6 -13 10 -30 10
-16 0 -30 -4 -30 -10z"/>
<path d="M2562 15200 c0 -14 2 -19 5 -12 2 6 2 18 0 25 -3 6 -5 1 -5 -13z"/>
<path d="M1768 15173 c7 -3 16 -2 19 1 4 3 -2 6 -13 5 -11 0 -14 -3 -6 -6z"/>
<path d="M1915 15160 c3 -5 8 -10 11 -10 2 0 4 5 4 10 0 6 -5 10 -11 10 -5 0
-7 -4 -4 -10z"/>
<path d="M10 15140 c0 -11 5 -20 10 -20 6 0 10 9 10 20 0 11 -4 20 -10 20 -5
0 -10 -9 -10 -20z"/>
<path d="M1777 15146 c-9 -22 -1 -36 19 -36 18 0 18 11 1 34 -13 18 -14 18
-20 2z"/>
<path d="M600 15135 c0 -9 9 -15 21 -15 18 0 19 2 9 15 -7 8 -16 15 -21 15 -5
0 -9 -7 -9 -15z"/>
<path d="M357 15133 c-14 -13 -6 -23 19 -23 22 0 25 2 14 15 -14 16 -23 19
-33 8z"/>
<path d="M419 15124 c-11 -14 -10 -16 9 -12 13 1 23 7 23 13 1 17 -17 16 -32
-1z"/>
<path d="M485 15130 c3 -5 17 -10 31 -10 14 0 22 4 19 10 -3 6 -17 10 -31 10
-14 0 -22 -4 -19 -10z"/>
<path d="M1905 15133 c-45 -9 -49 -16 -10 -23 38 -7 88 1 69 12 -19 10 -40 14
-59 11z"/>
<path d="M1870 15055 c0 -9 6 -12 15 -9 8 4 12 10 9 15 -8 14 -24 10 -24 -6z"/>
<path d="M2110 15045 c7 -8 17 -15 22 -15 6 0 5 7 -2 15 -7 8 -17 15 -22 15
-6 0 -5 -7 2 -15z"/>
<path d="M1590 15040 c0 -5 5 -10 10 -10 6 0 10 5 10 10 0 6 -4 10 -10 10 -5
0 -10 -4 -10 -10z"/>
<path d="M15 15030 c-3 -5 -1 -10 4 -10 6 0 11 5 11 10 0 6 -2 10 -4 10 -3 0
-8 -4 -11 -10z"/>
<path d="M1825 15030 c-3 -5 3 -10 14 -10 12 0 21 5 21 10 0 6 -6 10 -14 10
-8 0 -18 -4 -21 -10z"/>
<path d="M2520 15014 c0 -8 5 -12 10 -9 6 4 8 11 5 16 -9 14 -15 11 -15 -7z"/>
<path d="M1670 14760 c0 -5 5 -10 10 -10 6 0 10 5 10 10 0 6 -4 10 -10 10 -5
0 -10 -4 -10 -10z"/>
</g>
</svg>
