<?xml version="1.0" standalone="no"?>
<!DOCTYPE svg PUBLIC "-//W3C//DTD SVG 20010904//EN"
 "http://www.w3.org/TR/2001/REC-SVG-20010904/DTD/svg10.dtd">
<svg version="1.0" xmlns="http://www.w3.org/2000/svg"
 width="346.000000pt" height="1648.000000pt" viewBox="0 0 346.000000 1648.000000"
 preserveAspectRatio="xMidYMid meet">
<metadata>
Created by potrace 1.16, written by Peter Selinger 2001-2019
</metadata>
<g transform="translate(0.000000,1648.000000) scale(0.100000,-0.100000)"
fill="#000000" stroke="none">
<path d="M15 15245 c0 -35 4 -67 8 -71 4 -4 7 25 7 64 0 40 -4 72 -8 72 -5 0
-8 -29 -7 -65z"/>
<path d="M2020 15259 c0 -5 5 -7 10 -4 6 3 10 8 10 11 0 2 -4 4 -10 4 -5 0
-10 -5 -10 -11z"/>
<path d="M2751 15257 c-7 -10 -20 -17 -27 -17 -19 0 -18 -29 1 -36 20 -8 47
21 43 48 -3 19 -4 20 -17 5z"/>
<path d="M617 15243 c-16 -15 -6 -34 15 -31 29 4 38 38 10 38 -10 0 -22 -3
-25 -7z"/>
<path d="M714 15239 c-3 -6 -1 -16 5 -22 8 -8 11 -5 11 11 0 24 -5 28 -16 11z"/>
<path d="M1198 15238 c-28 -10 -38 -28 -15 -28 14 1 53 28 46 34 -2 2 -16 -1
-31 -6z"/>
<path d="M1730 15237 c-25 -4 -57 -8 -72 -8 -16 0 -28 -4 -28 -9 0 -6 9 -10
19 -10 11 0 21 -5 23 -10 2 -7 14 -7 37 0 18 5 53 7 77 3 39 -5 44 -4 38 12
-6 15 -4 16 17 4 51 -26 55 -27 80 -8 20 16 22 20 9 29 -17 11 -135 9 -200 -3z"/>
<path d="M2329 15230 l-24 -19 113 -1 c61 0 112 4 112 9 0 13 -62 20 -82 10
-10 -6 -26 -3 -45 6 -37 19 -46 19 -74 -5z"/>
<path d="M2867 15239 c-10 -6 -25 -8 -34 -5 -22 9 -36 -3 -22 -20 6 -8 20 -12
30 -9 23 8 59 -11 59 -30 0 -8 6 -15 14 -15 17 0 15 53 -4 75 -15 18 -19 18
-43 4z"/>
<path d="M267 15233 c-13 -12 -7 -23 13 -23 11 0 20 7 20 15 0 15 -21 21 -33
8z"/>
<path d="M407 15234 c-13 -13 -7 -24 14 -24 11 0 19 5 17 12 -5 14 -22 21 -31
12z"/>
<path d="M480 15231 c0 -19 22 -23 38 -7 15 15 14 16 -11 16 -15 0 -27 -4 -27
-9z"/>
<path d="M553 15228 c2 -7 10 -13 17 -13 7 0 15 6 18 13 2 7 -5 12 -18 12 -13
0 -20 -5 -17 -12z"/>
<path d="M2103 15224 c-16 -12 -11 -13 40 -14 43 0 58 3 55 13 -6 17 -73 18
-95 1z"/>
<path d="M2230 15224 c0 -17 22 -14 28 4 2 7 -3 12 -12 12 -9 0 -16 -7 -16
-16z"/>
<path d="M3060 15230 c-12 -8 -11 -10 8 -10 12 0 22 5 22 10 0 13 -11 13 -30
0z"/>
<path d="M820 15220 c0 -13 20 -13 40 0 12 8 9 10 -12 10 -16 0 -28 -4 -28
-10z"/>
<path d="M1530 15220 c-11 -7 -3 -10 30 -10 33 0 41 3 30 10 -8 5 -22 10 -30
10 -8 0 -22 -5 -30 -10z"/>
<path d="M1990 15220 c0 -5 7 -10 15 -10 8 0 15 5 15 10 0 6 -7 10 -15 10 -8
0 -15 -4 -15 -10z"/>
<path d="M2970 15220 c-12 -8 -9 -10 13 -10 15 0 27 5 27 10 0 13 -20 13 -40
0z"/>
<path d="M1625 15180 c3 -5 8 -10 11 -10 2 0 4 5 4 10 0 6 -5 10 -11 10 -5 0
-7 -4 -4 -10z"/>
<path d="M1878 15173 c6 -2 18 -2 25 0 6 3 1 5 -13 5 -14 0 -19 -2 -12 -5z"/>
<path d="M2760 15170 c0 -5 5 -10 10 -10 6 0 10 5 10 10 0 6 -4 10 -10 10 -5
0 -10 -4 -10 -10z"/>
<path d="M672 15128 c5 -15 58 -24 58 -10 0 11 -24 22 -47 22 -8 0 -13 -6 -11
-12z"/>
<path d="M10 15120 c0 -5 5 -10 10 -10 6 0 10 5 10 10 0 6 -4 10 -10 10 -5 0
-10 -4 -10 -10z"/>
<path d="M1850 15120 c-33 -7 -31 -7 18 -9 29 0 52 3 52 9 0 11 -17 11 -70 0z"/>
<path d="M1960 15120 c0 -5 5 -10 10 -10 6 0 10 5 10 10 0 6 -4 10 -10 10 -5
0 -10 -4 -10 -10z"/>
<path d="M2720 15120 c0 -5 7 -10 16 -10 8 0 12 5 9 10 -3 6 -10 10 -16 10 -5
0 -9 -4 -9 -10z"/>
<path d="M2863 15118 c2 -7 10 -13 17 -13 7 0 15 6 18 13 2 7 -5 12 -18 12
-13 0 -20 -5 -17 -12z"/>
<path d="M2798 15113 c7 -3 16 -2 19 1 4 3 -2 6 -13 5 -11 0 -14 -3 -6 -6z"/>
<path d="M2735 15080 c3 -5 10 -10 16 -10 5 0 9 5 9 10 0 6 -7 10 -16 10 -8 0
-12 -4 -9 -10z"/>
<path d="M10 15058 c0 -7 5 -20 10 -28 8 -12 10 -9 10 13 0 15 -4 27 -10 27
-5 0 -10 -6 -10 -12z"/>
<path d="M1840 15056 c0 -8 5 -18 10 -21 6 -3 10 3 10 14 0 12 -4 21 -10 21
-5 0 -10 -6 -10 -14z"/>
<path d="M2148 15053 c-25 -6 -23 -33 2 -33 13 0 20 7 20 20 0 11 -1 19 -2 19
-2 -1 -11 -3 -20 -6z"/>
<path d="M1780 15035 c0 -8 5 -15 10 -15 6 0 10 7 10 15 0 8 -4 15 -10 15 -5
0 -10 -7 -10 -15z"/>
<path d="M1957 15043 c-14 -13 -6 -23 19 -23 22 0 25 2 14 15 -14 16 -23 19
-33 8z"/>
<path d="M2040 15035 c0 -8 9 -15 20 -15 11 0 20 7 20 15 0 8 -9 15 -20 15
-11 0 -20 -7 -20 -15z"/>
<path d="M635 15029 c-4 -6 -4 -13 -1 -16 8 -8 36 5 36 17 0 13 -27 13 -35 -1z"/>
<path d="M1695 15030 c3 -5 10 -10 16 -10 5 0 9 5 9 10 0 6 -7 10 -16 10 -8 0
-12 -4 -9 -10z"/>
<path d="M1840 14760 c20 -13 33 -13 25 0 -3 6 -14 10 -23 10 -15 0 -15 -2 -2
-10z"/>
<path d="M2135 14760 c-3 -5 1 -10 9 -10 9 0 16 5 16 10 0 6 -4 10 -9 10 -6 0
-13 -4 -16 -10z"/>
<path d="M2245 14760 c-3 -5 3 -10 14 -10 12 0 21 5 21 10 0 6 -6 10 -14 10
-8 0 -18 -4 -21 -10z"/>
<path d="M1555 14750 c3 -5 8 -10 11 -10 2 0 4 5 4 10 0 6 -5 10 -11 10 -5 0
-7 -4 -4 -10z"/>
<path d="M2410 14750 c0 -5 4 -10 9 -10 6 0 13 5 16 10 3 6 -1 10 -9 10 -9 0
-16 -4 -16 -10z"/>
</g>
</svg>
