<?xml version="1.0" standalone="no"?>
<!DOCTYPE svg PUBLIC "-//W3C//DTD SVG 20010904//EN"
 "http://www.w3.org/TR/2001/REC-SVG-20010904/DTD/svg10.dtd">
<svg version="1.0" xmlns="http://www.w3.org/2000/svg"
 width="336.165548pt" height="240.074936pt" viewBox="0 0 336.165548 240.074936"
 preserveAspectRatio="xMidYMid meet">
<metadata>
Created by potrace 1.16, written by Peter Selinger 2001-2019
</metadata>
<g transform="translate(-69.000000,417.074936) scale(0.100000,-0.100000)"
fill="#000000" stroke="none">
<path d="M740 4163 c-38 -14 -50 -36 -50 -91 l0 -55 42 -39 c23 -21 45 -38 50
-38 5 0 33 -16 63 -34 30 -19 73 -45 96 -57 61 -30 148 -106 219 -188 33 -39
67 -71 75 -71 7 0 26 -11 42 -23 15 -13 44 -29 63 -36 19 -6 46 -22 60 -35 51
-48 266 -180 312 -191 13 -3 66 -37 118 -76 52 -38 98 -69 103 -69 5 0 32 -19
60 -43 56 -46 117 -90 171 -122 56 -34 91 -59 99 -72 8 -13 171 -121 197 -131
8 -3 33 -20 55 -37 51 -40 139 -95 152 -95 5 0 20 -11 33 -25 13 -14 28 -25
33 -25 6 0 18 -6 26 -14 9 -8 47 -31 86 -51 38 -21 97 -61 131 -91 34 -30 65
-54 70 -54 5 0 36 -19 69 -41 33 -22 71 -42 85 -46 14 -3 36 -16 50 -28 14
-12 63 -44 110 -71 47 -26 100 -59 117 -73 18 -14 48 -38 65 -52 18 -15 51
-36 74 -47 23 -12 97 -77 166 -146 l126 -126 49 0 c59 0 82 20 90 77 l5 38
-39 60 c-22 34 -70 85 -109 117 -38 31 -82 71 -99 88 -16 18 -48 41 -70 52
-37 19 -69 43 -138 104 -15 13 -32 24 -37 24 -14 0 -160 88 -190 115 -14 12
-47 30 -75 40 -27 10 -61 30 -75 45 -14 14 -47 39 -75 55 -27 15 -70 45 -95
65 -25 21 -61 45 -80 55 -61 30 -84 44 -125 75 -22 16 -56 37 -75 46 -45 21
-115 69 -163 111 -20 18 -44 33 -53 33 -21 0 -130 77 -148 105 -9 13 -26 27
-38 31 -13 3 -38 20 -56 35 -18 16 -41 29 -51 29 -9 0 -28 11 -41 25 -13 14
-28 25 -33 25 -5 0 -32 20 -60 44 -29 24 -68 51 -87 61 -19 10 -49 30 -67 44
-65 53 -125 93 -161 105 -21 8 -55 25 -76 40 -21 14 -43 26 -49 26 -13 0 -124
75 -167 114 -19 17 -51 38 -70 46 -19 7 -48 24 -63 37 -16 13 -34 23 -41 23
-7 0 -36 29 -66 65 -30 36 -57 65 -60 65 -3 0 -31 21 -61 48 -29 26 -72 56
-94 67 -50 25 -163 97 -195 125 -47 40 -85 50 -130 33z"/>
</g>
</svg>
