<?xml version="1.0" standalone="no"?>
<!DOCTYPE svg PUBLIC "-//W3C//DTD SVG 20010904//EN"
 "http://www.w3.org/TR/2001/REC-SVG-20010904/DTD/svg10.dtd">
<svg version="1.0" xmlns="http://www.w3.org/2000/svg"
 width="165.364588pt" height="280.704277pt" viewBox="0 0 165.364588 280.704277"
 preserveAspectRatio="xMidYMid meet">
<metadata>
Created by potrace 1.16, written by Peter Selinger 2001-2019
</metadata>
<g transform="translate(-243.135412,413.836068) scale(0.100000,-0.100000)"
fill="#000000" stroke="none">
<path d="M4012 4127 c-7 -8 -15 -28 -18 -46 -4 -18 -13 -35 -21 -38 -7 -3 -20
-20 -27 -37 -16 -38 -165 -248 -211 -296 -18 -19 -49 -68 -70 -108 -29 -55
-48 -79 -76 -95 l-38 -22 -57 -120 c-31 -66 -63 -135 -71 -153 -7 -18 -43 -82
-79 -142 -35 -60 -79 -147 -96 -192 -17 -46 -48 -108 -68 -138 -41 -61 -186
-341 -242 -466 -19 -44 -47 -93 -62 -109 -14 -15 -26 -32 -26 -37 0 -5 -22
-32 -50 -60 -27 -28 -59 -72 -71 -97 -12 -25 -28 -53 -35 -61 -7 -8 -26 -51
-44 -94 -17 -43 -38 -88 -46 -100 -7 -11 -14 -28 -14 -37 0 -21 -66 -140 -86
-156 -9 -6 -22 -33 -30 -59 -8 -26 -21 -55 -30 -65 -9 -10 -14 -28 -12 -41 l3
-23 38 -3 c24 -2 38 1 41 10 18 67 42 130 53 140 8 7 28 38 44 69 16 32 33 60
39 64 5 3 10 17 10 30 0 13 9 39 20 58 11 18 29 60 40 92 11 33 29 68 39 80
11 11 23 33 26 48 4 15 32 53 61 84 30 30 54 59 54 64 0 5 13 23 28 41 16 18
50 80 77 138 72 156 203 408 242 463 18 26 47 84 63 127 16 44 55 124 88 178
33 54 76 136 97 183 62 137 115 239 124 239 24 0 76 60 108 124 19 39 52 89
72 111 38 41 130 167 191 263 18 28 39 52 46 52 18 0 47 64 48 108 l1 37 -31
3 c-17 2 -36 -3 -42 -11z"/>
</g>
</svg>
