<?xml version="1.0" standalone="no"?>
<!DOCTYPE svg PUBLIC "-//W3C//DTD SVG 20010904//EN"
 "http://www.w3.org/TR/2001/REC-SVG-20010904/DTD/svg10.dtd">
<svg version="1.0" xmlns="http://www.w3.org/2000/svg"
 width="32.719300pt" height="350.097840pt" viewBox="0 0 32.719300 350.097840"
 preserveAspectRatio="xMidYMid meet">
<metadata>
Created by potrace 1.16, written by Peter Selinger 2001-2019
</metadata>
<g transform="translate(-262.177431,499.995559) scale(0.100000,-0.100000)"
fill="#000000" stroke="none">
<path d="M2739 4981 l-24 -19 2 -79 c2 -43 5 -172 8 -287 l6 -208 -18 -27
c-29 -44 -36 -109 -35 -298 4 -394 3 -442 -6 -558 -5 -66 -14 -133 -20 -150
-29 -81 -33 -115 -29 -255 6 -169 27 -316 57 -385 23 -54 32 -136 41 -380 5
-132 13 -325 19 -430 5 -104 9 -222 9 -262 0 -75 17 -125 46 -137 38 -14 96
-6 119 18 29 28 42 130 32 241 -9 94 -24 390 -35 665 -9 246 -15 288 -62 448
-29 98 -40 287 -21 357 28 104 32 125 32 190 0 39 4 75 9 80 13 14 23 106 22
215 0 128 -16 370 -25 396 -5 13 -3 24 3 28 6 4 11 28 11 54 0 31 7 55 20 72
l20 25 0 303 0 303 -20 39 c-11 22 -29 44 -39 50 -32 17 -96 12 -122 -9z"/>
</g>
</svg>
