<?xml version="1.0" standalone="no"?>
<!DOCTYPE svg PUBLIC "-//W3C//DTD SVG 20010904//EN"
 "http://www.w3.org/TR/2001/REC-SVG-20010904/DTD/svg10.dtd">
<svg version="1.0" xmlns="http://www.w3.org/2000/svg"
 width="320.815708pt" height="27.484748pt" viewBox="0 0 320.815708 27.484748"
 preserveAspectRatio="xMidYMid meet">
<metadata>
Created by potrace 1.16, written by Peter Selinger 2001-2019
</metadata>
<g transform="translate(-139.000000,268.984748) scale(0.100000,-0.100000)"
fill="#000000" stroke="none">
<path d="M2835 2665 c-176 -13 -394 -26 -485 -31 -91 -4 -185 -13 -210 -20
-32 -10 -113 -14 -288 -14 -159 0 -250 -4 -264 -11 -16 -8 -30 -8 -59 1 -43
14 -101 7 -124 -16 -9 -10 -15 -34 -15 -63 l0 -48 26 -24 26 -24 91 2 c452 12
626 21 677 35 35 10 134 20 270 27 118 6 318 18 443 26 181 13 354 15 825 13
l597 -4 55 -18 c30 -10 81 -20 112 -23 l56 -5 17 26 c20 31 16 113 -6 127 -27
17 -86 30 -224 49 l-140 20 -530 -1 -530 -2 -320 -22z"/>
</g>
</svg>
