<?xml version="1.0" standalone="no"?>
<!DOCTYPE svg PUBLIC "-//W3C//DTD SVG 20010904//EN"
 "http://www.w3.org/TR/2001/REC-SVG-20010904/DTD/svg10.dtd">
<svg version="1.0" xmlns="http://www.w3.org/2000/svg"
 width="180.387414pt" height="142.036324pt" viewBox="0 0 180.387414 142.036324"
 preserveAspectRatio="xMidYMid meet">
<metadata>
Created by potrace 1.16, written by Peter Selinger 2001-2019
</metadata>
<g transform="translate(-282.303458,369.996538) scale(0.100000,-0.100000)"
fill="#000000" stroke="none">
<path d="M4590 3691 c0 -5 -12 -19 -26 -32 -22 -22 -40 -50 -43 -72 -2 -17
-32 -67 -40 -67 -5 0 -21 -30 -36 -67 -43 -109 -95 -206 -160 -303 -16 -25
-31 -52 -33 -60 -2 -8 -25 -42 -52 -76 -27 -34 -60 -84 -73 -110 -14 -27 -37
-60 -51 -73 -14 -14 -26 -30 -26 -36 0 -7 -9 -20 -20 -30 -11 -10 -20 -24 -20
-31 0 -7 -9 -18 -19 -24 -11 -5 -29 -26 -41 -45 -12 -19 -26 -32 -31 -29 -14
8 -39 -15 -39 -36 0 -22 -26 -74 -45 -90 -8 -7 -15 -16 -15 -21 0 -4 -5 -20
-12 -36 -15 -37 -19 -144 -6 -160 17 -21 145 -16 196 7 86 39 102 74 102 223
l0 115 -16 6 c-9 3 -31 6 -50 6 -19 0 -34 4 -34 9 0 5 18 25 40 45 22 20 40
40 40 44 0 16 31 72 45 79 7 5 23 28 36 53 13 25 49 79 81 120 32 42 58 81 58
88 0 17 109 182 120 182 6 0 10 8 10 18 0 33 63 177 91 207 16 17 32 45 35 63
4 18 14 38 23 45 26 19 53 67 47 83 -6 15 -36 20 -36 5z m-535 -1181 c1 -137
-24 -167 -147 -177 l-68 -6 0 45 c0 45 24 108 41 108 5 0 9 6 9 13 0 30 34 78
63 92 18 8 48 13 67 12 l35 -2 0 -85z"/>
<path d="M2880 2609 c0 -6 -6 -9 -14 -6 -15 6 -38 -14 -34 -29 1 -5 -2 -19 -6
-32 -11 -32 9 -54 37 -41 26 12 62 81 54 103 -7 18 -37 22 -37 5z"/>
</g>
</svg>
