<?xml version="1.0" standalone="no"?>
<!DOCTYPE svg PUBLIC "-//W3C//DTD SVG 20010904//EN"
 "http://www.w3.org/TR/2001/REC-SVG-20010904/DTD/svg10.dtd">
<svg version="1.0" xmlns="http://www.w3.org/2000/svg"
 width="145.079317pt" height="96.171609pt" viewBox="0 0 145.079317 96.171609"
 preserveAspectRatio="xMidYMid meet">
<metadata>
Created by potrace 1.16, written by Peter Selinger 2001-2019
</metadata>
<g transform="translate(-136.997633,254.171609) scale(0.100000,-0.100000)"
fill="#000000" stroke="none">
<path d="M2525 2506 c-15 -20 -34 -36 -41 -36 -8 0 -19 -9 -26 -20 -7 -11 -19
-20 -26 -20 -21 0 -139 -103 -152 -132 -7 -16 -17 -28 -22 -28 -5 0 -30 -22
-56 -48 -26 -26 -105 -87 -177 -134 -71 -48 -146 -103 -165 -123 -19 -20 -48
-44 -65 -52 -16 -9 -55 -34 -85 -57 -30 -23 -68 -48 -84 -56 -16 -8 -42 -27
-59 -42 -16 -16 -33 -28 -37 -28 -4 0 -13 -7 -20 -15 -7 -9 -28 -23 -46 -31
-59 -28 -119 -104 -83 -104 6 0 28 13 48 29 20 15 46 31 59 35 12 4 22 11 22
16 0 4 20 18 45 30 25 12 45 28 45 35 0 7 17 21 38 30 20 10 63 40 95 66 32
27 65 49 72 49 8 0 34 21 60 48 25 26 68 61 95 77 103 63 227 152 272 195 48
47 54 53 95 93 14 14 29 29 34 34 5 4 19 21 30 36 l21 28 17 -15 c25 -23 131
-76 151 -76 11 0 22 -4 25 -10 10 -17 132 -12 147 5 7 9 19 22 26 30 6 7 12
20 12 28 0 8 7 17 15 21 22 8 20 95 -2 112 -10 7 -25 14 -34 14 -9 0 -22 6
-28 14 -12 14 -50 24 -137 32 l-52 6 -27 -36z m110 -26 c3 -5 24 -10 45 -10
21 0 42 -4 45 -10 3 -5 15 -10 25 -10 35 0 26 -66 -14 -99 -9 -7 -13 -17 -10
-22 3 -5 -17 -9 -44 -9 -33 0 -67 9 -110 30 -34 17 -68 30 -75 30 -29 0 -24
14 21 61 36 37 54 48 79 49 17 0 35 -4 38 -10z"/>
</g>
</svg>
