<?xml version="1.0" standalone="no"?>
<!DOCTYPE svg PUBLIC "-//W3C//DTD SVG 20010904//EN"
 "http://www.w3.org/TR/2001/REC-SVG-20010904/DTD/svg10.dtd">
<svg version="1.0" xmlns="http://www.w3.org/2000/svg"
 width="85.610649pt" height="161.843634pt" viewBox="0 0 85.610649 161.843634"
 preserveAspectRatio="xMidYMid meet">
<metadata>
Created by potrace 1.16, written by Peter Selinger 2001-2019
</metadata>
<g transform="translate(-270.519050,283.843634) scale(0.100000,-0.100000)"
fill="#000000" stroke="none">
<path d="M3484 2799 c-14 -23 -27 -51 -30 -62 -2 -12 -13 -34 -24 -49 -11 -15
-20 -31 -20 -35 0 -5 -17 -26 -37 -47 -20 -21 -38 -47 -40 -59 -2 -11 -12 -29
-23 -39 -11 -10 -20 -25 -20 -32 0 -7 -9 -25 -21 -40 -11 -14 -25 -43 -31 -63
-5 -20 -23 -49 -39 -64 -17 -16 -29 -37 -29 -52 0 -14 -5 -29 -10 -32 -17 -11
-64 -88 -65 -109 -1 -10 -9 -24 -17 -30 -14 -10 -47 -66 -50 -83 -1 -9 -23
-46 -49 -85 -11 -15 -19 -29 -19 -32 0 -3 -22 -26 -50 -52 -27 -26 -50 -53
-50 -60 0 -7 -16 -20 -35 -29 -43 -21 -57 -38 -60 -73 -1 -16 -6 -35 -11 -43
-5 -8 -9 -23 -9 -34 -1 -18 -5 -32 -31 -100 -11 -30 -12 -68 -1 -82 5 -7 6
-21 1 -30 -11 -26 -12 -106 -1 -120 5 -7 17 -13 27 -13 10 0 23 -7 30 -15 10
-12 37 -15 121 -15 l109 0 17 20 c10 11 28 20 41 20 12 0 49 14 82 30 33 17
66 30 73 30 17 0 88 66 111 103 l17 28 -5 82 c-10 147 -18 212 -27 222 -5 5
-9 19 -9 31 0 13 -8 25 -17 28 -30 8 -266 10 -303 1 l-35 -7 31 33 c18 19 40
50 49 69 10 19 26 46 36 59 11 13 19 31 19 40 0 9 13 32 28 51 16 19 32 47 36
62 3 15 20 43 36 62 17 18 30 45 30 59 0 14 6 27 14 30 7 3 37 53 67 111 29
59 61 114 71 123 10 9 18 22 18 30 0 7 4 13 9 13 5 0 16 16 25 35 9 19 20 37
25 40 11 6 71 112 71 124 0 6 12 22 26 38 l25 27 -17 13 c-26 19 -31 17 -60
-28z m-300 -1025 c42 -4 74 -9 71 -12 -3 -3 1 -12 7 -20 7 -8 13 -40 14 -71 0
-31 5 -65 11 -76 5 -11 9 -48 8 -81 l-1 -61 -32 -40 c-20 -26 -45 -44 -74 -53
-24 -8 -58 -22 -76 -32 -18 -10 -45 -18 -61 -18 -15 0 -36 -9 -46 -20 l-18
-20 -99 0 c-54 0 -98 4 -98 9 0 5 -9 13 -20 16 -23 7 -27 53 -8 85 10 16 10
24 0 40 -15 24 -16 57 -2 65 6 3 10 15 10 26 0 10 5 19 10 19 6 0 10 16 10 35
0 19 5 35 10 35 6 0 10 6 10 13 0 8 9 22 20 32 11 10 20 22 20 26 0 14 34 49
47 49 7 0 21 9 30 20 10 11 27 20 38 20 11 0 27 5 35 10 18 11 77 13 184 4z"/>
</g>
</svg>
