<?xml version="1.0" standalone="no"?>
<!DOCTYPE svg PUBLIC "-//W3C//DTD SVG 20010904//EN"
 "http://www.w3.org/TR/2001/REC-SVG-20010904/DTD/svg10.dtd">
<svg version="1.0" xmlns="http://www.w3.org/2000/svg"
 width="307.279286pt" height="257.281427pt" viewBox="0 0 307.279286 257.281427"
 preserveAspectRatio="xMidYMid meet">
<metadata>
Created by potrace 1.16, written by Peter Selinger 2001-2019
</metadata>
<g transform="translate(-108.661491,436.000000) scale(0.100000,-0.100000)"
fill="#000000" stroke="none">
<path d="M4097 4342 c-9 -10 -16 -26 -17 -37 -2 -59 -1 -75 5 -128 5 -36 4
-66 -3 -80 -6 -12 -13 -35 -17 -52 -10 -50 -25 -127 -33 -175 -4 -25 -20 -67
-35 -94 -16 -29 -27 -64 -27 -87 0 -25 -10 -54 -29 -85 -17 -25 -33 -59 -36
-75 -4 -16 -11 -31 -16 -34 -5 -4 -9 -13 -9 -22 0 -8 -13 -35 -30 -60 -16 -24
-30 -47 -30 -50 0 -3 -16 -23 -35 -44 -19 -21 -38 -51 -41 -66 -7 -26 -97
-167 -131 -206 -9 -9 -21 -26 -27 -36 -6 -10 -27 -43 -47 -72 -20 -30 -51 -78
-69 -107 -18 -30 -44 -58 -57 -63 -12 -4 -31 -22 -41 -39 -10 -16 -99 -114
-198 -217 -256 -268 -299 -310 -325 -318 -13 -4 -33 -15 -44 -25 -11 -9 -32
-20 -48 -24 -15 -4 -36 -14 -46 -24 -30 -28 -81 -52 -112 -52 -16 0 -53 -12
-82 -27 -55 -27 -90 -38 -172 -52 -27 -5 -81 -21 -120 -35 -38 -14 -82 -26
-96 -26 -15 0 -43 -7 -62 -15 -21 -9 -67 -15 -110 -15 -40 0 -77 -4 -82 -9
-17 -16 -200 -35 -436 -47 l-136 -7 -22 32 c-12 17 -30 31 -39 31 -9 0 -30 7
-46 15 -15 8 -35 15 -42 15 -8 0 -23 6 -34 13 l-21 12 -9 -15 c-12 -20 10 -53
41 -60 45 -11 88 -36 110 -64 l23 -29 165 7 c241 10 471 32 471 46 0 4 41 10
91 12 50 3 96 11 102 17 6 6 29 11 52 11 23 0 45 4 51 8 12 11 131 47 209 62
33 7 88 25 122 41 34 16 75 29 90 29 16 0 38 7 49 15 10 8 29 15 40 15 12 0
29 11 38 25 11 17 26 25 45 25 17 0 31 6 35 15 3 9 25 24 48 34 42 18 60 35
243 231 49 52 135 142 192 199 56 56 105 112 108 122 4 10 14 19 23 19 9 0 32
23 51 50 19 28 38 50 43 50 4 0 8 7 8 15 0 19 78 135 91 135 5 0 9 8 9 19 0
10 7 24 15 31 27 22 135 190 135 210 0 10 18 38 40 61 22 23 40 46 40 51 0 9
39 68 51 78 3 3 9 16 12 30 11 51 39 116 63 147 16 22 24 45 24 73 0 27 10 59
30 95 19 35 30 68 30 94 0 22 5 43 10 46 6 3 10 26 10 50 0 24 5 47 10 50 6 3
10 19 10 36 0 16 5 29 12 29 8 0 9 28 5 99 l-6 99 14 12 c27 23 12 80 -20 80
-7 0 -19 -8 -28 -18z"/>
</g>
</svg>
