<?xml version="1.0" standalone="no"?>
<!DOCTYPE svg PUBLIC "-//W3C//DTD SVG 20010904//EN"
 "http://www.w3.org/TR/2001/REC-SVG-20010904/DTD/svg10.dtd">
<svg version="1.0" xmlns="http://www.w3.org/2000/svg"
 width="127.687701pt" height="351.060741pt" viewBox="0 0 127.687701 351.060741"
 preserveAspectRatio="xMidYMid meet">
<metadata>
Created by potrace 1.16, written by Peter Selinger 2001-2019
</metadata>
<g transform="translate(-218.021137,489.060741) scale(0.100000,-0.100000)"
fill="#000000" stroke="none">
<path d="M2662 4878 c-6 -6 -12 -18 -12 -25 0 -7 -4 -13 -10 -13 -5 0 -10 -15
-10 -34 0 -19 -7 -41 -15 -50 -8 -8 -15 -21 -15 -28 0 -8 -13 -25 -30 -38 -16
-14 -29 -32 -30 -42 0 -9 -3 -18 -7 -20 -5 -1 -24 -37 -43 -78 -19 -41 -38
-76 -42 -78 -5 -2 -8 -10 -8 -18 0 -8 -11 -31 -24 -52 -13 -21 -26 -60 -29
-88 -9 -80 -19 -128 -27 -139 -12 -15 -40 -97 -40 -118 0 -17 -19 -57 -31 -67
-4 -3 -9 -21 -12 -40 -4 -19 -11 -57 -16 -85 -6 -27 -15 -72 -20 -100 -6 -27
-15 -72 -22 -100 -7 -29 -14 -150 -16 -290 -2 -155 -7 -248 -15 -262 -18 -35
-4 -278 21 -355 11 -35 27 -89 36 -120 9 -32 22 -58 28 -58 12 0 57 -76 57
-95 0 -5 42 -50 93 -100 51 -51 99 -107 107 -126 7 -19 19 -41 26 -49 7 -8 30
-54 52 -102 22 -48 52 -98 66 -110 13 -13 32 -45 40 -71 9 -28 29 -59 49 -76
18 -16 38 -46 46 -67 20 -56 41 -84 62 -84 12 0 24 -13 33 -35 8 -19 26 -39
38 -44 13 -5 30 -16 37 -25 7 -9 24 -16 37 -16 13 0 25 -8 29 -19 3 -10 27
-29 53 -42 26 -13 63 -36 82 -51 19 -15 47 -28 62 -28 17 0 31 -7 38 -20 6
-11 21 -20 35 -20 13 0 27 -5 30 -10 3 -5 28 -10 55 -10 l49 0 6 20 c8 27 -11
50 -41 50 -12 0 -26 5 -29 10 -3 6 -16 10 -29 10 -13 0 -31 9 -41 20 -10 11
-28 20 -40 20 -12 0 -31 13 -43 30 -13 17 -31 30 -41 30 -29 0 -80 30 -98 56
-8 13 -21 24 -28 24 -6 0 -20 9 -30 20 -10 11 -29 20 -42 20 -12 0 -23 5 -23
11 0 6 -23 36 -50 68 -27 32 -50 62 -50 67 0 6 -18 28 -40 49 -22 21 -40 46
-40 55 0 24 -26 74 -50 95 -11 10 -32 43 -46 74 -14 31 -34 73 -45 94 -10 22
-19 45 -19 51 0 7 -9 21 -20 31 -11 10 -20 23 -20 30 0 6 -33 41 -72 77 -40
36 -80 78 -88 94 -8 16 -27 44 -42 62 -16 18 -28 40 -28 49 0 9 -11 26 -25 39
-13 12 -27 35 -30 51 -3 15 -15 58 -27 94 -22 72 -23 109 -13 549 3 135 10
249 15 254 6 6 10 27 10 47 0 21 5 41 10 44 6 3 10 28 10 55 0 27 5 52 10 55
6 3 10 24 10 45 0 21 5 42 10 45 6 3 10 15 10 26 0 10 5 28 10 39 6 11 15 29
20 40 6 11 10 33 10 49 0 17 5 33 10 36 6 3 10 19 10 34 0 16 7 34 15 41 8 7
15 27 15 46 0 18 5 36 10 39 6 3 10 31 10 61 0 43 5 59 23 76 25 25 47 64 47
82 0 15 43 101 62 124 8 9 20 31 28 47 8 17 26 44 41 60 14 17 29 44 33 60 4
17 14 44 23 62 29 56 -15 121 -55 81z"/>
</g>
</svg>
