<?xml version="1.0" standalone="no"?>
<!DOCTYPE svg PUBLIC "-//W3C//DTD SVG 20010904//EN"
 "http://www.w3.org/TR/2001/REC-SVG-20010904/DTD/svg10.dtd">
<svg version="1.0" xmlns="http://www.w3.org/2000/svg"
 width="455.406775pt" height="12.729122pt" viewBox="0 0 455.406775 12.729122"
 preserveAspectRatio="xMidYMid meet">
<metadata>
Created by potrace 1.16, written by Peter Selinger 2001-2019
</metadata>
<g transform="translate(-63.000000,272.589936) scale(0.100000,-0.100000)"
fill="#000000" stroke="none">
<path d="M648 2724 c-11 -3 -18 -15 -18 -29 l0 -24 33 -5 c17 -3 79 -7 137
-10 58 -2 131 -12 163 -20 l58 -16 827 0 c455 0 937 -5 1072 -10 135 -5 690
-10 1235 -10 l990 -1 20 25 19 26 -16 16 c-11 11 -21 13 -34 7 -11 -5 -546 -6
-1299 -1 -2173 15 -2897 23 -2930 35 -34 11 -230 24 -257 17z"/>
</g>
</svg>
