<?xml version="1.0" standalone="no"?>
<!DOCTYPE svg PUBLIC "-//W3C//DTD SVG 20010904//EN"
 "http://www.w3.org/TR/2001/REC-SVG-20010904/DTD/svg10.dtd">
<svg version="1.0" xmlns="http://www.w3.org/2000/svg"
 width="340.996545pt" height="211.885901pt" viewBox="0 0 340.996545 211.885901"
 preserveAspectRatio="xMidYMid meet">
<metadata>
Created by potrace 1.16, written by Peter Selinger 2001-2019
</metadata>
<g transform="translate(-146.655568,454.917450) scale(0.100000,-0.100000)"
fill="#000000" stroke="none">
<path d="M4830 4533 c-14 -9 -28 -22 -33 -29 -9 -16 -238 -158 -355 -221 -48
-26 -206 -120 -352 -208 -146 -89 -354 -212 -462 -274 -109 -62 -289 -174
-400 -250 -112 -76 -288 -184 -393 -241 -147 -81 -224 -131 -342 -222 l-151
-119 -259 -133 c-142 -74 -304 -153 -360 -176 l-102 -42 -79 -74 c-62 -57 -79
-79 -75 -94 3 -11 10 -20 17 -20 18 1 46 26 46 41 0 29 125 116 225 159 55 23
216 102 358 176 l258 135 152 118 c117 91 198 143 352 228 110 61 286 169 390
240 105 72 271 176 370 233 99 56 295 172 435 258 140 85 300 180 355 210 159
87 377 223 419 263 22 21 36 41 32 48 -10 15 -17 14 -46 -6z"/>
</g>
</svg>
