<?xml version="1.0" standalone="no"?>
<!DOCTYPE svg PUBLIC "-//W3C//DTD SVG 20010904//EN"
 "http://www.w3.org/TR/2001/REC-SVG-20010904/DTD/svg10.dtd">
<svg version="1.0" xmlns="http://www.w3.org/2000/svg"
 width="230.712520pt" height="64.795503pt" viewBox="0 0 230.712520 64.795503"
 preserveAspectRatio="xMidYMid meet">
<metadata>
Created by potrace 1.16, written by Peter Selinger 2001-2019
</metadata>
<g transform="translate(-179.067771,315.981006) scale(0.100000,-0.100000)"
fill="#000000" stroke="none">
<path d="M2545 3145 c-16 -8 -39 -14 -51 -15 -11 0 -45 -13 -75 -30 -30 -16
-64 -30 -76 -30 -31 0 -127 -45 -195 -91 -31 -22 -59 -39 -62 -39 -3 0 -40
-21 -83 -46 -46 -28 -106 -75 -145 -117 -67 -69 -82 -97 -54 -97 18 0 105 71
105 87 1 17 55 59 129 99 37 20 96 55 132 78 74 48 133 76 158 76 9 0 53 15
97 34 131 56 143 58 355 53 240 -4 407 -27 498 -68 24 -11 73 -23 109 -26 50
-5 72 -12 96 -32 31 -26 113 -55 197 -71 75 -13 177 -50 196 -71 9 -10 13 -19
9 -19 -4 0 0 -9 10 -20 10 -11 15 -20 11 -20 -4 0 3 -15 16 -32 13 -18 23 -35
23 -38 1 -3 14 -25 30 -49 45 -66 74 -114 81 -134 4 -10 14 -17 23 -15 21 4
26 42 6 58 -8 7 -15 20 -15 29 0 10 -11 28 -25 41 -14 13 -36 44 -49 69 -13
25 -35 69 -50 97 -33 63 -59 87 -116 104 -25 7 -58 20 -75 29 -16 8 -52 18
-80 22 -81 12 -138 30 -165 54 -34 29 -74 43 -143 48 -37 2 -67 11 -85 24 -20
15 -57 23 -141 33 -63 6 -135 18 -160 26 -64 19 -393 18 -436 -1z"/>
</g>
</svg>
