<?xml version="1.0" standalone="no"?>
<!DOCTYPE svg PUBLIC "-//W3C//DTD SVG 20010904//EN"
 "http://www.w3.org/TR/2001/REC-SVG-20010904/DTD/svg10.dtd">
<svg version="1.0" xmlns="http://www.w3.org/2000/svg"
 width="265.390266pt" height="66.221601pt" viewBox="0 0 265.390266 66.221601"
 preserveAspectRatio="xMidYMid meet">
<metadata>
Created by potrace 1.16, written by Peter Selinger 2001-2019
</metadata>
<g transform="translate(-153.310028,310.501559) scale(0.100000,-0.100000)"
fill="#000000" stroke="none">
<path d="M1542 3097 c-13 -16 -12 -49 2 -66 6 -8 11 -21 11 -30 0 -9 5 -23 10
-31 5 -8 10 -26 10 -40 0 -14 5 -32 10 -40 5 -8 10 -27 10 -41 0 -14 6 -33 14
-42 7 -10 10 -17 5 -17 -23 0 80 -87 141 -117 38 -20 81 -43 94 -52 25 -16
121 -45 201 -61 25 -4 88 -18 140 -30 133 -30 248 -50 297 -50 23 0 44 -4 47
-9 17 -26 265 -36 556 -21 279 14 359 23 397 43 18 9 52 17 77 17 56 0 116 27
116 52 0 10 7 18 16 18 20 0 141 79 168 109 11 11 27 21 37 21 22 0 53 31 73
75 10 20 26 35 41 39 14 4 25 13 25 21 0 8 11 22 26 31 14 9 32 30 40 46 8 16
31 47 51 69 21 23 33 45 29 54 -8 21 -34 19 -41 -5 -3 -11 -17 -28 -29 -38
-13 -10 -31 -33 -40 -51 -10 -18 -26 -36 -37 -38 -10 -3 -19 -9 -19 -14 0 -4
-18 -25 -40 -46 -23 -20 -46 -48 -53 -62 -7 -14 -22 -31 -35 -37 -12 -6 -33
-20 -45 -32 -37 -34 -135 -92 -155 -92 -20 0 -62 -39 -59 -55 1 -5 -25 -13
-58 -17 -67 -7 -110 -16 -140 -28 -55 -22 -170 -30 -480 -36 l-340 -7 -44 21
c-34 17 -64 22 -120 22 -69 0 -136 12 -316 56 -33 8 -78 19 -100 24 -103 22
-156 39 -182 56 -15 10 -57 35 -92 54 -36 19 -69 44 -75 54 -6 11 -19 29 -28
40 -10 11 -18 34 -18 52 0 18 -4 36 -10 39 -5 3 -10 21 -10 40 0 19 -4 37 -10
40 -5 3 -10 17 -10 30 0 13 -4 27 -10 30 -5 3 -10 17 -10 30 0 26 -24 40 -38
22z"/>
</g>
</svg>
