<?xml version="1.0" standalone="no"?>
<!DOCTYPE svg PUBLIC "-//W3C//DTD SVG 20010904//EN"
 "http://www.w3.org/TR/2001/REC-SVG-20010904/DTD/svg10.dtd">
<svg version="1.0" xmlns="http://www.w3.org/2000/svg"
 width="330.186076pt" height="87.117988pt" viewBox="0 0 330.186076 87.117988"
 preserveAspectRatio="xMidYMid meet">
<metadata>
Created by potrace 1.16, written by Peter Selinger 2001-2019
</metadata>
<g transform="translate(-130.767924,481.981073) scale(0.100000,-0.100000)"
fill="#000000" stroke="none">
<path d="M4487 4809 c-10 -6 -29 -34 -42 -62 -13 -29 -35 -63 -49 -76 -14 -14
-26 -32 -26 -42 0 -10 -14 -28 -30 -41 -17 -13 -43 -33 -59 -45 -16 -13 -33
-23 -38 -23 -6 0 -18 -9 -28 -20 -10 -11 -22 -20 -28 -20 -5 0 -36 -22 -69
-50 -38 -32 -69 -50 -86 -50 -14 0 -33 -6 -41 -13 -9 -8 -37 -21 -63 -31 -26
-10 -69 -35 -95 -57 -34 -27 -57 -39 -80 -39 -17 0 -35 -4 -38 -10 -3 -5 -21
-10 -38 -10 -18 0 -45 -9 -62 -20 -49 -32 -57 -37 -126 -69 l-66 -31 -340 0
-339 0 -85 20 c-46 11 -97 24 -114 29 -16 5 -48 12 -70 15 -51 9 -94 25 -124
48 -14 11 -41 18 -65 18 -61 0 -256 27 -363 50 -51 11 -106 20 -123 20 -19 0
-64 20 -122 55 -50 30 -95 55 -99 55 -12 0 -75 99 -100 156 -26 59 -32 64 -86
64 -31 0 -49 -6 -64 -21 l-21 -21 7 -62 c5 -46 13 -68 32 -88 25 -27 44 -54
62 -94 11 -25 77 -78 107 -88 11 -3 43 -21 70 -38 82 -53 116 -68 156 -68 21
0 80 -9 131 -20 50 -10 153 -26 227 -35 76 -9 152 -24 175 -34 75 -34 96 -41
128 -41 18 0 45 -7 61 -15 15 -8 40 -15 55 -15 14 0 46 -8 71 -17 l45 -18 424
-3 423 -3 57 22 c31 12 60 26 66 31 5 4 15 8 23 8 8 0 30 14 49 30 25 22 44
30 73 30 21 0 42 5 45 10 3 6 19 10 34 10 37 0 90 27 118 60 12 15 41 34 65
44 24 10 51 22 60 27 10 5 25 9 33 9 29 0 134 59 173 98 22 21 53 44 70 51 17
7 44 25 59 40 16 14 44 40 63 56 19 17 57 64 85 104 l49 74 4 64 c4 51 1 68
-13 83 -20 22 -78 27 -108 9z"/>
</g>
</svg>
