<?xml version="1.0" standalone="no"?>
<!DOCTYPE svg PUBLIC "-//W3C//DTD SVG 20010904//EN"
 "http://www.w3.org/TR/2001/REC-SVG-20010904/DTD/svg10.dtd">
<svg version="1.0" xmlns="http://www.w3.org/2000/svg"
 width="187.300926pt" height="278.827818pt" viewBox="0 0 187.300926 278.827818"
 preserveAspectRatio="xMidYMid meet">
<metadata>
Created by potrace 1.16, written by Peter Selinger 2001-2019
</metadata>
<g transform="translate(-76.563547,439.827818) scale(0.100000,-0.100000)"
fill="#000000" stroke="none">
<path d="M768 4394 c-9 -8 13 -56 34 -75 10 -9 18 -23 18 -30 0 -8 9 -21 20
-29 11 -8 20 -20 20 -27 0 -6 11 -24 25 -39 14 -15 25 -32 25 -38 0 -6 9 -17
20 -24 11 -7 20 -20 20 -30 0 -10 11 -25 25 -32 14 -8 28 -24 31 -37 4 -13 9
-23 13 -23 4 0 14 -12 22 -27 8 -16 26 -40 41 -55 16 -14 28 -33 28 -42 0 -9
4 -16 9 -16 5 0 16 -15 25 -32 22 -44 37 -66 62 -95 12 -13 28 -38 35 -56 7
-17 22 -42 34 -53 39 -41 52 -61 59 -89 4 -16 16 -35 27 -43 10 -7 19 -20 19
-28 0 -8 15 -30 34 -49 19 -19 37 -44 41 -56 4 -12 18 -33 31 -46 13 -12 31
-40 40 -60 10 -21 30 -49 46 -62 15 -13 28 -34 28 -46 0 -14 8 -25 20 -28 13
-3 20 -14 20 -30 0 -16 7 -26 19 -30 13 -3 22 -17 27 -43 3 -22 13 -46 20 -54
7 -9 22 -37 34 -62 11 -26 34 -59 50 -75 17 -15 42 -51 56 -79 14 -29 36 -62
50 -75 13 -12 24 -28 24 -34 0 -17 24 -65 33 -65 4 0 7 -6 7 -12 0 -7 14 -29
31 -48 17 -19 42 -59 56 -88 14 -29 39 -67 54 -83 16 -17 29 -36 29 -43 0 -6
9 -18 20 -26 11 -8 20 -23 20 -33 0 -10 11 -29 25 -43 14 -14 25 -33 25 -42 0
-9 9 -23 20 -30 12 -7 20 -23 20 -41 0 -22 6 -30 25 -35 14 -4 25 -11 25 -16
0 -6 13 -24 30 -42 17 -17 30 -36 30 -42 0 -6 13 -18 28 -27 17 -10 33 -31 41
-55 8 -25 24 -46 42 -56 16 -10 29 -24 29 -33 0 -8 5 -15 10 -15 6 0 10 -11
10 -25 0 -14 13 -39 30 -57 34 -35 36 -43 14 -52 -25 -10 -6 -26 32 -26 39 0
42 11 14 47 -11 14 -20 33 -20 42 0 9 -9 23 -20 31 -11 8 -20 20 -20 27 0 19
-43 82 -61 88 -9 3 -26 28 -39 55 -13 27 -31 52 -41 55 -15 5 -44 42 -74 96
-5 10 -19 22 -32 28 -13 6 -23 19 -23 29 0 11 -9 27 -20 37 -11 10 -20 24 -20
31 0 7 -11 26 -25 42 -14 17 -25 35 -25 42 0 7 -11 26 -26 44 -73 90 -94 119
-94 130 0 12 -29 58 -94 151 -20 28 -36 58 -36 68 0 10 -13 30 -29 45 -16 15
-43 55 -59 88 -17 34 -37 64 -45 67 -16 6 -84 128 -111 200 -10 26 -21 47 -26
47 -4 0 -13 14 -20 30 -7 17 -16 30 -21 30 -5 0 -9 6 -9 13 0 7 -14 26 -31 43
-17 16 -42 49 -55 74 -35 63 -64 106 -101 150 -18 20 -33 42 -33 47 0 6 -9 18
-19 27 -11 10 -22 30 -26 44 -3 15 -23 47 -44 72 -20 25 -49 65 -64 90 -15 25
-41 63 -57 85 -16 22 -38 58 -49 80 -11 23 -32 52 -46 65 -14 14 -39 47 -55
75 -16 27 -38 56 -49 63 -12 7 -21 18 -21 25 0 8 -11 24 -25 37 -14 13 -25 29
-25 35 0 7 -9 20 -20 30 -11 10 -20 23 -20 30 0 7 -9 20 -20 30 -11 10 -20 23
-20 28 0 6 -7 19 -17 29 -9 10 -21 28 -27 40 -12 23 -28 32 -38 22z"/>
</g>
</svg>
