<?xml version="1.0" standalone="no"?>
<!DOCTYPE svg PUBLIC "-//W3C//DTD SVG 20010904//EN"
 "http://www.w3.org/TR/2001/REC-SVG-20010904/DTD/svg10.dtd">
<svg version="1.0" xmlns="http://www.w3.org/2000/svg"
 width="258.556207pt" height="161.162023pt" viewBox="0 0 258.556207 161.162023"
 preserveAspectRatio="xMidYMid meet">
<metadata>
Created by potrace 1.16, written by Peter Selinger 2001-2019
</metadata>
<g transform="translate(-142.829222,339.990327) scale(0.100000,-0.100000)"
fill="#000000" stroke="none">
<path d="M3942 3375 c-30 -14 -67 -25 -82 -25 -15 0 -50 -15 -76 -33 -63 -42
-98 -57 -133 -57 -16 0 -35 -7 -42 -16 -8 -9 -47 -42 -89 -74 -41 -32 -106
-86 -145 -122 -145 -134 -466 -358 -800 -558 -104 -63 -293 -182 -420 -265
-126 -83 -291 -190 -365 -237 l-135 -85 -85 -23 c-47 -13 -98 -32 -113 -43
l-29 -20 15 -14 14 -15 41 21 c22 11 71 29 108 39 74 21 130 55 554 333 129
85 321 206 425 269 352 210 667 429 815 567 41 38 102 90 135 115 34 25 67 53
74 62 7 9 24 16 36 16 30 0 113 37 148 66 16 13 41 24 57 24 24 0 115 37 157
63 12 7 7 37 -6 37 -3 0 -30 -11 -59 -25z"/>
</g>
</svg>
