<?xml version="1.0" standalone="no"?>
<!DOCTYPE svg PUBLIC "-//W3C//DTD SVG 20010904//EN"
 "http://www.w3.org/TR/2001/REC-SVG-20010904/DTD/svg10.dtd">
<svg version="1.0" xmlns="http://www.w3.org/2000/svg"
 width="74.253860pt" height="309.139412pt" viewBox="0 0 74.253860 309.139412"
 preserveAspectRatio="xMidYMid meet">
<metadata>
Created by potrace 1.16, written by Peter Selinger 2001-2019
</metadata>
<g transform="translate(-190.840440,465.922298) scale(0.100000,-0.100000)"
fill="#000000" stroke="none">
<path d="M1923 4653 c-36 -14 -1 -73 68 -116 15 -9 36 -35 48 -59 11 -24 55
-77 98 -119 58 -56 89 -98 121 -157 23 -45 42 -88 42 -95 0 -16 63 -115 84
-130 22 -17 48 -94 51 -147 2 -53 21 -127 35 -135 6 -4 8 -10 5 -15 -3 -5 0
-20 7 -32 7 -14 13 -65 14 -128 2 -58 3 -108 3 -111 1 -3 19 -14 41 -24 l40
-18 2 -36 c0 -20 2 -49 3 -66 2 -16 -4 -38 -12 -47 -10 -12 -12 -22 -5 -34 7
-12 5 -21 -8 -34 l-17 -17 0 -135 c-1 -75 -6 -144 -11 -155 -6 -11 -10 -35
-10 -54 1 -34 -12 -80 -38 -130 -7 -14 -11 -29 -7 -32 7 -7 -34 -135 -50 -155
-9 -12 -14 -30 -38 -147 -6 -27 -17 -57 -25 -66 -8 -9 -24 -42 -35 -75 -24
-68 -45 -110 -70 -143 -11 -13 -19 -33 -19 -44 0 -10 -12 -34 -27 -52 -16 -18
-39 -52 -53 -76 -14 -24 -40 -60 -59 -81 -19 -21 -31 -41 -28 -44 8 -8 -62
-68 -103 -89 -43 -22 -48 -30 -42 -62 l5 -25 33 5 c39 6 184 131 184 158 0 8
11 26 25 39 14 13 25 29 25 35 0 7 9 20 20 30 11 10 20 25 20 33 0 8 16 32 35
53 19 22 35 50 35 63 0 13 7 29 15 36 16 13 33 49 55 110 19 55 33 83 51 105
9 11 20 43 23 70 8 53 23 108 37 137 5 10 9 25 9 33 0 9 9 33 20 55 11 22 20
52 20 68 0 15 4 32 9 38 26 29 52 183 58 343 l4 135 18 12 17 13 3 123 2 124
-23 21 c-13 11 -33 24 -45 28 l-23 6 0 109 c0 62 -4 111 -10 115 -5 3 -10 17
-10 30 0 13 -4 27 -10 30 -5 3 -10 17 -10 30 0 13 -4 27 -10 30 -5 3 -10 30
-10 59 0 51 -35 146 -60 161 -6 4 -23 25 -38 48 -25 40 -34 59 -64 137 -7 20
-21 48 -31 63 -9 14 -17 30 -17 34 0 5 -41 49 -90 98 -50 50 -99 108 -109 130
-19 43 -121 146 -143 144 -7 0 -19 -3 -25 -6z"/>
</g>
</svg>
