<?xml version="1.0" standalone="no"?>
<!DOCTYPE svg PUBLIC "-//W3C//DTD SVG 20010904//EN"
 "http://www.w3.org/TR/2001/REC-SVG-20010904/DTD/svg10.dtd">
<svg version="1.0" xmlns="http://www.w3.org/2000/svg"
 width="153.032977pt" height="417.967687pt" viewBox="0 0 153.032977 417.967687"
 preserveAspectRatio="xMidYMid meet">
<metadata>
Created by potrace 1.16, written by Peter Selinger 2001-2019
</metadata>
<g transform="translate(-242.651458,480.967128) scale(0.100000,-0.100000)"
fill="#000000" stroke="none">
<path d="M3135 4798 c-39 -21 -67 -54 -91 -105 -14 -28 -50 -82 -81 -120 -31
-37 -67 -86 -81 -108 -14 -22 -40 -58 -57 -80 -72 -93 -106 -161 -146 -295
-33 -110 -41 -133 -64 -186 -13 -28 -31 -82 -40 -120 -9 -38 -26 -89 -37 -112
-12 -24 -22 -68 -24 -98 -2 -29 -12 -84 -24 -121 -33 -104 -41 -155 -52 -318
-17 -258 -15 -786 3 -832 13 -32 31 -188 33 -278 0 -33 -5 -86 -13 -117 l-14
-57 61 -125 c34 -69 62 -130 62 -136 0 -17 50 -100 89 -148 20 -23 59 -57 88
-75 29 -17 55 -40 58 -49 3 -9 24 -35 45 -57 22 -23 40 -45 40 -49 0 -5 24
-24 53 -42 28 -19 54 -38 55 -42 2 -5 17 -15 33 -23 16 -9 29 -22 29 -30 0 -8
8 -23 18 -33 9 -9 25 -30 35 -44 9 -15 30 -34 46 -42 16 -9 38 -32 50 -52 14
-23 35 -41 61 -51 22 -9 40 -19 40 -24 0 -4 31 -27 68 -52 77 -51 189 -98 277
-116 33 -7 76 -17 96 -22 95 -24 186 1 201 56 12 45 0 103 -26 120 -21 14 -60
24 -172 44 -63 12 -172 56 -200 82 -11 10 -26 19 -32 19 -7 0 -22 12 -35 26
-12 14 -42 37 -67 49 -59 31 -135 107 -168 169 -15 27 -36 54 -47 60 -11 6
-33 21 -48 33 -16 13 -34 23 -41 23 -12 0 -38 27 -170 175 -27 30 -54 55 -61
55 -26 0 -104 89 -116 132 -6 23 -25 69 -41 102 l-30 60 -4 125 c-2 69 -8 149
-13 176 -34 174 -62 726 -42 796 6 20 11 87 11 148 0 110 6 141 57 321 9 30
18 82 21 115 2 38 11 68 23 84 10 13 19 34 19 47 0 30 23 119 43 164 35 80 57
140 57 154 0 19 45 137 73 191 12 22 31 48 44 58 13 10 23 24 23 32 0 7 7 18
16 25 8 8 22 29 29 48 8 18 42 66 74 105 99 118 111 134 111 146 0 6 18 22 40
36 29 19 41 33 46 60 9 50 -3 102 -29 120 -25 18 -132 20 -162 3z"/>
</g>
</svg>
