<?xml version="1.0" standalone="no"?>
<!DOCTYPE svg PUBLIC "-//W3C//DTD SVG 20010904//EN"
 "http://www.w3.org/TR/2001/REC-SVG-20010904/DTD/svg10.dtd">
<svg version="1.0" xmlns="http://www.w3.org/2000/svg"
 width="378.988990pt" height="308.459387pt" viewBox="0 0 378.988990 308.459387"
 preserveAspectRatio="xMidYMid meet">
<metadata>
Created by potrace 1.16, written by Peter Selinger 2001-2019
</metadata>
<g transform="translate(-107.843432,430.984897) scale(0.100000,-0.100000)"
fill="#000000" stroke="none">
<path d="M1104 4289 l-19 -21 -3 -195 -4 -196 26 -73 c14 -39 26 -80 26 -91 0
-27 38 -156 71 -246 16 -42 36 -105 45 -140 9 -34 27 -81 40 -104 13 -23 24
-50 24 -61 0 -11 15 -50 34 -88 19 -38 39 -86 45 -106 7 -20 20 -47 30 -60 10
-13 22 -34 26 -48 15 -49 151 -191 526 -553 96 -92 183 -173 195 -180 35 -20
124 -84 208 -151 20 -15 36 -34 36 -41 0 -17 31 -42 63 -50 15 -4 32 -16 38
-26 12 -24 82 -69 129 -84 50 -15 134 -60 151 -81 17 -21 166 -94 191 -94 26
0 89 -33 112 -59 11 -12 24 -21 29 -21 6 0 21 -10 34 -21 15 -15 40 -23 75
-26 29 -3 71 -14 94 -24 23 -11 62 -19 91 -19 36 0 58 -6 77 -21 15 -12 46
-23 69 -26 23 -3 80 -17 127 -33 47 -15 130 -38 185 -50 55 -12 132 -30 170
-40 140 -38 247 -45 345 -21 77 19 150 30 260 40 158 15 204 36 216 98 15 78
-39 121 -134 109 -26 -4 -87 -11 -137 -15 -118 -12 -231 -28 -276 -39 -66 -17
-224 11 -459 79 -19 6 -53 14 -75 19 -79 16 -161 41 -216 65 -33 15 -75 25
-102 25 -24 0 -58 7 -73 15 -16 8 -40 15 -54 15 -14 0 -37 8 -50 18 -44 30
-232 122 -252 122 -30 0 -100 35 -126 63 -13 14 -38 31 -55 38 -18 7 -46 23
-63 35 -18 13 -51 28 -74 33 -30 7 -51 20 -72 45 -16 20 -35 36 -42 36 -6 0
-20 14 -29 30 -10 17 -36 39 -58 50 -21 11 -39 25 -39 30 0 5 -17 18 -37 29
-21 10 -47 28 -57 40 -11 12 -24 21 -31 21 -6 0 -17 11 -25 24 -7 14 -27 30
-44 37 -17 6 -50 30 -72 53 -23 23 -97 93 -164 156 -239 224 -340 324 -340
336 0 7 -15 30 -32 52 -68 83 -106 141 -113 173 -4 17 -20 52 -36 77 -16 25
-29 57 -29 71 0 13 -13 48 -30 78 -16 29 -30 60 -30 69 0 21 -47 158 -67 198
-9 17 -20 49 -24 71 -4 22 -13 59 -18 83 -6 23 -15 59 -19 80 -5 20 -16 51
-25 69 l-17 32 0 176 c0 223 -5 235 -96 235 -39 0 -55 -5 -70 -21z"/>
</g>
</svg>
