<?xml version="1.0" standalone="no"?>
<!DOCTYPE svg PUBLIC "-//W3C//DTD SVG 20010904//EN"
 "http://www.w3.org/TR/2001/REC-SVG-20010904/DTD/svg10.dtd">
<svg version="1.0" xmlns="http://www.w3.org/2000/svg"
 width="273.829683pt" height="162.180690pt" viewBox="0 0 273.829683 162.180690"
 preserveAspectRatio="xMidYMid meet">
<metadata>
Created by potrace 1.16, written by Peter Selinger 2001-2019
</metadata>
<g transform="translate(-173.436586,383.313427) scale(0.100000,-0.100000)"
fill="#000000" stroke="none">
<path d="M4432 3817 c-12 -13 -22 -27 -22 -32 0 -5 -12 -22 -27 -37 -15 -15
-28 -35 -29 -45 -3 -21 -285 -308 -350 -355 -28 -20 -62 -40 -76 -43 -14 -4
-51 -33 -83 -65 -66 -69 -102 -93 -179 -120 -31 -10 -76 -34 -99 -53 -170
-137 -590 -377 -659 -377 -26 0 -138 -50 -180 -80 -23 -17 -48 -30 -57 -30 -8
0 -30 -15 -48 -32 -19 -18 -65 -49 -103 -68 -38 -19 -122 -62 -187 -96 -65
-34 -138 -71 -163 -84 -25 -13 -53 -27 -62 -32 -27 -13 -207 -9 -247 5 -58 20
-102 83 -71 102 7 4 8 26 4 56 l-7 50 30 32 c16 18 35 46 42 62 7 17 17 38 22
47 5 10 9 25 9 33 0 8 5 15 10 15 16 0 12 50 -5 56 -17 7 -55 -34 -48 -52 6
-16 -52 -136 -80 -162 l-24 -22 5 -50 c2 -28 0 -56 -5 -63 -5 -6 -9 -28 -9
-47 1 -26 7 -37 24 -46 13 -6 22 -15 20 -20 -2 -5 15 -19 37 -31 l40 -21 120
-1 120 0 61 32 c34 18 113 58 175 89 63 32 124 67 137 77 12 11 47 29 77 40
34 13 68 35 86 56 17 19 38 35 48 35 9 0 39 15 66 32 56 36 151 78 177 78 24
0 168 69 308 147 106 60 340 214 390 257 8 8 46 24 85 36 l69 23 71 72 c38 39
84 76 100 82 47 17 135 80 167 121 16 20 92 100 169 178 76 77 139 147 139
156 0 9 7 21 15 28 8 7 21 25 29 41 11 22 11 30 2 38 -9 8 -19 4 -34 -12z"/>
</g>
</svg>
