<?xml version="1.0" standalone="no"?>
<!DOCTYPE svg PUBLIC "-//W3C//DTD SVG 20010904//EN"
 "http://www.w3.org/TR/2001/REC-SVG-20010904/DTD/svg10.dtd">
<svg version="1.0" xmlns="http://www.w3.org/2000/svg"
 width="151.095782pt" height="237.919873pt" viewBox="0 0 151.095782 237.919873"
 preserveAspectRatio="xMidYMid meet">
<metadata>
Created by potrace 1.16, written by Peter Selinger 2001-2019
</metadata>
<g transform="translate(-271.036754,399.919873) scale(0.100000,-0.100000)"
fill="#000000" stroke="none">
<path d="M4162 3988 c-7 -7 -12 -16 -12 -22 0 -5 -7 -18 -17 -28 -17 -19 -25
-31 -60 -95 -12 -22 -29 -45 -37 -52 -9 -8 -16 -19 -16 -26 0 -6 -9 -20 -20
-30 -11 -10 -20 -22 -20 -26 0 -8 -45 -71 -79 -110 -35 -42 -71 -107 -78 -144
-2 -10 -12 -29 -23 -40 -11 -12 -20 -27 -20 -33 0 -7 -4 -12 -8 -12 -5 0 -16
-17 -26 -37 -10 -21 -31 -54 -47 -74 -16 -20 -29 -41 -29 -46 0 -5 -13 -22
-30 -36 -16 -15 -30 -30 -31 -35 0 -4 -2 -18 -3 -31 -2 -13 -14 -34 -29 -46
-14 -13 -32 -35 -40 -51 -8 -16 -31 -53 -51 -83 -20 -29 -36 -59 -36 -66 0 -7
-12 -24 -28 -37 -15 -12 -40 -44 -55 -70 -15 -26 -33 -51 -41 -55 -7 -4 -24
-28 -36 -53 -12 -25 -42 -66 -65 -91 -24 -26 -52 -66 -64 -91 -11 -25 -27 -51
-36 -58 -8 -7 -15 -16 -15 -21 0 -11 -83 -121 -104 -139 -9 -7 -16 -17 -16
-22 0 -6 -23 -30 -50 -55 -28 -25 -49 -48 -46 -51 10 -10 -25 -61 -51 -74 -14
-7 -28 -21 -29 -32 -1 -10 -16 -33 -32 -50 -15 -17 -28 -38 -27 -46 1 -8 -4
-22 -10 -30 -7 -8 -11 -32 -10 -53 1 -21 -4 -42 -12 -48 l-13 -11 14 -20 c8
-11 12 -26 10 -33 -3 -7 -1 -16 5 -19 5 -4 8 -18 5 -32 -8 -43 11 -54 87 -54
l69 0 58 32 c65 37 72 43 91 80 13 26 9 48 -10 48 -5 0 -25 -18 -45 -39 -19
-22 -48 -43 -64 -46 -17 -4 -32 -11 -35 -16 -4 -5 -28 -9 -54 -9 l-48 0 -7 38
c-9 58 -7 152 4 152 6 0 10 14 10 30 0 17 5 30 10 30 6 0 10 6 10 13 0 8 9 22
20 32 11 10 20 23 20 28 0 5 10 19 23 31 13 12 32 36 42 54 11 18 23 32 27 32
4 0 8 6 8 13 0 7 18 31 40 52 22 21 40 43 40 47 0 5 27 40 60 80 33 39 60 77
60 83 0 7 7 18 15 25 8 7 26 36 41 66 15 30 39 65 54 77 15 13 40 46 55 73 15
27 37 60 49 74 13 14 32 41 44 60 12 20 35 48 52 63 16 15 30 34 30 41 0 8 16
35 35 60 19 26 35 52 35 60 0 7 18 34 40 59 22 25 40 54 40 66 0 12 16 38 35
60 19 21 35 41 35 44 0 3 25 42 55 87 30 45 55 85 55 89 0 4 9 16 20 26 11 10
20 29 20 41 0 13 9 29 20 36 11 7 20 22 20 33 0 11 18 38 40 60 21 22 39 47
40 56 0 9 9 24 20 34 11 10 20 22 20 26 0 5 18 32 40 61 22 29 40 58 40 65 0
6 9 15 20 18 11 4 20 15 20 26 0 11 7 22 15 25 8 4 15 14 15 24 0 9 9 25 21
36 l20 18 -17 13 c-22 16 -27 16 -42 1z"/>
</g>
</svg>
