<?xml version="1.0" standalone="no"?>
<!DOCTYPE svg PUBLIC "-//W3C//DTD SVG 20010904//EN"
 "http://www.w3.org/TR/2001/REC-SVG-20010904/DTD/svg10.dtd">
<svg version="1.0" xmlns="http://www.w3.org/2000/svg"
 width="108.135653pt" height="399.000000pt" viewBox="0 0 108.135653 399.000000"
 preserveAspectRatio="xMidYMid meet">
<metadata>
Created by potrace 1.16, written by Peter Selinger 2001-2019
</metadata>
<g transform="translate(-144.864347,509.000000) scale(0.100000,-0.100000)"
fill="#000000" stroke="none">
<path d="M1660 5068 c-27 -29 -26 -79 4 -137 13 -25 27 -58 30 -73 l6 -27 83
-39 c46 -23 101 -58 127 -83 25 -24 57 -52 71 -61 25 -16 59 -93 59 -133 0
-22 34 -88 86 -166 32 -48 46 -80 53 -125 9 -59 50 -182 95 -284 14 -31 29
-94 35 -145 7 -49 20 -118 31 -152 l20 -62 0 -386 0 -386 -20 -39 c-11 -22
-20 -49 -20 -60 0 -12 -8 -35 -17 -53 -9 -18 -20 -54 -24 -82 -4 -27 -15 -70
-24 -95 -10 -25 -22 -65 -26 -90 -17 -97 -27 -128 -47 -148 -12 -12 -22 -32
-22 -43 0 -37 -39 -90 -152 -205 -83 -85 -108 -117 -108 -138 0 -17 -12 -39
-35 -62 -19 -19 -35 -42 -35 -52 -1 -39 -32 -97 -114 -221 -86 -129 -172 -221
-205 -221 -10 0 -27 -10 -39 -23 -30 -32 -31 -123 -2 -155 l21 -22 56 0 56 0
119 119 c65 66 118 126 118 134 0 8 9 22 20 32 11 10 20 24 20 30 0 7 7 18 15
25 19 16 95 169 95 192 0 9 9 26 21 37 25 23 49 67 49 89 0 8 43 58 95 112 88
89 165 195 165 226 0 7 10 22 22 33 27 26 45 78 54 154 4 31 11 60 15 63 5 3
9 20 9 37 0 18 9 43 20 57 13 16 20 41 20 70 0 25 7 58 15 74 8 15 15 39 15
52 0 13 9 39 20 59 l20 36 0 470 0 470 -16 31 c-9 17 -20 56 -24 87 -5 31 -13
89 -19 129 -6 40 -22 94 -35 120 -30 60 -80 209 -96 287 -8 37 -27 81 -50 115
-49 73 -72 118 -81 160 -15 71 -50 145 -86 182 -20 21 -41 38 -46 38 -5 0 -35
22 -66 48 -31 26 -75 56 -99 67 -31 13 -47 28 -59 54 -9 20 -27 51 -40 69
l-24 32 -54 0 c-43 0 -58 -5 -75 -22z"/>
</g>
</svg>
