<?xml version="1.0" standalone="no"?>
<!DOCTYPE svg PUBLIC "-//W3C//DTD SVG 20010904//EN"
 "http://www.w3.org/TR/2001/REC-SVG-20010904/DTD/svg10.dtd">
<svg version="1.0" xmlns="http://www.w3.org/2000/svg"
 width="330.424272pt" height="318.717401pt" viewBox="0 0 330.424272 318.717401"
 preserveAspectRatio="xMidYMid meet">
<metadata>
Created by potrace 1.16, written by Peter Selinger 2001-2019
</metadata>
<g transform="translate(-70.000000,456.935140) scale(0.100000,-0.100000)"
fill="#000000" stroke="none">
<path d="M3739 4560 c-26 -15 -31 -70 -13 -141 9 -35 21 -70 27 -77 12 -15 22
-69 37 -207 6 -49 15 -103 21 -120 5 -16 14 -86 19 -154 l10 -123 -16 -72 c-9
-39 -23 -81 -31 -94 -8 -13 -18 -45 -22 -70 -15 -84 -52 -205 -71 -233 -11
-15 -20 -35 -20 -44 0 -9 -11 -30 -24 -46 -13 -15 -27 -47 -31 -70 -6 -36 -18
-69 -55 -154 -5 -11 -17 -40 -28 -66 -11 -27 -36 -58 -61 -78 -22 -18 -41 -38
-41 -45 0 -14 -132 -186 -214 -278 -19 -21 -41 -53 -50 -72 -9 -19 -21 -38
-26 -41 -6 -4 -17 -21 -24 -40 -19 -45 -181 -218 -240 -255 -26 -17 -77 -43
-113 -57 -59 -23 -86 -41 -181 -119 -64 -53 -151 -85 -292 -109 -91 -15 -152
-31 -185 -48 -58 -30 -214 -76 -300 -88 -139 -19 -182 -28 -225 -44 -36 -14
-96 -19 -290 -25 -135 -4 -265 -13 -290 -19 -25 -7 -97 -16 -160 -21 -63 -4
-116 -8 -117 -9 -22 -13 -33 -40 -33 -82 l0 -50 36 -15 c44 -18 283 -14 354 6
26 7 138 15 270 19 124 4 231 10 239 15 25 16 104 33 256 56 132 19 307 71
373 111 20 11 83 27 153 38 71 12 141 30 175 45 31 14 63 26 70 26 8 0 33 17
57 38 23 21 53 46 67 55 14 10 40 29 59 42 19 14 45 25 59 25 42 0 171 96 284
212 59 61 108 115 108 120 0 5 16 33 35 62 19 29 35 58 35 63 0 6 12 22 28 37
15 15 43 50 62 76 19 27 65 86 103 131 37 45 67 86 67 90 0 5 20 27 45 50 25
23 45 46 45 51 0 8 33 85 91 216 10 23 19 52 19 63 0 12 11 34 25 51 14 16 25
38 25 48 0 10 8 34 19 52 16 29 32 73 62 174 5 17 9 44 9 60 0 16 11 46 25 66
14 21 25 51 25 70 0 18 7 60 14 92 18 76 11 309 -11 381 -9 28 -19 95 -23 150
-9 117 -24 187 -45 218 -8 12 -15 40 -15 62 0 59 -9 81 -36 94 -30 13 -103 14
-125 1z"/>
</g>
</svg>
