<?xml version="1.0" standalone="no"?>
<!DOCTYPE svg PUBLIC "-//W3C//DTD SVG 20010904//EN"
 "http://www.w3.org/TR/2001/REC-SVG-20010904/DTD/svg10.dtd">
<svg version="1.0" xmlns="http://www.w3.org/2000/svg"
 width="2480.000000pt" height="1748.000000pt" viewBox="0 0 2480.000000 1748.000000"
 preserveAspectRatio="xMidYMid meet">
<metadata>
Created by potrace 1.16, written by Peter Selinger 2001-2019
</metadata>
<g transform="translate(0.000000,1748.000000) scale(0.100000,-0.100000)"
fill="#000000" stroke="none">
<path d="M1828 15909 c0 -19 -2 -70 -3 -114 -1 -44 -5 -196 -9 -337 -6 -190
-6 -258 3 -258 6 0 11 17 12 38 0 20 2 89 3 152 7 252 8 541 2 547 -3 4 -7 -9
-8 -28z"/>
<path d="M7727 15846 c-38 -29 -38 -106 -1 -147 13 -14 31 -19 69 -19 60 0 69
7 85 72 8 32 19 49 32 54 27 8 32 0 29 -47 -3 -51 6 -79 25 -79 11 0 14 16 14
70 0 80 -3 83 -101 96 l-52 7 6 -29 c4 -16 9 -38 12 -49 8 -29 -6 -44 -46 -49
-61 -7 -91 43 -48 83 13 12 19 26 16 35 -8 19 -16 20 -40 2z"/>
<path d="M8277 15843 c-4 -3 -7 -25 -7 -48 0 -45 -14 -67 -37 -58 -17 7 -34
-14 -26 -32 2 -7 12 -11 22 -8 11 3 22 -5 31 -21 l13 -26 22 20 c18 17 35 20
103 20 l82 0 0 29 c0 26 -9 35 -85 80 -82 50 -105 58 -118 44z m103 -69 c21
-21 22 -27 10 -34 -26 -17 -68 -11 -84 11 -34 49 31 70 74 23z"/>
<path d="M8732 15824 c-27 -22 -32 -32 -32 -69 0 -79 67 -127 125 -89 20 13
29 14 59 3 49 -18 82 -1 95 47 9 32 7 43 -11 75 -11 21 -29 40 -39 42 -26 7
-24 -17 3 -53 18 -25 20 -33 10 -55 -6 -14 -20 -25 -30 -25 -20 0 -52 29 -52
48 0 21 -20 13 -32 -13 -16 -35 -54 -43 -80 -17 -25 25 -18 67 12 75 12 3 20
14 20 25 0 32 -13 33 -48 6z"/>
<path d="M9205 15830 c-12 -19 -10 -169 2 -181 19 -19 33 0 33 47 0 37 3 44
19 44 12 0 33 -18 52 -45 27 -38 38 -45 76 -51 38 -5 48 -3 69 17 19 18 24 32
24 75 0 49 -2 54 -34 73 -43 27 -46 26 -46 -5 0 -17 6 -28 19 -31 25 -6 33
-27 21 -58 -7 -18 -17 -25 -37 -25 -21 0 -44 18 -100 75 -72 75 -86 84 -98 65z"/>
<path d="M9919 15803 c-2 -28 -9 -47 -19 -53 -6 -4 -50 -8 -97 -9 -81 -2 -110
-11 -97 -32 2 -4 53 -8 112 -8 59 -1 114 -2 122 -3 51 -5 67 16 31 39 -11 7
-21 24 -23 39 -3 25 -27 47 -29 27z"/>
<path d="M13679 15768 c-1 -7 -1 -21 0 -30 3 -23 -31 -30 -118 -26 -62 3 -72
1 -77 -15 -3 -10 -4 -21 -1 -24 3 -2 64 -6 136 -7 142 -2 158 4 115 45 -13 12
-24 33 -24 46 0 24 -29 34 -31 11z"/>
<path d="M14696 15769 c-2 -8 -7 -27 -11 -42 l-6 -28 -95 3 -95 3 3 -25 3 -25
134 0 c142 0 162 7 122 42 -12 9 -21 27 -21 39 0 27 -28 53 -34 33z"/>
<path d="M16665 15698 l-10 -33 -95 -5 c-87 -5 -95 -7 -95 -25 0 -19 8 -20
128 -25 70 -3 132 -3 137 -2 16 6 12 22 -15 54 -14 16 -25 38 -25 49 0 30 -15
22 -25 -13z"/>
<path d="M17660 15691 c0 -24 -5 -31 -30 -36 -16 -4 -42 -6 -57 -5 -16 1 -47
2 -70 1 -39 -1 -43 -4 -43 -26 l0 -24 140 1 c153 1 162 5 115 52 -14 14 -25
34 -25 46 0 11 -7 20 -15 20 -10 0 -15 -10 -15 -29z"/>
<path d="M18667 15703 c-4 -3 -7 -17 -7 -30 0 -17 -6 -23 -22 -25 -36 -2 -42
-3 -53 -10 -5 -3 -34 -2 -63 2 -42 5 -55 4 -59 -7 -3 -8 -1 -19 4 -24 8 -8
170 -14 256 -10 24 1 21 18 -8 53 -14 16 -25 36 -25 44 0 15 -12 19 -23 7z"/>
<path d="M19675 15698 c-2 -7 -5 -24 -7 -38 -3 -25 -4 -25 -100 -24 -96 1 -98
0 -98 -23 l0 -23 140 0 c131 0 140 1 140 19 0 10 -6 21 -14 24 -8 3 -20 22
-27 41 -13 37 -26 46 -34 24z"/>
<path d="M13510 15552 c-46 -16 -55 -103 -15 -146 35 -38 96 -37 136 3 24 24
28 35 23 60 -6 28 -4 31 19 31 33 0 47 -19 45 -62 -1 -37 7 -58 23 -58 6 0 9
31 7 78 l-3 77 -51 6 c-29 4 -57 10 -64 14 -20 12 -30 -17 -24 -65 5 -41 4
-47 -19 -59 -60 -32 -113 25 -68 73 31 33 26 60 -9 48z"/>
<path d="M14548 15518 c0 -18 -1 -40 0 -47 1 -18 -27 -40 -50 -41 -25 0 -11
-27 18 -34 13 -4 24 -11 24 -16 0 -14 34 -12 48 2 7 7 49 15 95 18 111 7 112
20 5 93 -100 68 -137 75 -140 25z m98 -29 c40 -25 43 -36 9 -49 -36 -14 -75 3
-75 33 0 43 17 47 66 16z"/>
<path d="M16491 15496 c-29 -16 -50 -52 -51 -88 0 -19 11 -35 37 -57 43 -35
63 -38 103 -14 24 14 34 15 55 5 38 -18 59 -15 83 11 26 27 28 66 7 106 -17
34 -39 45 -55 26 -9 -11 -7 -18 9 -32 24 -20 27 -42 7 -68 -12 -17 -18 -18
-40 -7 -16 7 -26 20 -26 32 0 26 -27 26 -35 -1 -8 -23 -47 -41 -70 -33 -33 13
-36 41 -10 72 24 29 33 62 18 62 -5 -1 -19 -7 -32 -14z"/>
<path d="M17455 15477 c-3 -12 -5 -54 -3 -92 2 -57 6 -70 21 -73 14 -3 17 4
17 41 0 72 20 77 70 19 33 -40 49 -51 83 -56 39 -7 44 -4 71 25 24 27 27 38
23 73 -6 42 -47 91 -71 83 -20 -7 -19 -45 3 -52 30 -9 37 -44 14 -67 -28 -27
-69 -15 -101 32 -30 41 -88 90 -108 90 -8 0 -16 -10 -19 -23z"/>
<path d="M19612 15481 c-8 -5 -33 -6 -56 -4 -38 5 -46 2 -70 -23 -35 -39 -35
-83 2 -121 35 -39 128 -54 167 -29 13 9 33 16 44 16 49 0 69 92 29 131 -38 35
-88 48 -116 30z m82 -63 c23 -33 20 -45 -17 -62 -43 -21 -146 -14 -164 11 -15
20 -17 45 -3 59 5 5 45 10 88 12 74 3 81 2 96 -20z"/>
<path d="M20491 15454 c-32 -41 -28 -96 9 -127 38 -32 78 -41 148 -32 42 5 62
14 84 35 34 34 36 66 5 111 -20 30 -28 34 -74 37 -45 3 -53 0 -72 -24 -12 -15
-21 -41 -21 -59 0 -39 -21 -51 -44 -26 -18 20 -21 47 -6 56 13 8 13 42 1 50
-5 3 -19 -7 -30 -21z m209 -38 c20 -25 8 -58 -24 -69 -25 -8 -32 -7 -48 13
-21 26 -24 56 -5 63 25 11 65 7 77 -7z"/>
<path d="M21517 15446 c-21 -19 -37 -43 -37 -56 0 -34 41 -100 67 -106 29 -8
71 3 90 22 14 13 17 13 32 -1 24 -21 84 -19 103 3 38 43 22 126 -27 138 -14 3
-41 3 -60 0 -25 -5 -48 -1 -81 14 -26 11 -47 20 -48 20 -1 0 -19 -15 -39 -34z
m84 -36 c19 -11 24 -35 13 -64 -8 -21 -58 -21 -78 0 -44 43 7 94 65 64z m148
-22 c18 -49 -14 -80 -55 -53 -41 26 -25 75 23 75 15 0 27 -8 32 -22z"/>
<path d="M18658 15443 c-13 -28 -15 -28 -108 -29 -90 0 -95 -2 -98 -22 -3 -21
0 -22 70 -23 40 0 103 -2 140 -4 79 -5 91 5 54 44 -14 15 -26 32 -26 38 0 25
-19 22 -32 -4z"/>
<path d="M22746 15419 c-3 -17 -6 -44 -6 -60 0 -35 -10 -41 -41 -24 -13 8 -31
17 -39 21 -8 4 -19 13 -25 20 -5 7 -28 18 -50 23 -22 5 -50 13 -62 16 -20 6
-23 4 -23 -18 0 -22 6 -27 38 -33 43 -8 123 -46 169 -80 17 -13 40 -24 51 -24
17 0 20 10 25 81 3 45 3 88 0 95 -9 25 -30 15 -37 -17z"/>
<path d="M23540 15417 c-34 -17 -52 -82 -35 -124 16 -37 62 -58 110 -49 48 9
75 38 75 80 0 39 11 50 41 41 22 -7 22 -13 3 -87 -5 -21 -3 -28 8 -28 28 0 53
40 52 81 -2 46 -17 67 -61 86 -40 16 -160 17 -193 0z m90 -52 c7 -8 10 -25 6
-40 -5 -21 -12 -25 -45 -25 -51 0 -69 21 -47 55 19 29 66 34 86 10z"/>
<path d="M12000 15270 c0 -5 5 -10 10 -10 6 0 10 5 10 10 0 6 -4 10 -10 10 -5
0 -10 -4 -10 -10z"/>
<path d="M8600 15165 c0 -8 5 -15 10 -15 6 0 10 7 10 15 0 8 -4 15 -10 15 -5
0 -10 -7 -10 -15z"/>
<path d="M1809 15158 c-5 -120 -4 -218 3 -218 4 0 8 17 9 38 0 20 3 72 5 115
3 48 1 77 -6 77 -5 0 -10 -6 -11 -12z"/>
<path d="M7692 15150 c3 -12 18 -14 76 -12 58 3 77 0 92 -13 12 -11 20 -13 25
-6 3 6 17 11 31 11 13 0 24 4 24 9 0 13 -57 22 -158 24 -77 2 -92 0 -90 -13z"/>
<path d="M8355 15159 c-4 -6 -26 -10 -49 -8 -22 1 -58 1 -78 0 -36 -1 -38 -3
-38 -33 0 -32 0 -32 16 -10 13 19 24 22 78 22 45 0 67 -5 76 -15 11 -14 15
-13 27 5 12 17 12 24 3 35 -15 18 -26 19 -35 4z"/>
<path d="M9234 15153 c-32 -6 -63 -93 -34 -93 6 0 10 6 10 14 0 7 12 25 27 40
23 23 32 26 65 21 25 -4 38 -3 38 4 0 6 -3 11 -7 12 -56 5 -81 6 -99 2z"/>
<path d="M9811 15141 c-11 -11 -27 -33 -35 -49 -16 -32 -41 -46 -59 -35 -7 4
-6 -1 2 -10 22 -27 39 -20 76 32 20 27 42 52 51 55 8 3 12 10 9 16 -9 15 -23
12 -44 -9z"/>
<path d="M9700 15140 c0 -5 5 -10 10 -10 6 0 10 5 10 10 0 6 -4 10 -10 10 -5
0 -10 -4 -10 -10z"/>
<path d="M8845 15126 c-19 -14 -19 -15 -2 -22 22 -8 30 -1 25 21 -3 14 -5 14
-23 1z"/>
<path d="M8665 15119 c-13 -5 2 -8 44 -8 35 -1 62 1 60 3 -10 8 -86 13 -104 5z"/>
<path d="M8798 15113 c7 -3 16 -2 19 1 4 3 -2 6 -13 5 -11 0 -14 -3 -6 -6z"/>
<path d="M7950 15074 c0 -14 3 -14 15 -4 8 7 15 14 15 16 0 2 -7 4 -15 4 -8 0
-15 -7 -15 -16z"/>
<path d="M12001 15074 c0 -11 3 -14 6 -6 3 7 2 16 -1 19 -3 4 -6 -2 -5 -13z"/>
<path d="M9860 15065 c-10 -12 -10 -15 4 -15 9 0 16 7 16 15 0 8 -2 15 -4 15
-2 0 -9 -7 -16 -15z"/>
<path d="M9364 15055 c-4 -8 -17 -15 -30 -15 -24 0 -33 -23 -14 -35 10 -6 60
41 60 56 0 14 -10 10 -16 -6z"/>
<path d="M7697 15034 c-10 -10 -9 -54 2 -54 8 0 11 8 20 45 3 12 -13 18 -22 9z"/>
<path d="M8192 15015 l3 -29 65 1 c35 1 73 -3 83 -9 13 -7 23 -6 30 1 6 6 30
11 54 11 28 0 43 4 43 13 0 9 -30 11 -127 8 -114 -3 -128 -1 -141 15 -12 18
-13 17 -10 -11z"/>
<path d="M7844 15015 c21 -16 32 -13 21 4 -3 6 -14 11 -23 11 -15 -1 -15 -2 2
-15z"/>
<path d="M8733 15020 c-26 -11 -43 -40 -43 -74 0 -39 17 -40 24 -1 5 25 15 39
36 50 49 25 35 46 -17 25z"/>
<path d="M8800 15010 c20 -13 43 -13 35 0 -3 6 -16 10 -28 10 -18 0 -19 -2 -7
-10z"/>
<path d="M9702 14963 c3 -16 12 -18 76 -15 57 2 74 -1 78 -12 5 -13 9 -13 29
0 13 9 39 14 57 12 24 -2 33 1 33 12 0 8 -6 14 -13 12 -30 -6 -200 -4 -230 3
-30 6 -33 5 -30 -12z"/>
<path d="M9190 14934 c0 -14 3 -14 15 -4 8 7 15 14 15 16 0 2 -7 4 -15 4 -8 0
-15 -7 -15 -16z"/>
<path d="M9298 14933 c-8 -10 -22 -30 -31 -45 -19 -30 -54 -37 -76 -15 -11 10
-11 8 -2 -10 9 -17 21 -23 45 -23 27 0 38 7 65 45 18 25 40 45 49 45 15 0 15
2 2 10 -22 14 -35 12 -52 -7z"/>
<path d="M7696 14925 c-8 -21 2 -37 17 -28 7 4 37 6 69 5 61 -3 90 14 36 22
-18 2 -44 4 -58 3 -14 0 -32 3 -41 7 -11 5 -19 1 -23 -9z"/>
<path d="M8355 14918 c-9 -20 -19 -23 -73 -26 -38 -2 -69 2 -78 9 -11 9 -14 7
-14 -12 0 -24 1 -24 83 -21 85 4 107 15 107 54 0 25 -13 23 -25 -4z"/>
<path d="M1800 14728 c0 -112 -3 -267 -7 -345 -4 -105 -3 -143 5 -143 9 0 12
38 12 128 0 70 3 225 7 345 5 162 3 217 -5 217 -9 0 -12 -56 -12 -202z"/>
<path d="M8838 14903 c-10 -2 -18 -12 -18 -20 0 -14 3 -14 20 2 17 15 26 28
18 24 -2 -1 -11 -3 -20 -6z"/>
<path d="M9866 14896 c11 -28 -40 -48 -108 -44 -55 3 -63 1 -66 -16 -4 -18 2
-18 79 -13 68 4 86 9 100 26 17 20 15 61 -2 61 -5 0 -6 -6 -3 -14z"/>
<path d="M9357 14863 c-4 -3 -7 -11 -7 -17 0 -6 5 -5 12 2 6 6 9 14 7 17 -3 3
-9 2 -12 -2z"/>
<path d="M7748 14833 c-30 -5 -58 -36 -58 -65 0 -15 6 -12 28 12 21 24 36 31
70 32 23 1 48 -4 54 -10 15 -15 32 -16 23 -2 -7 11 -73 41 -84 39 -3 -1 -18
-4 -33 -6z"/>
<path d="M15570 14777 c-25 -30 -55 -69 -68 -86 -29 -37 -49 -39 -327 -44
-175 -4 -200 -6 -203 -20 -3 -15 12 -17 130 -18 325 -3 372 0 385 18 26 39 70
96 101 133 19 22 32 47 30 56 -2 12 -16 2 -48 -39z"/>
<path d="M8791 14800 c-64 -4 -86 -9 -95 -22 -15 -24 0 -34 20 -13 14 14 28
16 73 10 31 -3 63 -8 71 -10 8 -3 22 0 30 5 13 8 13 11 0 22 -11 9 -39 12 -99
8z"/>
<path d="M16430 14800 c0 -5 5 -10 11 -10 5 0 7 5 4 10 -3 6 -8 10 -11 10 -2
0 -4 -4 -4 -10z"/>
<path d="M20684 14785 c-42 -13 -122 -64 -182 -117 -38 -33 -31 -35 -133 37
-42 30 -89 52 -89 42 0 -2 27 -21 60 -42 33 -21 74 -54 91 -73 17 -19 34 -31
37 -26 4 5 30 28 58 51 97 81 243 93 372 31 34 -16 62 -36 62 -43 0 -16 18
-30 27 -21 17 17 -119 131 -193 162 -39 17 -55 16 -110 -1z"/>
<path d="M8225 14780 c-26 -4 -30 -10 -32 -40 -1 -19 0 -28 4 -20 11 30 37 40
105 40 48 0 68 4 68 13 0 13 -89 18 -145 7z"/>
<path d="M9195 14780 c-3 -5 -2 -10 4 -10 5 0 13 5 16 10 3 6 2 10 -4 10 -5 0
-13 -4 -16 -10z"/>
<path d="M9292 14778 c-5 -7 -17 -28 -26 -45 -19 -37 -58 -45 -75 -15 -9 14
-10 15 -11 1 0 -9 9 -24 20 -34 28 -26 61 -13 99 40 18 25 37 45 42 45 6 0 7
5 4 10 -9 14 -41 12 -53 -2z"/>
<path d="M12940 14785 c0 -6 107 -85 116 -85 4 0 12 -6 18 -14 18 -23 123 -56
178 -56 39 0 67 8 122 38 39 20 73 41 75 46 2 6 15 20 27 33 29 29 30 33 4 33
-12 0 -31 -11 -43 -24 -46 -49 -197 -83 -288 -64 -32 7 -165 74 -174 88 -6 10
-35 14 -35 5z"/>
<path d="M13553 14782 c-24 -2 -43 -7 -43 -13 0 -12 97 -12 104 0 8 12 -12 17
-61 13z"/>
<path d="M23490 14741 c0 -28 5 -53 10 -56 6 -3 10 -12 10 -20 0 -8 10 -25 23
-38 12 -13 35 -40 50 -60 34 -44 119 -103 207 -142 70 -31 160 -46 160 -26 0
6 -12 11 -27 12 -79 2 -144 30 -245 106 -84 64 -148 154 -148 210 0 29 -17 63
-30 63 -6 0 -10 -22 -10 -49z"/>
<path d="M13638 14769 c-8 -5 25 -9 79 -9 50 0 100 -3 110 -6 13 -5 15 -4 8 4
-12 13 -178 23 -197 11z"/>
<path d="M20055 14738 c-105 -65 -123 -78 -129 -95 -10 -26 0 -26 28 0 14 13
54 44 88 68 62 42 65 43 145 44 95 0 96 13 2 20 -62 5 -67 4 -134 -37z"/>
<path d="M22823 14717 c-33 -34 -105 -102 -158 -152 -54 -49 -108 -101 -119
-114 -12 -13 -34 -32 -50 -42 -29 -18 -30 -18 -65 11 -20 16 -54 45 -76 65
-23 21 -41 31 -44 24 -2 -6 12 -23 30 -38 19 -14 57 -48 86 -74 57 -54 72 -55
100 -9 10 16 63 71 118 122 198 185 255 240 255 249 0 27 -23 14 -77 -42z"/>
<path d="M13854 14763 c10 -10 106 -10 106 -1 0 5 -25 8 -57 8 -31 0 -53 -3
-49 -7z"/>
<path d="M21763 14752 c-23 -9 -45 -21 -49 -25 -5 -4 -28 -16 -51 -27 -24 -10
-43 -24 -43 -29 0 -6 -6 -11 -13 -11 -28 0 -117 -128 -117 -168 0 -7 -5 -23
-12 -35 -7 -12 -13 -38 -13 -57 0 -25 -6 -37 -23 -46 -20 -10 -27 -7 -54 18
-17 16 -33 26 -37 23 -3 -3 10 -18 29 -33 19 -14 47 -39 62 -54 14 -16 29 -25
31 -21 4 6 17 97 21 145 1 3 4 10 9 14 4 4 7 14 7 23 0 30 47 116 86 157 21
22 70 55 107 74 37 18 70 37 73 42 3 4 25 8 50 8 28 0 43 4 39 10 -9 15 -54
11 -102 -8z"/>
<path d="M9706 14748 c-23 -13 -22 -43 2 -32 9 4 27 7 39 7 14 -1 20 4 17 12
-7 18 -37 24 -58 13z"/>
<path d="M16950 14752 c0 -10 53 -55 92 -78 49 -29 94 -46 145 -57 45 -9 61
-8 108 8 30 10 63 27 72 38 41 45 99 59 248 58 77 -1 145 3 152 7 7 4 -64 9
-156 10 l-169 3 -46 -31 c-96 -65 -292 -49 -418 34 -16 10 -28 14 -28 8z"/>
<path d="M9830 14741 c0 -10 30 -24 37 -17 3 3 2 9 -2 15 -8 13 -35 15 -35 2z"/>
<path d="M17814 14731 c3 -5 36 -9 73 -9 44 0 62 3 52 9 -18 11 -132 12 -125
0z"/>
<path d="M7850 14715 c-14 -17 -125 -21 -135 -5 -12 20 -26 9 -23 -17 2 -18 8
-27 17 -25 8 2 68 3 133 4 81 0 118 4 118 12 0 6 -16 11 -40 10 -26 0 -40 4
-40 12 0 20 -17 25 -30 9z"/>
<path d="M16430 14714 c0 -8 5 -12 10 -9 6 4 8 11 5 16 -9 14 -15 11 -15 -7z"/>
<path d="M18870 14719 c0 -5 14 -36 31 -67 18 -31 39 -70 48 -87 22 -42 42
-65 52 -60 8 5 -36 91 -52 100 -5 4 -9 17 -9 31 0 27 24 32 49 10 31 -27 118
-67 173 -78 51 -11 61 -9 129 16 41 15 98 43 126 63 50 34 55 35 85 22 18 -7
48 -23 66 -35 18 -13 54 -31 80 -40 26 -10 58 -26 71 -36 24 -18 64 -26 46 -9
-19 17 -128 71 -145 71 -10 0 -23 7 -31 16 -7 8 -29 24 -48 34 -20 10 -45 27
-55 39 l-19 21 -31 -31 c-45 -45 -83 -61 -151 -66 -33 -2 -65 -9 -71 -14 -7
-6 -15 -6 -18 -1 -3 5 -36 12 -73 16 -67 7 -166 43 -212 78 -27 20 -41 23 -41
7z"/>
<path d="M9357 14703 c-4 -3 -7 -11 -7 -17 0 -6 5 -5 12 2 6 6 9 14 7 17 -3 3
-9 2 -12 -2z"/>
<path d="M8190 14660 c0 -23 22 -27 39 -6 9 11 8 15 -5 20 -26 10 -34 7 -34
-14z"/>
<path d="M16638 14660 c-20 -11 -40 -24 -43 -30 -3 -5 -17 -10 -29 -10 -13 0
-29 -7 -36 -14 -6 -8 -31 -23 -56 -32 -42 -16 -44 -18 -44 -58 l0 -41 19 31
c12 19 46 46 88 69 63 35 74 37 158 38 128 2 206 -23 252 -80 35 -43 53 -53
53 -31 0 9 -86 97 -133 134 -59 48 -163 59 -229 24z"/>
<path d="M8270 14660 c0 -5 23 -10 50 -10 28 0 50 5 50 10 0 6 -22 10 -50 10
-27 0 -50 -4 -50 -10z"/>
<path d="M9700 14648 c0 -3 -3 -13 -6 -22 -8 -21 19 -21 36 -1 7 8 17 12 23 8
15 -9 90 -4 102 8 5 5 0 9 -15 10 -87 4 -140 3 -140 -3z"/>
<path d="M14121 14645 c-46 -14 -219 -127 -203 -133 5 -1 33 11 61 28 29 16
58 30 66 30 8 0 17 5 20 10 4 6 16 8 26 5 11 -4 26 -2 34 5 17 14 106 7 208
-18 74 -19 97 -13 51 12 -10 6 -33 21 -50 33 -17 12 -57 26 -89 32 -70 13 -69
13 -124 -4z"/>
<path d="M16430 14640 c0 -5 5 -10 10 -10 6 0 10 5 10 10 0 6 -4 10 -10 10 -5
0 -10 -4 -10 -10z"/>
<path d="M20729 14629 c-20 -20 -20 -22 -3 -40 21 -23 28 -24 48 -3 22 21 20
41 -4 54 -16 8 -24 6 -41 -11z"/>
<path d="M9196 14615 c-14 -11 -17 -20 -11 -42 l7 -28 10 27 c5 15 18 30 29
33 11 4 17 11 14 16 -9 13 -27 11 -49 -6z"/>
<path d="M7734 14610 c-42 -17 -71 -88 -44 -105 6 -3 10 4 10 18 0 13 11 34
24 46 21 20 30 22 72 16 44 -6 47 -6 34 8 -19 19 -69 28 -96 17z"/>
<path d="M9345 14590 c20 -22 31 -20 22 5 -4 8 -14 15 -23 15 -16 0 -16 -2 1
-20z"/>
<path d="M21695 14586 c-24 -17 -14 -43 22 -57 22 -8 30 -7 40 6 18 25 -2 64
-33 65 -5 0 -19 -6 -29 -14z"/>
<path d="M8208 14550 c-18 -19 -28 -36 -24 -46 3 -9 6 -31 6 -50 l0 -34 129 0
c72 0 132 4 135 9 7 11 -90 19 -107 10 -7 -4 -41 -4 -77 0 -64 6 -65 6 -68 38
-5 54 36 80 118 75 11 0 10 3 -4 14 -33 23 -74 17 -108 -16z"/>
<path d="M9840 14550 c-8 -5 -24 -12 -35 -15 -15 -6 -17 -8 -5 -12 60 -18 71
-38 48 -88 -14 -30 -44 -40 -95 -30 -33 6 -35 5 -24 -9 25 -30 120 -15 140 21
10 19 3 143 -8 142 -3 0 -13 -4 -21 -9z"/>
<path d="M23480 14550 c0 -5 5 -10 10 -10 6 0 10 5 10 10 0 6 -4 10 -10 10 -5
0 -10 -4 -10 -10z"/>
<path d="M9590 14525 c0 -21 3 -24 18 -16 17 9 72 4 82 -8 3 -4 20 1 38 10 38
19 28 25 -48 28 -30 1 -63 4 -72 7 -14 4 -18 -1 -18 -21z"/>
<path d="M14420 14537 c0 -8 9 -22 19 -31 17 -15 50 -18 265 -21 198 -3 246
-1 246 9 0 33 -22 35 -410 40 -52 1 -101 5 -107 9 -8 5 -13 3 -13 -6z"/>
<path d="M9192 14516 c-14 -31 -7 -37 27 -25 14 6 47 8 72 5 35 -5 49 -3 59 9
11 13 8 15 -16 17 -16 1 -46 0 -67 -1 -21 -1 -44 2 -51 8 -10 8 -16 5 -24 -13z"/>
<path d="M18615 14519 c-27 -11 -66 -28 -85 -37 -38 -19 -110 -79 -110 -93 0
-16 25 -10 37 9 18 29 155 82 210 82 104 -1 207 -40 247 -94 10 -14 24 -33 31
-42 7 -11 14 -13 18 -7 4 6 -16 34 -43 62 -28 28 -50 55 -50 59 0 5 -16 16
-35 25 -19 9 -35 21 -35 26 0 13 -57 31 -99 31 -20 -1 -58 -10 -86 -21z"/>
<path d="M16718 14505 c-12 -28 -6 -39 28 -49 18 -5 23 -2 27 21 3 15 3 33 0
40 -9 22 -43 15 -55 -12z"/>
<path d="M19785 14520 c3 -5 13 -10 21 -10 8 0 12 5 9 10 -3 6 -13 10 -21 10
-8 0 -12 -4 -9 -10z"/>
<path d="M22755 14519 c-11 -16 3 -56 21 -63 22 -8 44 11 44 39 0 31 -50 49
-65 24z"/>
<path d="M14174 14484 c-7 -28 0 -38 34 -49 30 -9 48 31 24 58 -23 25 -50 21
-58 -9z"/>
<path d="M7806 14485 c7 -16 14 -18 38 -9 22 9 10 24 -19 24 -18 0 -23 -4 -19
-15z"/>
<path d="M19831 14496 c2 -2 20 -11 39 -20 l35 -17 -24 21 c-13 11 -30 20 -39
20 -8 0 -13 -2 -11 -4z"/>
<path d="M23480 14470 c0 -5 5 -10 10 -10 6 0 10 5 10 10 0 6 -4 10 -10 10 -5
0 -10 -4 -10 -10z"/>
<path d="M19926 14446 c21 -15 30 -14 19 3 -3 6 -14 11 -23 11 -13 0 -13 -2 4
-14z"/>
<path d="M21113 14447 c-48 -18 -53 -30 -8 -20 63 13 160 7 190 -13 14 -9 28
-14 32 -10 10 10 -79 44 -132 50 -29 3 -63 0 -82 -7z"/>
<path d="M9090 14408 c0 -19 2 -20 10 -8 13 19 13 30 0 30 -5 0 -10 -10 -10
-22z"/>
<path d="M9314 14395 c-10 -8 -28 -15 -40 -15 -11 0 -38 -9 -60 -19 l-39 -19
28 -13 c24 -11 29 -10 40 5 8 10 35 26 62 35 27 9 50 22 53 29 5 17 -20 15
-44 -3z"/>
<path d="M20990 14391 c-40 -22 -86 -68 -77 -77 3 -4 21 5 39 20 18 15 47 38
63 51 36 29 24 31 -25 6z"/>
<path d="M15450 14385 c0 -7 6 -18 13 -22 37 -24 39 -40 12 -83 -15 -23 -24
-44 -21 -48 8 -8 44 27 51 49 8 23 38 25 55 4 7 -8 17 -15 23 -15 6 0 1 10
-11 23 -29 30 -28 41 6 57 22 11 24 14 10 17 -10 3 -25 -3 -34 -11 -18 -19
-16 -19 -47 -7 -14 6 -28 19 -32 30 -7 24 -25 28 -25 6z"/>
<path d="M23647 14382 c-10 -10 -17 -25 -17 -33 0 -9 -7 -24 -15 -35 -23 -31
-19 -54 11 -54 19 0 28 8 39 34 8 19 19 37 25 41 5 3 10 19 10 36 0 34 -27 40
-53 11z"/>
<path d="M18683 14374 c-15 -39 38 -67 60 -32 8 12 7 21 -2 32 -17 21 -50 20
-58 0z"/>
<path d="M15860 14372 c0 -4 5 -13 12 -20 22 -22 15 -107 -10 -142 -30 -40
-20 -52 15 -18 34 34 45 124 19 163 -16 24 -36 34 -36 17z"/>
<path d="M15695 14326 c-24 -10 -26 -13 -12 -19 9 -3 17 -17 17 -29 0 -51 17
-49 24 2 4 29 6 54 4 55 -2 2 -16 -2 -33 -9z"/>
<path d="M9723 14314 c-40 -20 -52 -63 -29 -99 9 -14 19 -25 22 -25 4 0 1 7
-6 15 -28 33 31 109 82 105 38 -3 50 -1 43 10 -9 15 -76 12 -112 -6z"/>
<path d="M21180 14276 c0 -14 55 -97 58 -87 2 7 -3 20 -11 29 -8 9 -18 27 -21
40 -6 18 -26 32 -26 18z"/>
<path d="M21110 14244 c0 -6 7 -19 15 -30 8 -10 15 -26 15 -35 0 -20 26 -44
33 -32 3 5 -8 29 -24 53 -35 52 -39 56 -39 44z"/>
<path d="M1791 14175 c-1 -27 -3 -77 -5 -110 -2 -33 -7 -312 -11 -620 -3 -308
-8 -589 -10 -625 -3 -36 -7 -256 -10 -490 -2 -234 -7 -474 -10 -535 -4 -68 -2
-116 5 -125 7 -12 10 -7 11 20 1 19 3 46 5 60 1 14 5 234 8 490 4 256 9 563
11 683 2 120 7 422 10 670 4 249 8 480 10 515 1 35 -1 75 -5 90 -7 23 -8 19
-9 -23z"/>
<path d="M9820 14200 c0 -5 4 -10 9 -10 6 0 13 5 16 10 3 6 -1 10 -9 10 -9 0
-16 -4 -16 -10z"/>
<path d="M15740 14201 c0 -20 31 -40 60 -40 23 1 23 1 -5 10 -16 5 -36 16 -42
26 -9 11 -13 13 -13 4z"/>
<path d="M17563 14163 c21 -46 58 -103 68 -103 18 0 8 31 -27 80 -39 54 -60
66 -41 23z"/>
<path d="M17833 14153 c-10 -14 -48 -58 -86 -97 -200 -207 -288 -294 -302
-299 -18 -8 -20 -23 -2 -30 17 -6 32 6 97 83 30 36 60 68 66 72 6 4 44 42 85
84 41 43 95 98 122 122 26 25 47 51 47 58 0 8 5 14 10 14 6 0 10 5 10 10 0 20
-30 9 -47 -17z"/>
<path d="M13536 14161 c-7 -11 71 -129 87 -130 12 -1 -3 40 -25 69 -10 14 -27
36 -37 49 -12 17 -20 21 -25 12z"/>
<path d="M13825 14096 c-16 -21 -98 -108 -182 -193 -84 -84 -153 -158 -153
-163 0 -5 -13 -17 -30 -27 -29 -17 -43 -63 -20 -63 6 0 10 4 10 9 0 9 108 126
265 286 120 123 146 155 143 174 -2 11 -12 5 -33 -23z"/>
<path d="M22460 14000 c0 -5 5 -10 10 -10 6 0 10 5 10 10 0 6 -4 10 -10 10 -5
0 -10 -4 -10 -10z"/>
<path d="M20705 13966 c-17 -6 -53 -24 -80 -39 -28 -15 -60 -33 -71 -40 -24
-13 -104 -84 -104 -92 0 -13 39 -3 55 15 10 11 22 20 27 20 6 0 28 13 51 29
32 23 61 32 120 40 108 15 160 -2 233 -77 58 -58 72 -58 25 2 -53 66 -128 126
-178 141 -26 8 -48 14 -48 14 0 -1 -14 -6 -30 -13z"/>
<path d="M14681 13949 c-33 -13 -24 -17 28 -11 29 3 39 7 30 13 -17 11 -27 10
-58 -2z"/>
<path d="M14580 13930 c-8 -5 -31 -16 -50 -26 -19 -9 -45 -22 -56 -28 -25 -12
-61 -73 -50 -83 4 -4 22 9 39 29 31 36 134 98 162 98 8 0 17 5 20 10 8 12 -44
12 -65 0z"/>
<path d="M14841 13901 c26 -16 56 -43 68 -60 21 -30 41 -40 41 -23 0 15 -121
112 -138 112 -10 0 4 -13 29 -29z"/>
<path d="M19790 13865 c-19 -24 -89 -101 -155 -170 -66 -69 -137 -146 -159
-170 l-38 -45 -27 21 c-14 11 -41 27 -58 34 -18 8 -33 19 -33 24 0 6 -9 11
-20 11 -10 0 -27 8 -37 19 -10 10 -47 33 -83 50 -36 18 -74 40 -85 50 -36 32
-116 73 -131 67 -19 -7 -1 -46 22 -46 8 0 17 -7 20 -15 4 -8 11 -15 17 -15 5
0 61 -34 122 -75 62 -41 116 -75 119 -75 4 0 14 -7 22 -15 9 -8 24 -15 35 -15
10 0 19 -5 19 -10 0 -6 12 -15 28 -20 15 -6 37 -16 49 -22 19 -9 27 -8 44 8
12 10 24 27 28 36 3 10 62 77 131 149 69 72 127 136 129 142 2 5 23 31 47 56
40 42 55 71 36 71 -4 0 -23 -20 -42 -45z"/>
<path d="M16420 13840 c0 -12 74 -62 130 -88 25 -11 79 -26 121 -33 69 -11 82
-11 125 5 112 41 184 81 184 104 0 19 -9 15 -80 -33 -76 -50 -153 -68 -241
-56 -60 8 -150 50 -190 87 -26 25 -49 32 -49 14z"/>
<path d="M22460 13834 c0 -8 5 -12 10 -9 6 4 8 11 5 16 -9 14 -15 11 -15 -7z"/>
<path d="M20711 13808 c-12 -20 -11 -24 15 -44 32 -26 54 -17 54 20 0 46 -45
62 -69 24z"/>
<path d="M22505 13802 c-22 -2 -45 -8 -51 -13 -7 -6 -87 -9 -184 -9 -94 1
-174 -1 -177 -4 -4 -3 25 -6 63 -7 122 -1 216 -6 366 -18 204 -16 435 -18 449
-4 21 21 2 43 -38 45 -21 1 -56 3 -78 5 -62 6 -305 9 -350 5z"/>
<path d="M23706 13789 c-22 -5 -44 -13 -50 -18 -6 -4 -22 -11 -36 -15 -14 -3
-45 -24 -70 -46 -25 -22 -51 -38 -57 -35 -7 2 -17 -5 -23 -15 -17 -31 -41 -24
-100 30 -52 47 -80 61 -80 41 0 -5 21 -24 46 -42 25 -19 62 -49 82 -66 36 -33
78 -45 69 -20 -5 14 61 77 81 77 6 0 12 4 12 9 0 20 68 43 142 48 73 6 82 4
143 -26 36 -18 84 -51 105 -74 22 -23 40 -35 40 -27 -1 21 -97 122 -145 152
-48 30 -105 40 -159 27z"/>
<path d="M21930 13780 c0 -6 32 -10 76 -10 47 0 73 4 69 10 -3 6 -37 10 -76
10 -39 0 -69 -4 -69 -10z"/>
<path d="M23475 13761 c-3 -5 -1 -12 5 -16 5 -3 10 1 10 9 0 18 -6 21 -15 7z"/>
<path d="M21483 13683 c-13 -2 -23 -7 -23 -11 0 -4 -21 -29 -46 -57 -49 -54
-114 -148 -114 -165 0 -22 17 -7 49 46 38 63 77 89 93 61 15 -28 76 -49 101
-36 63 33 81 74 51 117 -15 22 -65 53 -81 51 -4 -1 -18 -4 -30 -6z m76 -27 c7
-8 15 -30 18 -49 4 -30 1 -38 -20 -52 -34 -22 -69 -16 -83 14 -12 24 -5 56 19
89 13 16 52 15 66 -2z"/>
<path d="M18761 13653 c-31 -29 -104 -113 -157 -179 -39 -48 -174 -184 -183
-184 -3 0 -21 9 -40 21 -18 11 -35 18 -37 16 -9 -8 70 -77 89 -77 20 0 192
168 317 310 66 75 73 87 66 106 -8 21 -22 17 -55 -13z"/>
<path d="M19716 13618 c-12 -17 -13 -25 -3 -37 29 -38 41 -39 62 -7 33 49 -25
92 -59 44z"/>
<path d="M16714 13603 c-5 -19 -2 -30 11 -40 39 -27 63 -7 51 42 -9 36 -53 35
-62 -2z"/>
<path d="M16410 13520 c0 -5 5 -10 10 -10 6 0 10 5 10 10 0 6 -4 10 -10 10 -5
0 -10 -4 -10 -10z"/>
<path d="M14360 13465 c0 -3 25 -29 55 -59 59 -57 65 -71 37 -81 -20 -6 -42
-45 -42 -73 0 -9 12 -30 26 -46 33 -38 91 -41 128 -7 21 20 23 27 14 52 -16
47 -5 59 54 60 105 1 96 18 -10 18 -89 1 -107 4 -132 23 -17 12 -30 27 -30 34
0 7 -19 29 -42 48 -38 33 -58 44 -58 31z m177 -177 c29 -27 29 -59 1 -85 -33
-29 -68 -17 -92 32 -18 39 -18 39 4 57 30 24 59 23 87 -4z"/>
<path d="M18716 13421 c-7 -10 38 -93 59 -111 8 -6 19 -9 25 -5 19 11 10 42
-22 83 -33 40 -52 50 -62 33z"/>
<path d="M18070 13403 c-64 -12 -32 -21 66 -20 95 2 115 -1 153 -20 52 -27 62
-25 23 4 -46 34 -159 51 -242 36z"/>
<path d="M17990 13361 c0 -5 -15 -16 -33 -24 -36 -17 -87 -67 -69 -67 6 0 35
18 64 40 29 22 56 40 61 40 4 0 7 5 7 10 0 6 -7 10 -15 10 -8 0 -15 -4 -15 -9z"/>
<path d="M14752 13319 c18 -11 189 -9 182 2 -3 5 -48 8 -100 7 -52 -1 -89 -5
-82 -9z"/>
<path d="M15128 13266 c-15 -8 -42 -17 -60 -21 -43 -9 -168 -91 -168 -110 0
-20 9 -19 28 4 10 11 44 35 77 53 58 32 64 33 170 32 119 -1 115 1 231 -83
l40 -29 209 -1 c114 0 222 -3 239 -6 63 -11 77 36 15 49 -22 4 -35 2 -41 -6
-6 -10 -10 -10 -16 -1 -5 8 -36 10 -102 7 -52 -2 -106 -4 -120 -3 -14 0 -61 1
-105 2 -58 1 -79 5 -77 15 1 7 -8 12 -22 12 -13 0 -43 16 -66 35 -23 19 -50
35 -60 35 -10 0 -20 4 -22 8 -6 17 -122 22 -150 8z"/>
<path d="M23475 13270 c-3 -5 -1 -10 4 -10 6 0 11 5 11 10 0 6 -2 10 -4 10 -3
0 -8 -4 -11 -10z"/>
<path d="M20446 13213 c-14 -14 -4 -51 39 -134 25 -48 45 -92 45 -98 0 -40 99
-132 161 -149 33 -8 167 -7 176 2 3 3 -17 8 -44 12 -26 4 -57 13 -68 20 -11 8
-28 14 -38 14 -57 0 -247 238 -247 310 0 20 -13 33 -24 23z"/>
<path d="M23470 13179 c0 -5 5 -7 10 -4 6 3 10 8 10 11 0 2 -4 4 -10 4 -5 0
-10 -5 -10 -11z"/>
<path d="M13550 13155 c-5 -14 -14 -25 -19 -25 -5 0 -23 -22 -40 -49 -36 -55
-50 -64 -89 -54 -26 6 -26 5 7 -23 l34 -28 16 24 c9 13 31 42 49 63 17 21 32
43 32 49 0 6 11 19 25 30 28 22 32 38 10 38 -9 0 -20 -11 -25 -25z"/>
<path d="M13120 13143 c-60 -23 -201 -99 -228 -123 -27 -24 1 -29 32 -5 18 14
40 25 49 25 8 0 22 6 29 14 15 14 146 36 191 31 61 -7 112 -18 144 -31 34 -15
34 -14 23 7 -7 12 -30 28 -51 37 -21 8 -39 18 -39 23 0 20 -110 37 -150 22z"/>
<path d="M17553 13116 c-10 -13 -26 -37 -35 -53 -57 -92 -75 -117 -85 -120 -7
-3 -29 12 -50 33 -21 20 -62 55 -90 76 -50 38 -56 40 -125 41 -64 0 -81 -4
-143 -36 -38 -19 -87 -51 -109 -71 -21 -20 -42 -36 -47 -36 -5 0 -9 -10 -9
-22 0 -21 1 -21 33 8 57 52 90 70 167 87 57 12 86 14 120 7 25 -6 66 -14 91
-18 47 -9 99 -39 134 -80 21 -24 55 -22 55 3 0 6 10 20 21 31 12 10 30 38 41
61 10 23 25 46 32 50 12 8 36 45 36 57 0 14 -20 4 -37 -18z"/>
<path d="M15153 13124 c-33 -14 -2 -69 34 -62 27 5 25 62 -2 65 -11 1 -26 -1
-32 -3z"/>
<path d="M22307 13034 c-3 -3 14 -31 37 -62 89 -120 106 -147 106 -168 0 -13
5 -26 10 -29 6 -3 10 4 10 16 0 17 79 152 100 169 10 8 50 68 50 74 0 3 -7 6
-15 6 -8 0 -27 -19 -42 -42 -16 -24 -34 -49 -40 -56 -7 -7 -13 -18 -13 -23 0
-17 -27 -39 -49 -39 -13 0 -39 25 -76 75 -60 79 -69 88 -78 79z"/>
<path d="M21452 12852 c-18 -6 -15 -25 10 -46 20 -17 22 -18 34 -2 14 20 -7
19 272 11 217 -7 222 -7 222 12 0 18 -9 21 -71 27 -42 4 -76 2 -83 -3 -7 -6
-26 -6 -51 -1 -39 9 -307 11 -333 2z"/>
<path d="M23465 12834 c-46 -46 -49 -101 -8 -144 37 -40 77 -40 119 1 38 37
59 34 130 -19 97 -74 238 -140 270 -128 26 10 5 28 -108 93 -56 32 -120 69
-142 82 -23 13 -87 48 -143 77 -92 49 -103 52 -118 38z m70 -49 c28 -27 32
-61 10 -89 -12 -16 -18 -18 -40 -8 -37 17 -51 53 -34 91 17 37 32 39 64 6z"/>
<path d="M16636 12820 c-15 -5 -36 -15 -45 -23 -9 -8 -31 -19 -49 -25 -30 -10
-62 -33 -124 -87 -23 -19 -52 -19 -69 1 -11 14 -81 54 -94 54 -14 0 -2 -19 16
-25 11 -4 43 -27 70 -51 51 -46 69 -53 69 -31 0 21 40 52 110 84 50 24 82 31
140 34 80 3 189 -21 211 -47 6 -8 18 -14 25 -14 8 0 14 -4 14 -8 0 -5 11 -22
25 -38 17 -19 25 -24 25 -14 0 23 -120 142 -170 168 -50 26 -112 35 -154 22z"/>
<path d="M20880 12826 c0 -2 7 -6 15 -10 8 -3 15 -1 15 4 0 6 -7 10 -15 10 -8
0 -15 -2 -15 -4z"/>
<path d="M23777 12804 c-8 -8 1 -24 14 -24 5 0 9 7 9 15 0 15 -12 20 -23 9z"/>
<path d="M16095 12773 c-116 -14 -235 -79 -235 -129 0 -16 2 -15 23 3 41 36
120 83 161 95 42 11 120 13 169 2 15 -3 27 -1 27 4 0 5 -21 13 -46 17 -26 3
-52 8 -58 9 -6 2 -24 1 -41 -1z"/>
<path d="M19671 12762 c-13 -2 -42 -17 -64 -33 -22 -16 -45 -29 -51 -29 -11 0
-110 -64 -134 -87 -27 -26 10 -23 41 3 63 53 112 68 229 68 73 1 111 -3 119
-11 7 -7 23 -13 35 -13 14 0 41 -19 71 -50 46 -48 63 -59 63 -42 0 13 -58 73
-128 132 -64 54 -113 71 -181 62z"/>
<path d="M21500 12763 c0 -13 92 -124 98 -119 3 3 -2 14 -11 24 -10 10 -17 23
-17 28 0 10 -55 74 -64 74 -3 0 -6 -3 -6 -7z"/>
<path d="M22455 12700 c-3 -5 -1 -10 4 -10 6 0 11 5 11 10 0 6 -2 10 -4 10 -3
0 -8 -4 -11 -10z"/>
<path d="M14425 12636 c1 -24 6 -50 12 -58 5 -7 22 -38 38 -68 47 -94 52 -102
103 -154 51 -52 103 -74 212 -90 19 -3 45 -8 58 -12 13 -4 22 -2 22 5 0 6 -12
13 -27 16 -16 3 -51 15 -78 26 -28 10 -56 19 -62 19 -7 0 -54 42 -106 93 -79
78 -97 101 -115 153 -12 34 -22 68 -22 76 0 14 -19 38 -30 38 -3 0 -5 -20 -5
-44z"/>
<path d="M16682 12643 c2 -22 8 -28 28 -28 20 0 26 6 28 28 3 24 0 27 -28 27
-28 0 -31 -3 -28 -27z"/>
<path d="M18410 12641 c0 -14 6 -21 19 -21 10 0 24 -7 32 -16 20 -24 77 -50
151 -68 55 -14 76 -15 110 -5 66 17 142 57 173 89 33 34 20 41 -16 9 -50 -44
-130 -73 -208 -76 -66 -2 -80 1 -144 33 -39 19 -74 38 -77 42 -3 4 -13 13 -22
21 -16 12 -18 11 -18 -8z"/>
<path d="M22456 12631 c-4 -7 -5 -15 -2 -18 9 -9 19 4 14 18 -4 11 -6 11 -12
0z"/>
<path d="M19700 12595 c-28 -34 16 -84 47 -53 15 15 15 21 3 43 -15 28 -32 32
-50 10z"/>
<path d="M23702 12554 c4 -21 22 -23 26 -1 2 10 -3 17 -13 17 -10 0 -15 -6
-13 -16z"/>
<path d="M22450 12460 c0 -5 5 -10 11 -10 5 0 7 5 4 10 -3 6 -8 10 -11 10 -2
0 -4 -4 -4 -10z"/>
<path d="M23455 12460 c-3 -5 -1 -10 4 -10 6 0 11 5 11 10 0 6 -2 10 -4 10 -3
0 -8 -4 -11 -10z"/>
<path d="M18696 12435 c4 -9 0 -15 -10 -15 -23 0 -20 -16 6 -34 16 -11 25 -13
35 -4 19 16 16 46 -6 58 -26 14 -31 13 -25 -5z"/>
<path d="M21932 12425 c1 -11 23 -29 48 -40 212 -102 279 -136 290 -150 7 -8
19 -15 26 -15 21 0 144 -60 144 -71 0 -5 16 -9 35 -9 24 0 57 -13 101 -40 36
-22 68 -40 71 -40 2 0 68 -31 145 -69 78 -39 145 -68 150 -65 4 3 8 14 8 24 0
15 -26 32 -107 71 -234 111 -393 192 -393 201 0 5 -8 7 -18 4 -10 -4 -27 1
-38 9 -10 8 -24 15 -31 15 -7 0 -34 13 -60 28 -27 16 -60 32 -76 35 -15 4 -27
12 -27 17 0 6 -6 10 -12 10 -7 1 -31 9 -53 20 -22 11 -46 19 -52 20 -7 0 -13
5 -13 10 0 6 -10 10 -22 10 -12 0 -29 7 -38 15 -9 8 -31 18 -49 21 -28 6 -33
4 -29 -11z"/>
<path d="M13524 12370 c-22 -23 -43 -49 -48 -58 -5 -10 -12 -19 -16 -22 -18
-14 -50 -84 -42 -92 9 -9 62 61 62 82 0 6 6 13 14 16 16 6 80 103 73 110 -3 3
-22 -13 -43 -36z"/>
<path d="M15710 12349 c-53 -9 -111 -26 -131 -38 -40 -23 -79 -74 -103 -133
-9 -20 -21 -38 -27 -40 -7 -2 -12 -32 -13 -73 -1 -39 -4 -74 -8 -80 -3 -5 -6
-28 -6 -50 0 -22 -1 -46 -3 -54 -2 -7 1 -15 6 -17 14 -6 35 53 35 97 0 19 9
59 21 89 11 30 22 61 23 69 1 7 22 38 47 68 68 84 171 143 251 143 33 0 45 16
21 27 -11 6 -56 2 -113 -8z"/>
<path d="M17505 12230 c-26 -39 -58 -78 -71 -87 -16 -10 -24 -25 -24 -44 0
-50 5 -45 93 84 61 89 69 105 58 111 -5 4 -30 -26 -56 -64z"/>
<path d="M20660 12064 c-96 -96 -187 -180 -202 -186 -27 -12 -38 -34 -38 -75
0 -29 16 -30 25 -2 6 18 118 134 227 235 125 117 202 207 171 203 -5 -1 -87
-80 -183 -175z"/>
<path d="M15415 12210 c4 -6 11 -8 16 -5 14 9 11 15 -7 15 -8 0 -12 -5 -9 -10z"/>
<path d="M23450 12135 c0 -8 4 -15 10 -15 5 0 7 7 4 15 -4 8 -8 15 -10 15 -2
0 -4 -7 -4 -15z"/>
<path d="M23465 12071 c-7 -12 0 -16 55 -31 49 -13 76 -24 195 -81 44 -20 109
-49 145 -64 36 -14 73 -30 84 -36 13 -7 22 -7 29 0 10 10 -54 44 -111 57 -15
4 -34 12 -42 19 -8 7 -49 25 -90 40 -41 15 -104 42 -140 60 -75 37 -116 49
-125 36z"/>
<path d="M22440 12060 c0 -5 5 -10 10 -10 6 0 10 5 10 10 0 6 -4 10 -10 10 -5
0 -10 -4 -10 -10z"/>
<path d="M10659 12056 c-2 -2 -30 -7 -61 -9 -31 -3 -62 -8 -68 -12 -6 -4 -38
-7 -71 -6 -32 0 -59 -3 -59 -7 0 -5 17 -17 38 -27 20 -11 40 -21 43 -23 3 -1
5 7 5 20 -1 21 2 22 91 22 90 1 93 2 93 24 0 22 -3 26 -11 18z"/>
<path d="M16351 12003 c8 -9 24 -27 37 -40 15 -15 21 -30 17 -42 -4 -15 0 -20
17 -23 32 -4 35 -35 5 -49 -49 -22 -40 -102 13 -130 46 -25 63 -24 100 7 25
21 30 32 25 51 -9 39 3 63 33 63 21 0 24 2 12 10 -8 5 -28 7 -45 4 -39 -7
-108 42 -135 96 -18 36 -58 70 -81 70 -8 0 -7 -5 2 -17z m181 -199 c25 -55
-39 -108 -83 -68 -21 19 -25 64 -7 82 7 7 27 12 45 12 26 0 36 -6 45 -26z"/>
<path d="M18892 11962 c-2 -7 0 -18 5 -23 21 -21 294 -30 447 -15 56 5 88 -7
84 -32 -1 -10 12 -39 30 -65 17 -26 32 -51 32 -55 0 -11 69 -86 75 -80 3 2
-15 36 -39 74 -27 41 -52 96 -62 136 -17 64 -19 68 -48 69 -17 1 -141 2 -275
3 -194 1 -244 -1 -249 -12z"/>
<path d="M21740 11970 c0 -5 5 -10 10 -10 6 0 10 5 10 10 0 6 -4 10 -10 10 -5
0 -10 -4 -10 -10z"/>
<path d="M20716 11954 c-13 -35 -6 -52 24 -59 51 -11 67 18 30 55 -24 24 -46
26 -54 4z"/>
<path d="M21434 11949 c-7 -12 13 -29 35 -29 8 0 22 -6 30 -14 39 -33 146 -76
206 -83 49 -6 40 6 -12 18 -78 16 -116 28 -122 37 -3 5 -30 22 -58 37 -29 15
-53 31 -53 36 0 13 -17 11 -26 -2z"/>
<path d="M14408 11943 c7 -3 16 -2 19 1 4 3 -2 6 -13 5 -11 0 -14 -3 -6 -6z"/>
<path d="M22681 11936 c-22 -26 -60 -109 -55 -118 11 -17 23 -6 49 43 28 55
33 108 6 75z"/>
<path d="M21921 11903 c-30 -20 -80 -46 -110 -59 -45 -19 -51 -23 -28 -24 42
0 175 69 196 102 16 26 4 22 -58 -19z"/>
<path d="M10560 11921 c0 -15 -60 -31 -119 -31 l-56 0 47 -30 c57 -35 54 -35
60 -12 6 21 51 32 135 32 46 0 51 2 46 20 -6 21 -28 27 -38 11 -3 -6 -20 -4
-40 5 -19 8 -35 10 -35 5z"/>
<path d="M14308 11801 c-102 -85 -118 -101 -95 -101 8 0 17 7 21 15 3 8 10 15
17 15 6 0 41 25 77 55 37 30 71 54 77 51 5 -2 9 -15 8 -30 -1 -20 3 -26 19
-26 18 0 20 4 14 38 -3 20 -6 43 -6 50 0 28 -42 7 -132 -67z"/>
<path d="M16645 11850 c-3 -5 3 -10 14 -10 12 0 21 5 21 10 0 6 -6 10 -14 10
-8 0 -18 -4 -21 -10z"/>
<path d="M16705 11850 c-3 -5 3 -10 15 -10 12 0 18 5 15 10 -3 6 -10 10 -15
10 -5 0 -12 -4 -15 -10z"/>
<path d="M16791 11841 c-8 -5 5 -7 35 -4 27 3 51 7 53 9 9 8 -75 3 -88 -5z"/>
<path d="M16905 11840 c-3 -5 1 -10 9 -10 9 0 16 5 16 10 0 6 -4 10 -9 10 -6
0 -13 -4 -16 -10z"/>
<path d="M15415 11820 c3 -5 8 -10 11 -10 2 0 4 5 4 10 0 6 -5 10 -11 10 -5 0
-7 -4 -4 -10z"/>
<path d="M23451 11814 c0 -11 3 -14 6 -6 3 7 2 16 -1 19 -3 4 -6 -2 -5 -13z"/>
<path d="M18028 11788 c-25 -13 -74 -49 -107 -80 -36 -34 -70 -58 -83 -58 -13
0 -43 23 -79 60 -31 33 -65 60 -76 60 -15 -1 -13 -5 12 -26 17 -15 54 -48 82
-75 29 -27 58 -49 65 -49 6 0 35 24 63 54 74 77 152 116 236 116 63 0 69 -2
137 -50 39 -27 73 -54 77 -60 3 -5 11 -10 17 -10 16 0 -19 36 -85 87 -55 43
-62 45 -135 49 -65 4 -84 1 -124 -18z"/>
<path d="M18633 11804 c-12 -3 -27 -12 -33 -20 -7 -8 -21 -14 -31 -14 -11 0
-19 -4 -19 -9 0 -5 -8 -12 -17 -15 -30 -10 -97 -76 -77 -76 9 0 31 10 48 23
92 68 209 81 300 32 27 -14 51 -24 53 -21 3 3 -16 26 -42 52 -43 42 -52 46
-104 49 -31 2 -66 1 -78 -1z"/>
<path d="M10640 11750 c0 -5 5 -10 10 -10 6 0 10 5 10 10 0 6 -4 10 -10 10 -5
0 -10 -4 -10 -10z"/>
<path d="M14450 11749 c1 -42 119 -188 188 -233 62 -40 160 -78 175 -69 12 7
-13 23 -37 23 -71 0 -258 153 -287 233 -14 41 -39 70 -39 46z"/>
<path d="M22440 11740 c0 -5 5 -10 10 -10 6 0 10 5 10 10 0 6 -4 10 -10 10 -5
0 -10 -4 -10 -10z"/>
<path d="M23440 11740 c0 -5 5 -10 10 -10 6 0 10 5 10 10 0 6 -4 10 -10 10 -5
0 -10 -4 -10 -10z"/>
<path d="M21737 11700 c-4 -17 0 -20 25 -20 23 0 29 4 24 16 -3 9 -6 18 -6 20
0 15 -39 0 -43 -16z"/>
<path d="M10390 11700 c0 -5 5 -10 10 -10 6 0 10 5 10 10 0 6 -4 10 -10 10 -5
0 -10 -4 -10 -10z"/>
<path d="M10450 11681 c0 -6 12 -14 28 -17 15 -4 32 -11 39 -16 12 -9 53 10
53 24 0 13 -28 9 -32 -4 -3 -7 -9 -8 -19 -3 -8 5 -18 10 -24 11 -5 1 -18 5
-27 9 -11 4 -18 3 -18 -4z"/>
<path d="M14137 11656 c-43 -29 -127 -107 -127 -118 0 -18 20 -4 95 67 83 77
92 92 32 51z"/>
<path d="M18903 11645 c23 -36 51 -47 45 -17 -2 9 -13 21 -26 27 -12 5 -22 13
-22 17 0 5 -4 8 -10 8 -5 0 1 -16 13 -35z"/>
<path d="M19609 11651 c18 -16 43 -32 55 -35 19 -5 19 -4 -4 14 -14 11 -38 27
-55 35 l-30 15 34 -29z"/>
<path d="M18681 11661 c-20 -13 3 -41 34 -41 31 0 41 36 11 44 -27 7 -28 7
-45 -3z"/>
<path d="M13418 11618 c-3 -24 -1 -51 5 -62 5 -10 7 -31 3 -46 -3 -19 -1 -30
9 -34 8 -3 15 -16 15 -30 0 -14 4 -27 9 -30 5 -4 12 -30 16 -59 8 -68 14 -87
26 -87 12 0 3 80 -13 122 -6 15 -7 35 -4 45 6 15 13 12 45 -22 54 -57 98 -93
150 -121 46 -25 41 -21 -42 44 -49 37 -97 84 -97 94 0 4 -6 13 -12 20 -31 32
-58 79 -58 97 0 11 -4 22 -9 25 -5 4 -12 24 -16 46 -9 52 -22 51 -27 -2z"/>
<path d="M18383 11653 c9 -2 25 -2 35 0 9 3 1 5 -18 5 -19 0 -27 -2 -17 -5z"/>
<path d="M1742 11633 c3 -70 -14 -1478 -18 -1515 -6 -49 9 -68 20 -25 3 12 6
207 6 432 1 412 7 849 14 1003 4 86 0 122 -15 122 -4 0 -7 -8 -7 -17z"/>
<path d="M10542 11606 c1 -10 8 -17 13 -17 15 1 12 24 -3 29 -9 3 -13 -2 -10
-12z"/>
<path d="M19695 11599 c4 -5 14 -9 24 -9 10 0 24 -7 31 -15 7 -8 27 -15 44
-15 l31 1 -40 15 c-70 27 -96 33 -90 23z"/>
<path d="M19410 11560 c0 -5 5 -10 10 -10 6 0 10 5 10 10 0 6 -4 10 -10 10 -5
0 -10 -4 -10 -10z"/>
<path d="M10390 11547 c0 -10 16 -16 51 -20 28 -4 56 -11 63 -16 18 -15 59
-17 63 -3 3 8 -7 12 -31 12 -19 0 -37 4 -40 9 -3 4 -20 11 -38 14 -18 3 -41 8
-50 12 -12 5 -18 2 -18 -8z"/>
<path d="M19873 11553 c9 -2 25 -2 35 0 9 3 1 5 -18 5 -19 0 -27 -2 -17 -5z"/>
<path d="M19612 11460 c-32 -68 -34 -90 -9 -90 15 0 57 78 57 107 0 12 5 25
10 28 6 4 8 11 5 16 -14 22 -32 4 -63 -61z"/>
<path d="M10645 11480 c3 -5 8 -10 11 -10 2 0 4 5 4 10 0 6 -5 10 -11 10 -5 0
-7 -4 -4 -10z"/>
<path d="M17710 11473 c-25 -3 -49 -8 -54 -14 -6 -5 -17 -9 -26 -9 -51 0 -165
-99 -175 -152 -3 -12 -11 -28 -18 -37 -21 -23 -28 -56 -33 -146 -3 -53 -10
-85 -20 -95 -12 -13 -49 -15 -224 -12 -118 1 -210 -2 -210 -7 0 -4 19 -8 43
-8 23 0 125 -2 226 -4 207 -5 211 -4 211 62 0 54 46 190 76 222 13 14 24 30
24 35 0 23 141 132 171 132 10 0 33 9 51 20 18 11 26 19 18 18 -8 -1 -35 -3
-60 -5z"/>
<path d="M23598 11437 c-47 -24 -103 -56 -123 -72 -36 -27 -40 -27 -116 -21
-89 7 -199 -7 -235 -30 -62 -41 -149 -266 -142 -370 4 -66 28 -72 28 -7 0 58
25 147 51 185 11 14 19 31 19 36 0 5 30 36 68 69 86 75 147 98 243 91 62 -5
72 -3 101 19 66 50 126 67 240 67 46 0 71 -8 135 -40 47 -23 82 -48 88 -61 10
-25 35 -31 35 -10 0 23 -114 126 -174 157 -80 40 -113 38 -218 -13z"/>
<path d="M14531 11444 c-22 -26 1 -64 39 -64 30 0 36 10 30 50 -4 31 -46 39
-69 14z"/>
<path d="M14835 11450 c-3 -5 3 -10 15 -10 12 0 18 5 15 10 -3 6 -10 10 -15
10 -5 0 -12 -4 -15 -10z"/>
<path d="M10390 11430 c-23 -14 -7 -21 60 -24 55 -3 61 -1 45 10 -10 8 -29 14
-41 14 -12 0 -28 2 -36 5 -7 3 -20 1 -28 -5z"/>
<path d="M22445 11420 c3 -5 8 -10 11 -10 2 0 4 5 4 10 0 6 -5 10 -11 10 -5 0
-7 -4 -4 -10z"/>
<path d="M10541 11401 l-24 -6 28 -13 c16 -8 32 -9 37 -4 14 14 -14 30 -41 23z"/>
<path d="M20420 11394 c0 -8 5 -12 10 -9 6 4 8 11 5 16 -9 14 -15 11 -15 -7z"/>
<path d="M20706 11319 c-8 -40 -8 -103 0 -123 14 -38 24 -10 24 69 0 85 -12
112 -24 54z"/>
<path d="M22440 11340 c0 -5 5 -10 10 -10 6 0 10 5 10 10 0 6 -4 10 -10 10 -5
0 -10 -4 -10 -10z"/>
<path d="M20410 11320 c0 -5 5 -10 10 -10 6 0 10 5 10 10 0 6 -4 10 -10 10 -5
0 -10 -4 -10 -10z"/>
<path d="M10393 11313 c-7 -2 -13 -19 -13 -36 l0 -32 13 25 c15 30 42 37 65
17 13 -11 22 -11 39 -2 21 11 21 11 2 23 -19 12 -82 15 -106 5z"/>
<path d="M23709 11304 c-25 -31 24 -68 60 -45 12 8 13 14 3 35 -13 29 -43 34
-63 10z"/>
<path d="M17621 11286 c-10 -12 -7 -27 16 -73 28 -59 56 -75 61 -37 2 16 -53
124 -63 124 -2 0 -8 -6 -14 -14z"/>
<path d="M22573 11258 c-11 -13 -36 -46 -55 -75 -47 -72 -104 -116 -138 -107
-58 16 -478 20 -494 4 -20 -20 13 -33 96 -35 263 -9 439 -19 444 -27 10 -15
24 -8 24 13 0 18 82 128 103 137 4 2 7 8 7 14 0 6 11 23 25 40 41 48 30 81
-12 36z"/>
<path d="M13746 11250 c12 -12 29 -20 39 -18 13 2 6 8 -21 21 l-39 18 21 -21z"/>
<path d="M15548 11256 c-5 -22 -110 -143 -133 -153 -19 -9 -95 -9 -403 -3 -68
1 -126 0 -128 -3 -3 -3 -1 -15 6 -26 12 -23 -7 -22 343 -23 177 -1 178 -1 195
23 9 13 33 42 52 64 51 56 90 110 90 123 0 17 -18 15 -22 -2z"/>
<path d="M20423 11225 c4 -9 7 -18 7 -20 0 -10 109 -79 153 -96 59 -24 146
-27 204 -9 51 16 176 80 185 94 12 19 -11 31 -25 13 -28 -40 -116 -76 -212
-88 -106 -14 -171 5 -256 74 -34 27 -59 42 -56 32z"/>
<path d="M13637 11224 c-4 -4 -7 -16 -7 -26 0 -10 -4 -18 -10 -18 -5 0 -10 -5
-10 -12 0 -6 -9 -21 -20 -33 -20 -21 -19 -55 1 -55 11 0 66 75 75 102 6 21
-17 54 -29 42z"/>
<path d="M13855 11210 c3 -5 8 -10 11 -10 2 0 4 5 4 10 0 6 -5 10 -11 10 -5 0
-7 -4 -4 -10z"/>
<path d="M16386 11211 c-7 -11 1 -81 16 -129 7 -24 7 -37 -1 -45 -17 -17 -13
-27 8 -27 11 0 23 -9 26 -21 8 -24 57 -91 92 -126 41 -41 72 -56 106 -50 17 3
26 3 19 0 -10 -4 -9 -8 5 -18 12 -9 20 -10 24 -3 4 6 13 7 20 2 10 -6 80 -8
153 -4 5 0 6 3 3 7 -4 3 -28 7 -54 8 -42 2 -138 30 -153 45 -3 3 -31 22 -64
43 -32 21 -60 47 -63 57 -3 10 -11 21 -18 24 -20 7 -75 123 -86 181 -10 52
-22 74 -33 56z"/>
<path d="M10525 11189 c22 -18 29 -19 35 -8 11 16 13 15 -29 23 l-34 6 28 -21z"/>
<path d="M22435 11180 c-3 -5 1 -10 10 -10 9 0 13 5 10 10 -3 6 -8 10 -10 10
-2 0 -7 -4 -10 -10z"/>
<path d="M21542 11041 c-23 -27 -42 -53 -42 -58 0 -4 -14 -24 -29 -43 l-29
-35 -274 0 c-266 0 -273 0 -273 -20 0 -19 8 -20 267 -23 l267 -2 26 27 c15 16
33 42 40 58 8 17 34 52 59 79 25 27 46 53 46 57 0 20 -19 6 -58 -40z"/>
<path d="M13660 11070 c0 -5 5 -10 10 -10 6 0 10 5 10 10 0 6 -4 10 -10 10 -5
0 -10 -4 -10 -10z"/>
<path d="M20410 11070 c0 -5 5 -10 10 -10 6 0 10 5 10 10 0 6 -4 10 -10 10 -5
0 -10 -4 -10 -10z"/>
<path d="M23430 11020 c0 -5 4 -10 9 -10 6 0 13 5 16 10 3 6 -1 10 -9 10 -9 0
-16 -4 -16 -10z"/>
<path d="M10391 10981 c-25 -16 -2 -29 41 -24 43 5 110 -16 123 -37 5 -8 11
-7 21 1 19 16 0 39 -32 39 -12 0 -33 4 -46 9 -41 15 -93 21 -107 12z"/>
<path d="M14391 10976 c-19 -22 -17 -131 3 -161 17 -26 46 -34 46 -12 0 7 14
26 30 42 l30 29 30 -22 c34 -25 41 -15 10 13 -26 24 -25 33 5 57 14 11 25 24
25 29 0 17 -24 9 -52 -18 l-28 -27 -39 42 c-45 48 -44 47 -60 28z m54 -52 c30
-20 32 -45 5 -69 -30 -27 -47 -13 -47 39 -1 50 5 54 42 30z"/>
<path d="M20410 10980 c0 -5 5 -10 10 -10 6 0 10 5 10 10 0 6 -4 10 -10 10 -5
0 -10 -4 -10 -10z"/>
<path d="M18465 10947 c-49 -4 -206 -7 -348 -5 -141 2 -257 0 -257 -4 0 -8 31
-9 340 -15 74 -1 153 -5 175 -8 81 -11 124 -13 326 -16 113 -1 211 1 217 5 19
12 14 34 -10 42 -32 10 -333 11 -443 1z"/>
<path d="M14840 10929 c0 -6 9 -18 21 -27 12 -11 23 -34 26 -60 5 -38 2 -47
-22 -73 -33 -33 -44 -35 -85 -14 -33 17 -40 33 -44 112 -2 35 -8 58 -15 57 -6
-1 -20 -2 -31 -2 -28 -3 -25 -16 6 -30 14 -7 23 -16 19 -22 -3 -5 0 -30 6 -55
9 -35 20 -52 48 -71 46 -31 71 -30 103 4 40 43 46 60 36 106 -12 52 -68 115
-68 75z"/>
<path d="M22157 10933 c-14 -14 -7 -62 11 -72 36 -19 63 18 46 63 -6 16 -45
22 -57 9z"/>
<path d="M23432 10929 c2 -6 8 -10 13 -10 5 0 11 4 13 10 2 6 -4 11 -13 11 -9
0 -15 -5 -13 -11z"/>
<path d="M10380 10876 c0 -14 116 -60 155 -62 22 -1 60 -9 85 -17 49 -18 53
-17 45 5 -4 10 -26 17 -67 22 -34 3 -66 10 -72 15 -6 5 -33 14 -61 19 -27 5
-58 13 -67 17 -10 4 -18 4 -18 1z"/>
<path d="M23430 10839 c0 -5 5 -7 10 -4 6 3 10 8 10 11 0 2 -4 4 -10 4 -5 0
-10 -5 -10 -11z"/>
<path d="M18666 10791 c-14 -26 -14 -30 3 -45 29 -27 58 -20 66 14 13 59 -42
83 -69 31z"/>
<path d="M21140 10755 c-7 -8 -10 -25 -6 -40 9 -36 51 -35 60 1 11 44 -27 71
-54 39z"/>
<path d="M22422 10733 c-21 -72 -21 -97 0 -130 24 -40 59 -44 82 -8 9 13 16
31 16 40 0 20 24 19 55 -1 14 -9 25 -12 25 -6 0 5 -10 16 -21 24 -21 13 -21
15 -6 44 9 17 23 36 31 43 19 16 21 31 3 31 -16 0 -57 -42 -57 -58 0 -21 -22
-13 -66 23 -23 19 -44 35 -47 35 -2 0 -9 -17 -15 -37z m72 -35 c18 -25 21 -58
6 -58 -5 0 -10 -6 -10 -14 0 -19 -14 -28 -34 -20 -12 5 -16 20 -16 60 0 47 3
54 19 54 11 0 27 -10 35 -22z"/>
<path d="M23430 10760 c0 -5 5 -10 10 -10 6 0 10 5 10 10 0 6 -4 10 -10 10 -5
0 -10 -4 -10 -10z"/>
<path d="M10376 10752 c-10 -17 11 -27 59 -29 27 -1 62 -8 77 -14 22 -9 31 -9
43 1 23 19 13 23 -60 24 -35 1 -70 7 -77 14 -14 14 -34 16 -42 4z"/>
<path d="M19543 10684 c-48 -68 -100 -124 -114 -124 -12 0 -12 -37 0 -44 5 -3
17 6 26 21 10 14 34 45 55 67 44 50 83 112 78 127 -2 6 -22 -15 -45 -47z"/>
<path d="M23430 10680 c0 -5 5 -10 10 -10 6 0 10 5 10 10 0 6 -4 10 -10 10 -5
0 -10 -4 -10 -10z"/>
<path d="M11787 10663 c-4 -3 -7 -25 -7 -48 0 -64 -9 -67 -162 -64 l-133 3 -3
-32 c-4 -37 -18 -34 164 -37 61 -1 116 -5 122 -9 6 -4 11 -23 10 -42 -1 -39
13 -60 36 -51 14 5 16 29 16 147 0 129 -1 140 -18 140 -10 0 -22 -3 -25 -7z"/>
<path d="M10382 10628 c-15 -15 -16 -58 -2 -58 6 0 10 6 10 14 0 8 10 22 22
30 20 14 24 14 43 -2 12 -11 31 -16 48 -14 l28 3 -25 20 c-28 22 -105 26 -124
7z"/>
<path d="M23552 10593 c-21 -27 -51 -67 -65 -90 -14 -23 -31 -44 -37 -48 -12
-8 -14 -45 -1 -45 5 0 17 12 26 28 10 15 44 62 77 104 32 43 58 82 58 88 0 21
-19 8 -58 -37z"/>
<path d="M21403 10560 c1 -11 8 -20 16 -20 8 0 23 -8 34 -17 25 -22 14 1 -16
35 -25 27 -36 28 -34 2z"/>
<path d="M13741 10548 c-32 -41 -116 -134 -123 -136 -4 -2 -33 -34 -63 -70
-31 -37 -86 -97 -123 -134 l-67 -68 -117 0 c-64 0 -119 -4 -122 -8 -2 -4 52
-9 122 -10 100 -1 129 -5 138 -17 12 -17 24 -20 24 -6 0 4 19 29 43 53 79 84
106 116 142 162 19 25 35 48 35 50 0 2 32 36 70 75 39 40 70 76 70 81 0 5 3
15 6 24 7 19 -20 22 -35 4z"/>
<path d="M21550 10520 c-12 -16 -28 -30 -37 -30 -9 0 -13 -6 -10 -14 8 -19
-56 -79 -79 -74 -15 3 -19 12 -19 45 0 23 -6 47 -12 54 -11 10 -13 2 -13 -44
0 -64 11 -75 65 -69 23 3 36 11 40 23 4 12 19 22 36 26 21 4 29 11 29 28 0 12
11 32 25 45 28 26 32 40 11 40 -8 0 -24 -13 -36 -30z"/>
<path d="M10492 10528 c3 -7 17 -20 32 -28 24 -13 28 -13 36 0 7 11 4 16 -13
18 -12 2 -26 8 -31 13 -14 13 -28 11 -24 -3z"/>
<path d="M15754 10491 c-26 -25 -220 -227 -266 -276 -20 -22 -44 -46 -53 -54
-23 -19 -72 -9 -126 26 -45 30 -136 57 -144 42 -7 -11 4 -16 50 -25 51 -9 99
-36 152 -85 24 -22 46 -39 51 -39 5 0 18 11 29 23 11 13 29 30 39 38 10 8 35
34 55 59 20 25 89 98 153 164 94 95 114 121 105 132 -15 18 -21 18 -45 -5z"/>
<path d="M20537 10435 c-15 -17 -40 -51 -55 -77 -15 -27 -31 -48 -35 -48 -4 0
-20 -9 -35 -20 -31 -22 -59 -23 -344 -14 -185 6 -188 6 -188 -14 0 -11 8 -23
18 -26 10 -3 127 -7 262 -7 l243 -2 39 44 c77 88 129 161 126 177 -3 13 -9 10
-31 -13z"/>
<path d="M21568 10428 c5 -5 16 -8 23 -6 8 3 3 7 -10 11 -17 4 -21 3 -13 -5z"/>
<path d="M11493 10325 c-8 -6 -14 -20 -11 -31 3 -17 14 -20 89 -24 92 -5 119
-18 119 -55 0 -43 -26 -53 -136 -54 -61 -1 -72 -4 -77 -20 -2 -10 -2 -23 2
-28 3 -5 49 -10 102 -11 84 -2 99 0 123 19 21 16 26 29 26 63 0 23 -5 47 -10
52 -17 17 10 32 60 36 45 3 59 18 42 45 -10 16 -308 23 -329 8z"/>
<path d="M17504 10293 c-21 -26 -55 -63 -74 -83 -19 -19 -35 -44 -35 -55 0
-19 -7 -20 -250 -21 -137 0 -256 -2 -263 -2 -8 -1 -12 -11 -10 -24 3 -21 8
-23 78 -24 41 -1 160 1 263 4 l188 5 19 41 c10 23 37 61 59 86 22 25 41 50 41
57 0 7 6 16 13 20 16 10 30 43 18 43 -4 0 -26 -21 -47 -47z"/>
<path d="M10369 10295 c42 -19 50 -19 25 0 -10 8 -28 14 -39 14 -14 0 -10 -4
14 -14z"/>
<path d="M10485 10263 c39 -9 71 -19 73 -23 1 -4 16 -4 33 -2 22 3 27 7 18 13
-8 5 -21 6 -30 3 -9 -2 -19 1 -22 9 -3 9 -27 13 -73 14 l-69 1 70 -15z"/>
<path d="M13680 10260 c0 -44 54 -119 73 -101 15 15 -42 121 -65 121 -5 0 -8
-9 -8 -20z"/>
<path d="M18406 10256 c3 -7 16 -19 29 -26 14 -7 27 -20 30 -29 5 -16 64 -57
134 -95 48 -26 134 -25 181 1 86 46 150 94 165 122 19 37 19 41 1 41 -8 0 -24
-16 -36 -35 -29 -48 -86 -73 -179 -80 -80 -7 -71 -9 -221 57 -25 11 -52 26
-60 33 -24 19 -50 26 -44 11z"/>
<path d="M15694 10245 c-3 -8 3 -27 13 -42 11 -15 23 -36 26 -45 6 -16 57 -27
57 -12 0 3 -15 30 -32 60 -33 54 -54 67 -64 39z"/>
<path d="M14390 10240 c0 -5 5 -10 10 -10 6 0 10 5 10 10 0 6 -4 10 -10 10 -5
0 -10 -4 -10 -10z"/>
<path d="M15070 10229 c-49 -9 -120 -40 -120 -51 0 -5 -6 -8 -13 -8 -8 0 -26
-14 -41 -31 -27 -30 -27 -31 -4 -24 12 4 38 21 56 36 39 35 94 59 132 59 34 0
60 9 60 21 0 10 -8 10 -70 -2z"/>
<path d="M18380 10190 c0 -5 5 -10 10 -10 6 0 10 5 10 10 0 6 -4 10 -10 10 -5
0 -10 -4 -10 -10z"/>
<path d="M10434 10163 c3 -4 22 -12 41 -19 40 -13 48 1 9 16 -29 11 -61 13
-50 3z"/>
<path d="M10388 10153 c7 -3 16 -2 19 1 4 3 -2 6 -13 5 -11 0 -14 -3 -6 -6z"/>
<path d="M12887 10144 c-12 -12 3 -22 23 -17 11 3 17 9 14 14 -6 10 -28 12
-37 3z"/>
<path d="M12978 10133 c23 -2 61 -2 85 0 23 2 4 4 -43 4 -47 0 -66 -2 -42 -4z"/>
<path d="M20400 10080 c0 -5 5 -10 10 -10 6 0 10 5 10 10 0 6 -4 10 -10 10 -5
0 -10 -4 -10 -10z"/>
<path d="M1731 10024 c0 -11 3 -14 6 -6 3 7 2 16 -1 19 -3 4 -6 -2 -5 -13z"/>
<path d="M10424 10021 c22 -24 88 -37 113 -22 15 9 11 11 -22 11 -22 0 -51 7
-65 15 -35 20 -46 18 -26 -4z"/>
<path d="M11523 10027 c-7 -7 -21 -20 -32 -30 -40 -38 -33 -124 13 -170 37
-37 48 -10 19 50 -15 32 -15 39 -2 62 10 17 23 26 39 26 23 0 25 -4 26 -45 2
-116 3 -120 24 -120 65 0 132 67 126 125 -2 17 -4 35 -5 42 0 6 -15 25 -32 42
-28 29 -36 31 -97 31 -39 -1 -72 -6 -79 -13z m160 -78 c22 -35 -12 -87 -48
-73 -16 6 -22 74 -8 88 12 11 45 2 56 -15z"/>
<path d="M17122 9998 c-25 -25 -2 -78 34 -78 19 0 28 43 14 69 -12 24 -30 27
-48 9z"/>
<path d="M1718 9795 c-2 -131 1 -204 7 -202 12 4 17 407 5 407 -5 0 -11 -92
-12 -205z"/>
<path d="M19692 9906 c1 -57 5 -76 15 -76 18 0 14 141 -4 147 -9 3 -12 -16
-11 -71z"/>
<path d="M16375 9950 c-3 -5 -1 -10 4 -10 6 0 11 5 11 10 0 6 -2 10 -4 10 -3
0 -8 -4 -11 -10z"/>
<path d="M10377 9933 c-19 -19 -5 -31 31 -26 22 3 58 -1 83 -10 67 -23 123
-32 115 -19 -4 6 -23 14 -44 17 -20 4 -46 11 -57 16 -17 7 -99 28 -116 29 -3
0 -9 -3 -12 -7z"/>
<path d="M16655 9808 c-60 -61 -124 -121 -141 -134 -17 -13 -36 -35 -44 -48
-7 -14 -26 -30 -42 -35 -24 -8 -32 -7 -48 9 -11 11 -26 20 -34 20 -7 0 -25 9
-39 20 -14 11 -28 20 -31 20 -5 0 -96 60 -106 70 -3 3 -18 12 -34 20 -16 8
-43 28 -60 43 -66 61 -99 81 -119 73 -9 -3 -9 -5 1 -5 6 -1 12 -10 12 -21 0
-10 10 -25 22 -31 13 -7 34 -25 48 -41 13 -15 30 -28 37 -28 7 0 18 -9 25 -20
7 -11 16 -20 20 -20 3 0 34 -19 69 -42 124 -86 196 -126 210 -117 41 25 379
357 379 372 0 18 -22 -1 -125 -105z"/>
<path d="M10627 9874 c-9 -10 2 -24 19 -24 8 0 14 7 14 15 0 15 -21 21 -33 9z"/>
<path d="M23430 9868 c0 -7 28 -30 63 -50 166 -99 251 -105 404 -31 64 31 93
57 79 71 -3 2 -31 -13 -63 -35 -72 -49 -142 -67 -225 -58 -77 7 -127 27 -195
77 -57 42 -63 44 -63 26z"/>
<path d="M19402 9840 c2 -18 20 -36 68 -67 36 -24 74 -43 84 -43 12 0 -4 14
-39 36 -33 19 -72 50 -88 67 -27 31 -27 32 -25 7z"/>
<path d="M19911 9804 c-24 -18 -49 -34 -55 -34 -7 0 -32 -10 -57 -22 -34 -16
-63 -22 -126 -22 -46 -1 -83 -4 -83 -8 0 -4 24 -10 54 -13 63 -8 139 6 191 35
19 11 40 20 46 20 17 0 68 39 79 61 15 27 1 23 -49 -17z"/>
<path d="M10376 9811 c-3 -5 1 -14 8 -20 16 -13 32 2 21 19 -8 12 -22 13 -29
1z"/>
<path d="M10420 9801 c0 -5 12 -11 28 -13 15 -3 35 -9 45 -13 10 -4 17 -3 17
3 0 6 -17 16 -37 21 -46 13 -53 13 -53 2z"/>
<path d="M17390 9770 c-12 -8 -10 -10 8 -10 13 0 20 4 17 10 -7 12 -6 12 -25
0z"/>
<path d="M10565 9755 c42 -18 95 -28 95 -18 0 10 -72 33 -102 32 -21 -1 -20
-2 7 -14z"/>
<path d="M17527 9740 c-23 -24 -32 -28 -47 -20 -10 6 -22 15 -25 20 -3 6 -11
10 -17 10 -7 0 0 -13 15 -28 34 -36 34 -52 -2 -86 -24 -24 -32 -26 -50 -17
-19 11 -26 41 -24 108 1 7 -3 10 -8 7 -5 -3 -9 -25 -9 -49 0 -35 6 -49 31 -74
17 -17 35 -31 40 -31 5 0 22 20 37 45 28 47 50 56 72 30 7 -8 20 -15 29 -15
12 1 9 7 -11 25 -32 28 -34 41 -12 66 28 32 10 40 -19 9z"/>
<path d="M11580 9750 c-8 -5 -23 -7 -33 -4 -11 3 -29 -6 -50 -27 -29 -29 -32
-38 -32 -91 1 -52 4 -62 32 -90 61 -61 188 -46 221 27 28 61 0 155 -51 174
-45 16 -73 20 -87 11z m90 -85 c21 -22 22 -27 10 -55 -18 -43 -54 -59 -108
-48 -32 7 -46 16 -58 39 -12 25 -13 34 -3 47 25 33 44 42 89 42 36 0 52 -5 70
-25z"/>
<path d="M10391 9693 c-21 -18 -20 -18 45 -19 l67 -1 -34 18 c-43 23 -52 23
-78 2z"/>
<path d="M16675 9684 c-19 -19 -19 -29 1 -48 19 -19 32 -20 47 -3 21 21 18 43
-8 55 -19 9 -27 8 -40 -4z"/>
<path d="M23420 9689 c0 -5 5 -7 10 -4 6 3 10 8 10 11 0 2 -4 4 -10 4 -5 0
-10 -5 -10 -11z"/>
<path d="M20400 9651 c17 -11 510 -20 510 -10 0 9 -117 15 -335 17 -123 2
-185 -1 -175 -7z"/>
<path d="M23719 9638 c-4 -101 15 -158 43 -130 14 14 20 83 12 125 -4 20 -11
27 -30 27 -18 0 -24 -6 -25 -22z"/>
<path d="M1720 9580 c-12 -89 -5 -146 11 -104 11 27 10 76 -1 94 -5 8 -10 13
-10 10z"/>
<path d="M10415 9554 c35 -26 92 -39 110 -24 24 20 18 31 -10 18 -21 -9 -32
-8 -61 5 -43 21 -66 22 -39 1z"/>
<path d="M13513 9537 c-11 -12 -32 -41 -46 -64 -15 -23 -31 -44 -36 -47 -13
-9 -41 -66 -32 -66 11 0 41 34 41 47 0 5 11 20 25 33 27 26 79 109 73 116 -3
2 -14 -6 -25 -19z"/>
<path d="M18422 9533 c-20 -8 -42 -71 -42 -119 0 -38 4 -45 28 -58 16 -8 34
-22 41 -30 8 -9 23 -16 35 -16 20 0 20 1 -3 13 -37 19 -62 60 -67 110 -4 37
-1 50 15 66 31 31 28 48 -7 34z"/>
<path d="M18560 9497 c0 -2 7 -18 16 -36 11 -21 14 -44 10 -67 -7 -35 -40 -74
-63 -74 -7 0 -13 -4 -13 -10 0 -13 3 -13 37 2 37 16 61 41 69 72 4 17 13 26
25 26 15 0 19 -7 17 -38 -1 -39 16 -82 32 -82 13 0 13 6 -2 29 -9 15 -9 28 0
57 13 44 9 54 -21 54 -13 0 -37 15 -56 35 -28 30 -51 44 -51 32z"/>
<path d="M15760 9468 c0 -7 -12 -24 -27 -40 -14 -15 -23 -31 -19 -35 8 -8 76
63 76 79 0 4 -7 8 -15 8 -8 0 -15 -5 -15 -12z"/>
<path d="M10404 9429 c-10 -17 20 -18 86 -5 l65 13 -72 0 c-40 1 -75 -3 -79
-8z"/>
<path d="M11472 9427 c-22 -26 4 -42 72 -43 73 -1 112 -20 122 -58 6 -25 29
-40 45 -30 13 8 11 38 -3 52 -10 10 -10 17 0 33 7 11 10 29 7 40 -6 17 -16 19
-119 19 -80 0 -117 -4 -124 -13z"/>
<path d="M1719 9420 c-1 -8 -3 -73 -4 -144 -2 -88 0 -125 7 -118 13 13 19 228
8 256 -6 15 -9 16 -11 6z"/>
<path d="M15568 9261 c-65 -66 -118 -125 -118 -131 0 -6 -9 -10 -19 -8 -10 2
-28 -5 -38 -15 -19 -17 -21 -16 -46 3 -14 11 -28 20 -32 20 -4 0 -19 13 -35
29 -16 15 -44 36 -62 45 -18 9 -64 39 -103 67 -94 67 -137 89 -178 89 -75 0
-89 -108 -20 -145 44 -24 67 -22 108 9 l33 26 69 -45 c37 -24 95 -63 128 -86
33 -23 69 -44 80 -47 11 -3 30 -12 42 -20 21 -13 23 -12 30 4 3 11 52 66 109
124 130 133 189 200 178 200 -5 0 -62 -54 -126 -119z m-613 71 c6 -4 21 -19
34 -34 23 -26 23 -28 7 -53 -22 -34 -58 -32 -89 4 -37 45 -25 84 28 90 6 0 15
-3 20 -7z"/>
<path d="M19386 9348 c-18 -25 -22 -103 -6 -113 11 -7 13 3 10 52 -1 25 4 35
26 46 27 14 27 15 6 26 -17 9 -23 8 -36 -11z"/>
<path d="M19525 9344 c-21 -14 -46 -23 -56 -21 -15 4 -17 0 -13 -22 6 -30 -27
-81 -52 -81 -21 0 -13 -34 8 -38 13 -2 22 8 34 37 20 50 47 60 85 32 46 -34
58 -24 16 13 l-38 34 31 32 c40 41 34 47 -15 14z"/>
<path d="M10487 9345 c-5 -11 -21 -15 -57 -15 -45 0 -64 -10 -42 -24 13 -8
147 8 147 18 0 5 -10 15 -21 23 -19 12 -22 12 -27 -2z"/>
<path d="M19906 9353 c-3 -4 1 -14 9 -23 8 -9 18 -36 21 -61 5 -37 2 -48 -19
-73 -21 -24 -30 -28 -63 -24 -22 3 -47 8 -58 13 -14 6 -18 5 -14 -6 3 -8 23
-18 45 -23 49 -10 106 14 131 55 21 37 9 112 -22 133 -13 8 -26 12 -30 9z"/>
<path d="M20390 9340 c0 -5 5 -10 10 -10 6 0 10 5 10 10 0 6 -4 10 -10 10 -5
0 -10 -4 -10 -10z"/>
<path d="M19700 9330 c-45 -6 -45 -6 -18 -18 16 -6 34 -26 42 -47 8 -19 20
-35 25 -35 6 0 11 -7 11 -15 0 -8 5 -15 11 -15 7 0 4 11 -6 26 -12 19 -16 39
-12 70 2 24 2 43 -2 42 -3 0 -26 -4 -51 -8z"/>
<path d="M20390 9260 c0 -5 5 -10 10 -10 6 0 10 5 10 10 0 6 -4 10 -10 10 -5
0 -10 -4 -10 -10z"/>
<path d="M11630 9236 c-36 -13 -72 -25 -80 -28 -90 -31 -119 -35 -138 -16 -7
7 -12 20 -12 30 0 11 -7 18 -20 18 -15 0 -20 -7 -20 -26 0 -56 22 -72 190
-133 30 -11 76 -28 102 -37 50 -20 54 -19 60 10 2 15 -12 25 -71 50 -40 17
-73 36 -73 41 0 6 33 21 74 34 75 24 88 33 88 64 0 22 -19 21 -100 -7z"/>
<path d="M15667 9229 c-12 -7 -15 -17 -11 -37 10 -40 20 -47 49 -34 29 13 33
43 9 66 -18 19 -23 19 -47 5z"/>
<path d="M10515 9220 c3 -5 12 -7 20 -3 21 7 19 13 -6 13 -11 0 -18 -4 -14
-10z"/>
<path d="M18600 9180 c-60 -21 -100 -41 -100 -52 0 -11 0 -11 61 19 47 25 65
28 146 27 66 0 97 -4 110 -15 10 -8 31 -21 46 -29 16 -8 42 -31 59 -52 16 -21
34 -35 39 -32 14 8 -4 28 -71 78 -99 76 -184 92 -290 56z"/>
<path d="M10376 9161 c5 -4 36 -14 69 -21 33 -6 71 -14 84 -17 16 -4 22 -2 17
5 -3 6 -27 14 -51 18 -25 3 -48 10 -51 15 -3 5 -22 9 -42 9 -21 0 -32 -4 -26
-9z"/>
<path d="M1715 9118 c-9 -29 -13 -668 -4 -668 5 0 9 53 10 123 0 67 3 220 5
340 5 194 2 244 -11 205z"/>
<path d="M15120 9090 c0 -5 7 -10 15 -10 8 0 15 5 15 10 0 6 -7 10 -15 10 -8
0 -15 -4 -15 -10z"/>
<path d="M18430 9075 c-13 -14 -29 -25 -37 -25 -7 0 -13 -6 -13 -14 0 -18 33
-31 38 -16 3 7 17 23 33 38 16 14 29 29 29 34 0 16 -27 7 -50 -17z"/>
<path d="M7820 9062 c0 -38 -18 -45 -125 -46 -67 -1 -80 -4 -83 -18 -4 -19
-14 -18 178 -19 96 -1 100 0 100 16 0 8 -9 19 -19 25 -11 5 -21 22 -23 37 -4
38 -28 42 -28 5z"/>
<path d="M10375 9050 c3 -5 14 -10 23 -10 9 0 37 -12 61 -25 45 -26 81 -26 81
1 0 9 -11 14 -33 14 -18 0 -37 4 -42 9 -15 13 -98 24 -90 11z"/>
<path d="M20409 9008 c8 -9 44 -13 107 -13 68 0 94 3 94 13 0 9 -28 12 -107
12 -86 0 -104 -2 -94 -12z"/>
<path d="M16370 8986 c0 -10 6 -13 16 -9 15 6 35 -2 106 -38 20 -10 42 -19 49
-19 7 0 20 -6 28 -14 9 -7 27 -17 41 -20 l25 -7 -24 19 c-14 11 -50 30 -80 42
-31 13 -63 29 -71 36 -8 7 -32 15 -52 19 -31 6 -38 4 -38 -9z"/>
<path d="M13669 8979 c-3 -51 4 -126 13 -134 7 -7 8 13 5 63 -3 40 -7 76 -11
79 -3 4 -6 0 -7 -8z"/>
<path d="M23530 8964 c0 -9 11 -29 25 -46 14 -16 25 -35 25 -42 0 -17 38 -51
47 -42 4 3 -3 19 -15 34 -12 15 -31 46 -42 70 -21 43 -40 55 -40 26z"/>
<path d="M10372 8942 c-5 -1 -7 -12 -5 -23 5 -17 11 -19 32 -13 14 4 36 7 49
7 12 -1 22 2 22 6 0 8 -84 28 -98 23z"/>
<path d="M10505 8910 c-18 -7 -19 -8 -2 -15 21 -9 50 1 42 15 -7 12 -13 12
-40 0z"/>
<path d="M23788 8865 c-20 -25 -76 -80 -125 -123 -153 -133 -274 -262 -245
-262 4 0 39 30 77 68 39 37 106 99 149 137 81 72 118 107 172 166 43 49 48 59
27 59 -10 0 -34 -20 -55 -45z"/>
<path d="M11578 8895 c-3 -3 -22 -8 -43 -10 -47 -6 -49 -8 -69 -49 -22 -47
-12 -110 22 -136 51 -41 83 -8 38 39 -33 35 -33 54 2 81 22 18 35 21 71 16 24
-3 50 -11 57 -17 20 -17 17 -63 -6 -84 -20 -18 -28 -65 -10 -65 27 0 61 27 74
60 24 62 -4 130 -67 158 -29 13 -60 16 -69 7z"/>
<path d="M17370 8879 c0 -5 5 -7 10 -4 6 3 10 8 10 11 0 2 -4 4 -10 4 -5 0
-10 -5 -10 -11z"/>
<path d="M7705 8875 c-5 -2 -22 -6 -37 -9 -41 -9 -68 -44 -68 -86 0 -64 55
-94 165 -88 70 3 79 6 102 32 36 42 29 93 -17 124 -25 17 -44 22 -67 18 -18
-2 -35 0 -38 5 -6 9 -21 11 -40 4z m113 -56 c38 -13 47 -44 19 -69 -17 -16
-35 -20 -91 -20 -76 1 -106 14 -106 46 0 24 10 39 30 47 26 10 116 7 148 -4z"/>
<path d="M13380 8870 c0 -6 28 -31 63 -56 34 -25 64 -49 67 -54 3 -4 16 -11
30 -15 22 -7 23 -6 11 9 -8 9 -28 23 -46 32 -33 15 -56 35 -87 73 -19 22 -38
28 -38 11z"/>
<path d="M13884 8837 c-50 -53 -137 -90 -224 -97 -70 -5 -73 -6 -44 -16 58
-22 186 16 258 76 23 19 59 70 49 70 -4 0 -22 -15 -39 -33z"/>
<path d="M16660 8865 c0 -5 99 -52 158 -75 47 -18 52 -4 6 16 -22 9 -62 27
-89 40 -48 23 -75 30 -75 19z"/>
<path d="M8122 8837 c-29 -31 -30 -89 -1 -116 42 -39 175 -54 219 -25 39 26
50 45 50 84 0 69 -70 102 -144 69 -26 -12 -47 -58 -43 -94 3 -30 -44 -27 -60
4 -9 20 -9 29 3 45 15 22 19 56 6 56 -5 0 -18 -10 -30 -23z m223 -30 c13 -10
16 -21 11 -41 -9 -35 -47 -53 -81 -38 -33 15 -41 37 -25 68 15 28 64 33 95 11z"/>
<path d="M8638 8839 c-24 -18 -28 -28 -28 -69 0 -42 4 -51 29 -69 35 -25 68
-27 100 -4 19 13 28 14 42 5 26 -16 60 -15 87 4 30 21 32 101 2 127 -22 19
-65 23 -75 7 -9 -15 -41 -12 -55 5 -18 21 -70 18 -102 -6z m97 -49 c13 -40 -3
-60 -46 -60 -32 0 -41 4 -48 22 -13 35 7 58 51 58 28 0 38 -5 43 -20z m119
-13 c12 -33 -2 -47 -46 -47 -24 0 -28 4 -28 28 0 56 56 71 74 19z"/>
<path d="M9352 8793 c3 -54 2 -58 -20 -61 -13 -2 -31 3 -41 12 -28 26 -149 76
-166 70 -24 -10 -13 -38 15 -43 36 -5 144 -55 185 -86 56 -43 66 -31 64 75 -2
82 -4 90 -22 90 -17 0 -19 -6 -15 -57z"/>
<path d="M9654 8831 c-43 -26 -56 -90 -27 -129 35 -47 95 -53 143 -14 16 13
22 29 23 62 2 41 4 45 29 48 39 5 58 -35 34 -69 -31 -44 -8 -70 27 -31 27 30
22 84 -11 115 -25 24 -39 28 -108 33 -68 5 -83 3 -110 -15z m94 -43 c18 -18
14 -42 -11 -67 -20 -18 -28 -20 -51 -11 -33 12 -42 34 -28 66 9 18 19 24 45
24 18 0 38 -5 45 -12z"/>
<path d="M10298 8843 c6 -2 18 -2 25 0 6 3 1 5 -13 5 -14 0 -19 -2 -12 -5z"/>
<path d="M10370 8792 c0 -7 -7 -26 -15 -42 -11 -22 -23 -30 -42 -30 -21 0 -24
-3 -15 -12 19 -19 76 3 80 32 6 36 22 52 48 46 13 -4 26 -2 29 4 7 11 53 3 73
-13 8 -6 12 -6 12 1 0 21 -28 30 -97 29 -54 -1 -73 -5 -73 -15z"/>
<path d="M15380 8740 c-9 -41 -9 -63 -2 -76 9 -16 12 -13 18 24 4 23 10 45 15
48 9 5 49 -31 49 -45 0 -20 -41 -60 -57 -54 -13 5 -14 3 -4 -15 17 -31 36 -27
60 13 24 42 34 43 77 10 18 -14 35 -21 39 -16 3 6 -8 20 -25 32 -35 26 -37 37
-13 55 25 18 8 30 -21 15 -31 -17 -58 -7 -94 34 l-30 33 -12 -58z"/>
<path d="M15860 8746 c0 -8 9 -17 19 -21 23 -7 35 -52 26 -95 -9 -40 -58 -80
-100 -80 -29 0 -36 5 -55 42 -18 34 -21 52 -16 90 l7 48 -33 -7 c-43 -8 -47
-12 -25 -27 10 -8 17 -26 17 -46 0 -31 29 -83 60 -107 8 -7 36 -13 61 -13 41
0 51 4 77 35 32 36 48 89 38 128 -11 46 -76 91 -76 53z"/>
<path d="M10450 8722 c0 -13 34 -37 66 -46 15 -5 23 -1 28 11 3 10 9 25 12 33
5 12 4 13 -7 3 -17 -16 -71 -17 -87 -1 -9 9 -12 9 -12 0z"/>
<path d="M17370 8720 c0 -5 5 -10 11 -10 5 0 7 5 4 10 -3 6 -8 10 -11 10 -2 0
-4 -4 -4 -10z"/>
<path d="M11478 8603 c-10 -2 -18 -13 -18 -23 0 -15 11 -19 68 -25 102 -10
121 -15 133 -37 8 -14 7 -28 -1 -49 -13 -31 -3 -29 -150 -33 -38 -1 -45 -4
-48 -23 -3 -18 3 -23 34 -29 20 -4 69 -4 108 -1 94 8 111 26 102 110 l-6 57
49 0 c36 0 50 4 55 17 4 9 2 21 -3 26 -9 9 -292 18 -323 10z"/>
<path d="M16360 8569 c0 -5 5 -7 10 -4 6 3 10 8 10 11 0 2 -4 4 -10 4 -5 0
-10 -5 -10 -11z"/>
<path d="M17365 8560 c-3 -5 -1 -10 4 -10 6 0 11 5 11 10 0 6 -2 10 -4 10 -3
0 -8 -4 -11 -10z"/>
<path d="M13358 8519 c-23 -40 -22 -98 1 -126 26 -31 33 -29 15 5 -17 33 -18
54 -2 70 9 9 9 12 0 12 -7 0 -12 7 -12 15 0 25 34 17 64 -14 24 -26 26 -32 16
-52 -10 -20 -10 -22 1 -11 7 6 23 12 36 12 16 0 21 4 16 16 -3 9 6 27 23 45
31 33 15 39 -23 9 -35 -27 -47 -25 -85 15 l-33 35 -17 -31z"/>
<path d="M20390 8529 c0 -5 5 -7 10 -4 6 3 10 8 10 11 0 2 -4 4 -10 4 -5 0
-10 -5 -10 -11z"/>
<path d="M19375 8514 c-8 -12 -33 -17 -105 -21 -52 -3 -97 -7 -99 -9 -2 -2 41
-4 95 -4 l100 0 34 -35 c48 -50 58 -43 15 9 -22 27 -32 47 -25 51 12 7 14 25
2 25 -4 0 -12 -7 -17 -16z"/>
<path d="M18855 8490 c4 -6 11 -8 16 -5 14 9 11 15 -7 15 -8 0 -12 -5 -9 -10z"/>
<path d="M19035 8489 c7 -11 55 -12 72 -1 6 4 -9 8 -33 9 -25 1 -42 -3 -39 -8z"/>
<path d="M10363 8468 c2 -7 10 -13 17 -13 7 0 15 6 18 13 2 7 -5 12 -18 12
-13 0 -20 -5 -17 -12z"/>
<path d="M10435 8461 c6 -5 30 -12 55 -15 31 -4 37 -3 20 2 -53 18 -85 24 -75
13z"/>
<path d="M19890 8435 c-30 -32 -14 -32 25 0 20 16 25 24 14 25 -8 0 -26 -11
-39 -25z"/>
<path d="M1700 8425 c0 -8 5 -15 10 -15 6 0 10 7 10 15 0 8 -4 15 -10 15 -5 0
-10 -7 -10 -15z"/>
<path d="M19480 8387 c0 -2 24 -21 53 -40 40 -27 66 -37 114 -42 57 -6 65 -5
96 19 19 14 39 26 45 26 7 0 12 5 12 10 0 6 -9 10 -20 10 -11 0 -20 -5 -20
-10 0 -6 -15 -8 -40 -4 -25 4 -40 3 -40 -4 0 -6 -13 -4 -32 5 -24 12 -38 14
-59 6 -20 -8 -31 -7 -41 3 -13 13 -68 30 -68 21z"/>
<path d="M1704 8348 c-12 -19 -18 -745 -6 -733 7 6 12 144 14 378 2 202 2 367
1 367 -1 0 -5 -5 -9 -12z"/>
<path d="M10414 8335 c11 -8 26 -15 33 -15 7 0 22 -5 32 -12 20 -12 51 -5 51
12 0 5 -20 10 -44 10 -25 0 -48 5 -51 10 -3 6 -14 10 -23 10 -15 -1 -15 -2 2
-15z"/>
<path d="M18615 8330 c-3 -5 1 -10 9 -10 8 0 18 5 21 10 3 6 -1 10 -9 10 -8 0
-18 -4 -21 -10z"/>
<path d="M20530 8292 c-18 -20 -53 -61 -78 -90 l-46 -52 -278 6 c-287 6 -294
5 -270 -32 10 -17 471 -29 516 -14 33 11 79 55 163 157 48 59 42 83 -7 25z"/>
<path d="M11518 8313 c-60 -10 -93 -96 -62 -159 19 -37 48 -63 58 -53 3 3 -1
27 -10 53 -13 38 -14 52 -4 76 13 32 38 46 54 30 6 -6 11 -47 11 -90 0 -46 4
-80 10 -81 59 -6 107 17 125 60 23 57 14 106 -28 144 -21 19 -102 29 -154 20z
m145 -84 c14 -22 -12 -74 -38 -74 -17 0 -20 7 -21 40 0 22 1 44 4 48 6 13 44
4 55 -14z"/>
<path d="M16570 8307 c-62 -24 -194 -89 -212 -105 -11 -9 -27 -12 -45 -8 -15
4 -65 9 -109 12 -131 9 -165 -18 -239 -187 -48 -110 -64 -197 -37 -206 8 -3
12 9 12 41 0 26 4 54 9 64 5 9 19 36 30 60 12 24 26 49 31 55 50 63 75 87 90
87 10 0 23 6 29 14 17 20 64 29 156 30 67 1 85 5 113 25 106 75 249 85 395 26
25 -10 21 10 -5 24 -47 25 -68 38 -87 55 -26 23 -88 29 -131 13z"/>
<path d="M18575 8306 c-82 -43 -135 -111 -176 -221 -12 -33 -25 -64 -29 -70
-4 -5 -4 -41 1 -78 9 -77 1 -97 -73 -165 -21 -19 -38 -40 -38 -47 0 -7 -7 -15
-15 -19 -8 -3 -20 -17 -25 -31 -5 -14 -16 -25 -24 -25 -18 0 -49 -48 -42 -66
6 -15 28 -20 24 -6 -2 5 12 21 30 36 17 15 32 34 32 42 0 8 6 14 13 14 8 0 19
10 26 23 7 13 28 31 47 42 19 10 34 23 34 30 0 6 11 26 24 44 20 26 23 38 16
57 -6 14 -6 50 -1 87 5 34 6 67 4 74 -13 33 129 243 164 243 7 0 13 6 13 14 0
8 6 16 13 19 6 2 10 6 7 9 -3 3 -14 0 -25 -6z"/>
<path d="M23386 8280 c-20 -51 -20 -83 0 -121 14 -28 19 -30 52 -24 20 3 43
15 51 26 16 23 34 24 66 3 33 -21 32 -7 -1 28 l-27 27 28 36 c33 44 25 58 -13
22 -37 -36 -59 -34 -103 9 l-36 35 -17 -41z m68 -31 c43 -34 30 -89 -21 -89
-25 0 -37 28 -29 70 2 14 5 28 5 33 2 12 17 8 45 -14z"/>
<path d="M10362 8232 c3 -15 18 -18 133 -25 52 -3 62 14 10 18 -22 2 -64 7
-93 13 -46 8 -53 7 -50 -6z"/>
<path d="M7763 8228 c-7 -8 -42 -24 -78 -37 -73 -26 -84 -35 -57 -50 14 -7 21
-5 29 7 5 9 31 23 56 30 48 15 72 33 65 53 -3 8 -7 7 -15 -3z"/>
<path d="M8600 8209 c0 -5 5 -7 10 -4 6 3 10 8 10 11 0 2 -4 4 -10 4 -5 0 -10
-5 -10 -11z"/>
<path d="M8714 8212 c-5 -4 -20 -24 -33 -44 -12 -21 -29 -38 -37 -38 -8 0 -14
-4 -14 -10 0 -22 40 -8 62 21 13 17 34 41 47 55 22 22 22 24 5 24 -10 0 -24
-4 -30 -8z"/>
<path d="M9134 8201 c-35 -22 -49 -58 -35 -94 14 -36 34 -46 25 -13 -3 14 -4
36 0 49 7 31 58 59 93 51 19 -4 25 -3 18 4 -21 21 -69 23 -101 3z"/>
<path d="M8265 8200 c-3 -5 -40 -8 -85 -5 -58 3 -80 0 -80 -8 0 -11 72 -13
215 -7 l30 1 -34 14 c-40 18 -38 18 -46 5z"/>
<path d="M9644 8198 c-23 -11 -49 -56 -39 -67 4 -3 14 4 23 16 19 25 61 43
100 43 21 0 24 2 12 10 -19 12 -69 12 -96 -2z"/>
<path d="M16830 8189 c16 -29 51 -62 58 -54 4 3 2 9 -4 13 -5 4 -17 19 -27 35
-21 32 -43 38 -27 6z"/>
<path d="M18140 8166 c0 -11 53 -96 57 -92 6 5 -44 96 -52 96 -3 0 -5 -2 -5
-4z"/>
<path d="M8777 8146 c-4 -10 -5 -21 -2 -24 9 -9 17 6 13 25 -3 17 -4 17 -11
-1z"/>
<path d="M16609 8150 c-5 -39 -2 -45 20 -48 30 -5 45 10 36 37 -7 22 -54 31
-56 11z"/>
<path d="M18050 8151 c0 -15 41 -81 50 -81 12 0 0 37 -16 51 -8 6 -14 18 -14
25 0 8 -4 14 -10 14 -5 0 -10 -4 -10 -9z"/>
<path d="M8360 8124 c0 -8 5 -12 10 -9 6 3 10 10 10 16 0 5 -4 9 -10 9 -5 0
-10 -7 -10 -16z"/>
<path d="M9269 8112 c-2 -7 -13 -14 -24 -16 -21 -3 -31 -21 -17 -30 15 -9 56
28 50 45 -4 11 -6 11 -9 1z"/>
<path d="M9605 8078 c10 -43 14 -50 28 -41 14 8 27 9 155 11 50 1 92 6 92 11
0 5 -16 9 -35 9 -20 0 -41 5 -48 11 -10 7 -19 7 -33 -3 -28 -20 -122 -9 -135
15 -16 31 -31 23 -24 -13z"/>
<path d="M23390 8074 c0 -8 5 -12 10 -9 6 4 8 11 5 16 -9 14 -15 11 -15 -7z"/>
<path d="M8124 8072 c-28 -18 -48 -102 -24 -102 6 0 10 12 10 26 0 15 12 38
29 55 22 22 25 29 13 29 -9 0 -22 -4 -28 -8z"/>
<path d="M8202 8071 c2 -7 7 -12 11 -12 12 1 9 15 -3 20 -7 2 -11 -2 -8 -8z"/>
<path d="M18110 8055 c0 -18 19 -40 26 -32 4 4 0 15 -9 24 -9 10 -17 13 -17 8z"/>
<path d="M20385 8050 c-3 -5 -1 -10 4 -10 6 0 11 5 11 10 0 6 -2 10 -4 10 -3
0 -8 -4 -11 -10z"/>
<path d="M8600 8028 c0 -14 7 -16 38 -11 63 10 69 21 14 24 -44 3 -52 1 -52
-13z"/>
<path d="M8710 8031 c0 -5 14 -14 32 -20 26 -9 34 -9 40 3 6 10 17 12 42 6 19
-4 37 -5 40 -2 17 16 -2 22 -74 22 -44 0 -80 -4 -80 -9z"/>
<path d="M11488 8019 c-36 -18 -47 -37 -50 -84 -2 -31 30 -91 56 -105 46 -24
64 17 20 46 -20 14 -24 24 -22 53 3 33 6 36 43 42 21 4 56 4 77 1 34 -4 38 -8
44 -40 5 -26 3 -38 -8 -46 -20 -15 -30 -48 -19 -65 8 -12 13 -12 35 2 32 22
42 42 45 94 2 35 -3 47 -32 79 -31 34 -39 38 -93 40 -43 2 -69 -2 -96 -17z"/>
<path d="M7610 7995 c-27 -29 -20 -32 16 -8 15 9 43 16 65 15 24 -1 38 2 34 8
-3 6 -25 10 -49 10 -32 0 -48 -6 -66 -25z"/>
<path d="M9120 7988 c-35 -38 -24 -51 20 -23 44 28 61 30 92 14 26 -14 33 -6
13 15 -25 25 -99 21 -125 -6z"/>
<path d="M20110 7995 c-15 -18 -6 -41 23 -59 22 -14 38 8 35 44 -4 30 -38 39
-58 15z"/>
<path d="M9596 7945 c-7 -34 7 -85 22 -85 5 0 12 17 16 39 7 48 25 63 68 59
18 -2 35 2 38 7 3 6 -23 11 -67 11 l-71 2 -6 -33z"/>
<path d="M8217 7963 c-14 -13 -6 -24 15 -21 27 4 36 28 11 28 -11 0 -23 -3
-26 -7z"/>
<path d="M8757 7951 c-6 -24 -62 -35 -116 -22 -35 8 -41 7 -41 -8 0 -14 12
-16 79 -15 90 1 101 6 101 40 0 28 -16 32 -23 5z"/>
<path d="M10426 7942 c-41 -22 -45 -28 -28 -30 12 -2 37 6 56 17 18 12 41 21
50 21 9 0 16 5 16 10 0 18 -44 10 -94 -18z"/>
<path d="M19370 7959 c0 -5 5 -7 10 -4 6 3 10 8 10 11 0 2 -4 4 -10 4 -5 0
-10 -5 -10 -11z"/>
<path d="M7756 7895 c-11 -8 -16 -18 -12 -22 3 -4 16 3 29 15 24 25 12 29 -17
7z"/>
<path d="M7630 7871 c30 -25 100 -29 100 -6 0 11 -10 14 -37 12 -21 -1 -49 2
-63 6 l-25 8 25 -20z"/>
<path d="M9780 7880 c0 -5 -11 -12 -25 -16 -26 -6 -32 -18 -15 -29 10 -6 50
29 50 45 0 6 -2 10 -5 10 -3 0 -5 -4 -5 -10z"/>
<path d="M8135 7867 c-19 -9 -45 -49 -45 -69 0 -17 19 -7 26 14 9 29 33 47 62
48 12 0 22 5 22 10 0 13 -38 11 -65 -3z"/>
<path d="M9105 7870 c-3 -5 -4 -14 0 -19 6 -10 263 -7 273 3 3 4 0 12 -6 18
-7 7 -12 8 -12 2 0 -11 -217 -10 -228 0 -8 9 -20 7 -27 -4z"/>
<path d="M8649 7824 c-31 -16 -54 -42 -46 -50 3 -4 18 3 33 15 18 14 41 21 73
21 45 1 45 1 21 15 -30 17 -47 17 -81 -1z"/>
<path d="M10360 7832 c0 -6 17 -16 38 -21 21 -6 46 -17 57 -25 13 -10 31 -13
51 -10 18 3 40 2 50 -4 11 -5 36 -12 57 -16 30 -6 37 -4 37 9 0 10 -10 15 -33
15 -17 0 -48 5 -67 11 -19 5 -44 12 -55 14 -19 4 -65 16 -112 30 -14 5 -23 3
-23 -3z"/>
<path d="M7760 7780 c-8 -5 -38 -7 -67 -3 -69 8 -103 -2 -103 -28 0 -18 2 -20
16 -8 16 13 123 17 160 5 10 -3 25 -1 33 3 12 8 12 12 2 25 -15 18 -21 19 -41
6z"/>
<path d="M9016 7771 c-10 -11 -16 -34 -15 -62 l1 -44 8 37 c4 21 15 47 24 57
10 10 13 22 8 25 -5 3 -17 -3 -26 -13z"/>
<path d="M16345 7770 c-4 -6 -3 -16 3 -22 6 -6 12 -6 17 2 4 6 3 16 -3 22 -6
6 -12 6 -17 -2z"/>
<path d="M9095 7758 c-7 -22 -10 -128 -4 -128 11 0 19 29 19 64 0 18 5 37 11
43 12 12 4 33 -12 33 -5 0 -12 -6 -14 -12z"/>
<path d="M9183 7759 c-13 -5 -23 -15 -23 -24 0 -20 7 -19 32 5 25 23 22 31 -9
19z"/>
<path d="M9225 7760 c3 -5 13 -10 21 -10 8 0 12 5 9 10 -3 6 -13 10 -21 10 -8
0 -12 -4 -9 -10z"/>
<path d="M9740 7761 c-14 -4 -74 -5 -134 -3 -89 4 -108 2 -104 -9 6 -18 69
-25 186 -21 82 4 92 6 92 23 0 20 -2 21 -40 10z"/>
<path d="M8102 7743 c3 -16 14 -18 88 -19 102 -1 191 6 185 15 -2 4 -56 5
-119 3 -73 -2 -123 1 -137 8 -18 10 -20 9 -17 -7z"/>
<path d="M11453 7743 c-9 -24 4 -37 48 -47 62 -15 62 -37 1 -71 -48 -26 -65
-52 -54 -83 3 -9 11 -7 30 7 39 27 109 61 126 61 9 0 30 -16 47 -35 37 -40 49
-44 49 -14 0 23 -58 109 -74 109 -7 0 -7 3 0 10 6 6 46 14 90 18 73 6 79 9 79
30 0 22 0 23 -169 25 -125 1 -170 -1 -173 -10z"/>
<path d="M8781 7734 c0 -11 3 -14 6 -6 3 7 2 16 -1 19 -3 4 -6 -2 -5 -13z"/>
<path d="M19753 7694 c-21 -26 -46 -55 -56 -66 -10 -11 -16 -22 -12 -26 6 -6
98 89 116 121 19 34 -10 17 -48 -29z"/>
<path d="M8758 7696 c-9 -8 -37 -16 -64 -18 -49 -3 -49 -4 -20 -16 16 -7 36
-10 45 -7 22 8 65 44 59 51 -3 3 -12 -2 -20 -10z"/>
<path d="M10362 7699 c2 -6 8 -10 13 -10 5 0 11 4 13 10 2 6 -4 11 -13 11 -9
0 -15 -5 -13 -11z"/>
<path d="M10420 7695 c14 -7 27 -11 30 -9 6 7 -22 24 -40 23 -9 0 -5 -6 10
-14z"/>
<path d="M10500 7685 c-10 -13 -9 -15 9 -15 12 0 21 6 21 15 0 8 -4 15 -9 15
-5 0 -14 -7 -21 -15z"/>
<path d="M9256 7674 c-11 -8 -28 -14 -38 -14 -10 0 -18 -4 -18 -10 0 -5 15
-10 34 -10 26 0 36 5 41 21 9 27 4 30 -19 13z"/>
<path d="M9780 7655 c0 -8 -6 -15 -14 -15 -7 0 -19 -7 -26 -15 -7 -8 -23 -15
-37 -15 -13 0 -22 -4 -19 -9 9 -14 76 5 91 26 14 18 20 43 10 43 -3 0 -5 -7
-5 -15z"/>
<path d="M7640 7653 c-26 -11 -49 -47 -49 -78 l0 -30 12 35 c8 24 23 40 44 50
46 21 40 41 -7 23z"/>
<path d="M7715 7640 c4 -6 11 -8 16 -5 14 9 11 15 -7 15 -8 0 -12 -5 -9 -10z"/>
<path d="M18940 7609 c0 -5 5 -7 10 -4 6 3 10 8 10 11 0 2 -4 4 -10 4 -5 0
-10 -5 -10 -11z"/>
<path d="M10370 7585 c-14 -16 -10 -18 14 -9 9 3 16 10 16 15 0 14 -16 11 -30
-6z"/>
<path d="M18960 7594 c0 -18 146 -134 169 -134 5 0 14 -7 21 -15 6 -8 55 -40
108 -71 53 -31 105 -64 115 -73 17 -14 27 -5 152 125 132 136 173 188 98 124
-21 -18 -75 -70 -119 -116 -90 -93 -107 -99 -160 -59 -18 14 -38 25 -43 25
-18 0 -54 23 -96 62 -22 20 -63 48 -92 63 -29 14 -55 30 -58 35 -3 6 -14 10
-23 10 -9 0 -29 7 -44 14 -16 8 -28 13 -28 10z"/>
<path d="M1687 7558 c-3 -13 -6 -149 -6 -303 -2 -400 -10 -927 -17 -1086 -3
-85 -2 -139 4 -143 17 -10 19 54 21 489 1 231 4 458 6 505 6 126 8 551 2 556
-2 3 -7 -5 -10 -18z"/>
<path d="M18081 7528 c-23 -28 -51 -58 -61 -65 -22 -16 -27 -53 -7 -53 7 0 40
28 75 63 49 49 60 67 56 85 -4 12 -10 22 -13 22 -4 0 -26 -23 -50 -52z"/>
<path d="M8653 7548 c-25 -12 -29 -23 -13 -33 6 -3 10 -2 10 3 0 6 17 17 38
25 31 14 33 16 12 16 -14 0 -35 -5 -47 -11z"/>
<path d="M9106 7538 c-20 -29 -20 -59 0 -84 15 -18 15 -17 10 15 -5 28 -1 37
25 62 l31 29 -25 0 c-15 0 -32 -9 -41 -22z"/>
<path d="M9193 7553 c9 -2 25 -2 35 0 9 3 1 5 -18 5 -19 0 -27 -2 -17 -5z"/>
<path d="M7710 7525 c0 -8 6 -15 14 -15 22 0 28 17 10 24 -22 9 -24 8 -24 -9z"/>
<path d="M9626 7519 c-39 -31 -31 -42 14 -19 21 11 56 20 77 20 28 0 34 3 23
10 -26 17 -86 11 -114 -11z"/>
<path d="M8755 7490 c-3 -5 -19 -10 -36 -10 -16 0 -29 -5 -29 -11 0 -5 -16
-17 -35 -25 -19 -8 -35 -19 -35 -24 0 -16 29 -11 51 9 11 10 40 22 65 26 35 5
44 10 44 26 0 20 -15 26 -25 9z"/>
<path d="M18482 7475 c-14 -31 -45 -32 -72 -5 l-21 21 -19 -23 c-13 -15 -19
-39 -20 -71 0 -81 43 -100 85 -37 11 16 24 30 30 30 5 0 24 -14 42 -32 21 -21
33 -27 33 -17 0 8 -13 23 -30 32 -36 22 -40 57 -10 87 23 23 26 40 7 40 -8 0
-19 -11 -25 -25z m-46 -50 c9 -21 -25 -77 -44 -73 -21 4 -29 72 -12 93 14 16
47 4 56 -20z"/>
<path d="M9269 7472 c-2 -7 -13 -14 -24 -16 -26 -4 -32 -26 -7 -26 23 0 46 24
40 42 -4 11 -6 10 -9 0z"/>
<path d="M19683 7474 c-19 -8 -16 -28 10 -52 28 -27 50 -15 45 24 -3 29 -26
40 -55 28z"/>
<path d="M10402 7455 c19 -21 118 -34 118 -16 0 6 -3 11 -7 12 -5 0 -24 2 -43
3 -19 2 -46 7 -60 11 -24 7 -24 7 -8 -10z"/>
<path d="M7590 7439 c0 -5 5 -7 10 -4 6 3 10 8 10 11 0 2 -4 4 -10 4 -5 0 -10
-5 -10 -11z"/>
<path d="M7691 7424 c-12 -15 -21 -31 -21 -35 0 -5 -15 -18 -32 -29 -27 -16
-29 -20 -13 -20 26 0 65 27 65 45 0 7 11 22 25 33 28 22 32 32 11 32 -8 0 -24
-12 -35 -26z"/>
<path d="M16350 7440 c0 -5 5 -10 10 -10 6 0 10 5 10 10 0 6 -4 10 -10 10 -5
0 -10 -4 -10 -10z"/>
<path d="M16520 7433 c-8 -2 -42 -40 -74 -83 -32 -44 -64 -80 -70 -80 -7 0
-13 -12 -14 -26 -2 -24 0 -25 17 -13 22 16 173 213 159 208 -2 -1 -10 -3 -18
-6z"/>
<path d="M20640 7433 c-54 -22 -128 -58 -171 -83 -27 -17 -56 -30 -64 -30 -11
0 -15 -11 -15 -37 l0 -37 28 26 c15 15 52 39 82 55 51 26 64 28 165 28 l111 0
54 -39 c30 -22 61 -46 67 -54 7 -9 16 -12 20 -8 9 9 -92 107 -154 149 -41 28
-95 42 -123 30z"/>
<path d="M9622 7398 c2 -7 17 -19 33 -27 33 -16 99 -1 109 25 5 12 2 15 -11 9
-36 -14 -91 -17 -113 -5 -18 10 -21 9 -18 -2z"/>
<path d="M10350 7369 c0 -5 12 -14 28 -20 15 -6 35 -15 45 -20 9 -5 38 -12 62
-16 40 -5 45 -4 45 14 0 16 -6 19 -27 16 -16 -3 -56 5 -90 15 -35 11 -63 16
-63 11z"/>
<path d="M7755 7360 c-3 -5 -1 -10 4 -10 6 0 11 5 11 10 0 6 -2 10 -4 10 -3 0
-8 -4 -11 -10z"/>
<path d="M9765 7300 c-3 -5 -37 -10 -74 -10 -76 0 -109 -16 -97 -46 8 -18 9
-18 17 4 7 20 16 23 56 22 27 0 59 0 72 0 14 0 28 -5 32 -12 5 -8 11 -7 22 3
12 12 12 18 2 32 -14 19 -21 21 -30 7z"/>
<path d="M10500 7273 c0 -5 4 -15 10 -23 11 -18 25 -7 17 15 -6 15 -27 21 -27
8z"/>
<path d="M20642 7268 c-32 -32 0 -78 42 -62 30 11 14 74 -19 74 -6 0 -16 -5
-23 -12z"/>
<path d="M10356 7213 c-3 -3 -6 -13 -6 -20 0 -11 8 -13 29 -8 28 6 97 -11 143
-36 27 -15 45 3 22 22 -9 8 -27 15 -38 15 -28 2 -125 23 -135 29 -5 2 -11 2
-15 -2z"/>
<path d="M10350 7091 c0 -14 122 -54 170 -56 25 -1 55 -7 67 -13 29 -16 53
-15 53 2 0 9 -19 15 -57 20 -31 4 -61 10 -67 15 -11 8 -135 41 -156 41 -5 0
-10 -4 -10 -9z"/>
<path d="M10346 6974 c-3 -9 -6 -17 -6 -19 0 -1 17 -2 38 -1 21 0 56 -6 79
-13 23 -8 49 -11 57 -8 17 7 22 37 6 37 -5 0 -10 -5 -10 -11 0 -7 -10 -9 -27
-4 -16 4 -41 9 -58 12 -16 3 -38 9 -47 14 -22 12 -25 12 -32 -7z"/>
<path d="M18345 6950 c3 -5 8 -10 11 -10 2 0 4 5 4 10 0 6 -5 10 -11 10 -5 0
-7 -4 -4 -10z"/>
<path d="M17340 6930 c0 -5 5 -10 10 -10 6 0 10 5 10 10 0 6 -4 10 -10 10 -5
0 -10 -4 -10 -10z"/>
<path d="M10350 6850 c-12 -23 2 -27 19 -6 11 12 18 12 57 -1 55 -19 71 -9 21
12 -50 21 -84 19 -97 -5z"/>
<path d="M15935 6810 c4 -6 51 -45 106 -88 56 -42 119 -92 142 -110 23 -18 68
-51 100 -73 44 -31 57 -46 58 -67 1 -16 3 -20 6 -10 8 30 28 31 343 27 110 -1
163 1 157 7 -3 3 -113 8 -244 11 -188 4 -240 8 -249 19 -6 8 -18 14 -27 14
-20 0 -87 39 -87 51 0 5 -6 9 -13 9 -7 0 -34 19 -59 43 -25 23 -59 52 -74 64
-62 47 -119 96 -122 104 -2 5 -13 9 -23 9 -11 0 -17 -5 -14 -10z"/>
<path d="M19464 6798 c-51 -57 -99 -131 -99 -151 -1 -12 -4 -28 -9 -35 -5 -8
-4 -18 1 -23 7 -7 30 15 66 60 32 38 57 74 57 79 0 4 9 18 20 30 17 18 19 25
8 42 -16 25 -20 25 -44 -2z"/>
<path d="M10358 6768 c-22 -27 -15 -39 20 -32 15 3 47 -1 72 -10 48 -17 90
-21 75 -8 -6 5 -37 16 -70 26 -33 10 -64 25 -70 32 -8 11 -13 10 -27 -8z"/>
<path d="M10344 6651 c4 -6 14 -11 22 -11 8 0 36 -10 62 -23 47 -23 96 -25 89
-4 -2 6 -30 17 -63 24 -110 25 -117 26 -110 14z"/>
<path d="M20670 6499 c-101 -107 -229 -238 -273 -278 l-26 -24 -36 28 c-20 15
-39 24 -43 20 -7 -6 20 -32 79 -75 l26 -19 36 39 c19 22 38 40 40 40 9 0 167
157 167 165 0 4 36 42 79 85 63 61 78 82 74 99 -3 12 -10 21 -17 21 -6 0 -54
-46 -106 -101z"/>
<path d="M10345 6539 c-10 -16 0 -21 42 -24 21 -2 57 -7 80 -12 44 -11 53 -8
53 12 0 9 -14 11 -45 7 -25 -2 -50 0 -57 5 -21 17 -66 24 -73 12z"/>
<path d="M18335 6540 c-3 -5 -1 -10 4 -10 6 0 11 5 11 10 0 6 -2 10 -4 10 -3
0 -8 -4 -11 -10z"/>
<path d="M19836 6501 c-6 -10 10 -25 37 -34 16 -6 22 -28 17 -72 -3 -32 -28
-65 -64 -82 -45 -21 -83 -3 -114 57 -20 37 -21 47 -11 67 19 36 1 47 -50 31
-51 -16 -56 -39 -6 -31 30 5 35 3 34 -13 -4 -43 3 -62 33 -93 42 -43 68 -52
112 -40 49 14 86 61 86 110 0 45 -21 94 -45 103 -21 8 -23 8 -29 -3z"/>
<path d="M19334 6459 c-27 -53 -2 -159 38 -159 12 0 51 40 67 67 8 15 12 16
38 3 44 -22 50 -23 26 -5 -28 20 -29 49 -3 82 27 34 13 54 -15 22 -33 -39 -49
-40 -86 -9 -19 16 -37 29 -41 30 -4 0 -15 -14 -24 -31z m63 -21 c29 -27 29
-61 1 -88 -21 -19 -23 -19 -41 -3 -15 14 -18 26 -13 57 11 63 17 68 53 34z"/>
<path d="M10347 6423 c-4 -3 -7 -18 -7 -32 0 -23 1 -24 14 -6 16 23 71 23 118
0 l33 -16 -29 25 c-36 30 -111 47 -129 29z"/>
<path d="M16644 6328 c1 -36 6 -62 11 -60 14 3 13 114 -1 119 -8 3 -11 -16
-10 -59z"/>
<path d="M20687 6334 c-11 -11 4 -55 29 -81 13 -14 26 -34 30 -45 6 -21 27
-19 32 4 3 15 -65 128 -78 128 -4 0 -10 -3 -13 -6z"/>
<path d="M10358 6309 c-10 -5 -18 -17 -18 -25 0 -12 4 -13 21 -4 15 8 34 8 70
1 87 -19 97 -11 19 14 -41 14 -75 25 -75 25 0 -1 -8 -5 -17 -11z"/>
<path d="M20025 6313 c-33 -8 -85 -35 -85 -44 0 -9 59 -1 75 11 32 23 130 27
177 7 72 -31 88 -36 88 -28 0 38 -171 74 -255 54z"/>
<path d="M10616 6254 c-8 -22 1 -31 16 -16 9 9 9 15 1 23 -7 7 -12 5 -17 -7z"/>
<path d="M19842 6217 c-43 -46 -22 -50 33 -7 36 28 36 30 13 30 -13 0 -34 -10
-46 -23z"/>
<path d="M10340 6175 c0 -9 5 -15 11 -13 6 2 11 8 11 13 0 5 -5 11 -11 13 -6
2 -11 -4 -11 -13z"/>
<path d="M10497 6144 c-8 -8 1 -24 14 -24 5 0 9 7 9 15 0 15 -12 20 -23 9z"/>
<path d="M17335 6131 c-3 -5 -1 -12 5 -16 5 -3 10 1 10 9 0 18 -6 21 -15 7z"/>
<path d="M23360 6130 c0 -5 5 -10 10 -10 6 0 10 5 10 10 0 6 -4 10 -10 10 -5
0 -10 -4 -10 -10z"/>
<path d="M20360 6099 c0 -5 5 -7 10 -4 6 3 10 8 10 11 0 2 -4 4 -10 4 -5 0
-10 -5 -10 -11z"/>
<path d="M21350 6079 c0 -5 5 -7 10 -4 6 3 10 8 10 11 0 2 -4 4 -10 4 -5 0
-10 -5 -10 -11z"/>
<path d="M22371 6044 c0 -11 3 -14 6 -6 3 7 2 16 -1 19 -3 4 -6 -2 -5 -13z"/>
<path d="M23360 6050 c0 -5 5 -10 10 -10 6 0 10 5 10 10 0 6 -4 10 -10 10 -5
0 -10 -4 -10 -10z"/>
<path d="M1667 5973 c-9 -43 -17 -333 -23 -833 -3 -250 -8 -486 -9 -525 -2
-38 -6 -333 -9 -655 -6 -588 -13 -1046 -22 -1347 -2 -91 0 -163 5 -163 11 0
18 156 21 475 1 138 4 268 6 290 1 22 5 240 8 485 3 245 8 542 11 660 3 118 6
427 7 685 1 259 5 578 10 709 8 227 7 283 -5 219z"/>
<path d="M23360 5970 c0 -5 5 -10 11 -10 5 0 7 5 4 10 -3 6 -8 10 -11 10 -2 0
-4 -4 -4 -10z"/>
<path d="M1098 5927 c-35 -35 -42 -74 -24 -119 16 -37 72 -86 84 -73 4 4 -2
12 -12 19 -42 24 -56 46 -56 86 0 67 66 109 123 77 16 -10 34 -17 41 -17 7 0
22 -10 34 -23 32 -34 30 -93 -5 -129 -23 -24 -24 -28 -9 -34 30 -11 60 29 62
82 4 90 -50 142 -156 151 -51 5 -59 3 -82 -20z"/>
<path d="M17335 5880 c-3 -5 -1 -10 4 -10 6 0 11 5 11 10 0 6 -2 10 -4 10 -3
0 -8 -4 -11 -10z"/>
<path d="M19345 5850 c-3 -5 -1 -10 4 -10 6 0 11 5 11 10 0 6 -2 10 -4 10 -3
0 -8 -4 -11 -10z"/>
<path d="M16441 5798 c0 -7 9 -26 20 -43 10 -16 24 -40 30 -52 7 -13 18 -23
26 -23 17 0 17 14 0 29 -8 6 -24 31 -37 56 -22 43 -41 59 -39 33z"/>
<path d="M16720 5780 c0 -5 -38 -49 -85 -97 -47 -48 -85 -91 -85 -95 0 -5 -7
-8 -15 -8 -8 0 -15 -4 -15 -10 0 -5 -23 -31 -52 -57 -28 -27 -67 -63 -86 -80
-19 -18 -38 -33 -42 -33 -10 0 -30 -47 -30 -70 0 -33 18 -22 38 23 11 25 42
62 78 92 98 83 314 308 314 327 0 10 -4 18 -10 18 -5 0 -10 -4 -10 -10z"/>
<path d="M19340 5770 c0 -5 5 -10 10 -10 6 0 10 5 10 10 0 6 -4 10 -10 10 -5
0 -10 -4 -10 -10z"/>
<path d="M1072 5668 c-7 -9 -9 -32 -6 -59 7 -62 10 -69 37 -69 12 0 49 -7 82
-15 40 -11 62 -12 69 -5 7 7 2 10 -16 10 -15 0 -30 5 -33 10 -3 6 -18 10 -32
10 -61 0 -114 63 -80 97 12 13 25 14 69 6 29 -6 59 -12 67 -14 18 -5 26 17 7
24 -7 3 -45 9 -83 12 -54 6 -71 4 -81 -7z"/>
<path d="M21345 5670 c-3 -5 -1 -10 4 -10 6 0 11 5 11 10 0 6 -2 10 -4 10 -3
0 -8 -4 -11 -10z"/>
<path d="M23355 5641 c-3 -5 -1 -12 5 -16 5 -3 10 1 10 9 0 18 -6 21 -15 7z"/>
<path d="M20360 5612 c0 -25 127 -101 197 -117 87 -21 111 -18 193 21 73 34
145 82 138 90 -3 2 -45 -16 -94 -41 -83 -42 -94 -44 -172 -45 -89 0 -144 19
-210 74 -30 26 -52 33 -52 18z"/>
<path d="M1070 5477 c0 -11 17 -19 55 -27 65 -14 93 -34 101 -76 6 -30 4 -32
-39 -43 -25 -6 -59 -11 -75 -11 -16 0 -35 -6 -41 -14 -10 -11 -5 -19 21 -38
51 -36 139 -88 150 -88 23 0 -2 24 -57 54 -76 41 -77 58 -5 69 62 8 85 29 75
67 -4 14 -8 36 -9 50 -2 22 -9 26 -75 37 -40 6 -79 17 -87 24 -11 9 -14 8 -14
-4z"/>
<path d="M20646 5394 c-14 -14 -14 -17 0 -40 9 -13 20 -24 25 -24 15 0 42 49
35 65 -7 20 -40 19 -60 -1z"/>
<path d="M18321 5314 c0 -11 3 -14 6 -6 3 7 2 16 -1 19 -3 4 -6 -2 -5 -13z"/>
<path d="M17320 5310 c0 -5 5 -10 11 -10 5 0 7 5 4 10 -3 6 -8 10 -11 10 -2 0
-4 -4 -4 -10z"/>
<path d="M22360 5230 c0 -5 5 -10 11 -10 5 0 7 5 4 10 -3 6 -8 10 -11 10 -2 0
-4 -4 -4 -10z"/>
<path d="M23340 5229 c0 -5 5 -7 10 -4 6 3 10 8 10 11 0 2 -4 4 -10 4 -5 0
-10 -5 -10 -11z"/>
<path d="M16300 5149 c-11 -33 -11 -46 -1 -72 7 -18 13 -42 12 -54 -1 -22 30
-40 49 -28 14 9 12 46 -2 44 -27 -3 -37 2 -36 19 0 9 -2 29 -6 43 -5 17 -3 29
4 34 20 12 61 -17 67 -47 4 -23 9 -27 28 -22 13 3 26 1 29 -5 4 -6 13 -11 19
-11 7 0 1 9 -12 19 -22 17 -23 19 -7 48 8 17 21 33 28 36 7 2 10 7 7 11 -10
11 -38 -5 -44 -25 -10 -29 -44 -23 -81 16 -18 19 -34 35 -37 35 -2 0 -10 -18
-17 -41z"/>
<path d="M1071 5147 c-23 -28 -23 -71 -1 -100 12 -15 29 -27 38 -27 16 1 16 2
0 14 -10 7 -22 24 -27 38 -8 21 -6 30 10 47 11 11 26 21 34 21 16 0 17 -5 20
-55 5 -102 2 -95 39 -95 59 0 96 68 61 113 -35 47 -147 75 -174 44z m157 -72
c4 -37 -19 -71 -42 -62 -12 5 -16 19 -16 52 0 45 1 46 28 43 22 -2 28 -9 30
-33z"/>
<path d="M18321 5074 c0 -11 3 -14 6 -6 3 7 2 16 -1 19 -3 4 -6 -2 -5 -13z"/>
<path d="M22350 4980 c0 -5 5 -10 10 -10 6 0 10 5 10 10 0 6 -4 10 -10 10 -5
0 -10 -4 -10 -10z"/>
<path d="M1083 4945 c-28 -12 -33 -19 -32 -47 3 -83 8 -87 154 -111 39 -7 76
-16 83 -21 7 -4 16 -6 19 -3 9 10 -8 27 -26 27 -28 0 -44 25 -32 47 16 31 -16
82 -63 104 -49 22 -61 23 -103 4z m111 -36 c25 -20 33 -50 20 -83 -8 -21 -49
-20 -101 4 -37 16 -43 23 -43 49 0 52 73 70 124 30z"/>
<path d="M20595 4923 c-16 -3 -38 -11 -49 -19 -11 -8 -26 -14 -33 -14 -13 0
-106 -60 -111 -72 -2 -5 -12 -8 -22 -8 -27 0 -50 -27 -50 -58 l1 -27 27 31
c15 17 52 44 82 60 51 27 62 29 160 28 95 0 110 -3 155 -28 28 -15 67 -46 87
-68 21 -22 43 -38 49 -36 6 2 -33 50 -87 105 -88 91 -104 103 -139 107 -22 2
-53 2 -70 -1z"/>
<path d="M22350 4820 c0 -5 5 -10 10 -10 6 0 10 5 10 10 0 6 -4 10 -10 10 -5
0 -10 -4 -10 -10z"/>
<path d="M20607 4733 c-21 -20 7 -63 42 -63 17 0 21 6 21 35 0 32 -3 35 -28
35 -16 0 -32 -3 -35 -7z"/>
<path d="M1062 4617 c-32 -38 -22 -93 21 -122 34 -22 64 -9 74 32 10 43 39 66
53 43 15 -23 12 -51 -7 -72 -11 -12 -13 -22 -7 -28 13 -13 40 15 49 52 6 22 1
33 -24 58 -45 46 -63 39 -91 -37 -14 -38 -43 -44 -60 -14 -16 30 -12 60 10 73
11 7 20 16 20 20 0 13 -27 9 -38 -5z"/>
<path d="M20330 4470 c0 -5 5 -10 11 -10 5 0 7 5 4 10 -3 6 -8 10 -11 10 -2 0
-4 -4 -4 -10z"/>
<path d="M1057 4423 c-19 -19 -2 -28 53 -29 63 -1 72 10 17 21 -17 4 -39 8
-48 11 -8 2 -18 1 -22 -3z"/>
<path d="M1201 4409 l-23 -9 26 -27 c20 -20 29 -24 38 -15 7 7 20 12 31 12 10
0 15 5 12 10 -3 6 -15 10 -26 10 -10 0 -19 7 -19 15 0 17 -5 18 -39 4z"/>
<path d="M1050 4320 c0 -3 26 -11 58 -19 62 -14 92 -34 92 -61 0 -10 6 -20 14
-23 11 -4 14 4 13 36 -2 38 -4 42 -37 50 -53 13 -140 24 -140 17z"/>
<path d="M16310 4280 c0 -6 8 -13 18 -16 85 -26 297 -119 307 -134 8 -13 38
-13 33 1 -2 5 -51 31 -108 56 -58 25 -132 58 -166 74 -64 31 -84 35 -84 19z"/>
<path d="M1080 4200 c-46 -7 -61 -44 -37 -94 21 -45 57 -68 116 -74 47 -4 47
-4 65 36 19 43 18 49 -25 99 -27 32 -61 42 -119 33z m125 -80 c14 -66 -49 -91
-110 -44 -40 30 -50 55 -36 83 25 47 134 17 146 -39z"/>
<path d="M20645 4043 c-326 -333 -292 -303 -343 -305 -26 0 -54 0 -62 1 -8 1
-102 5 -208 7 -189 5 -222 1 -222 -26 0 -27 175 -33 472 -17 l77 4 148 149
c185 187 267 280 254 289 -6 3 -58 -43 -116 -102z"/>
<path d="M16680 4124 c0 -2 13 -10 30 -19 31 -16 81 -21 65 -6 -10 9 -95 32
-95 25z"/>
<path d="M22341 4084 c0 -11 3 -14 6 -6 3 7 2 16 -1 19 -3 4 -6 -2 -5 -13z"/>
<path d="M22336 4011 c-4 -7 -5 -15 -2 -18 9 -9 19 4 14 18 -4 11 -6 11 -12 0z"/>
<path d="M1050 3989 c0 -4 12 -10 27 -14 66 -16 69 -43 8 -73 -25 -12 -45 -27
-45 -33 0 -11 20 -7 79 17 33 14 34 13 67 -22 47 -50 61 -39 19 15 -49 61 -47
75 10 69 67 -8 54 7 -17 21 -35 6 -82 15 -105 20 -24 4 -43 5 -43 0z"/>
<path d="M20331 3974 c0 -11 3 -14 6 -6 3 7 2 16 -1 19 -3 4 -6 -2 -5 -13z"/>
<path d="M20635 3870 c-22 -24 -13 -50 18 -50 34 0 51 23 37 49 -14 26 -32 27
-55 1z"/>
<path d="M1084 3801 c-45 -11 -54 -19 -54 -48 0 -33 29 -93 45 -93 9 0 7 11
-7 39 -22 45 -12 81 22 81 26 0 35 -17 36 -72 2 -63 9 -78 39 -78 24 0 75 41
75 61 0 21 -45 81 -74 99 -36 22 -36 22 -82 11z m112 -66 c21 -32 6 -75 -26
-75 -17 0 -20 7 -20 43 0 63 18 75 46 32z"/>
<path d="M16639 3610 c-24 -28 -69 -76 -99 -108 -30 -32 -73 -80 -95 -106 -84
-101 -108 -126 -120 -126 -12 0 -44 14 -95 41 -8 5 -30 16 -47 25 -18 9 -50
32 -70 50 -20 19 -63 47 -95 63 -32 15 -55 31 -52 34 3 3 -20 24 -51 48 -40
30 -59 39 -67 31 -18 -18 -2 -39 59 -78 52 -33 87 -59 132 -96 8 -7 27 -19 42
-28 14 -8 53 -33 85 -55 33 -22 68 -42 79 -45 11 -3 26 -19 34 -34 l13 -28 37
39 c20 22 63 71 96 108 33 38 71 80 85 94 28 30 117 131 128 146 64 87 64 97
1 25z"/>
<path d="M20325 3650 c3 -5 8 -10 11 -10 2 0 4 5 4 10 0 6 -5 10 -11 10 -5 0
-7 -4 -4 -10z"/>
<path d="M23307 3603 c-12 -11 -8 -23 8 -23 8 0 15 7 15 15 0 16 -12 20 -23 8z"/>
<path d="M1042 3588 c-26 -26 -2 -108 35 -122 22 -9 67 24 71 52 5 31 28 47
47 32 18 -15 19 -43 4 -72 -13 -25 -5 -35 16 -18 40 33 0 124 -53 118 -21 -2
-29 -11 -37 -40 -14 -51 -27 -63 -54 -49 -30 16 -29 74 1 95 22 15 22 16 2 16
-11 0 -25 -5 -32 -12z"/>
<path d="M22320 3590 c0 -5 5 -10 10 -10 6 0 10 5 10 10 0 6 -4 10 -10 10 -5
0 -10 -4 -10 -10z"/>
<path d="M20331 3564 c0 -11 3 -14 6 -6 3 7 2 16 -1 19 -3 4 -6 -2 -5 -13z"/>
<path d="M20325 3491 c-3 -5 -1 -12 5 -16 5 -3 10 1 10 9 0 18 -6 21 -15 7z"/>
<path d="M16598 3406 c-24 -17 -23 -43 1 -56 40 -21 63 8 41 51 -12 22 -19 23
-42 5z"/>
<path d="M17295 3270 c-3 -5 -1 -10 4 -10 6 0 11 5 11 10 0 6 -2 10 -4 10 -3
0 -8 -4 -11 -10z"/>
<path d="M19295 3240 c-3 -5 -1 -10 4 -10 6 0 11 5 11 10 0 6 -2 10 -4 10 -3
0 -8 -4 -11 -10z"/>
<path d="M20312 3239 c2 -6 8 -10 13 -10 5 0 11 4 13 10 2 6 -4 11 -13 11 -9
0 -15 -5 -13 -11z"/>
<path d="M17290 3190 c0 -5 5 -10 10 -10 6 0 10 5 10 10 0 6 -4 10 -10 10 -5
0 -10 -4 -10 -10z"/>
<path d="M15310 3180 c0 -5 5 -10 10 -10 6 0 10 5 10 10 0 6 -4 10 -10 10 -5
0 -10 -4 -10 -10z"/>
<path d="M20320 3172 c0 -14 20 -30 68 -56 37 -20 74 -41 82 -46 8 -5 33 -18
55 -28 22 -11 63 -32 90 -47 108 -60 199 -104 207 -99 4 3 8 14 8 24 0 18
-104 88 -205 137 -22 11 -84 43 -138 70 -117 60 -167 74 -167 45z"/>
<path d="M22310 3180 c0 -5 5 -10 11 -10 5 0 7 5 4 10 -3 6 -8 10 -11 10 -2 0
-4 -4 -4 -10z"/>
<path d="M23305 3180 c4 -6 11 -8 16 -5 14 9 11 15 -7 15 -8 0 -12 -5 -9 -10z"/>
<path d="M20165 3029 c4 -13 17 -40 29 -59 16 -28 21 -31 24 -17 2 10 -3 26
-11 35 -8 9 -17 26 -18 36 -2 11 -10 21 -18 24 -10 3 -11 -2 -6 -19z"/>
<path d="M20090 3012 c0 -18 38 -99 50 -107 21 -13 22 3 3 37 -25 46 -53 83
-53 70z"/>
<path d="M20522 2938 c-18 -23 -49 -103 -44 -116 6 -19 40 -14 47 7 3 11 17
36 31 57 14 20 23 43 20 50 -7 17 -40 18 -54 2z"/>
<path d="M16465 2826 c-28 -10 -85 -59 -85 -73 0 -4 -6 -14 -14 -22 -7 -9 -23
-43 -36 -76 -12 -33 -27 -71 -33 -85 -9 -23 -14 -53 -18 -117 -2 -34 -26 -35
-58 -3 -16 17 -34 30 -39 30 -5 0 -15 7 -22 15 -22 27 -118 85 -140 85 -17 0
-21 -4 -17 -20 6 -24 -1 -25 -29 -5 -16 11 -29 12 -57 4 -41 -11 -187 -104
-187 -119 0 -14 6 -13 48 13 70 44 119 57 215 59 88 1 95 -1 154 -35 84 -48
111 -69 119 -90 10 -31 29 -13 35 34 21 145 49 211 129 302 43 47 74 67 145
92 11 4 38 7 60 6 22 -1 47 3 55 8 21 14 -186 11 -225 -3z m20 -26 c3 -5 1
-10 -4 -10 -6 0 -11 5 -11 10 0 6 2 10 4 10 3 0 8 -4 11 -10z"/>
<path d="M19290 2830 c0 -5 5 -10 11 -10 5 0 7 5 4 10 -3 6 -8 10 -11 10 -2 0
-4 -4 -4 -10z"/>
<path d="M1204 2755 c-3 -8 -3 -19 1 -26 8 -12 -67 -6 -132 11 -19 5 -33 5
-33 0 0 -5 17 -12 38 -15 20 -3 60 -12 87 -19 28 -8 59 -13 71 -13 19 1 19 3
7 27 -7 14 -13 31 -13 38 0 17 -19 15 -26 -3z"/>
<path d="M1200 2541 c0 -17 -4 -31 -10 -31 -22 0 -8 -18 18 -23 33 -7 53 9 32
26 -8 7 -15 21 -15 31 0 11 -6 21 -12 24 -9 2 -13 -7 -13 -27z"/>
<path d="M20298 2533 c-13 -69 36 -201 62 -163 16 25 12 39 -11 33 -26 -7 -35
7 -37 58 -2 47 15 58 52 34 17 -11 26 -26 26 -42 0 -20 4 -24 20 -20 11 3 30
-3 44 -14 35 -28 45 -23 13 6 -33 32 -33 35 -2 69 14 15 25 35 25 44 -1 12
-10 6 -34 -20 -18 -21 -36 -38 -40 -38 -5 0 -26 16 -49 35 -45 39 -64 44 -69
18z"/>
<path d="M1020 2530 c0 -5 5 -10 11 -10 5 0 7 5 4 10 -3 6 -8 10 -11 10 -2 0
-4 -4 -4 -10z"/>
<path d="M1099 2519 c-10 -6 -7 -9 14 -9 29 0 35 5 14 13 -8 3 -20 1 -28 -4z"/>
<path d="M15976 2394 c-15 -39 37 -72 63 -40 9 11 9 19 -1 35 -15 25 -53 28
-62 5z"/>
</g>
</svg>
