<?xml version="1.0" standalone="no"?>
<!DOCTYPE svg PUBLIC "-//W3C//DTD SVG 20010904//EN"
 "http://www.w3.org/TR/2001/REC-SVG-20010904/DTD/svg10.dtd">
<svg version="1.0" xmlns="http://www.w3.org/2000/svg"
 width="2480.000000pt" height="1748.000000pt" viewBox="0 0 2480.000000 1748.000000"
 preserveAspectRatio="xMidYMid meet">
<metadata>
Created by potrace 1.16, written by Peter Selinger 2001-2019
</metadata>
<g transform="translate(0.000000,1748.000000) scale(0.100000,-0.100000)"
fill="#000000" stroke="none">
<path d="M0 8740 l0 -8740 12400 0 12400 0 0 8215 0 8215 -26 0 -26 0 4 13 5
12 21 3 22 3 0 510 0 509 -12400 0 -12400 0 0 -8740z m24705 7700 l20 -9 -62
0 -63 -1 0 10 0 10 43 -1 42 0 20 -9z m-1194 -872 l1 -263 0 -260 0 -260 -2
-300 -2 -300 6 -565 6 -565 6 -1065 5 -1065 -1 -800 -2 -800 0 -15 0 -15 6
-445 6 -445 -10 17 -11 18 -4 447 -5 448 -5 1665 -5 1665 -8 675 -7 675 2 875
3 875 0 33 0 32 10 0 10 0 1 -262z m30 -7280 l0 -83 5 -680 6 -680 4 -1690 4
-1690 2 -35 1 -35 -1 -50 -2 -50 6 -227 5 -226 -11 -7 -10 -6 -1 3 0 3 -6 395
-5 395 -5 1280 -4 1280 -5 885 -4 885 0 145 -1 145 1 63 0 62 10 0 10 0 1 -82z
m-17835 -2386 l29 12 28 23 29 23 10 -6 11 -7 -34 -28 -34 -29 -17 -5 -18 -6
0 -13 0 -14 15 -12 14 -12 33 -1 33 -2 -2 -10 -3 -10 -52 1 -53 0 -88 2 -88 2
5 9 6 8 55 -2 56 -2 17 13 17 12 -17 19 -17 18 -21 23 -20 22 0 17 0 17 38
-37 39 -38 29 13z m-2100 -126 l76 -65 51 -26 52 -27 9 -9 10 -9 -6 -5 -5 -6
-62 32 -62 32 -48 43 -47 42 -12 -6 -11 -7 -2 -53 -3 -52 -7 -11 -7 -12 -11 8
-12 7 5 91 5 92 0 3 1 2 5 0 6 0 75 -64z m1586 22 l47 -10 35 -32 35 -33 6
-26 7 -27 -6 -25 -7 -26 -22 -8 -22 -9 -8 5 -9 5 27 28 26 27 -11 29 -11 29
-20 18 -20 18 -17 -3 -17 -4 3 -43 4 -43 -18 -19 -17 -19 -35 0 -34 0 -28 17
-28 16 -10 21 -10 21 -6 25 -5 25 13 17 13 18 29 15 29 15 20 -6 20 -6 47 -10z
m472 -50 l-7 -13 -20 -23 -21 -22 10 -27 9 -28 25 -13 25 -13 38 5 38 4 14 12
15 12 0 29 0 29 -20 17 -20 17 0 13 0 13 8 0 8 0 27 -28 27 -28 0 -33 0 -32
-26 -24 -27 -25 -31 -2 -31 -2 -30 2 -30 2 -28 31 -29 32 6 30 6 31 22 23 21
23 14 0 14 0 -7 -12z m-419 -208 l16 -30 19 0 20 0 0 -15 0 -15 -24 6 -23 5
-7 -23 -6 -23 0 -31 0 -31 -6 -6 -6 -6 -24 16 -24 15 0 8 0 8 20 -5 20 -5 0
36 0 36 -22 14 -23 15 -37 6 -38 7 0 -12 0 -13 32 -29 31 -28 -6 -6 -6 -6 -47
41 -48 42 -14 20 -14 20 6 6 6 6 78 -17 77 -17 15 20 15 20 2 1 2 0 16 -30z
m-1621 -1 l29 -9 20 0 20 0 13 18 14 17 6 -21 6 -22 31 -8 30 -9 5 -14 5 -14
-26 5 -26 5 -12 -8 -13 -8 -2 -48 -2 -48 -15 -3 -15 -3 -91 87 -91 86 0 9 0 9
43 -6 42 -6 29 -9z m2082 -10 l7 -11 2 -62 2 -61 16 -3 16 -3 20 11 21 11 0
30 0 31 -21 29 -20 29 20 0 20 0 16 -30 15 -29 0 -21 0 -21 -12 -22 -11 -22
-16 -12 -16 -12 -51 -1 -51 0 -27 21 -27 22 -10 24 -9 24 14 33 14 34 19 11
18 10 22 1 22 0 7 -11z m-3156 -239 l0 -58 22 -5 22 -6 13 11 13 10 0 27 0 27
15 21 14 21 28 5 28 5 33 -15 33 -16 14 -21 15 -20 0 -46 0 -46 -12 -12 -12
-12 -18 0 -18 0 0 10 0 9 15 8 15 9 6 30 6 31 -24 27 -23 27 -33 1 -32 1 -7
-7 -8 -7 1 -42 0 -42 8 -17 8 -18 -19 0 -19 0 -19 14 -20 13 -37 7 -37 7 -6
20 -7 21 7 55 7 54 14 -12 14 -11 0 -58z m-441 46 l56 -15 63 -12 62 -12 0
-12 0 -13 -37 9 -38 10 -52 8 -52 8 -11 -11 -10 -10 0 -18 0 -18 -9 0 -10 0
-7 23 -7 22 -19 28 -19 27 17 0 18 0 55 -14z m3699 -45 l-3 -15 -56 3 -56 2
-35 -14 -35 -15 5 -31 4 -32 21 -14 21 -15 69 0 68 0 -6 -9 -6 -10 -134 0
-134 -1 -6 10 -6 10 45 0 46 0 -6 53 -6 54 26 21 27 21 80 -2 80 -1 -3 -15z
m-2208 -7 l75 -15 58 -11 57 -11 0 -14 0 -14 -17 5 -18 5 -45 10 -45 11 -33 0
-34 0 -5 -20 -5 -20 -9 0 -9 0 0 13 0 14 -25 23 -25 23 0 9 0 8 3 0 2 0 75
-16z m1503 7 l42 -10 83 -17 82 -18 0 -8 0 -8 -12 0 -13 0 -70 15 -70 15 -17
0 -18 0 -6 -25 -6 -25 -9 0 -9 0 0 14 0 13 -20 26 -20 25 0 6 0 6 11 0 10 0
42 -9z m-2873 -149 l0 -18 12 -12 12 -12 18 0 18 0 0 -9 0 -10 -27 -3 -28 -3
-3 -57 -3 -58 -10 0 -11 0 -29 21 -29 20 0 10 0 9 25 -6 25 -6 0 40 0 40 -46
11 -47 12 -9 -9 -9 -9 26 -32 27 -31 -12 0 -11 0 -55 57 -54 57 0 4 0 3 43 -6
42 -6 39 -10 38 -10 14 5 14 5 0 16 0 15 15 0 15 0 0 -18z m500 -43 l0 -20 30
-10 30 -11 0 -8 0 -9 -27 -3 -28 -3 -3 -52 -3 -51 -15 -6 -15 -6 -47 44 -47
45 6 6 6 6 31 -26 30 -25 11 0 11 0 0 35 0 34 -30 16 -29 15 -22 0 -21 0 6
-25 6 -25 -7 0 -8 0 -39 40 -39 40 6 7 7 6 74 -16 75 -17 16 6 15 6 0 14 0 14
10 0 10 0 0 -21z m2919 -39 l-25 -19 5 -43 6 -43 52 -9 52 -9 26 17 25 16 0
35 0 35 -20 12 -20 13 0 7 0 8 15 0 14 0 21 -22 20 -22 0 -30 -1 -31 -13 -17
-13 -18 -32 -13 -33 -14 -47 8 -46 9 -22 25 -23 26 4 17 3 17 11 26 11 27 13
5 13 5 15 1 15 0 -26 -19z m-3499 -197 l75 -15 33 -5 32 -5 6 -9 5 -9 -15 0
-15 0 -75 16 -74 17 -16 -6 -16 -6 0 -26 0 -25 -9 0 -9 0 -11 32 -11 32 -18
19 -17 20 30 -8 30 -7 75 -15z m539 -41 l95 -18 4 -12 4 -13 -44 7 -43 6 -38
10 -38 9 -19 -6 -19 -6 -3 -27 -3 -27 -19 38 -19 39 -14 5 -13 5 0 10 0 11 38
-7 37 -7 94 -17z m3011 -112 l55 -22 57 -20 57 -20 20 -19 20 -19 -6 -15 -5
-16 -12 4 -11 4 -3 20 -3 21 -27 5 -28 6 -67 -23 -67 -22 -7 -7 -6 -7 -19 0
-19 0 -5 -14 -5 -14 15 -35 15 -36 23 -6 23 -5 55 -2 55 -3 -5 -9 -5 -9 -89 2
-90 2 -9 6 -9 5 11 11 11 11 -10 12 -11 12 -1 37 -1 37 13 8 14 8 53 17 53 17
6 9 6 10 -12 14 -12 14 -51 17 -52 17 -8 4 -7 4 6 11 6 10 17 -5 16 -5 55 -22z
m18285 -34 l-17 -25 7 -21 6 -20 12 0 12 0 12 8 12 8 13 39 13 40 16 3 16 3
24 -21 24 -20 -26 6 -26 5 -24 -48 -24 -48 -18 -3 -19 -4 -24 23 -24 22 0 38
0 38 23 16 22 16 3 -15 3 -15 -16 -25z m-20290 -67 l50 -19 16 0 15 0 12 -12
12 -12 0 -14 0 -13 -32 -13 -33 -13 -20 -8 -20 -8 -75 -27 -75 -27 -18 -8 -19
-8 4 28 3 28 15 8 15 8 74 23 73 23 0 10 0 10 -14 7 -13 6 -75 24 -75 23 -3
27 -3 27 68 -25 68 -25 50 -20z m20460 21 l6 -26 -21 -27 -21 -27 -15 0 -14 0
0 8 0 8 20 17 20 17 0 37 0 37 9 -9 10 -10 6 -25z m-22875 -60 l9 -14 -5 -8
-5 -8 -138 0 -138 0 -6 6 -6 7 9 18 10 18 130 -2 131 -2 9 -15z m2851 -9 l-21
-29 0 -15 0 -15 6 -16 6 -16 24 0 23 0 7 38 7 37 15 23 14 22 28 0 27 0 19
-21 18 -20 -1 -40 -2 -41 -12 -14 -11 -14 -15 0 -14 0 15 22 16 22 0 39 0 38
-16 6 -17 6 -16 -10 -16 -10 -3 -33 -3 -33 -16 -23 -15 -24 -24 0 -24 0 -20
20 -20 20 0 35 0 35 12 20 13 20 18 0 18 0 -20 -29z m941 -15 l33 -14 55 -17
55 -17 32 -14 31 -14 16 0 16 0 0 -25 0 -25 -22 -10 -23 -9 -68 -26 -68 -26
-8 6 -9 5 -37 -21 -36 -22 -11 11 -10 10 4 18 3 19 20 3 20 3 68 21 67 21 7
10 6 10 -16 12 -16 11 -43 13 -43 13 -20 8 -20 9 -14 3 -14 4 -4 22 -3 22 10
0 9 0 33 -14z m18936 -38 l25 -3 5 -13 4 -13 -24 6 -24 6 -12 -14 -12 -15 -30
28 -30 28 0 7 0 7 14 -5 15 -6 12 16 13 15 9 -20 10 -21 25 -3z m129 -35 l-17
-17 -32 17 -33 18 21 -4 21 -4 18 13 19 14 10 -10 10 -10 -17 -17z m-22852
-24 l0 -24 -110 -2 -110 -1 -12 9 -11 10 -7 -11 -6 -10 -15 0 -14 0 0 23 0 24
4 4 4 4 139 -1 138 0 0 -25z m22818 -50 l37 -10 0 -11 0 -11 -37 8 -38 8 -40
1 -40 1 -3 -31 -3 -30 20 -18 20 -18 57 -12 57 -11 5 -13 4 -13 -44 7 -43 7
-23 8 -23 9 -23 0 -24 0 -6 54 -7 55 11 21 12 22 46 -7 47 -6 38 -10z m-22306
-36 l13 -17 0 -32 0 -31 -21 -27 -20 -26 -15 0 -14 0 0 8 0 9 20 18 20 18 0
32 0 33 -15 12 -15 13 -20 -18 -19 -17 -7 -32 -6 -31 -21 -23 -21 -22 -20 6
-21 6 -17 16 -18 15 0 31 0 32 16 22 15 22 16 0 15 0 -16 -26 -17 -25 3 -27 3
-27 19 -4 20 -3 13 18 13 18 0 21 0 21 16 23 17 23 36 -6 36 -6 12 -17z m1997
1 l6 -16 -6 -9 -5 -9 -140 0 -139 0 0 25 0 25 139 0 139 0 6 -16z m506 7 l0
-9 -12 -4 -13 -5 -30 3 -30 3 -47 -6 -48 -5 0 -40 0 -41 18 -13 17 -13 73 -1
74 0 -4 -12 -5 -13 -97 0 -98 0 -5 64 -4 63 17 19 17 19 89 0 88 0 0 -9z
m1481 -4 l16 -12 11 -22 12 -22 0 -26 0 -27 -29 -29 -29 -29 -49 0 -49 0 -33
23 -34 23 -4 36 -3 36 26 31 26 31 61 0 62 -1 16 -12z m-4497 -25 l-1 -12 -1
-10 -2 -10 -145 0 -145 0 0 18 0 19 7 6 6 7 141 -3 141 -3 -1 -12z m916 -151
l0 -69 15 -12 14 -12 26 28 25 27 0 17 0 17 -21 27 -21 27 5 6 6 5 15 -5 15
-6 16 -31 16 -31 -11 -34 -11 -33 -24 -16 -25 -16 -45 -6 -44 -7 -36 36 -35
35 0 30 0 30 31 31 31 31 29 0 29 0 0 -69z m575 -1 l25 -23 0 -43 0 -42 -32
-27 -32 -27 -55 4 -54 5 -24 27 -23 27 0 34 0 33 32 32 32 32 53 -4 53 -5 25
-23z m21263 24 l22 -6 0 -53 0 -53 6 -16 6 -16 19 0 18 0 11 20 11 20 -21 41
-21 41 18 -4 18 -3 19 -40 18 -39 -17 -32 -17 -32 -31 -6 -31 -6 -45 22 -46
23 -19 33 -19 33 14 27 14 27 15 12 15 12 10 1 10 0 23 -6z m-22253 -45 l7
-10 -6 -6 -6 -6 -76 -3 -77 -3 -5 -5 -4 -5 0 -26 0 -27 15 -16 16 -15 70 2 71
2 0 -14 0 -15 -82 -7 -83 -7 -7 -12 -8 -11 0 -21 0 -21 20 -18 20 -18 0 -9 0
-8 -29 0 -28 0 -7 54 -6 55 11 24 11 24 -11 21 -11 21 0 19 0 19 19 24 19 25
80 2 81 2 6 -11z m2488 -35 l26 -19 6 -26 6 -26 -7 -27 -6 -26 -25 -20 -26
-20 -52 0 -52 0 -25 25 -26 25 -6 31 -6 31 10 18 10 18 27 22 28 22 46 -4 46
-5 26 -19z m1438 -6 l2 -23 1 -50 1 -50 21 -3 22 -3 16 16 16 16 0 28 0 28
-20 26 -20 25 0 6 0 6 10 0 11 0 24 -25 25 -24 0 -39 0 -39 -24 -22 -25 -23
-33 -7 -33 -7 -35 10 -35 9 -20 25 -19 26 0 34 0 35 28 23 27 24 30 0 29 0 1
-22z m-2108 2 l12 -10 24 -20 24 -20 19 0 19 0 44 30 43 29 5 -25 5 -26 -24
-21 -24 -21 0 -5 0 -6 25 -29 25 -29 0 -12 0 -12 -6 -6 -7 -6 -36 29 -36 30
-18 0 -18 0 -45 -26 -44 -26 -6 16 -6 16 6 16 6 16 20 5 20 5 0 11 0 11 -19
20 -20 21 -6 28 -7 27 6 0 7 0 12 -10z m1602 -50 l17 0 39 31 39 30 9 -5 9 -6
-6 -23 -6 -22 -23 -18 -23 -18 0 -12 0 -12 23 -10 22 -10 3 -27 3 -28 -9 0 -9
0 -46 31 -46 30 -29 -15 -28 -15 -13 -15 -13 -16 -9 0 -9 0 0 30 0 29 20 11
20 11 0 14 0 14 -20 11 -20 11 0 30 0 30 44 -31 45 -30 16 0z m-4076 -4 l44
-33 46 28 45 29 8 0 8 0 0 -20 0 -20 -20 -17 -20 -17 0 -12 0 -12 25 -16 25
-16 0 -20 0 -19 -9 -5 -9 -6 -13 16 -13 15 -27 15 -28 14 -18 0 -18 0 -38 -26
-39 -26 -3 4 -3 3 5 28 5 27 13 0 13 0 6 15 6 16 -25 21 -25 22 0 23 0 23 8 0
7 -1 44 -33z m1161 -71 l0 -15 -71 0 -70 0 -20 -10 -19 -11 0 -28 0 -28 20
-18 20 -18 70 -1 70 0 0 -13 0 -14 -97 3 -98 3 3 22 3 21 -11 7 -10 6 0 30 0
30 25 24 24 25 81 0 80 0 0 -15z m21784 -30 l76 0 0 -6 0 -6 -19 -17 -20 -18
-10 6 -10 6 -48 9 -48 9 -17 -15 -18 -16 0 17 0 16 -25 10 -25 10 0 8 0 8 28
10 27 10 16 -20 17 -20 76 -1z m-21379 -14 l90 -28 3 -17 3 -16 -13 -4 -13 -4
-47 -13 -48 -13 0 -9 0 -8 46 -19 46 -20 15 0 14 0 -3 -16 -3 -17 -90 -28 -90
-29 -7 0 -8 0 0 15 0 15 11 0 11 0 55 16 54 16 -3 10 -4 11 -49 14 -50 15 -15
7 -15 8 3 9 4 9 61 20 60 20 4 12 4 12 -62 19 -63 19 -4 12 -4 11 9 0 8 0 90
-29z m-905 -61 l0 -10 -65 0 -65 0 0 10 0 10 65 0 65 0 0 -10z m2245 0 l6 -10
-15 0 -16 0 0 10 0 10 9 0 10 0 6 -10z m262 -2 l-4 -13 -93 0 -93 0 -5 13 -4
12 102 0 102 0 -5 -12z m1513 2 l0 -10 -32 -1 -33 -2 -32 2 -31 2 -31 -16 -31
-16 0 -28 0 -29 43 -17 42 -16 20 2 20 2 33 -1 34 -2 -4 -12 -4 -12 -134 2
-133 3 -9 5 -8 5 6 11 6 10 27 -5 27 -6 13 8 13 9 -8 23 -8 24 3 20 3 20 15
18 16 17 89 0 88 0 0 -10z m18205 -11 l7 -10 14 5 15 6 44 -12 45 -12 0 -9 0
-8 -80 7 -80 7 0 -30 0 -29 13 -17 12 -17 68 -18 69 -17 -1 -10 -1 -10 -7 0
-8 0 -82 19 -81 19 -7 53 -6 53 11 20 11 21 19 0 19 0 6 -11z m-20225 -27 l0
-23 -102 3 -103 3 -3 17 -3 17 28 3 28 3 77 0 78 0 0 -23z m1267 12 l6 -15
-12 -12 -11 -11 -11 11 -12 12 6 15 6 16 11 0 11 0 6 -16z m250 0 l6 -16 -11
-7 -10 -6 -92 1 -91 2 -6 5 -5 6 5 16 6 15 96 0 96 0 6 -16z m-1769 -11 l-3
-18 -18 -3 -17 -3 0 20 0 21 21 0 20 0 -3 -17z m-2254 -13 l8 -8 -6 -11 -7
-11 -98 0 -98 0 -5 6 -6 5 5 17 4 17 97 -3 97 -4 9 -8z m-256 -7 l-3 -18 -18
-3 -17 -3 0 20 0 21 21 0 20 0 -3 -17z m582 -18 l0 -25 28 -11 27 -11 63 1 62
2 0 -13 0 -14 -100 -2 -100 -3 0 28 0 28 -6 23 -6 22 16 0 16 0 0 -25z m2690
-9 l0 -25 -17 -4 -18 -5 -69 -1 -70 -1 -7 -12 -7 -11 -13 7 -14 7 -23 13 -24
14 33 16 32 16 12 -10 13 -10 67 -2 68 -2 11 17 11 17 7 0 8 0 0 -24z m-2025
-51 l25 -24 0 -39 0 -38 -12 -16 -13 -16 -29 -14 -29 -15 -45 9 -46 8 -24 23
-24 22 5 38 5 39 23 24 22 24 59 0 59 0 24 -25z m1511 -24 l-6 -41 12 -19 11
-19 -13 -31 -13 -32 -30 -16 -30 -15 -44 5 -44 5 -24 22 -23 22 -6 24 -6 24
15 24 16 23 -23 7 -23 6 -22 0 -23 0 0 23 0 22 141 3 142 3 -7 -40z m1520 -1
l0 -35 7 -28 7 -27 -10 -19 -10 -19 -31 -16 -32 -16 -39 0 -39 0 -28 15 -29
14 -6 27 -7 27 6 27 6 27 -16 13 -15 12 -20 -5 -20 -5 -6 9 -6 10 6 15 6 15
137 -3 138 -3 1 -35z m-4023 -50 l0 -55 -2 -27 -1 -27 -30 -16 -29 -15 -43 0
-43 0 -32 20 -32 19 -3 58 -3 58 -37 3 -38 3 0 19 0 19 48 3 47 3 99 -5 100
-5 -1 -55z m2867 24 l0 -6 -20 -25 -20 -26 0 -22 0 -22 18 -15 17 -16 35 -4
34 -5 33 14 33 13 0 39 0 38 -25 11 -25 12 0 10 0 10 14 0 14 0 23 -19 23 -19
-1 -43 -2 -44 -28 -22 -28 -23 -36 0 -37 0 -34 15 -35 14 -12 29 -12 28 10 26
9 25 17 16 16 17 10 0 9 0 0 -6z m-2402 -34 l4 -10 13 0 14 0 11 -19 10 -20 0
-39 0 -39 -22 -21 -23 -21 -28 -6 -27 -7 -34 6 -34 6 -26 25 -26 24 0 38 0 38
8 10 7 11 30 23 30 23 45 -6 45 -6 3 -10z m4063 -7 l-7 -28 -85 -5 -84 -5 -13
-9 -13 -8 -18 16 -18 16 -17 -6 -16 -6 0 16 0 15 15 -6 16 -5 19 17 20 18 14
-12 14 -12 68 -2 67 -2 11 18 11 17 12 0 11 0 -7 -27z m-3011 -3 l0 -19 -19
-11 -20 -10 -65 0 -66 0 -21 -12 -22 -13 -4 13 -5 12 -18 0 -19 0 -6 10 -6 10
18 6 18 5 19 11 18 10 11 -11 11 -11 72 0 72 0 6 15 5 15 11 0 10 0 0 -20z
m21271 5 l44 -16 22 -27 22 -27 1 -25 0 -26 -16 -22 -15 -22 -48 0 -48 0 -37
33 -37 32 -2 42 -1 43 19 15 20 14 16 1 16 0 44 -15z m-20276 -165 l5 -8 -6
-16 -6 -16 -68 0 -67 0 -17 -19 -18 -20 6 -19 7 -20 17 -7 17 -7 65 -1 65 -2
3 -23 3 -23 -63 1 -63 0 -20 0 -20 -1 -25 4 -25 4 3 24 3 24 0 10 0 10 -7 28
-7 28 13 24 13 24 16 4 16 4 78 0 77 1 5 -8z m1518 -4 l6 -15 -14 -11 -13 -11
-26 7 -26 6 -45 -6 -45 -7 -11 -20 -10 -20 16 -25 15 -24 74 0 74 0 5 -13 5
-14 -7 -11 -6 -11 -100 2 -100 2 -2 77 -3 77 22 15 22 16 82 0 82 0 5 -14z
m-1101 -79 l3 -72 15 -2 15 -3 18 14 19 14 5 41 6 41 8 -6 9 -5 0 -34 0 -33
-29 -31 -29 -31 -42 0 -42 0 -28 17 -28 16 -11 24 -11 24 0 15 0 15 15 29 15
29 33 9 32 9 12 -4 12 -5 3 -71z m-2918 53 l8 -8 -6 -11 -7 -11 -74 0 -74 0
-15 -16 -16 -15 0 -10 0 -10 10 -19 10 -18 69 -7 70 -7 11 -14 12 -13 -6 -9
-6 -10 -82 3 -83 3 -22 1 -23 1 3 80 3 80 19 14 20 14 85 -4 85 -5 9 -9z
m2986 5 l13 -15 -5 -5 -5 -5 -17 6 -16 6 0 14 0 14 9 0 9 0 12 -15z m19680 -9
l0 -14 -15 -6 -15 -5 -11 -28 -10 -28 6 -32 6 -33 43 -25 43 -25 46 0 46 0 20
26 21 26 -6 27 -6 26 -30 38 -29 37 14 0 13 0 28 -28 27 -29 5 -34 5 -34 -9
-29 -8 -30 -31 -17 -31 -18 -55 13 -54 13 -32 22 -31 23 -15 35 -15 35 0 29 0
28 27 26 28 25 12 0 13 0 0 -14z m-22415 -26 l6 -10 18 0 19 0 6 23 6 22 19
-24 18 -24 83 2 82 2 -4 -13 -5 -13 -83 -3 -83 -3 -14 -17 -13 -17 -11 18 -10
17 -21 0 -21 0 -19 17 -18 16 0 19 0 19 19 -11 20 -10 6 -10z m4210 -20 l12 0
27 -25 26 -24 0 -35 0 -34 -6 -17 -6 -16 -29 -14 -28 -15 -36 0 -36 0 -29 15
-29 15 -10 19 -10 19 4 38 5 38 3 2 2 2 35 21 35 22 29 -6 29 -5 12 0z m-3635
-15 l12 -15 64 0 63 0 16 16 16 16 5 -5 6 -5 -6 -20 -7 -20 -37 -5 -37 -5 -40
4 -39 3 -18 -16 -18 -16 -18 16 -19 17 -17 0 -17 0 6 10 6 10 20 0 20 0 5 15
6 15 8 0 8 0 12 -15z m570 -10 l66 -7 13 16 13 16 9 0 9 0 0 -19 0 -19 -16 -6
-16 -6 -73 0 -74 0 -9 -16 -9 -15 -12 15 -13 16 -19 0 -18 0 -6 10 -6 10 31 6
30 7 6 9 6 9 11 -10 12 -9 65 -7z m-564 -134 l-16 -18 0 -25 0 -26 14 -11 13
-11 15 5 14 6 13 45 13 45 21 14 21 15 17 0 16 0 16 -17 15 -18 6 -35 7 -35
-21 -32 -20 -33 -9 0 -10 0 -5 9 -6 8 20 18 20 18 0 38 0 38 -20 6 -21 7 -13
-11 -14 -11 -6 -42 -7 -41 -17 -13 -17 -13 -21 -1 -21 0 -16 18 -15 17 -2 15
-2 15 1 26 1 25 22 24 22 23 4 -12 4 -12 -16 -18z m509 22 l-7 -18 -11 -26
-10 -26 6 -17 6 -16 19 0 18 0 12 12 12 12 0 16 0 17 16 31 15 32 32 0 32 0
11 -8 11 -7 6 -33 7 -33 -15 -35 -14 -34 -16 -6 -16 -6 -6 6 -6 6 22 24 22 24
-3 32 -3 33 -17 11 -17 11 -15 -20 -15 -20 -1 -22 0 -21 -31 -31 -31 -31 -9 0
-10 0 -24 26 -25 27 0 24 0 24 11 22 12 22 11 7 11 8 9 0 8 0 -7 -17z m2585
-83 l0 -58 16 -6 17 -6 14 12 15 12 -6 37 -6 37 -6 16 -6 16 11 0 11 0 20 -17
20 -17 0 -39 0 -38 -11 -21 -11 -20 -44 -19 -44 -20 -35 10 -35 9 -13 14 -14
13 -11 22 -12 22 0 20 0 20 30 35 31 35 22 3 22 4 13 -9 12 -9 0 -58z m-1520
6 l0 -64 13 -11 14 -11 18 14 18 13 -7 34 -7 34 -2 20 -2 20 14 0 14 0 20 -38
19 -38 -14 -37 -14 -37 -35 -19 -35 -19 -46 7 -47 7 -22 35 -21 35 0 24 0 24
23 30 24 29 25 5 25 4 13 2 12 1 0 -64z m590 42 l20 -22 0 -42 0 -43 -22 -15
-22 -16 -9 0 -8 0 22 29 21 29 -7 32 -7 31 -14 6 -14 5 -15 -12 -15 -13 -11
-43 -11 -43 -12 -9 -11 -9 -17 -6 -17 -6 -25 20 -26 20 0 40 0 39 20 20 21 21
10 -7 10 -6 -16 -18 -16 -18 3 -34 3 -33 22 -3 22 -3 15 52 16 52 17 13 18 13
17 1 17 0 21 -22z m-3099 -25 l0 -18 5 -45 4 -44 10 -10 10 -10 22 21 22 22
-14 41 -13 40 6 7 7 6 19 -17 19 -17 6 -31 6 -30 -15 -32 -15 -32 -33 -12 -33
-12 -36 0 -36 0 -32 27 -32 27 6 49 7 50 22 18 22 18 33 1 32 0 1 -17z m426
-32 l12 -19 64 2 65 2 16 13 16 13 6 -17 7 -17 -14 -9 -14 -9 -73 0 -73 0 -8
-22 -8 -21 5 -24 4 -24 21 -14 21 -15 63 0 62 0 6 -10 6 -10 -40 -1 -41 -1
-55 0 -55 0 -9 1 -8 1 -2 61 -1 61 -6 9 -5 9 -25 0 -24 0 0 9 0 9 30 6 30 6 0
15 0 15 8 0 7 0 12 -19z m4094 -21 l57 0 12 15 12 15 9 0 9 0 0 -18 0 -18 -10
-10 -11 -11 -67 4 -67 4 -19 -14 -18 -13 -34 15 -33 16 -1 8 0 7 19 0 19 0 12
15 12 15 21 -15 21 -15 57 0z m-2936 -90 l30 -7 -16 -7 -16 -7 -83 3 -83 3 -5
13 -4 12 74 -1 73 -1 30 -8z m-737 -12 l-4 -12 -12 -4 -12 -4 0 16 0 16 16 0
16 0 -4 -12z m259 0 l-4 -13 -74 -1 -74 0 -22 4 -23 4 0 9 0 9 101 0 101 0 -5
-12z m243 2 l0 -10 -15 0 -15 0 0 10 0 10 15 0 15 0 0 -10z m1588 -22 l8 -32
25 -7 24 -7 58 -1 58 -1 -6 -10 -6 -9 -93 0 -93 0 -1 49 -1 50 9 0 9 0 9 -32z
m1170 -41 l24 -22 -6 -42 -6 -43 23 -4 22 -5 20 -3 20 -3 0 -20 0 -20 -148 -2
-149 -1 5 41 6 42 -8 20 -8 20 14 28 14 27 2 0 2 0 39 14 39 14 36 -10 36 -10
23 -21z m-1542 17 l33 -16 6 -19 7 -20 -7 -39 -7 -40 19 -1 18 -2 15 -2 15 -2
13 -2 12 -1 0 -22 0 -23 -145 0 -145 0 -6 18 -6 18 11 12 10 13 -9 14 -10 15
0 26 0 26 20 26 20 26 23 4 22 4 28 2 29 1 34 -16z m-2516 -24 l39 -20 7 -12
8 -13 1 -45 0 -45 40 -5 40 -5 3 -17 3 -16 -28 -5 -28 -5 -102 -1 -102 -1 -21
8 -22 8 -4 65 -5 66 21 26 20 26 23 4 22 4 23 2 23 1 39 -20z m1056 -84 l-5
-81 0 -1 -1 -1 -140 -2 -140 -2 0 15 0 16 78 1 77 1 38 -2 38 -2 15 12 14 12
0 58 0 57 6 6 7 6 9 -5 9 -6 -5 -82z m504 10 l0 -84 -75 -4 -76 -3 -69 3 -69
4 5 11 4 12 117 2 116 3 6 5 5 6 -2 45 -2 46 11 19 10 19 9 0 10 0 0 -84z
m3000 -36 l25 -8 36 -16 37 -15 4 -26 5 -25 -13 0 -14 0 0 15 0 15 -25 12 -24
11 -73 -22 -73 -22 -31 -9 -30 -10 -8 0 -7 0 6 10 6 9 34 17 34 16 8 -5 9 -5
24 18 25 19 -10 9 -10 10 -62 22 -63 23 0 13 0 14 83 -31 82 -31 25 -8z
m-4023 34 l33 -25 0 -39 0 -38 -31 -26 -31 -26 -55 0 -55 0 -29 29 -29 29 0
21 0 20 12 27 13 27 30 13 30 13 39 1 39 0 34 -26z m2435 -76 l3 -73 17 -3 16
-3 21 22 21 23 0 17 0 16 -20 26 -20 25 0 6 0 6 14 0 14 0 16 -25 16 -24 0
-30 0 -30 -24 -28 -24 -28 -54 0 -54 1 -27 19 -26 20 -7 31 -6 32 13 23 12 24
16 12 16 12 32 1 32 0 3 -72z m-447 -80 l23 -10 6 -22 6 -21 0 -23 0 -23 -15
-5 -15 -6 0 -9 0 -9 39 0 39 0 16 -6 16 -6 0 -19 0 -19 -47 -1 -48 -1 -95 1
-95 1 -6 0 -7 0 0 63 -1 62 5 18 6 18 31 20 32 20 44 -6 44 -7 22 -10z m1502
7 l31 -15 12 -15 12 -14 -4 -43 -3 -43 32 -3 32 -3 11 -14 12 -14 -6 -10 -7
-10 -145 1 -146 2 6 34 5 35 -10 19 -11 20 6 24 7 25 32 19 32 20 36 0 36 0
30 -15z m-4007 -41 l31 -27 -3 -46 -3 -46 45 -5 45 -5 0 -20 0 -20 -149 0
-150 0 -2 70 -3 71 7 10 7 10 25 17 24 17 47 0 47 0 32 -26z m4454 -30 l6 -47
0 -27 0 -28 15 -6 15 -5 14 5 14 5 13 30 12 30 -22 29 -21 29 0 6 0 5 14 0 15
0 19 -28 20 -27 -5 -30 -6 -30 -19 -21 -19 -21 -45 -7 -45 -6 -33 14 -34 14
-7 13 -8 12 1 39 2 38 12 20 13 20 25 9 25 9 11 1 11 1 7 -46z m17855 -142
l-2 -167 -7 -20 -8 -20 -5 25 -5 25 2 80 2 80 2 88 2 88 10 -6 10 -6 -1 -167z
m-21781 141 l4 -13 -71 0 -71 0 -20 -20 -20 -20 0 -10 0 -9 12 -26 11 -25 26
-1 26 -1 52 -1 53 -2 -3 -10 -2 -10 -60 -2 -60 -1 -68 -2 -68 -3 -12 12 -11
11 42 0 43 0 5 15 6 15 -11 14 -11 13 6 32 7 32 21 15 21 15 74 -3 74 -3 5
-12z m2342 -18 l12 -15 63 0 63 0 12 15 12 15 9 0 9 0 0 -19 0 -20 -12 -7 -11
-7 -79 1 -78 1 -8 -14 -8 -15 -37 17 -37 17 0 8 0 8 30 0 30 0 0 15 0 15 9 0
9 0 12 -15z m-1436 -67 l6 -43 -4 -75 -4 -75 -1 -92 -1 -93 -9 0 -9 0 -1 210
-2 210 10 0 10 0 5 -42z m-496 -175 l-3 -208 -9 2 -9 3 -3 152 -3 153 6 53 5
52 9 0 9 0 -2 -207z m21844 163 l65 -34 22 -18 21 -18 0 -12 0 -11 -87 -16
-88 -16 -9 9 -9 9 14 5 14 5 45 8 45 9 0 19 0 20 -52 30 -52 30 -1 8 0 7 4 0
3 0 65 -34z m-19742 -42 l0 -12 -72 -7 -73 -6 -16 -5 -17 -5 -5 -20 -6 -21 9
-23 9 -23 28 -6 28 -6 58 -1 58 -2 -4 -11 -4 -11 -98 0 -97 0 -5 66 -4 66 16
13 16 13 37 6 37 7 53 0 52 0 0 -12z m-513 -49 l-2 -26 -25 -12 -25 -12 -3
-52 -3 -52 31 -22 30 -23 0 -18 0 -18 -12 0 -12 0 -35 11 -36 12 -30 13 -30
13 -62 22 -62 21 -5 14 -5 14 8 23 9 23 66 23 65 23 58 24 58 24 12 0 12 0 -2
-25z m1526 13 l4 -13 -5 -12 -4 -13 -14 0 -14 0 -15 -24 -16 -24 3 -44 3 -43
23 -10 23 -10 6 -23 5 -23 -6 -7 -7 -6 -19 12 -20 12 -12 0 -13 0 -70 26 -70
26 -35 17 -35 17 -3 25 -3 26 13 10 13 10 80 26 80 26 35 15 35 15 17 1 16 0
5 -12z m327 -118 l11 0 71 50 72 50 10 -10 11 -11 -25 -20 -25 -20 -38 -25
-38 -25 -5 -14 -6 -13 11 -20 11 -21 55 -6 56 -7 -4 -12 -4 -11 -37 -3 -38 -3
-14 12 -14 11 -27 -11 -28 -10 -54 3 -55 3 -4 11 -3 11 53 3 53 3 3 16 3 17
-60 63 -61 64 0 18 0 18 54 -56 54 -55 12 0z m-4360 83 l0 -17 -24 -21 -25
-20 -3 -55 -3 -54 28 -14 28 -14 6 -15 6 -14 -9 -9 -9 -9 -45 15 -45 15 -70
29 -70 28 -27 6 -28 6 0 33 0 32 45 19 46 18 32 8 32 8 50 20 50 20 18 1 17 1
0 -17z m429 -30 l-25 -28 -24 -70 -23 -70 -10 -12 -9 -13 -33 0 -32 0 -27 27
-26 26 -6 23 -6 23 12 36 12 36 21 19 21 20 13 0 13 0 0 -15 0 -15 -9 0 -10 0
-21 -30 -21 -29 11 -41 11 -40 24 -6 25 -6 14 11 13 11 12 61 12 61 24 24 24
24 22 0 23 0 -25 -27z m84 -24 l17 -39 0 -26 0 -26 -15 -33 -16 -32 -25 -13
-24 -14 -12 12 -11 11 27 12 26 12 10 37 10 37 -6 33 -7 32 -13 5 -14 5 0 18
0 18 18 -5 18 -4 17 -40z m22118 -2 l-1 -7 -7 -1 -7 0 -4 12 -4 12 12 -4 12
-4 -1 -8z m178 -24 l44 -8 5 -14 5 -14 -34 7 -34 7 -42 6 -43 6 -12 15 -13 15
40 -6 40 -6 44 -8z m-19795 -92 l6 -9 -14 -5 -15 -6 -125 0 -126 0 0 13 0 13
135 1 134 2 5 -9z"/>
<path d="M5083 5777 l-21 -9 -4 -17 -5 -16 9 -32 9 -33 27 -7 27 -7 20 3 20 3
13 10 12 10 0 22 0 22 -15 21 -15 21 -27 10 -28 9 -22 -10z"/>
<path d="M3590 5503 l0 -9 45 -44 45 -44 11 11 12 12 0 26 0 27 -10 9 -9 9
-47 6 -47 7 0 -10z"/>
<path d="M5634 5485 l-17 -27 9 -26 9 -27 28 -3 28 -3 -3 53 -3 53 -17 3 -17
3 -17 -26z"/>
<path d="M5642 4340 l-22 -21 0 -24 0 -25 20 -20 20 -20 48 0 49 0 16 18 17
19 0 30 0 31 -25 16 -24 16 -39 0 -38 0 -22 -20z"/>
<path d="M2126 4214 l-16 -15 0 -28 0 -28 18 -16 19 -17 10 0 11 0 7 50 7 49
-7 11 -6 10 -14 0 -14 0 -15 -16z"/>
<path d="M2631 4177 l-11 -14 -6 -30 -6 -31 21 -21 21 -21 39 0 39 0 17 6 17
7 9 23 9 24 -11 27 -10 28 -12 7 -12 8 -46 0 -47 0 -11 -13z"/>
<path d="M23992 4178 l-12 -12 0 -22 0 -22 6 -16 6 -16 18 0 18 0 4 39 3 40
-3 10 -4 11 -12 0 -12 0 -12 -12z"/>
<path d="M4137 4114 l-26 -26 4 -31 4 -32 17 -12 18 -13 46 0 47 0 16 18 17
19 0 24 0 24 -8 11 -7 11 -20 10 -20 10 -32 6 -31 6 -25 -25z"/>
<path d="M5648 4116 l-17 -12 -7 -28 -6 -27 22 -24 22 -24 14 6 14 5 0 53 0
53 -13 5 -13 5 -16 -12z"/>
<path d="M2132 3754 l-22 -15 0 -35 0 -36 23 -19 22 -18 38 -1 38 0 24 26 25
27 0 23 0 23 -26 20 -27 21 -36 0 -37 0 -22 -16z"/>
<path d="M3649 3720 l-17 -10 -6 -26 -7 -26 11 -13 11 -13 35 -7 36 -6 24 16
24 15 0 24 0 24 -25 16 -24 16 -23 0 -23 -1 -16 -9z"/>
<path d="M5152 3714 l-22 -15 0 -19 0 -19 22 -15 22 -16 36 0 36 0 12 12 12
12 0 26 0 26 -12 12 -12 12 -36 0 -36 0 -22 -16z"/>
<path d="M1121 3684 l-21 -26 12 -22 11 -21 11 -7 11 -8 27 0 27 0 26 12 25
11 0 32 0 32 -25 11 -26 12 -29 0 -29 0 -20 -26z"/>
<path d="M1643 3660 l-22 -9 -7 -26 -6 -25 6 -24 6 -24 36 -12 35 -12 27 7 27
7 12 10 13 10 0 38 0 38 -25 16 -24 16 -28 -1 -28 0 -22 -9z"/>
<path d="M23993 3649 l-13 -13 0 -23 0 -24 25 -24 24 -25 20 0 19 0 15 -6 15
-6 21 21 21 21 0 10 0 10 -27 30 -28 30 -40 6 -40 6 -12 -13z"/>
<path d="M4132 3458 l-12 -12 0 -32 0 -32 15 -12 14 -12 18 4 18 3 0 50 0 50
-20 3 -20 3 -13 -13z"/>
<path d="M5645 3385 l-25 -24 0 -16 0 -17 30 -30 31 -30 42 6 42 7 19 19 19
18 -7 35 -7 35 -31 11 -31 11 -29 0 -29 0 -24 -25z"/>
<path d="M5144 3206 l-6 -15 4 -18 3 -18 20 0 20 0 3 33 3 32 -21 0 -21 0 -5
-14z"/>
<path d="M3632 3208 l-12 -12 0 -17 0 -17 15 -12 14 -12 11 7 10 6 0 35 0 34
-13 0 -13 0 -12 -12z"/>
<path d="M1117 3193 l-7 -6 0 -34 0 -34 27 3 26 3 2 23 2 24 -14 14 -14 14 -8
0 -8 0 -6 -7z"/>
<path d="M5173 2995 l-33 -14 0 -25 0 -25 16 -15 15 -16 12 -1 12 -1 25 2 25
2 19 18 19 18 -6 24 -6 23 -28 13 -27 12 -5 0 -6 -1 -32 -14z"/>
<path d="M3672 2993 l-33 -4 -6 -15 -5 -14 6 -25 6 -24 21 -11 20 -11 30 6 30
7 11 24 11 23 -17 26 -16 25 -13 -2 -12 -1 -33 -4z"/>
<path d="M1122 2958 l-12 -12 0 -22 0 -22 25 -16 24 -16 23 0 24 0 22 16 22
15 0 23 0 22 -12 12 -12 12 -46 0 -46 0 -12 -12z"/>
<path d="M1632 2915 l-12 -15 -6 -27 -5 -28 21 -22 21 -23 17 -1 17 -1 24 2
25 2 22 14 22 15 5 26 5 26 -24 24 -23 23 -48 0 -48 -1 -13 -14z"/>
<path d="M4136 2891 l-17 -19 3 -32 3 -33 20 -13 20 -13 12 7 11 7 -6 54 -7
54 -11 4 -10 3 -18 -19z"/>
<path d="M3654 2742 l-11 -7 -10 -19 -10 -19 5 -19 5 -20 23 -9 24 -9 30 6 30
6 11 14 11 14 -6 25 -7 26 -25 9 -25 10 -17 0 -17 0 -11 -8z"/>
<path d="M5177 2748 l-27 -10 -7 -26 -6 -25 23 -19 22 -18 27 0 27 0 22 16 22
15 0 18 0 17 -12 16 -13 16 -25 5 -25 5 -28 -10z"/>
<path d="M1125 2700 l-17 -19 6 -24 6 -24 25 -11 26 -12 27 7 27 6 12 13 13
13 0 20 0 20 -16 15 -15 16 -38 0 -38 0 -18 -20z"/>
<path d="M5633 2695 l-17 -36 31 -31 31 -30 11 6 11 7 0 44 0 44 -16 15 -15
16 -10 0 -9 0 -17 -35z"/>
<path d="M3633 2443 l-33 -13 0 -8 0 -7 9 -13 8 -13 34 3 34 3 3 26 3 26 -13
5 -13 5 -32 -14z"/>
<path d="M5129 2434 l-13 -16 19 -14 19 -14 23 0 23 0 0 30 0 30 -29 0 -29 0
-13 -16z"/>
<path d="M1106 2414 l-28 -16 13 -14 14 -14 32 -6 33 -6 6 17 7 18 -10 16 -10
16 -14 2 -14 2 -29 -15z"/>
</g>
</svg>
