<?xml version="1.0" standalone="no"?>
<!DOCTYPE svg PUBLIC "-//W3C//DTD SVG 20010904//EN"
 "http://www.w3.org/TR/2001/REC-SVG-20010904/DTD/svg10.dtd">
<svg version="1.0" xmlns="http://www.w3.org/2000/svg"
 width="2480.000000pt" height="1748.000000pt" viewBox="0 0 2480.000000 1748.000000"
 preserveAspectRatio="xMidYMid meet">
<metadata>
Created by potrace 1.16, written by Peter Selinger 2001-2019
</metadata>
<g transform="translate(0.000000,1748.000000) scale(0.100000,-0.100000)"
fill="#000000" stroke="none">
<path d="M0 8740 l0 -8740 12400 0 12400 0 0 8740 0 8740 -12400 0 -12400 0 0
-8740z m1876 6916 l-5 -91 -1 -182 0 -183 -10 0 -10 0 4 143 4 142 1 138 1
138 11 -7 11 -6 -6 -92z m8924 6 l0 -19 -20 -23 -20 -23 6 -21 6 -21 11 -13
10 -13 31 3 30 3 16 27 15 28 -13 20 -12 20 0 21 0 21 48 -6 47 -7 26 -5 27
-5 4 -33 4 -34 -4 -41 -4 -41 -14 0 -14 0 0 49 0 49 -15 12 -15 12 -15 -6 -15
-5 0 -25 0 -24 -17 -31 -18 -31 -61 0 -62 0 -17 36 -17 36 7 36 6 37 22 17 22
18 8 0 7 0 0 -18z m626 -37 l69 -45 6 0 7 0 6 -15 5 -15 -6 -16 -6 -15 -56 1
-56 2 -17 -1 -17 -1 -22 -22 -21 -23 -15 23 -15 22 -24 0 -24 0 0 15 0 15 19
0 19 0 10 13 11 12 7 53 7 53 22 -5 23 -6 68 -45z m384 22 l0 -22 -20 -13 -20
-12 0 -25 0 -25 25 -16 25 -16 17 13 16 14 12 28 12 28 27 -35 27 -36 14 0 14
0 11 19 10 20 0 20 0 20 -20 11 -20 11 0 19 0 20 11 0 11 0 30 -30 31 -31 -6
-42 -6 -42 -22 -18 -22 -18 -53 6 -52 7 -6 -11 -7 -11 -29 0 -28 0 -17 6 -16
6 -14 29 -15 28 0 32 0 33 27 28 27 28 13 0 13 0 0 -23z m498 -14 l29 -28 18
-32 19 -32 27 -11 27 -12 20 11 20 10 5 22 6 21 -32 29 -31 29 12 12 11 11 25
-11 25 -11 16 -25 16 -24 -11 -41 -11 -40 -22 -16 -21 -15 -34 0 -34 0 -38 39
-37 38 -5 14 -4 13 -17 -7 -17 -6 0 -45 0 -45 -11 -7 -11 -7 -9 14 -9 14 2 65
1 65 4 18 4 17 19 0 19 0 29 -27z m660 -22 l3 -22 20 -12 19 -12 0 -17 0 -18
-130 0 -129 0 -11 19 -10 20 0 6 0 7 80 -7 80 -7 25 16 25 16 0 21 0 21 13 -4
12 -5 3 -22z m4792 -17 l0 -11 20 -26 21 -26 -23 -5 -23 -5 -117 -4 -117 -3
-5 11 -4 12 8 12 7 13 84 -3 84 -3 13 8 12 7 0 28 0 28 7 7 7 7 13 -17 13 -18
0 -12z m-1010 11 l0 -26 18 -6 17 -7 7 -10 7 -10 -5 -8 -5 -8 -135 1 -135 1 3
17 3 16 85 0 85 0 13 8 12 8 0 25 0 24 15 0 15 0 0 -25z m2008 -4 l4 -25 25
-19 25 -20 -13 -8 -13 -7 -133 -1 -133 -1 0 19 0 20 98 3 97 3 3 33 3 33 17
-3 17 -3 3 -24z m1000 -5 l3 -27 20 -12 19 -12 0 -17 0 -17 -132 5 -133 6 -9
9 -10 9 10 10 10 10 39 1 40 0 45 -5 44 -5 13 11 13 10 0 30 0 30 13 -4 12 -5
3 -27z m1002 15 l0 -19 26 -32 26 -31 -5 -5 -4 -5 -132 -3 -132 -3 -9 17 -9
17 5 6 5 5 79 -5 79 -4 21 11 20 11 0 29 0 30 15 0 15 0 0 -19z m-7251 -10
l11 -19 -14 -5 -14 -6 -6 6 -6 6 0 19 0 18 10 0 9 0 10 -19z m8297 -27 l14
-34 15 0 15 0 0 -20 0 -20 -151 4 -151 4 -6 7 -7 7 19 14 20 14 27 0 27 0 13
-16 13 -16 12 17 13 18 28 -6 28 -5 17 9 18 10 0 30 0 30 11 -7 11 -6 14 -34z
m-8166 -146 l34 -1 4 11 4 12 19 0 19 0 0 -4 0 -4 6 -16 6 -16 -45 0 -46 0 -5
-9 -6 -9 -57 -4 -58 -5 -17 -8 -18 -7 0 26 0 26 29 -6 29 -6 21 11 21 12 0 16
0 17 13 -18 13 -17 34 -1z m2940 -26 l0 -19 -20 -18 -20 -18 0 -18 0 -19 24
-15 25 -16 27 3 28 3 6 25 7 25 -10 29 -10 28 14 9 14 9 45 -6 45 -6 17 -4 17
-5 -2 -67 -2 -67 -15 0 -15 0 3 40 3 40 -14 19 -14 19 -15 -6 -15 -5 -8 -39
-7 -38 -31 -27 -31 -28 -22 0 -23 0 -25 11 -25 12 -11 30 -10 30 0 27 0 27 25
27 24 26 11 0 10 0 0 -18z m2992 -5 l37 -22 36 -47 36 -48 25 -6 24 -6 15 12
15 12 0 28 0 27 -25 11 -25 12 0 15 0 15 23 0 23 0 22 -16 22 -15 0 -46 0 -47
-22 -23 -21 -23 -41 0 -40 0 -53 58 -53 57 -10 -15 -10 -15 2 -30 2 -31 -8
-12 -7 -12 -8 0 -8 0 -5 77 -5 76 5 19 4 18 7 0 6 0 37 -23z m-1897 -12 l40
-24 36 -20 37 -20 5 -16 6 -15 -5 -14 -6 -14 -80 0 -80 0 -19 -18 -19 -17 -13
16 -12 16 -25 3 -25 3 -3 18 -3 17 19 0 20 0 16 6 16 6 0 42 0 43 7 6 6 7 21
0 21 0 40 -25z m920 16 l5 -10 -32 -30 -32 -30 12 -26 12 -26 37 3 38 3 3 20
4 20 8 8 7 8 32 -31 31 -32 12 4 11 4 15 22 14 21 -27 27 -26 26 5 14 5 14 23
-9 23 -8 12 -24 13 -24 0 -28 0 -28 -25 -24 -24 -25 -25 0 -25 0 -6 10 -6 10
-19 0 -19 0 -15 -15 -15 -15 -27 0 -28 0 -28 27 -28 27 0 42 0 43 26 20 27 21
13 0 13 0 6 -9z m2170 -40 l6 -29 15 -6 14 -5 0 -16 0 -15 -67 -1 -68 -2 -70
0 -70 0 0 19 0 19 100 5 100 5 1 20 1 20 2 8 1 7 14 0 14 0 7 -29z m1049 5
l26 -23 6 -32 7 -32 -18 -19 -17 -19 -42 -16 -41 -15 -45 4 -45 4 -40 10 -39
11 -13 17 -13 18 0 32 0 31 21 27 20 26 104 0 104 0 25 -24z m796 -1 l0 -25
-12 -20 -13 -20 11 -18 11 -17 19 0 19 0 6 30 6 30 7 21 8 22 24 11 25 11 35
0 36 0 29 -29 29 -29 0 -34 -1 -33 -12 -16 -12 -15 -45 -18 -45 -18 -63 7 -62
7 -30 25 -30 25 0 42 0 42 16 22 15 22 15 0 14 0 0 -25z m1074 -1 l16 -15 33
12 34 12 26 -7 27 -6 14 -23 15 -22 6 -27 7 -27 -32 -30 -33 -29 -23 2 -24 3
-7 6 -6 7 -28 0 -28 0 -6 -10 -6 -10 -32 0 -31 0 -28 27 -28 27 0 24 0 23 11
22 12 22 15 18 15 17 33 0 33 0 15 -16z m-10185 -75 l-13 -8 -4 4 -4 4 7 10 6
11 11 -6 10 -6 -13 -9z m1371 -9 l0 -10 -15 0 -15 0 0 10 0 10 15 0 15 0 0
-10z m100 0 l0 -10 -10 0 -10 0 0 10 0 10 10 0 10 0 0 -10z m-1320 -30 l0 -10
-17 0 -18 0 -30 -20 -30 -20 -30 1 -30 1 20 5 20 5 28 24 29 24 29 0 29 0 0
-10z m10 -65 l0 -15 -10 0 -9 0 5 15 6 15 4 0 4 0 0 -15z m-11790 -102 l0 -98
-9 -13 -8 -14 -5 19 -4 18 4 93 4 92 9 0 9 0 0 -97z m9130 -102 l0 -8 -37 -6
-38 -6 -15 -2 -15 -2 -40 2 -40 2 20 12 20 12 65 5 65 6 8 -4 7 -3 0 -8z m291
3 l12 -15 -25 6 -26 7 -10 -19 -10 -18 -6 6 -6 5 16 22 15 22 13 0 14 0 13
-16z m-486 -9 l0 -10 -32 -3 -33 -3 0 10 0 9 13 6 12 5 20 -2 20 -2 0 -10z
m595 0 l0 -14 -15 5 -15 6 6 9 5 9 10 0 9 0 0 -15z m610 0 l0 -15 -51 0 -51 0
7 -40 7 -39 -6 -18 -6 -19 -30 -17 -30 -18 -34 7 -35 6 -11 13 -10 13 45 -6
46 -5 24 23 25 23 0 28 0 27 -14 12 -15 11 -63 -2 -63 -3 3 10 2 9 114 0 115
0 7 8 7 7 9 0 8 0 0 -15z m390 -17 l0 -20 -22 7 -23 6 -46 6 -46 5 -16 -22
-15 -22 -12 22 -12 22 -39 -6 -39 -6 0 12 0 13 119 -3 119 -3 7 11 6 10 10 -5
9 -6 0 -21z m1155 22 l20 -9 -30 0 -31 -1 -12 -12 -12 -12 -6 7 -6 6 5 16 6
15 23 -1 23 0 20 -9z m-655 -15 l0 -15 -32 0 -33 1 25 14 25 14 8 1 7 0 0 -15z
m-102 -50 l-12 -26 -15 16 -16 16 15 9 15 10 12 0 13 0 -12 -25z m-10939 -146
l-1 -144 2 -25 1 -25 -6 -142 -7 -143 -7 0 -7 0 3 283 4 282 5 34 5 33 5 -5 5
-4 -2 -144z m9061 130 l0 -21 -30 -29 -29 -30 -38 7 -38 6 -14 13 -14 13 41
-5 40 -5 31 18 31 18 0 18 0 18 10 0 10 0 0 -21z m1475 -59 l-29 -30 -41 0
-41 0 -22 16 -22 15 0 10 0 9 24 -15 25 -16 33 3 33 3 25 38 24 39 10 -21 9
-21 -28 -30z m-996 44 l4 -4 -7 -7 -7 -8 -57 -1 -57 -1 -27 -7 -28 -8 0 15 0
16 20 6 20 6 29 -6 29 -6 6 10 7 10 32 -6 32 -6 4 -3z m2173 -18 l36 -16 14 0
14 0 12 12 12 12 0 -16 0 -17 -10 -6 -9 -6 -58 15 -58 15 -23 -5 -22 -6 0 14
0 14 11 11 12 12 16 -9 16 -8 37 -16z m-662 -7 l0 -21 -15 6 -14 5 -45 -20
-44 -19 -4 -12 -4 -11 -22 12 -23 12 6 10 6 9 18 0 18 0 18 19 17 20 37 4 36
4 8 1 7 2 0 -21z m4700 -19 l0 -10 9 0 9 0 56 -36 55 -37 7 -19 6 -20 -10 -10
-10 -10 -49 33 -48 33 -20 19 -20 18 -25 6 -26 5 4 34 4 33 29 -15 29 -15 0
-9z m-840 10 l0 -10 -110 0 -110 0 0 10 0 10 110 0 110 0 0 -10z m1938 -63
l62 -40 0 -14 0 -14 -15 -5 -15 -6 -25 16 -24 16 -26 0 -25 0 0 13 0 14 -18
16 -18 17 -33 11 -33 12 -9 -14 -9 -14 0 -30 1 -30 12 -16 12 -16 21 -7 21 -6
18 20 18 20 9 0 8 0 0 -9 0 -10 -16 -15 -15 -16 -33 0 -33 0 -23 25 -24 25 1
37 1 37 31 28 31 28 43 -17 42 -17 63 -39z m1175 52 l167 2 0 -10 0 -10 -20
-14 -20 -14 -223 4 -222 4 -12 4 -13 4 6 15 6 15 26 4 27 5 55 -5 55 -6 168 2z
m711 5 l16 -6 0 -34 0 -35 -14 -5 -14 -6 -21 12 -21 11 0 16 0 16 17 19 16 18
3 0 2 0 16 -6z m996 -44 l0 -10 20 0 19 0 -5 -17 -6 -18 9 13 10 13 12 -15 13
-15 -7 -11 -6 -10 -38 0 -38 0 -18 20 -18 20 18 20 18 20 9 0 8 0 0 -10z
m-10185 -39 l-10 -9 -82 -4 -83 -5 0 17 0 16 64 -4 64 -4 18 10 19 11 10 -10
9 -9 -9 -9z m11697 11 l11 -11 -6 -14 -6 -15 -253 0 -253 -1 -14 12 -14 12
-244 -2 -243 -2 0 9 0 10 18 1 17 1 259 4 259 3 4 5 5 4 225 -3 225 -3 10 -10z
m-12309 -20 l16 -17 -40 0 -39 0 0 11 0 11 7 6 6 7 17 0 17 0 16 -18z m107 -7
l12 -15 -10 0 -10 0 -16 6 -16 6 0 9 0 9 14 0 14 0 12 -15z m893 1 l6 -14 -35
-4 -34 -4 0 11 0 12 7 6 6 7 23 0 22 0 5 -14z m495 -3 l4 -13 -21 0 -22 0 -5
-15 -6 -15 -9 0 -9 0 0 14 0 15 16 16 16 16 16 -3 15 -3 5 -12z m-393 -3 l6
-10 -15 0 -16 0 0 10 0 10 9 0 10 0 6 -10z m499 -5 l5 -15 -3 0 -4 0 -16 6
-16 6 0 9 0 9 14 0 14 0 6 -15z m11269 -65 l72 -41 15 -9 15 -10 85 -37 85
-38 59 -31 60 -31 4 -11 4 -12 -19 8 -18 8 -90 42 -90 43 -64 32 -65 32 -48
28 -49 27 -23 0 -23 0 -6 6 -6 6 6 14 5 14 10 0 9 0 72 -40z m-12764 -6 l4 -4
-7 -7 -8 -8 -61 -1 -62 -2 -18 -7 -18 -7 -6 6 -6 6 13 15 13 16 26 -6 26 -5
14 9 14 9 36 -5 36 -6 4 -3z m464 4 l17 -13 -56 0 -56 0 -14 -19 -14 -20 0
-23 0 -23 -10 0 -10 0 0 29 0 28 25 27 24 26 39 0 38 0 17 -12z m1492 1 l106
-2 6 7 6 6 14 0 13 0 0 -14 0 -15 -17 -5 -18 -5 -45 -1 -45 -1 -68 6 -69 5 -9
6 -9 5 0 11 0 10 14 -5 15 -6 106 -2z m-974 -12 l19 5 0 -10 0 -10 -16 -6 -16
-6 -58 0 -59 0 -7 -11 -6 -11 -9 9 -10 10 7 17 7 18 43 -7 42 -6 7 11 6 10 16
-9 16 -8 18 4z m416 -6 l38 3 28 -2 28 -2 -6 -10 -6 -10 -70 0 -69 0 0 -12 0
-12 -10 10 -9 9 6 23 5 22 14 -11 13 -10 38 2z m10607 -10 l18 -19 -18 -27
-17 -26 -9 3 -10 4 -16 26 -16 26 13 16 13 16 13 0 12 0 17 -19z m-5354 5 l0
-5 -9 -6 -10 -5 -6 10 -6 10 15 0 16 0 0 -4z m-4015 -16 l6 -10 -8 0 -8 0 -22
-6 -23 -6 0 16 0 16 24 0 25 0 6 -10z m122 -30 l12 -15 1 -7 0 -8 -15 0 -15 0
0 10 0 9 -40 11 -40 11 0 4 0 4 43 -2 42 -1 12 -16z m-756 -39 l-12 -21 -84 0
-85 0 0 13 0 12 74 -3 75 -4 13 21 12 21 9 -9 9 -9 -11 -21z m-2157 2 l7 -7
59 -2 60 -3 5 10 6 9 10 0 9 0 0 -20 0 -21 -87 3 -88 3 -3 18 -3 17 9 0 9 0 7
-7z m906 -24 l0 -19 -10 0 -10 0 0 26 0 25 10 -6 10 -6 0 -20z m-642 3 l4 -12
-16 0 -16 0 0 16 0 16 12 -4 12 -4 4 -12z m411 4 l12 -14 -38 -5 -38 -5 -27 2
-28 3 -7 6 -6 7 39 0 39 0 15 10 15 10 6 0 7 0 11 -14z m73 -18 l-10 -10 -28
4 -29 4 35 15 35 16 4 -9 3 -10 -10 -10z m418 10 l0 -23 -45 -1 -44 -1 -16
-13 -16 -14 4 -18 5 -18 -6 0 -7 1 -35 19 -35 19 13 1 12 0 48 21 47 21 25 14
25 13 13 1 12 0 0 -22z m240 2 l0 -20 -5 0 -4 0 -11 20 -11 20 16 0 15 0 0
-20z m-880 0 l14 -9 -4 -4 -5 -5 -22 -6 -23 -7 0 20 0 21 13 0 12 0 15 -10z
m1130 -3 l0 -13 -50 -13 -50 -13 -14 -19 -13 -19 -17 5 -16 5 -17 6 -18 5 55
20 55 20 35 13 35 14 8 1 7 1 0 -13z m1188 -26 l5 -14 -24 7 -24 8 -22 1 -21
2 -8 8 -9 8 49 -3 49 -3 5 -14z m-111 -43 l-5 -13 0 25 0 25 5 -12 5 -13 -5
-12z m-579 -33 l-3 -3 -15 -2 -15 -2 -67 1 -68 1 0 16 0 15 13 -8 12 -7 60 2
60 3 10 10 10 10 3 -16 4 -17 -4 -3z m-1964 6 l18 -19 -22 -12 -22 -12 -11 11
-11 11 -68 0 -69 0 -8 -22 -8 -21 -5 9 -6 9 9 23 8 22 43 1 43 2 27 1 27 2 7
7 7 7 12 0 12 0 17 -19z m2068 -6 l0 -9 -11 -4 -11 -4 0 17 0 17 11 -4 11 -3
0 -10z m-1092 -5 l0 -10 -16 0 -15 0 6 10 6 10 10 0 9 0 0 -10z m1730 -26 l0
-4 -15 0 -15 0 0 10 0 9 15 -5 15 -6 0 -4z m-140 -31 l-1 -8 -14 -19 -15 -20
0 20 0 21 7 6 6 7 9 0 8 0 0 -7z m-1764 -30 l-6 -6 -6 6 -6 6 8 12 8 13 4 -13
4 -12 -6 -6z m154 12 l0 -15 -20 0 -20 0 -17 -34 -16 -34 -23 -12 -23 -13 -18
8 -18 9 20 3 20 4 25 41 25 40 20 8 20 9 13 0 12 1 0 -15z m350 -10 l0 -15
-10 0 -10 0 0 15 0 15 10 0 10 0 0 -15z m130 5 l0 -11 -14 -5 -14 -6 -26 -39
-26 -39 -16 0 -15 0 30 37 31 38 0 11 0 12 13 5 12 5 13 1 12 1 0 -10z m500
-5 l12 -15 -46 6 -46 7 -30 -33 -30 -32 11 -20 11 -20 -14 4 -13 5 -3 31 -3
31 10 20 11 20 22 4 23 4 36 2 37 1 12 -15z m4670 -5 l0 -10 -11 0 -10 0 6 10
6 10 5 0 4 0 0 -10z m-6790 -19 l0 -10 -11 -6 -10 -7 -6 5 -5 6 7 10 6 11 10
0 9 0 0 -9z m135 -1 l6 -10 -13 0 -13 0 -46 -50 -46 -50 -19 7 -19 8 23 3 22
3 22 42 21 42 11 7 11 8 17 0 17 0 6 -10z m1029 -27 l-10 -17 -15 -4 -14 -4
13 13 12 13 0 20 0 20 12 -12 13 -13 -11 -16z m1708 26 l-24 -9 -25 -20 -26
-20 -28 0 -29 0 0 10 0 9 14 -5 13 -5 38 25 38 26 26 -1 26 0 -23 -10z m-715
-31 l-5 -13 -1 19 -1 19 6 -6 6 -6 -5 -13z m-11063 -675 l-5 -638 -4 -190 -3
-190 -1 -22 -1 -23 -11 0 -10 0 6 253 7 252 2 370 3 370 1 228 2 227 10 0 10
0 -6 -637z m11046 622 l-13 -15 -4 4 -5 5 7 10 6 11 11 0 10 0 -12 -15z m7064
2 l-4 -12 -20 -13 -20 -12 0 11 0 12 18 13 17 13 7 1 7 0 -5 -13z m-56 -57
l-13 -20 -12 -4 -13 -5 0 6 0 6 17 19 16 18 9 0 8 0 -12 -20z m-6375 0 l12 -1
-19 -14 -19 -15 -14 11 -13 11 6 10 6 9 15 -5 15 -6 11 0z m3057 1 l0 -10 -20
-6 -20 -6 0 -35 0 -34 21 -21 21 -21 24 6 24 6 0 -10 0 -10 -30 0 -31 0 -24
16 -25 16 0 47 0 47 12 12 12 12 18 0 18 0 0 -9z m205 -2 l10 -2 -50 -6 -50
-6 -3 -31 -3 -32 -18 -16 -19 -17 5 44 5 45 -21 7 -21 6 4 8 5 8 73 -3 73 -3
10 -2z m115 -9 l0 -10 -21 0 -20 0 6 10 6 10 15 0 14 0 0 -10z m155 0 l6 -10
-30 0 -31 0 0 10 0 10 24 0 25 0 6 -10z m-3387 -22 l12 -10 0 -9 0 -9 -18 0
-18 0 -20 15 -19 14 -20 1 -20 0 -15 11 -15 10 60 -6 60 -7 13 -10z m3299 16
l-6 -6 -13 5 -13 5 19 1 19 1 -6 -6z m3983 -10 l0 -16 -22 -31 -23 -32 -60
-55 -60 -55 -43 -40 -44 -40 -63 -62 -64 -63 -267 0 -267 0 6 6 6 6 228 4 228
4 22 5 22 5 6 20 6 20 8 0 7 0 54 49 55 50 8 8 7 8 77 80 77 80 41 32 40 32 8
0 7 1 0 -16z m-8100 -7 l85 2 33 6 32 6 0 -16 0 -15 -48 0 -48 0 -11 -11 -11
-11 -20 11 -21 11 -60 0 -61 0 0 16 0 15 23 -8 22 -8 85 2z m6982 -29 l-12
-12 0 10 0 11 7 6 6 7 6 -5 5 -5 -12 -12z m2122 6 l6 -16 -57 -67 -57 -66 -17
-20 -18 -20 -58 -64 -58 -64 -50 -49 -50 -48 -21 -6 -21 -6 -79 42 -79 41 -20
12 -20 12 -6 8 -6 9 -21 11 -21 12 -76 44 -75 45 0 8 0 8 -14 0 -14 0 -5 13
-4 12 -1 10 -1 10 22 -3 21 -4 76 -47 75 -48 31 -19 32 -19 77 -52 78 -53 26
0 26 0 70 73 70 73 85 93 85 93 18 29 19 29 13 0 13 0 6 -16z m-2144 -29 l-13
-15 -4 4 -5 5 7 10 6 11 11 0 10 0 -12 -15z m-1146 -10 l-6 -15 -8 0 -7 0 -28
-40 -28 -40 -8 0 -9 0 0 11 0 10 35 37 35 37 0 8 0 7 15 0 14 0 -5 -15z
m-5775 -61 l-13 -16 -65 3 -66 3 -13 -7 -12 -8 -6 15 -6 15 6 10 7 10 27 -11
27 -10 33 1 32 0 19 11 20 10 8 22 8 23 3 -28 3 -28 -12 -15z m6774 -75 l-133
-130 0 -9 0 -10 -5 0 -6 0 -24 16 -25 16 0 9 0 9 23 0 23 0 30 23 30 22 94 93
93 92 16 0 16 -1 -132 -130z m3912 101 l6 -10 -15 0 -16 0 0 10 0 10 9 0 10 0
6 -10z m-11161 -15 l20 -15 -6 -5 -6 -6 -18 1 -19 1 -57 5 -58 6 0 8 0 9 58 4
57 3 5 2 5 1 19 -14z m5526 0 l0 -16 -102 -106 -103 -105 -11 -12 -11 -11 -92
-74 -91 -75 0 -8 0 -8 -9 0 -9 0 -5 19 -4 18 -57 27 -57 27 -27 24 -27 24 -71
55 -71 54 -27 -5 -26 -5 0 18 0 18 -27 28 -27 28 -18 0 -17 0 -11 -19 -10 -20
0 -32 0 -33 -16 16 -16 16 7 32 7 31 31 19 30 19 36 -15 36 -15 24 -17 24 -17
16 -10 17 -10 54 -40 55 -39 29 -28 30 -28 19 -6 19 -6 18 -16 19 -17 16 -13
16 -14 22 6 22 6 54 47 54 48 129 128 129 127 14 0 15 0 0 -15z m-5680 -3 l0
-7 -21 -13 -21 -13 -6 6 -7 7 19 14 20 14 8 0 8 0 0 -8z m7638 -59 l3 -33 -24
0 -25 0 -12 15 -12 14 7 21 7 21 26 -3 27 -3 3 -32z m-1363 -42 l-16 -31 -9 0
-10 0 0 19 0 19 23 15 22 15 3 -3 3 -3 -16 -31z m4989 33 l16 -6 0 -10 0 -10
48 -51 47 -51 33 -30 33 -31 15 -32 16 -31 -11 -20 -10 -19 -25 -17 -25 -16
-20 0 -19 0 -31 25 -30 26 -6 18 -6 19 22 36 21 36 9 0 9 0 0 15 0 15 -57 61
-58 61 -3 9 -4 9 10 0 10 0 16 -6z m-4159 -24 l18 -20 -4 -4 -4 -4 -28 24 -28
24 14 0 14 0 18 -20z m3615 11 l0 -9 -117 -123 -118 -122 -68 -70 -68 -71 -17
-28 -16 -28 -13 0 -13 0 0 8 0 9 -26 11 -25 12 -82 55 -82 55 -25 17 -25 17
-40 32 -40 31 -20 7 -21 6 -37 36 -37 36 0 7 0 8 6 6 6 6 37 -18 36 -19 160
-107 160 -107 15 -13 15 -13 32 -7 32 -6 48 49 48 49 140 146 140 146 8 1 7 0
0 -9z m-9382 -37 l24 -16 -5 -4 -4 -4 -38 16 -39 16 -28 -6 -28 -5 0 9 0 9 18
4 17 5 29 -4 30 -4 24 -16z m-1118 -21 l1 -8 -40 -6 -41 -5 -6 -6 -6 -6 -30
12 -29 13 -51 -8 -51 -8 -9 5 -8 5 0 12 0 12 135 -2 135 -2 0 -8z m6938 -2 l5
-13 -14 4 -13 4 -4 13 -4 14 13 -5 13 -4 4 -13z m1452 -7 l0 -14 -9 0 -10 0
-6 10 -6 10 6 10 6 10 10 -5 9 -6 0 -15z m-7403 -16 l-5 -13 -1 19 -1 19 6 -6
6 -6 -5 -13z m-1067 -48 l0 -30 -22 -14 -23 -15 -70 -2 -70 -3 0 15 0 14 71 1
70 0 12 8 12 7 0 25 0 24 10 0 10 0 0 -30z m4697 7 l-37 -9 -15 6 -15 5 0 8 0
8 52 -4 53 -4 -38 -10z m-3551 -32 l29 -15 25 0 24 0 -12 -12 -12 -12 -42 14
-42 15 -4 13 -4 12 5 0 5 0 28 -15z m-722 -15 l68 2 -7 -11 -6 -11 -85 0 -84
0 0 16 0 16 23 -7 22 -7 69 2z m174 -11 l-3 -10 -10 0 -9 0 -4 10 -4 11 17 0
17 0 -4 -11z m9928 -93 l6 -24 -4 -19 -3 -18 -19 -3 -18 -4 -23 22 -24 22 6
15 6 15 21 8 21 9 12 0 13 1 6 -24z m-10581 4 l20 -9 -10 -1 -10 -2 -36 2 -36
1 -23 -28 -22 -28 6 -35 5 -35 -14 19 -15 20 0 17 0 18 10 26 10 26 22 9 23 9
25 0 25 0 20 -9z m389 -5 l-6 -15 -9 0 -9 0 0 15 0 15 15 0 14 0 -5 -15z m141
5 l6 -10 -10 0 -11 0 -20 -17 -20 -17 0 -11 0 -12 -25 -23 -25 -23 -6 6 -6 6
16 16 16 16 0 12 0 11 27 28 27 28 12 0 13 0 6 -10z m715 -5 l45 -7 30 -11 29
-11 -24 -6 -25 -6 -48 18 -47 18 -28 1 -27 0 -20 10 -20 9 45 -4 45 -5 45 -6z
m-1227 -121 l-5 -14 -14 0 -14 0 0 13 0 14 6 6 6 6 13 -6 14 -5 -6 -14z m1382
7 l-6 -11 -11 6 -10 7 13 8 13 8 4 -4 4 -4 -7 -10z m5175 -17 l0 -6 -81 -77
-81 -76 -9 -3 -9 -4 0 9 0 10 18 16 17 17 65 60 65 59 8 1 7 0 0 -6z m3650
-134 l0 -10 -10 0 -10 0 0 10 0 10 10 0 10 0 0 -10z m995 0 l6 -10 -10 0 -11
0 0 10 0 10 4 0 5 0 6 -10z m-9927 -12 l-5 -13 -67 -8 -68 -7 -16 10 -17 9 65
1 65 0 15 10 15 10 8 0 9 0 -4 -12z m2589 -21 l22 -10 15 12 14 12 38 -2 39
-2 8 -5 8 -4 -12 -14 -11 -14 21 0 22 0 -5 9 -6 9 14 12 15 11 19 -10 19 -10
24 1 24 2 28 -2 28 -2 -7 -11 -7 -11 -38 5 -39 5 0 -8 0 -9 -240 1 -240 0 0
24 0 25 112 -2 113 -1 22 -11z m2513 -2 l0 -6 -44 -42 -44 -42 -59 -55 -59
-55 -15 -33 -14 -32 -10 0 -10 0 -40 34 -40 34 7 7 7 7 18 -21 17 -21 15 0 14
0 24 23 23 22 28 29 27 28 14 12 14 11 54 53 54 52 10 0 9 0 0 -5z m-2036 -15
l-10 -10 -40 9 -39 9 50 1 49 1 -10 -10z m96 0 l0 -10 -19 0 -20 0 -6 10 -6
10 25 0 26 0 0 -10z m263 -7 l-13 -5 -12 5 -13 5 25 0 25 0 -12 -5z m5502 -23
l6 -10 -10 0 -11 0 0 10 0 10 4 0 5 0 6 -10z m-2547 -32 l3 -18 -255 0 -256 0
0 6 0 7 15 11 16 11 237 0 237 0 3 -17z m-6394 -7 l6 -9 -48 -7 -47 -7 -16
-14 -16 -14 -17 19 -18 20 34 5 33 6 25 3 25 4 17 2 17 1 5 -9z m5203 2 l-7
-6 11 -14 11 -13 -12 -15 -12 -15 -24 0 -23 0 -10 17 -10 18 16 17 16 18 25 0
25 0 -6 -7z m313 -2 l-15 -8 -65 7 -65 7 80 1 80 1 -15 -8z m350 1 l0 -7 -147
2 -146 3 -5 5 -5 5 151 0 152 0 0 -8z m-1150 -32 l0 -10 -9 0 -10 0 -6 10 -6
10 15 0 16 0 0 -10z m-1500 -20 l0 -10 -9 0 -10 0 -6 10 -6 10 15 0 16 0 0
-10z m1545 -15 l29 -24 -7 -8 -8 -7 -32 32 -32 32 10 0 10 -1 30 -24z m-2193
-12 l12 -28 18 -24 18 -24 0 -8 0 -9 -11 0 -10 0 -20 45 -20 44 -9 6 -10 6 0
10 0 9 10 0 10 0 12 -27z m-71 -25 l18 -23 1 -12 0 -12 -15 6 -16 5 -15 29
-15 29 12 0 11 0 19 -22z m-2476 -8 l6 -10 -23 0 -23 0 15 10 15 10 2 0 2 0 6
-10z m6175 -10 l0 -10 -15 0 -15 0 0 10 0 10 15 0 15 0 0 -10z m810 -21 l15
-10 -32 6 -32 6 -20 -20 -21 -21 0 -17 0 -18 6 -22 6 -21 26 -7 26 -6 -14 -9
-14 -9 -28 15 -28 15 0 12 0 12 -5 20 -5 20 20 33 20 32 32 0 33 0 15 -11z
m993 -10 l22 -11 23 -21 22 -20 0 -29 0 -28 -20 -20 -20 -20 -27 1 -28 2 22 4
23 4 13 20 14 19 -4 24 -5 24 -23 22 -24 22 -26 -6 -26 -7 -9 -25 -10 -25 0
-24 0 -24 22 -15 22 -16 -16 0 -17 0 -21 23 -21 22 -51 -53 -50 -53 -16 3 -16
3 61 63 62 63 21 35 22 34 16 10 17 9 13 1 13 0 22 -11z m-5453 -48 l0 -13
-15 12 -15 12 0 21 0 21 15 -20 14 -19 1 -14z m4499 19 l10 -30 -11 -30 -10
-30 -20 -11 -20 -11 -6 7 -7 6 24 18 24 18 -5 47 -6 46 8 0 8 0 11 -30z
m-7087 -11 l17 -9 23 0 23 0 14 -9 14 -9 -53 -3 -54 -4 -20 16 -21 16 -30 11
-30 11 50 -6 50 -6 17 -8z m9753 5 l239 -5 21 -13 20 -13 25 -6 25 -7 50 -38
51 -38 29 -15 30 -15 25 -15 25 -14 5 -5 5 -6 49 -28 48 -28 39 -35 39 -35 0
-19 0 -19 -14 0 -14 0 -4 8 -3 7 -44 29 -44 28 -85 49 -85 49 -7 0 -7 0 -18
20 -18 20 -12 0 -13 0 -6 15 -5 15 -14 0 -14 0 -47 45 -48 45 -177 0 -176 1
-75 6 -75 6 -4 3 -3 3 7 11 7 11 17 -6 16 -7 240 -4z m-770 -14 l6 -10 -10 0
-11 0 0 10 0 10 4 0 5 0 6 -10z m-8815 -37 l0 -15 -32 7 -33 7 -8 8 -8 7 40 0
41 0 0 -14z m3946 -50 l-16 -28 -20 -24 -21 -24 -5 6 -6 6 38 55 39 55 3 -9 3
-9 -15 -28z m-1161 27 l6 -10 -10 0 -11 0 0 10 0 10 4 0 5 0 6 -10z m6040 -30
l6 -10 -15 0 -16 0 0 10 0 10 9 0 10 0 6 -10z m990 0 l6 -10 -16 0 -16 0 6 10
6 10 4 0 4 0 6 -10z m-9967 -13 l32 -2 0 -14 0 -13 -37 7 -38 7 -45 2 -44 3
-4 13 -5 13 54 -7 54 -8 33 -1z m5946 -3 l16 -6 0 -9 0 -9 -18 0 -18 0 -12
-12 -12 -12 0 15 0 15 12 12 12 12 2 0 2 0 16 -6z m118 -24 l-22 -21 0 -12 0
-12 31 -26 32 -26 -10 -6 -9 -6 -32 30 -32 30 -20 -6 -20 -6 0 18 0 19 -12 12
-12 12 6 0 7 0 24 -9 25 -10 23 20 22 19 10 0 11 0 -22 -20z m3078 -74 l0 -11
-19 -12 -20 -12 -13 -25 -13 -25 -23 -45 -24 -46 -30 -25 -30 -25 -9 6 -9 5 0
44 0 43 24 6 25 6 5 18 6 17 31 35 31 35 15 28 14 29 20 -18 19 -17 0 -11z
m-5151 -11 l-30 -45 -10 0 -10 0 12 23 11 22 21 23 20 22 8 0 8 0 -30 -45z
m1921 20 l0 -26 15 -5 15 -6 0 -28 0 -29 -9 -6 -10 -5 -15 54 -16 54 0 11 0
11 10 0 10 0 0 -25z m-5966 -10 l36 -15 0 -5 0 -5 -45 7 -45 6 -15 -13 -15
-12 0 16 0 17 23 9 22 9 1 0 2 1 36 -15z m10246 -81 l0 -15 -10 6 -10 6 5 10
6 9 5 0 4 0 0 -16z m-10200 -41 l25 -5 14 -4 14 -5 -9 -9 -10 -10 -57 21 -58
21 -14 -12 -14 -12 -11 7 -10 6 0 14 0 14 18 4 17 4 35 -15 35 -14 25 -5z
m9970 -13 l0 -10 -4 0 -5 0 -6 10 -6 10 10 0 11 0 0 -10z m-6948 -78 l33 -28
47 -29 47 -29 11 -25 11 -24 -9 -9 -9 -9 -96 63 -96 63 0 22 -1 21 -12 5 -13
5 27 1 27 1 33 -28z m-3082 -2 l19 -10 41 -4 42 -3 15 -16 15 -15 -7 -12 -7
-11 -17 15 -18 16 -54 14 -54 15 -19 -2 -19 -2 -4 13 -5 12 27 0 26 0 19 -10z
m8440 -4 l0 -13 -25 -27 -25 -28 -10 4 -10 3 25 38 26 37 9 0 10 0 0 -14z
m-4430 -30 l0 -5 -10 -6 -10 -6 0 10 0 11 10 0 10 0 0 -4z m1990 0 l0 -5 -10
-6 -10 -6 0 10 0 11 10 0 10 0 0 -4z m-1023 -28 l-5 -13 -1 19 -1 19 6 -6 6
-6 -5 -13z m3393 -22 l0 -13 -162 -165 -163 -166 -15 -21 -14 -21 -8 0 -8 0 0
19 0 19 78 69 77 68 65 71 65 70 38 42 38 42 4 0 5 0 0 -14z m1670 4 l0 -10
-10 0 -10 0 0 10 0 10 10 0 10 0 0 -10z m-21744 -457 l-7 -408 -5 -425 -5
-424 -5 -5 -4 -4 0 454 0 454 7 383 6 382 10 0 10 0 -7 -407z m20734 375 l0
-13 35 -28 35 -28 19 6 18 6 18 19 18 20 9 0 8 0 0 -13 0 -13 -31 -23 -31 -23
31 -32 31 -32 0 -8 0 -8 -40 32 -40 32 -16 -6 -15 -6 -10 -30 -11 -30 -18 0
-18 0 -5 20 -5 20 18 0 18 0 10 13 10 12 6 23 7 22 -21 0 -21 0 -20 -18 -20
-19 7 -19 6 -19 -16 19 -16 20 0 36 0 36 16 22 15 22 10 0 9 0 0 -12z m-3535
-38 l0 -25 -15 4 -15 4 -44 1 -45 2 -4 12 -4 12 -18 0 -18 0 -6 -15 -5 -15
-179 0 -178 0 -10 10 -10 10 -232 1 -231 1 -11 -7 -10 -6 0 14 0 14 243 2 242
2 110 7 110 7 165 -5 165 -5 0 -25z m4545 -30 l28 -30 11 0 11 0 21 21 21 21
5 -6 5 -5 -16 -23 -16 -22 0 -15 0 -15 22 -23 21 -23 -14 0 -14 0 -13 20 -12
20 -19 -9 -19 -10 -16 -41 -16 -40 -5 0 -4 0 -16 30 -15 29 0 14 0 15 30 6 30
6 6 15 6 15 -12 15 -12 15 -14 0 -13 0 -15 -27 -15 -28 -1 27 0 27 10 25 10
26 6 0 6 0 28 -30z m-10180 -11 l0 -9 -10 0 -10 0 0 16 0 15 10 -6 10 -6 0
-10z m9753 9 l27 -13 -3 -10 -3 -9 -145 1 -144 2 -24 5 -24 5 -4 5 -5 5 7 10
6 11 143 0 142 0 27 -12z m-2193 -3 l0 -5 -68 -68 -69 -67 -81 -80 -81 -80
-11 -10 -12 -10 -46 -46 -47 -47 -140 -2 -140 -1 -10 1 -10 1 -50 3 -50 3 -52
2 -53 1 0 19 0 19 250 0 249 1 33 23 33 23 90 87 90 88 75 74 75 74 13 1 12 1
0 -5z m3100 -55 l10 -19 0 -40 0 -41 -39 -39 -38 -38 -29 -6 -29 -6 -20 14
-20 14 -15 13 -16 13 -17 25 -17 24 0 38 0 38 -12 1 -13 1 -14 2 -14 1 -4 13
-5 12 30 0 30 0 14 5 15 6 -3 -48 -3 -48 15 -31 15 -32 19 -17 19 -17 28 0 27
0 33 36 33 36 0 40 0 40 -19 17 -20 17 5 8 5 8 19 -10 20 -10 10 -20z m-10420
15 l0 -15 -15 0 -16 0 13 15 13 14 3 1 2 0 0 -15z m8276 2 l5 -14 -10 -26 -11
-27 -13 0 -14 0 -15 18 -16 17 9 23 8 22 26 0 26 0 5 -13z m-8351 -27 l-6 -10
-11 0 -11 0 -19 -17 -19 -17 -16 17 -17 16 15 5 14 5 30 4 30 4 8 2 8 1 -6
-10z m4955 0 l0 -10 -10 0 -10 0 0 10 0 10 10 0 10 0 0 -10z m-920 -9 l0 -10
-21 -15 -21 -15 -8 -39 -7 -40 13 -29 13 -28 18 -21 18 -20 20 -12 20 -11 -15
-1 -15 0 -28 19 -29 19 -19 31 -19 31 0 42 0 42 32 33 32 33 8 0 8 0 0 -9z
m1230 -7 l0 -15 -10 6 -10 6 0 10 0 9 10 0 10 0 0 -16z m-2290 -54 l0 -10 -10
0 -10 0 0 10 0 10 10 0 10 0 0 -10z m1208 -24 l18 -24 40 -27 39 -27 0 -41 1
-42 8 -17 8 -18 -16 0 -15 0 -11 40 -11 40 3 18 3 17 -27 3 -27 3 -15 -35 -14
-34 -20 -11 -21 -11 -12 0 -12 0 25 23 25 24 12 35 12 36 -15 36 -15 36 9 0 9
0 19 -24z m-4098 5 l0 -10 -10 -6 -10 -6 -10 6 -10 6 5 10 6 9 15 0 14 0 0 -9z
m8930 -11 l0 -10 -10 0 -10 0 0 10 0 10 10 0 10 0 0 -10z m-8977 -88 l27 -26
0 -8 0 -7 -36 24 -37 25 -21 1 -21 1 -20 -1 -20 -2 20 16 20 16 30 -7 30 -6
28 -26z m4917 28 l0 -10 -10 0 -10 0 0 10 0 10 10 0 10 0 0 -10z m5050 -20 l0
-10 -10 0 -10 0 0 10 0 10 10 0 10 0 0 -10z m-2685 -34 l0 -29 -16 -10 -16
-10 -17 6 -16 6 0 36 0 36 33 -3 32 -3 0 -29z m-2376 -18 l20 -12 -22 -11 -22
-11 -3 -18 -4 -18 17 -12 17 -12 -16 -13 -16 -13 -10 27 -10 26 0 13 0 12 13
27 12 27 3 0 2 0 19 -12z m151 -5 l-1 -8 -14 -19 -15 -20 -7 7 -6 7 18 20 18
20 4 0 3 0 0 -7z m317 -33 l13 -25 0 -41 0 -42 -41 -41 -41 -41 -24 0 -23 0
-6 10 -6 10 26 0 26 0 18 18 18 17 17 26 17 26 -7 43 -7 43 -18 4 -19 5 0 10
0 9 22 -3 22 -3 13 -25z m-379 -10 l24 0 -5 -15 -6 -14 30 -22 30 -21 -5 -5
-5 -5 -31 18 -30 19 -20 -13 -21 -12 6 23 6 23 -20 18 -21 19 0 9 0 9 22 -15
22 -16 24 0z m3969 8 l-5 -13 -1 19 -1 19 6 -6 6 -6 -5 -13z m-3762 -28 l-5
-9 -6 -39 -5 -39 33 -27 33 -26 -13 0 -13 0 -23 15 -24 16 -7 45 -6 45 -27 11
-27 12 40 6 40 6 8 -4 7 -3 -5 -9z m-5246 -7 l5 -3 -10 -10 -9 -9 -25 20 -25
20 30 -7 30 -7 4 -4z m66 -13 l-6 -10 -25 0 -24 0 0 8 0 7 30 2 31 2 -6 -9z
m7925 -20 l0 -10 -10 0 -10 0 0 10 0 10 10 0 10 0 0 -10z m2016 -27 l-6 -6 -6
6 -6 6 8 12 8 13 4 -13 4 -12 -6 -6z m-5014 -5 l-12 -12 0 10 0 11 7 6 6 7 6
-5 5 -5 -12 -12z m-592 2 l0 -9 -26 -18 -26 -18 -67 -66 -66 -65 -36 -27 -36
-27 -8 0 -8 0 49 52 49 51 39 36 40 36 35 32 36 32 13 1 12 0 0 -10z m580 -20
l0 -11 -15 -6 -16 -5 -5 5 -6 6 7 10 6 11 15 0 14 0 0 -10z m-4995 -16 l25
-16 35 4 35 4 0 -14 0 -14 -47 7 -48 7 -17 9 -18 10 -21 -11 -21 -12 -5 6 -5
5 5 16 6 15 26 0 26 0 24 -16z m10035 -18 l0 -5 -9 -6 -10 -5 -6 10 -6 10 15
0 16 0 0 -4z m-3959 -45 l16 -1 27 -25 26 -24 0 -34 0 -34 -21 -27 -20 -26
-23 0 -23 0 -31 16 -32 15 -7 12 -7 12 -1 50 0 50 -212 -4 -213 -3 0 9 0 10 4
4 4 4 249 -1 248 -2 16 -1z m-2661 -32 l0 -12 -42 -43 -43 -44 -12 0 -13 0 0
-9 0 -8 -45 -47 -45 -46 -10 0 -10 0 0 13 0 13 23 22 22 21 20 23 21 23 29 25
30 25 18 28 17 27 20 0 20 0 0 -11z m-3410 -14 l13 -15 38 -6 39 -7 0 -8 0 -9
-12 0 -13 0 -54 15 -54 14 -17 -9 -17 -9 -7 6 -6 6 0 13 0 13 28 4 27 4 11 2
12 1 12 -15z m8065 -15 l-40 -5 -12 -25 -13 -25 0 -20 0 -21 16 -22 15 -22
-19 0 -20 0 -6 16 -6 16 0 38 0 39 23 22 22 21 20 8 20 8 20 -12 20 -11 -40
-5z m1955 20 l0 -10 -10 0 -10 0 0 10 0 10 10 0 10 0 0 -10z m-7405 -94 l30
-31 33 -28 33 -27 -5 -8 -5 -9 60 -18 61 -19 15 -22 15 -23 21 -7 21 -7 32
-33 32 -34 17 7 18 6 76 74 76 73 12 0 12 0 5 -9 5 -8 -57 -59 -57 -59 -37
-32 -37 -33 -9 0 -8 0 -57 31 -57 31 0 8 0 8 -29 12 -29 12 -29 29 -28 28 -12
1 -13 0 0 13 0 13 -35 14 -35 14 0 8 0 9 -17 6 -18 6 -26 21 -26 21 -32 17
-31 17 0 20 0 19 13 5 12 4 30 -15 30 -15 30 -31z m2355 34 l0 -10 -11 0 -10
0 6 10 6 10 5 0 4 0 0 -10z m2044 -52 l18 -28 16 0 15 0 34 26 34 26 5 -5 5
-5 -30 -31 -31 -32 0 -8 0 -8 -25 -11 -25 -12 0 23 0 23 -12 12 -12 12 -18 0
-18 0 -10 -26 -10 -26 6 -9 5 -9 33 0 33 0 -21 -45 -21 -44 -8 -1 -8 0 5 18 6
17 -20 30 -20 30 0 39 0 39 22 35 22 36 6 -19 5 -20 19 -27z m1156 6 l0 -23
-27 -20 -26 -21 -5 5 -5 5 16 18 17 19 0 39 1 39 14 -19 15 -20 0 -22z m850
30 l0 -15 -10 6 -10 6 5 10 6 9 5 0 4 0 0 -16z m-4582 -3 l-3 -9 -68 -57 -68
-58 -6 7 -7 7 39 32 39 32 25 26 26 27 13 1 14 1 -4 -9z m5584 -6 l0 -9 -11
-4 -11 -4 0 17 0 17 11 -4 11 -3 0 -10z m-5902 -23 l0 -8 -31 -32 -31 -32 -11
0 -11 0 39 40 39 40 3 0 3 0 0 -8z m3190 -51 l0 -9 -35 0 -35 0 -6 9 -5 9 40
0 41 0 0 -9z m240 2 l0 -8 -51 -2 -51 -1 -32 -6 -32 -6 -19 15 -20 14 103 1
102 0 0 -7z m535 -13 l6 -10 -25 0 -26 0 0 10 0 10 19 0 20 0 6 -10z m-4079
-52 l-16 -22 0 -18 0 -18 -9 0 -9 0 3 33 3 32 1 8 1 7 21 0 20 0 -15 -22z
m277 8 l-8 -14 -134 -129 -133 -128 -11 -4 -10 -4 7 12 8 12 -12 14 -12 15 21
0 21 0 91 88 90 87 32 32 32 32 13 0 13 1 -8 -14z m4737 -16 l0 -10 -10 0 -10
0 0 10 0 10 10 0 10 0 0 -10z m-9074 -28 l-5 -4 -16 6 -16 6 6 10 7 11 14 -12
14 -12 -4 -5z m84 -11 l0 -8 50 -7 49 -7 7 -10 7 -11 -24 7 -24 8 -33 -1 -34
-1 -36 19 -37 19 38 1 37 0 0 -9z m156 -46 l-6 -16 -10 6 -11 7 12 14 12 14 5
-4 4 -5 -6 -16z m9821 -7 l-5 -13 -1 19 -1 19 6 -6 6 -6 -5 -13z m-9926 -81
l-10 -10 -61 17 -62 18 -14 -6 -14 -5 0 14 0 15 23 0 23 0 10 -9 9 -9 38 -6
39 -7 5 22 6 23 9 -24 9 -23 -10 -10z m9939 13 l0 -10 -10 0 -10 0 0 10 0 10
10 0 10 0 0 -10z m-5055 -60 l6 -10 -10 0 -11 0 0 10 0 10 4 0 5 0 6 -10z
m3030 -20 l6 -10 -10 0 -11 0 0 10 0 10 4 0 5 0 6 -10z m2020 0 l6 -10 -10 0
-11 0 0 10 0 10 4 0 5 0 6 -10z m-9999 -16 l34 -16 0 -8 0 -8 -45 17 -45 16
-21 -13 -21 -13 -5 5 -5 5 5 16 6 15 32 0 31 0 34 -16z m3974 -24 l0 -10 -11
0 -10 0 6 10 6 10 5 0 4 0 0 -10z m980 -20 l0 -10 -11 0 -10 0 6 10 6 10 5 0
4 0 0 -10z m2020 0 l0 -10 -10 0 -10 0 0 10 0 10 10 0 10 0 0 -10z m2030 -20
l0 -10 -10 0 -10 0 0 10 0 10 10 0 10 0 0 -10z m1000 -10 l0 -10 -10 0 -10 0
0 10 0 10 10 0 10 0 0 -10z m-9980 -53 l0 -9 -17 7 -18 7 -47 5 -48 6 0 8 0 8
16 9 17 9 48 -20 49 -21 0 -9z m3046 -37 l14 0 16 25 16 25 14 0 14 0 0 -6 0
-7 -26 -24 -26 -24 5 -18 5 -19 -27 -6 -26 -5 -15 -33 -15 -33 -27 -3 -28 -3
0 27 0 27 19 -17 20 -18 9 6 10 6 7 41 7 40 -18 20 -17 19 -24 0 -23 0 0 8 0
9 6 6 6 5 45 -24 46 -24 13 0z m-3011 30 l6 -10 -10 0 -10 0 -6 10 -6 10 10 0
10 0 6 -10z m9945 -25 l0 -15 -10 0 -10 0 0 15 0 15 10 0 10 0 0 -15z m-7050
-19 l0 -14 11 -4 10 -3 -9 -24 -9 -24 -10 41 -11 42 9 0 9 0 0 -14z m525 -6
l6 -15 14 18 13 19 19 -4 18 -3 3 -17 3 -16 -120 -1 -121 0 0 13 0 13 4 4 5 5
75 0 76 0 5 -16z m-3416 -56 l-11 -14 -52 0 -52 0 -11 -11 -11 -11 -11 6 -11
7 0 10 0 9 43 1 42 0 35 13 35 12 8 -4 8 -4 -12 -14z m7934 -5 l12 -1 10 -3
10 -2 228 -1 228 -2 -3 -22 -3 -23 -40 3 -40 2 -75 0 -75 0 -140 -8 -140 -8
-16 13 -16 13 -133 5 -133 5 -31 1 -31 1 32 8 32 7 73 -3 73 -3 60 -5 60 -5
18 13 18 14 -2 8 -1 9 2 10 2 10 5 -17 4 -18 12 -1z m-4863 11 l0 -10 -10 0
-10 0 0 10 0 10 10 0 10 0 0 -10z m4370 -36 l0 -4 -41 0 -40 0 5 8 5 8 35 -4
36 -4 0 -4z m73 -1 l-13 -5 -17 5 -18 5 30 0 30 0 -12 -5z m-1563 -71 l-21
-29 -6 -39 -5 -39 42 -34 42 -33 26 0 26 0 24 27 24 28 -5 31 -5 31 -7 25 -6
25 43 -48 43 -47 14 0 14 0 -6 -36 -6 -37 10 -19 11 -20 -19 4 -18 3 -5 45 -5
45 -15 0 -15 0 -3 -20 -3 -20 -23 -17 -22 -16 -20 -2 -19 -2 -21 1 -22 1 -51
46 -51 46 0 38 0 38 23 26 22 26 18 0 18 0 -21 -28z m-5943 -8 l-6 -6 -13 5
-13 5 19 1 19 1 -6 -6z m-56 -74 l24 -19 -30 -1 -31 0 -11 11 -12 12 -25 -7
-26 -6 0 -20 0 -20 -10 0 -10 0 0 17 0 16 17 19 16 18 37 0 38 0 23 -20z
m8264 10 l6 -10 -15 0 -15 0 -6 10 -6 10 15 0 15 0 6 -10z m1720 -59 l5 -10
-10 -6 -10 -6 0 15 0 16 4 0 5 0 6 -9z m-5901 -83 l-38 -43 -33 -34 -33 -34 0
11 0 12 14 17 15 18 47 58 46 59 11 -11 10 -10 -39 -43z m-15844 -24 l0 -55
-10 6 -10 6 0 34 0 33 6 16 6 16 4 0 4 0 0 -56z m11820 46 l0 -10 -15 0 -15 0
0 10 0 10 15 0 15 0 0 -10z m7960 -56 l0 -5 -22 1 -23 2 -11 -1 -10 -1 2 -42
2 -43 1 -7 1 -8 18 0 19 0 24 21 24 21 -3 19 -3 19 6 0 6 0 18 -10 18 -9 17
-26 17 -25 -38 6 -38 6 -19 -21 -19 -21 -23 0 -23 0 -21 27 -21 27 6 35 6 35
15 24 15 23 29 -21 30 -21 0 -5z m-1640 28 l0 -9 -43 -46 -43 -47 -13 0 -13 0
47 55 47 55 9 0 9 0 0 -8z m1770 -19 l0 -6 -17 -19 -16 -18 -15 0 -15 0 23 25
23 25 9 0 8 0 0 -7z m-115 -23 l6 -10 -10 0 -11 0 0 10 0 10 4 0 5 0 6 -10z
m-19796 -505 l-1 -445 -8 -5 -8 -5 -6 15 -5 15 4 212 4 213 2 215 2 215 4 8 4
7 5 0 5 0 -2 -445z m15736 423 l-7 -23 -9 -9 -9 -10 -10 10 -10 10 16 22 15
22 10 0 10 0 -6 -22z m2263 -32 l-35 -31 -48 -40 -48 -40 -74 -67 -74 -68 -15
0 -14 0 0 13 0 12 10 15 10 15 0 -9 0 -8 27 17 26 17 31 29 31 29 100 84 100
83 4 -10 4 -10 -35 -31z m1912 14 l0 -10 -10 0 -10 0 0 10 0 10 10 0 10 0 0
-10z m830 -20 l0 -10 -4 0 -5 0 -6 10 -6 10 10 0 11 0 0 -10z m1010 6 l0 -5
-10 -6 -10 -6 0 10 0 11 10 0 10 0 0 -4z m-10001 -42 l3 -3 -50 3 -51 4 -10 7
-11 6 5 9 5 9 53 -16 52 -15 4 -4z m5968 -10 l-6 -6 -13 5 -13 5 19 1 19 1 -6
-6z m1003 -3 l0 -10 -10 -6 -10 -6 0 15 0 16 10 0 10 0 0 -9z m-6862 -16 l5
-5 -6 -7 -7 -7 -33 18 -32 17 34 -6 35 -5 4 -5z m62 -11 l0 -16 -16 6 -16 6
-11 0 -12 0 15 10 15 10 13 0 12 0 0 -16z m9830 2 l0 -5 -10 -6 -10 -6 0 10 0
11 10 0 10 0 0 -4z m-10006 -56 l26 -10 0 -8 0 -8 -22 -1 -22 -2 -13 11 -13
10 -24 -6 -24 -6 -10 -27 -10 -28 -1 37 -1 36 13 5 12 5 32 1 32 1 25 -10z
m1351 -150 l0 -135 -22 -3 -23 -3 0 38 0 39 -13 18 -13 17 -134 2 -135 2 -3
18 -4 18 6 16 6 15 13 -8 12 -9 128 3 127 3 0 48 0 48 7 7 7 7 21 -3 20 -3 0
-135z m7645 126 l0 -5 -10 -6 -10 -6 0 10 0 11 10 0 10 0 0 -4z m-8945 -96
l20 -9 -22 0 -22 -1 -6 10 -6 10 8 -1 8 0 20 -9z m-61 -70 l11 -12 -44 7 -43
7 -9 -13 -8 -13 -7 6 -6 7 5 15 6 15 42 -4 42 -4 11 -11z m41 -20 l6 -10 -8 0
-8 0 -15 10 -15 10 17 0 17 0 6 -10z m6006 -60 l25 0 12 12 12 12 6 -7 7 -7
-18 -20 -18 -20 26 -28 27 -28 0 -7 0 -7 -15 0 -14 0 -11 20 -11 20 -20 0 -21
0 6 15 6 16 -32 19 -32 19 -13 -11 -13 -10 0 25 0 25 13 5 12 5 20 -24 21 -24
25 0z m388 4 l21 -27 0 -34 0 -34 -16 -30 -15 -31 -35 -14 -35 -15 -16 9 -16
9 37 7 37 7 19 32 20 32 0 20 0 20 -20 30 -20 30 0 8 0 7 9 0 10 0 20 -26z
m-6455 -19 l49 -25 24 0 23 0 0 -10 0 -10 -16 0 -15 0 -19 10 -19 10 -53 4
-53 4 -4 1 -4 1 18 20 18 20 1 0 1 0 49 -25z m6276 -10 l0 -25 16 -40 17 -41
-6 -6 -6 -5 -20 33 -21 34 0 18 0 19 -20 5 -20 5 0 8 0 9 23 4 22 4 8 2 7 1 0
-25z m-1977 -128 l-127 -127 -9 3 -8 2 67 70 67 70 61 62 60 63 8 -8 8 -8
-127 -127z m1697 81 l0 -18 13 0 13 0 12 12 12 12 0 -11 0 -10 -26 -27 -27
-26 -7 0 -7 0 -7 46 -6 47 0 16 1 16 14 -19 15 -20 0 -18z m-4612 -20 l3 -28
-18 -1 -18 -1 -35 -1 -35 -2 3 -20 3 -20 4 -38 5 -38 -25 -25 -24 -24 -43 -1
-43 -2 -60 0 -60 -1 -3 27 -3 27 83 0 84 0 19 13 18 14 2 32 2 31 -13 11 -14
11 -84 5 -85 6 -5 14 -6 15 5 8 5 8 142 1 142 2 5 5 5 5 21 -3 20 -3 3 -27z
m6632 12 l0 -10 -10 0 -10 0 0 10 0 10 10 0 10 0 0 -10z m1014 -11 l-5 -9 -10
6 -9 5 6 10 5 9 10 -6 9 -5 -6 -10z m-9034 -44 l43 -15 23 0 24 0 0 -14 0 -14
-21 -5 -21 -6 -14 6 -14 5 0 9 0 9 -25 0 -25 0 0 10 0 10 -14 0 -15 0 -6 10
-6 10 14 0 14 0 43 -15z m6347 -21 l-6 -6 -13 5 -13 5 19 1 19 1 -6 -6z
m-6252 -74 l6 -10 -15 0 -16 0 0 10 0 10 9 0 10 0 6 -10z m9945 -20 l0 -10
-10 0 -10 0 0 10 0 10 10 0 10 0 0 -10z m-5675 -50 l6 -20 -6 -10 -6 -10 -24
0 -23 0 -6 16 -6 16 0 18 0 18 13 5 12 4 17 -8 17 -9 6 -20z m-4302 0 l27 0 0
-14 0 -15 -20 -6 -21 -7 -44 22 -45 22 0 5 0 6 38 -7 37 -6 28 0z m3819 -45
l7 -9 -5 -5 -4 -5 -30 29 -30 29 0 10 0 9 27 -24 28 -24 7 -10z m267 38 l-14
-17 -35 -37 -35 -36 -3 -13 -3 -12 -22 -19 -22 -18 -15 0 -15 0 -43 40 -43 41
5 5 5 6 41 -37 41 -37 13 8 13 8 53 60 54 60 10 7 11 8 9 0 8 0 -13 -17z
m4881 -23 l0 -10 -9 0 -10 0 -6 10 -6 10 15 0 16 0 0 -10z m-7771 -49 l19 -19
11 -21 11 -20 0 -38 -1 -38 -18 -22 -19 -22 -41 -17 -41 -16 -15 12 -14 12 -3
71 -3 72 -22 3 -22 3 -16 -24 -16 -25 16 -40 17 -41 -4 -17 -3 -17 -32 27 -33
28 0 37 0 38 11 32 11 31 10 0 10 0 26 21 27 21 57 -6 58 -6 19 -19z m-1255
-33 l40 -9 20 2 21 1 9 -1 8 -1 -12 -15 -12 -15 -20 11 -20 11 -59 1 -59 2 0
11 0 11 7 7 7 7 15 -7 16 -6 39 -10z m10023 -10 l-5 -13 -1 19 -1 19 6 -6 6
-6 -5 -13z m-21752 -650 l-7 -623 -5 -470 -4 -470 -10 -9 -9 -10 -2 90 -1 89
1 15 2 15 5 375 5 375 6 575 6 575 3 40 2 40 2 8 1 7 6 0 6 0 -7 -622z m18725
602 l0 -10 -4 0 -5 0 -6 10 -6 10 10 0 11 0 0 -10z m2030 -14 l0 -5 -10 -6
-10 -6 0 10 0 11 10 0 10 0 0 -4z m-9019 -41 l44 -16 20 5 21 5 12 -19 12 -19
-11 -7 -10 -6 -17 15 -17 14 -52 13 -52 12 -20 -7 -21 -6 0 15 0 16 24 0 23 0
44 -15z m1233 -126 l26 -21 14 -26 13 -27 -3 -36 -2 -36 -10 -19 -10 -19 -26
-25 -27 -24 -55 1 -55 1 -27 18 -27 17 -12 16 -12 16 -1 46 0 47 14 27 14 27
21 14 21 15 8 -5 8 -5 14 10 15 9 36 0 36 0 27 -21z m-1297 -95 l-6 -6 -13 5
-13 5 19 1 19 1 -6 -6z m123 -38 l0 -5 -55 -31 -55 -31 -10 6 -10 6 52 29 53
29 13 0 12 1 0 -4z m9960 -106 l0 -10 -10 0 -10 0 0 10 0 10 10 0 10 0 0 -10z
m-9983 -55 l28 -24 -14 -1 -14 0 -17 15 -17 16 -29 1 -29 2 -25 -8 -25 -9 14
17 13 16 44 0 43 0 28 -25z m1232 -32 l-9 -28 2 -40 3 -39 -17 -4 -16 -3 -13
35 -13 36 -34 11 -35 12 -58 -6 -59 -5 0 29 0 29 129 0 130 0 -10 -27z m8751
7 l0 -10 -10 0 -10 0 0 10 0 10 10 0 10 0 0 -10z m-10090 -60 l0 -10 -10 0
-10 0 0 10 0 10 10 0 10 0 0 -10z m34 -25 l20 -15 43 0 43 0 0 -10 0 -10 -40
0 -39 0 -25 11 -25 12 -5 13 -5 14 7 0 7 -1 19 -14z m10056 5 l0 -10 -11 0
-10 0 6 10 6 10 5 0 4 0 0 -10z m-5582 -26 l52 -5 0 -9 0 -9 -19 -11 -20 -10
-118 4 -118 4 -5 2 -5 2 -40 -2 -40 -1 -60 -3 -60 -4 -10 6 -10 7 -60 -2 -60
-2 25 8 25 9 33 1 32 1 0 8 0 7 35 2 35 2 0 -11 0 -10 14 11 15 12 65 -3 65
-2 5 4 5 5 83 -3 83 -2 53 -6z m-710 -19 l5 -5 -129 0 -129 0 -15 10 -15 10
139 -5 139 -5 5 -5z m107 -5 l20 -9 -43 0 -43 -1 6 10 6 10 17 -1 17 0 20 -9z
m-2567 -57 l-3 -26 -68 -22 -68 -22 -6 -6 -5 -6 5 -13 5 -14 59 -12 59 -12 12
-12 12 -12 0 -24 0 -24 -12 6 -13 5 -82 26 -83 26 0 10 0 10 -11 -7 -11 -6
-31 15 -32 15 -37 16 -38 16 0 34 0 35 9 6 9 5 22 -30 21 -30 17 0 17 1 110
39 110 38 18 1 18 1 -3 -27z m3022 -59 l0 -16 -12 4 -12 4 -4 12 -4 12 16 0
16 0 0 -16z m-4460 -24 l0 -10 -10 0 -10 0 0 10 0 10 10 0 10 0 0 -10z m10190
-50 l0 -10 -11 0 -10 0 6 10 6 10 5 0 4 0 0 -10z m-10103 -16 l-6 -6 -13 5
-13 5 19 1 19 1 -6 -6z m197 -34 l41 -19 -36 0 -37 -1 -28 15 -29 15 -40 0
-40 0 -15 11 -15 10 79 -6 79 -7 41 -18z m-2734 -12 l13 -33 15 -18 15 -17 -6
-6 -6 -6 -130 -1 -131 -2 -4 11 -4 11 7 11 7 11 79 0 80 0 18 6 17 7 0 29 0
29 9 0 9 0 12 -32z m2801 -71 l-11 -11 -6 7 -6 6 13 14 14 15 4 -10 3 -10 -11
-11z m-178 -12 l36 -15 7 -12 7 -11 -19 7 -19 8 -39 10 -39 9 -18 -17 -19 -17
0 20 0 20 7 6 6 7 27 0 28 0 35 -15z m3987 -17 l13 -33 4 -5 3 -6 -30 -11 -30
-11 0 -21 0 -21 -10 0 -10 0 0 17 0 16 18 54 17 53 5 0 6 0 14 -32z m100 -43
l-23 -24 18 -27 17 -27 -17 6 -17 7 -22 0 -23 0 1 30 1 30 14 0 14 0 25 27 25
28 5 -13 4 -13 -22 -24z m5925 35 l6 -10 -10 0 -11 0 0 10 0 10 4 0 5 0 6 -10z
m-5564 -23 l16 -12 11 -22 12 -22 0 -28 -1 -28 -14 -25 -14 -25 -1 60 0 60
-32 27 -33 27 20 0 20 0 16 -12z m-3216 -33 l34 -26 7 -33 6 -34 -13 -38 -12
-38 -16 -12 -16 -12 -17 -1 -18 0 0 23 0 24 20 18 20 18 0 19 0 18 -20 20 -20
20 -48 0 -48 0 -22 -20 -22 -21 0 -14 0 -13 29 -27 28 -28 -4 -18 -5 -19 -7 0
-6 0 -32 20 -32 19 -7 35 -6 36 6 26 7 27 31 29 30 28 60 0 59 0 34 -26z
m3052 -23 l-5 -38 11 -19 10 -19 11 -7 10 -7 -8 -8 -8 -8 -14 20 -15 20 -5 25
-5 25 -8 14 -7 15 -40 11 -39 12 59 1 59 1 -6 -38z m-4279 -8 l23 -14 19 6 18
6 6 -10 6 -10 -7 -4 -8 -4 -59 15 -60 15 -17 -11 -17 -11 -6 16 -7 16 13 9 13
8 30 -6 30 -6 23 -15z m8997 17 l6 -10 -10 0 -11 0 0 10 0 10 4 0 5 0 6 -10z
m-11645 -12 l39 -13 10 -23 11 -23 0 -32 0 -33 -15 -21 -14 -21 -56 -7 -55 -6
-56 12 -57 13 -18 30 -18 30 6 26 6 25 20 22 20 22 51 4 51 3 18 2 17 2 40
-12z m530 -17 l24 -17 8 -33 9 -32 -22 -30 -21 -30 -25 -10 -24 -9 -70 0 -71
0 -29 29 -29 29 0 37 0 36 10 20 11 19 14 0 15 0 0 -19 0 -20 -10 -6 -10 -6 0
-23 0 -24 36 -17 36 -17 4 4 4 4 -8 30 -8 29 4 23 3 22 11 0 10 0 26 21 26 20
26 -6 25 -6 25 -18z m366 4 l19 -14 22 -1 22 0 6 11 7 10 31 -6 32 -7 13 -16
12 -16 0 -37 0 -38 -24 -28 -24 -28 -42 12 -43 11 -31 -13 -31 -12 -31 8 -31
9 -13 27 -13 28 2 35 3 35 15 17 15 17 22 4 21 4 11 2 10 1 20 -15z m664 -90
l0 -95 -14 0 -14 0 -29 24 -28 23 -74 32 -73 31 -24 0 -24 0 0 20 0 20 35 0
35 0 77 -40 77 -40 7 7 8 8 3 52 3 53 18 0 17 0 0 -95z m437 84 l33 -10 19
-27 19 -27 -5 -30 -6 -30 -15 -17 -15 -18 -7 0 -7 0 10 46 11 45 -28 26 -28
26 -9 -14 -9 -14 0 -26 0 -26 -11 -31 -11 -31 -32 -11 -33 -10 -36 15 -36 15
-11 19 -10 20 0 29 0 30 18 22 17 22 35 7 35 8 40 1 40 1 32 -10z m4642 -41
l-10 -19 -17 3 -17 3 -3 21 -3 21 30 -5 31 -4 -11 -20z m6018 -14 l-6 -6 -13
5 -13 5 19 1 19 1 -6 -6z m-10083 -35 l-5 -9 -10 5 -9 6 0 9 0 9 15 -5 15 -6
-6 -9z m99 -7 l37 -4 0 -18 0 -18 -12 -5 -13 -4 -35 15 -35 14 -12 10 -13 10
6 10 6 9 17 -7 16 -7 38 -5z m4408 -2 l-23 -20 -17 0 -16 0 -15 10 -15 10 30
0 30 0 15 10 15 10 10 0 10 -1 -24 -19z m-84 4 l-6 -6 -13 5 -13 5 19 1 19 1
-6 -6z m5653 -44 l0 -10 -11 0 -10 0 6 10 6 10 5 0 4 0 0 -10z m-9939 -53 l-1
-7 -7 -1 -7 0 -4 12 -4 12 12 -4 12 -4 -1 -8z m1294 -52 l0 -20 -52 -3 -53 -3
0 -20 0 -20 10 -18 9 -18 -10 -36 -9 -35 -35 -16 -35 -17 -85 3 -85 3 -5 12
-4 13 5 15 6 15 27 1 26 1 55 -1 55 -1 23 19 22 19 0 25 0 24 -18 16 -18 17
-85 2 -84 3 -3 17 -3 17 28 3 28 4 145 -1 145 0 0 -20z m-1437 -7 l-4 -12 -12
-4 -12 -4 6 16 6 16 10 0 10 0 -4 -12z m5042 -108 l0 -10 -4 0 -5 0 -6 10 -6
10 10 0 11 0 0 -10z m-7700 -60 l15 -10 -36 0 -36 0 -37 -25 -36 -24 0 10 0
10 25 24 24 25 33 0 33 0 15 -10z m485 0 l30 -8 -33 -1 -33 -1 -28 -15 -29
-14 -6 -27 -7 -26 6 -19 6 -19 27 -7 26 -6 50 10 51 10 22 -10 23 -10 24 11
24 11 5 -6 6 -5 -5 -13 -5 -13 -51 2 -50 3 -77 -7 -76 -7 -10 8 -10 8 0 57 1
57 28 23 27 24 17 -1 17 -1 30 -8z m665 -19 l0 -8 -50 -7 -50 -7 0 -9 0 -9
-27 15 -28 14 -38 0 -38 0 -24 -16 -25 -16 0 8 0 9 8 12 8 13 118 2 117 2 5 8
5 8 10 -5 9 -6 0 -8z m390 -24 l0 -28 -16 15 -15 16 -17 1 -17 1 -35 -2 -35
-2 -17 -9 -17 -9 -7 11 -7 11 -43 -5 -43 -4 -5 12 -5 13 4 4 3 3 136 0 136 0
0 -28z m260 18 l0 -3 -15 -12 -15 -12 0 20 0 21 15 -5 15 -6 0 -3z m249 -37
l-1 -53 -5 15 -4 15 -11 23 -11 22 -49 0 -49 0 -20 -10 -19 -11 0 -19 0 -20
-9 0 -10 0 2 27 2 27 -23 11 -22 12 100 -2 101 -1 5 8 5 8 10 0 9 0 -1 -52z
m-1509 32 l0 -10 -4 0 -5 0 -6 10 -6 10 10 0 11 0 0 -10z m516 -94 l-5 -22
-26 -14 -26 -14 -35 0 -34 0 -12 13 -13 14 39 -6 38 -6 29 29 29 28 0 19 1 18
10 -18 11 -18 -6 -23z m2901 19 l25 -17 14 -34 15 -35 -11 -38 -10 -37 -22
-21 -23 -21 -37 -6 -36 -7 -8 13 -8 13 2 68 2 68 -16 6 -15 6 -25 -11 -24 -12
0 -28 0 -28 15 -20 14 -19 1 -22 0 -23 -8 0 -9 0 -20 23 -21 22 -10 20 -10 20
5 40 4 39 17 20 17 19 30 14 30 13 49 -4 49 -5 24 -16z m-2397 -3 l0 -18 -29
-29 -30 -28 -42 6 -41 5 -9 9 -9 9 52 -1 52 0 21 32 20 32 8 1 7 0 0 -18z
m10166 -19 l-6 -6 -6 6 -6 6 8 12 8 13 4 -13 4 -12 -6 -6z m-11765 -3 l54 1
30 0 30 -1 30 -2 30 -3 2 -9 3 -9 -128 2 -127 2 -9 9 -8 8 7 12 7 11 13 -11
13 -11 53 1z m2839 11 l0 -8 -31 -7 -31 -6 -16 0 -16 0 10 9 9 9 30 5 30 4 8
2 7 1 0 -9z m7910 -1 l0 -10 -4 0 -5 0 -6 10 -6 10 10 0 11 0 0 -10z m-8654
-16 l-6 -16 0 -4 0 -3 -31 -17 -31 -16 -34 7 -33 6 -5 8 -6 8 40 -1 39 -1 28
22 28 22 9 0 8 1 -6 -16z m622 10 l22 -6 0 -14 0 -14 -9 0 -9 0 -23 20 -24 19
10 1 10 0 23 -6z m92 -94 l14 -9 -6 -6 -6 -7 -49 -4 -48 -5 25 20 25 21 15 0
15 0 15 -10z m-2275 -9 l20 -8 -45 -8 -45 -7 -23 -15 -24 -15 -5 6 -6 6 17 19
18 20 27 4 26 4 10 1 10 1 20 -8z m-565 -12 l0 -11 -12 5 -13 4 -17 -15 -18
-15 0 15 0 15 7 6 6 7 24 0 23 0 0 -11z m105 1 l6 -10 -21 0 -21 0 6 10 6 10
9 0 9 0 6 -10z m889 1 l5 -8 -24 -11 -25 -12 0 -17 -1 -18 -11 19 -11 19 23
19 22 18 9 0 8 0 5 -9z m1064 3 l22 -6 0 -14 0 -14 -5 0 -4 0 -26 12 -25 11
-30 -28 -30 -29 0 -30 0 -30 -15 20 -14 19 -1 16 0 16 26 26 26 26 21 4 22 4
5 2 5 1 23 -6z m-551 -21 l4 -11 -19 4 -18 5 -11 -13 -11 -13 -5 -20 -5 -20
-1 27 -1 26 6 17 7 16 25 -3 25 -3 4 -12z m113 -15 l0 -9 -20 11 -21 11 7 10
6 10 14 -12 14 -11 0 -10z m1120 22 l0 -10 -9 0 -10 0 -6 10 -6 10 15 0 16 0
0 -10z m-1625 -10 l6 -10 -10 0 -10 0 -6 10 -6 10 10 0 10 0 6 -10z m-988 -42
l-5 -13 -1 19 -1 19 6 -6 6 -6 -5 -13z m-37 -27 l24 -1 -11 -11 -10 -10 -54
-1 -54 -1 -18 -9 -19 -10 -5 5 -5 5 6 19 6 18 57 -2 58 -1 25 -1z m2783 -12
l-10 -10 -18 7 -19 7 20 7 19 7 8 -4 9 -5 -9 -9z m-1762 -6 l-16 -12 -79 -1
-80 0 10 9 9 10 35 3 35 3 51 1 52 0 -17 -13z m426 3 l53 3 5 -10 6 -9 -23 -1
-23 -2 -35 -1 -35 -2 -22 -7 -23 -8 0 19 0 19 6 6 7 6 16 -8 16 -8 52 3z
m-917 -6 l0 -10 -11 0 -10 0 6 10 6 10 5 0 4 0 0 -10z m1500 0 l0 -10 -14 0
-14 0 -4 -12 -4 -12 -12 8 -12 7 0 9 0 9 28 4 27 4 3 2 2 1 0 -10z m-1635 -20
l6 -10 30 0 30 0 21 11 20 11 4 -5 5 -5 -16 -16 -16 -16 -29 0 -29 0 -26 12
-25 11 0 9 0 8 9 0 10 0 6 -10z m3549 -22 l37 -33 4 -33 4 -34 -9 -21 -8 -22
-21 -22 -22 -23 -14 0 -15 0 0 24 0 24 14 5 13 5 6 28 5 27 -24 24 -23 23 -44
0 -44 0 -24 -26 -24 -26 28 -49 28 -50 -6 -10 -6 -9 -17 9 -17 9 -22 22 -23
21 0 47 0 48 16 22 16 23 31 13 32 14 46 1 46 1 37 -32z m-1284 -11 l25 -5 33
-13 33 -14 9 15 9 14 7 -6 6 -7 -6 -17 -6 -16 -23 5 -22 5 -55 20 -54 20 -5
14 -4 13 14 -11 14 -11 25 -6z m-2616 -43 l16 -15 0 -9 0 -9 -91 6 -92 6 -13
-17 -12 -17 -7 11 -7 11 12 14 12 15 74 0 73 0 6 10 6 10 4 0 4 0 15 -16z
m1237 -15 l-21 -20 0 -24 0 -25 -10 0 -10 0 0 21 0 20 11 22 12 22 11 7 10 7
9 -6 9 -5 -21 -19z m10429 21 l0 -10 -11 0 -10 0 6 10 6 10 5 0 4 0 0 -10z
m-10585 -11 l7 -10 -6 -7 -7 -6 -42 -4 -42 -4 -25 1 -25 0 -58 2 -57 2 -15
-19 -14 -19 -1 11 0 11 19 22 19 22 107 -2 106 -1 6 6 6 6 8 0 8 0 6 -11z
m258 -10 l24 -11 22 11 21 12 35 -7 35 -6 0 -7 0 -8 -32 0 -33 -1 -47 -1 -48
-2 0 -37 0 -38 -15 -20 -14 -19 -1 41 0 42 6 31 7 31 8 0 8 0 24 -11z m647 -5
l0 -12 -14 -11 -14 -11 -26 10 -27 10 -33 0 -34 0 -12 -15 -13 -15 -11 14 -11
13 -24 6 -24 6 -19 -10 -18 -10 0 18 0 18 140 0 140 0 0 -11z m748 -37 l3 -17
-15 0 -16 0 0 21 0 21 13 -4 12 -5 3 -16z m-1744 -23 l6 -15 -17 -27 -18 -27
-10 -7 -10 -8 -35 1 -35 0 -20 9 -20 9 48 0 48 1 20 10 19 11 0 29 0 30 9 0 9
0 6 -16z m996 -38 l-7 -21 -32 -18 -31 -19 -12 5 -13 5 37 16 36 16 7 31 7 32
8 -13 8 -13 -8 -21z m-510 19 l0 -15 -16 0 -16 0 12 15 12 15 4 0 4 0 0 -15z
m1117 -21 l-6 -6 -13 5 -13 5 19 1 19 1 -6 -6z m-2697 -11 l-35 -4 -22 -21
-23 -21 0 -26 0 -25 -12 12 -11 11 11 26 12 26 12 14 13 14 45 -1 45 -1 -35
-4z m2840 -23 l0 -10 -10 0 -10 0 0 10 0 10 10 0 10 0 0 -10z m-2240 -15 l13
-16 -11 -11 -11 -11 -15 12 -14 12 -76 -7 -76 -7 0 12 0 11 74 0 75 0 6 10 6
10 8 0 9 0 12 -15z m2326 -12 l-6 -6 -6 6 -6 6 8 12 8 13 4 -13 4 -12 -6 -6z
m-1473 -49 l-33 -25 0 -37 0 -37 -10 15 -10 15 0 17 0 16 26 31 26 31 16 0 17
0 -32 -26z m74 20 l-6 -6 -13 5 -13 5 19 1 19 1 -6 -6z m2460 -7 l12 -7 5 8 5
9 58 -1 58 -1 3 -22 3 -23 -85 0 -86 0 0 -20 0 -19 30 -23 30 -22 12 -38 11
-38 -6 -6 -6 -7 -43 42 -43 41 -16 0 -17 0 -12 -15 -12 -14 -45 -26 -46 -25
-8 0 -9 0 0 30 0 30 50 28 50 27 0 16 0 15 -12 12 -12 12 -36 0 -36 0 -1 19
-2 18 46 1 46 1 5 5 5 6 46 -3 46 -3 12 -7z m-2952 -17 l6 -10 -10 0 -11 0 0
10 0 10 4 0 5 0 6 -10z m-101 -42 l-15 -42 6 -14 5 -14 -12 4 -13 5 -3 26 -3
27 18 24 18 25 7 1 7 0 -15 -42z m-9918 -175 l-6 -208 -1 -278 -2 -277 -8 -6
-9 -5 -1 53 -1 53 3 65 3 65 1 275 1 275 2 98 2 97 11 0 11 0 -6 -207z m9038
192 l-6 -15 -9 0 -9 0 0 15 0 15 15 0 14 0 -5 -15z m2803 -10 l5 -16 -6 -6 -6
-6 -15 13 -15 12 0 9 0 9 15 0 16 0 6 -15z m-2342 -39 l80 0 39 5 39 4 4 -11
4 -12 -24 -6 -24 -6 -96 6 -96 5 -20 -11 -21 -11 0 27 0 26 18 -8 17 -8 80 0z
m541 -26 l16 0 -4 -12 -5 -13 -19 0 -19 0 -3 30 -2 30 10 -17 11 -18 15 0z
m504 0 l-25 -19 -9 9 -8 8 6 11 7 11 27 0 27 0 -25 -20z m1201 -15 l34 -14
-25 0 -25 0 -25 14 -25 14 16 1 17 0 33 -15z m-67 -2 l-9 -8 -7 -10 -8 -10 0
18 0 17 17 0 16 0 -9 -7z m-2103 -62 l-12 -21 -22 0 -22 1 18 13 17 13 0 24 0
23 16 -16 16 -16 -11 -21z m2079 13 l0 -15 -10 6 -10 6 0 10 0 9 10 0 10 0 0
-16z m9100 6 l0 -10 -11 0 -10 0 6 10 6 10 5 0 4 0 0 -10z m-11266 -41 l-5 -9
-50 0 -49 0 0 13 0 12 55 -3 55 -4 -6 -9z m426 1 l0 -10 -10 0 -10 0 0 10 0
10 10 0 10 0 0 -10z m133 3 l7 -6 -30 -18 -30 -19 0 -12 0 -12 -22 -23 -21
-23 -19 0 -18 0 0 9 0 10 19 6 20 6 6 18 6 19 24 26 24 26 14 0 14 0 6 -7z
m1773 -28 l-20 -15 -8 0 -8 0 0 9 0 10 18 4 17 5 10 1 10 0 -19 -14z m4909 -4
l5 -10 -10 -6 -10 -6 0 15 0 16 4 0 5 0 6 -9z m-7636 -28 l21 -18 -25 -12 -26
-12 -5 12 -4 12 -63 -2 -62 -1 -12 -1 -13 -1 0 -21 0 -20 -9 5 -9 6 5 20 5 21
20 10 19 10 17 -5 17 -6 45 9 45 9 6 1 7 1 21 -17z m11661 7 l0 -10 -10 0 -10
0 0 10 0 10 10 0 10 0 0 -10z m1010 6 l0 -5 -10 -6 -10 -6 0 10 0 11 10 0 10
0 0 -4z m-12226 -57 l11 -11 -48 6 -47 7 -31 -31 -31 -31 6 -25 7 -26 -11 7
-10 6 0 33 0 33 23 20 22 20 19 10 19 11 30 -9 31 -9 10 -11z m536 16 l0 -15
-16 0 -16 0 12 15 12 15 4 0 4 0 0 -15z m516 -50 l15 -15 -6 -10 -6 -10 -24 0
-24 0 -5 9 -6 9 -57 -3 -57 -4 -12 -15 -11 -16 -7 0 -6 0 0 13 0 12 10 15 9
15 83 6 83 6 3 1 3 2 15 -15z m10164 5 l0 -10 -4 0 -5 0 -6 10 -6 10 10 0 11
0 0 -10z m-11226 -70 l15 0 15 22 16 22 0 -15 0 -16 -24 -23 -25 -23 -15 6
-16 6 1 33 0 33 9 -22 9 -23 15 0z m-374 -5 l-5 -10 -39 3 -39 4 -7 -12 -8
-12 -37 12 -38 12 -48 -5 -49 -6 0 15 0 15 138 -3 137 -3 -5 -10z m7570 5 l0
-10 -10 0 -10 0 0 10 0 10 10 0 10 0 0 -10z m5030 -20 l0 -10 -4 0 -5 0 -6 10
-6 10 10 0 11 0 0 -10z m-10076 -21 l-5 -9 -15 0 -14 0 0 8 0 9 6 6 6 6 14 -6
14 -5 -6 -9z m43 -5 l-6 -6 -13 5 -13 5 19 1 19 1 -6 -6z m-2661 -60 l-6 -24
-58 1 -57 0 20 9 20 9 28 0 29 1 11 31 12 31 3 -17 4 -17 -6 -24z m2729 46 l6
-10 -18 0 -18 0 -15 10 -15 10 27 0 27 0 6 -10z m46 -6 l13 -16 -15 -8 -14 -9
-7 17 -7 17 0 8 -1 7 9 0 9 0 13 -16z m-1173 -19 l-5 -5 -136 -5 -137 -4 0 14
0 14 95 -3 95 -3 37 7 38 7 9 -9 10 -8 -6 -5z m10092 -5 l0 -10 -4 0 -5 0 -6
10 -6 10 10 0 11 0 0 -10z m-11841 -41 l-24 -18 -8 15 -8 14 5 9 6 8 26 -5 27
-5 -24 -18z m1653 -54 l-12 -25 -32 -1 -33 -2 -52 -3 -53 -3 0 20 0 20 23 -7
22 -8 50 0 50 -1 13 28 14 29 11 -11 10 -10 -11 -26z m1118 35 l15 -10 -27 0
-28 0 0 10 0 10 13 0 12 0 15 -10z m130 -30 l65 -20 23 0 22 0 0 -15 0 -15 -7
0 -8 0 -40 15 -40 14 -41 1 -42 0 -23 20 -24 19 25 1 25 0 65 -20z m-2792 -39
l5 -14 -38 7 -37 7 -24 -22 -24 -22 0 -30 0 -29 -12 4 -13 5 -3 27 -3 28 18
20 18 20 20 9 20 8 34 -2 34 -2 5 -14z m7692 -31 l0 -10 -4 0 -5 0 -6 10 -6
10 10 0 11 0 0 -10z m5035 1 l5 -10 -10 -6 -10 -6 0 15 0 16 4 0 5 0 6 -9z
m-10004 -29 l36 -9 17 9 16 9 0 -21 0 -20 -8 0 -8 0 -57 15 -57 15 -21 -3 -22
-2 -5 14 -4 13 38 -5 39 -5 36 -10z m-1233 -12 l22 0 0 -11 0 -12 -41 7 -42 7
-25 -17 -25 -16 6 -49 6 -49 -5 0 -4 0 -11 28 -11 27 -3 15 -2 15 15 27 16 27
20 4 21 5 20 -4 20 -4 23 0z m-1473 -40 l-6 -10 -15 0 -14 0 0 10 0 10 21 0
20 0 -6 -10z m2645 -50 l0 -11 -15 -5 -15 -6 0 -29 0 -29 -9 0 -10 0 -3 23 -4
22 14 23 14 22 14 0 14 0 0 -10z m95 -21 l20 -19 -35 6 -35 7 -3 9 -4 8 -16 0
-17 0 15 10 15 10 20 -6 20 -6 20 -19z m-1239 -15 l-20 -14 -8 0 -8 0 0 8 0 9
23 10 22 11 5 -5 5 -5 -19 -14z m1284 -86 l0 -9 -27 3 -26 3 -4 11 -4 11 31
-5 30 -4 0 -10z m-11835 -363 l-4 -240 -6 -715 -5 -715 -6 -495 -6 -495 -4
-540 -5 -540 -3 -143 -3 -142 -7 -8 -8 -7 6 885 6 885 5 420 5 420 5 575 6
575 4 265 5 265 0 10 0 10 10 -15 10 -15 -5 -240z m-525 228 l0 -8 -30 -17
-30 -17 0 -41 0 -41 16 -24 16 -25 19 0 19 0 20 40 20 39 0 17 0 17 17 19 16
18 18 0 19 0 30 -27 31 -28 6 -42 6 -43 -17 -25 -16 -25 -20 0 -20 0 0 6 0 6
21 17 21 17 0 38 0 38 -21 22 -21 21 -16 -10 -16 -10 -18 -54 -19 -53 -12 -14
-11 -14 -23 0 -22 0 -34 30 -34 29 0 56 0 56 25 19 25 20 18 0 17 0 0 -7z
m21280 -23 l0 -10 -10 0 -10 0 0 10 0 10 10 0 10 0 0 -10z m1010 -10 l0 -10
-4 0 -5 0 -6 10 -6 10 10 0 11 0 0 -10z m-10025 -55 l30 -13 -20 -1 -19 -1
-53 12 -53 13 0 8 0 9 43 -7 42 -7 30 -13z m168 -53 l-12 -3 -18 10 -19 9 -17
-9 -17 -10 -16 15 -15 16 -10 0 -9 0 0 9 0 10 22 3 22 3 50 -25 51 -25 -12 -3z
m4817 48 l0 -10 -4 0 -5 0 -6 10 -6 10 10 0 11 0 0 -10z m4030 -10 l0 -10 -16
0 -15 0 6 10 6 10 10 0 9 0 0 -10z m-8830 -90 l0 -10 -11 0 -10 0 6 10 6 10 5
0 4 0 0 -10z m-149 -26 l19 -17 -3 -4 -4 -3 -59 25 -59 26 43 -5 44 -4 19 -18z
m-111 -4 l0 -10 -10 0 -10 0 0 10 0 10 10 0 10 0 0 -10z m-12169 -43 l45 -14
16 10 16 10 25 -20 25 -19 -19 -12 -19 -12 -15 0 -15 0 3 11 2 12 -55 14 -54
14 -23 -10 -22 -10 -6 9 -6 10 6 10 6 10 23 0 23 0 44 -13z m12198 -61 l12
-14 39 -7 39 -7 20 12 21 11 0 -10 0 -11 -25 -16 -25 -16 -25 6 -25 6 -33 30
-32 29 11 1 12 0 11 -14z m-12194 -35 l70 -18 7 -34 6 -34 -4 -7 -5 -8 -10 0
-9 0 0 19 0 20 -25 19 -25 20 -44 6 -44 7 -12 14 -12 15 18 0 19 -1 70 -18z
m22265 15 l0 -5 -10 -6 -10 -6 0 10 0 11 10 0 10 0 0 -4z m-4040 -56 l0 -10
-10 0 -10 0 0 10 0 10 10 0 10 0 0 -10z m-1000 -10 l0 -10 -10 0 -10 0 0 10 0
10 10 0 10 0 0 -10z m2010 0 l0 -10 -10 0 -10 0 0 10 0 10 10 0 10 0 0 -10z
m-7035 -21 l40 -10 60 -16 60 -15 38 -5 37 -5 0 -14 0 -14 -27 6 -28 6 -58 19
-57 19 -19 0 -20 0 -7 11 -6 11 -34 -7 -34 -6 0 16 0 15 8 0 7 0 40 -11z
m9060 1 l6 -10 -15 0 -16 0 0 10 0 10 9 0 10 0 6 -10z m1000 0 l6 -10 -10 0
-11 0 0 10 0 10 4 0 5 0 6 -10z m-22280 -63 l15 -23 1 -30 2 -29 4 -17 4 -18
24 0 25 0 6 25 6 25 -17 26 -17 26 6 6 6 6 14 -15 14 -14 6 -40 7 -40 -13 -18
-13 -17 -59 11 -59 11 -24 -7 -25 -6 7 30 6 30 -11 21 -11 21 6 30 7 29 34 0
34 0 15 -23z m12266 -67 l84 -21 17 -9 18 -10 30 0 30 0 0 -15 0 -14 -32 5
-33 6 -20 8 -20 9 -69 21 -69 21 -24 -6 -23 -5 0 15 0 15 13 0 13 0 85 -20z
m10014 -30 l6 -10 -10 0 -11 0 0 10 0 10 4 0 5 0 6 -10z m-5048 -82 l-5 -13
-1 19 -1 19 6 -6 6 -6 -5 -13z m-4943 -9 l27 -21 -5 -6 -6 -5 -14 13 -15 12
-48 13 -48 13 41 1 41 1 27 -21z m8981 11 l6 -10 -16 0 -16 0 6 10 6 10 4 0 4
0 6 -10z m1010 0 l6 -10 -10 0 -11 0 0 10 0 10 4 0 5 0 6 -10z m-22253 -24
l62 -13 4 -12 4 -12 -38 6 -39 7 -53 15 -52 14 6 10 6 10 18 -6 19 -6 63 -13z
m148 -36 l0 -10 -15 0 -15 0 0 10 0 10 15 0 15 0 0 -10z m11987 -12 l-5 -13
-1 19 -1 19 6 -6 6 -6 -5 -13z m-12287 -6 l0 -8 -9 -9 -9 -10 -2 -20 -2 -20 1
-11 1 -10 21 -22 20 -22 10 6 11 6 -6 23 -6 23 11 31 11 31 53 0 53 0 12 -15
12 -15 13 0 13 0 12 -30 12 -30 -13 -45 -13 -45 -6 0 -5 0 -99 24 -99 24 -18
23 -17 23 -6 30 -6 29 15 24 15 23 10 0 10 0 0 -8z m21395 -12 l6 -10 -10 0
-11 0 0 10 0 10 4 0 5 0 6 -10z m-9070 -20 l18 -20 -10 0 -10 0 -18 20 -18 20
10 0 10 0 18 -20z m127 -33 l-21 -20 -36 1 -36 1 -9 6 -10 6 0 9 0 9 49 -6 49
-6 14 22 13 21 4 -11 3 -11 -20 -21z m3914 -4 l-6 -6 -6 6 -6 6 8 12 8 13 4
-13 4 -12 -6 -6z m1994 7 l0 -10 -11 0 -10 0 6 10 6 10 5 0 4 0 0 -10z m1015
-10 l6 -10 -10 0 -11 0 0 10 0 10 4 0 5 0 6 -10z m2025 -20 l0 -10 -15 0 -15
0 0 10 0 10 15 0 15 0 0 -10z m1000 0 l0 -10 -16 0 -15 0 6 10 6 10 10 0 9 0
0 -10z m-9943 -85 l-6 -15 -38 0 -38 0 -14 -9 -15 -10 -18 10 -18 10 0 9 0 10
53 1 52 0 20 8 20 8 4 -3 3 -3 -5 -16z m-12335 -54 l23 -9 73 -12 72 -12 0
-12 0 -11 -32 0 -33 0 -3 -42 -3 -41 -15 -13 -15 -12 -75 17 -74 18 0 10 0 10
28 -7 27 -7 41 -5 40 -5 12 15 12 14 -11 31 -10 31 -31 10 -31 11 -22 0 -21 0
-20 15 -19 14 32 1 32 0 23 -9z m12311 -38 l32 -17 -57 -7 -58 -6 -15 -13 -16
-13 -22 21 -21 22 52 0 53 0 5 15 6 15 5 0 4 0 32 -17z m17 -113 l0 -10 -10 0
-10 0 0 10 0 10 10 0 10 0 0 -10z m-12313 -69 l42 -8 13 7 13 7 34 -23 33 -24
-13 -4 -14 -4 -18 -6 -19 -6 -18 22 -17 22 -72 0 -71 1 0 11 0 11 7 7 8 7 25
-6 25 -6 42 -8z m12198 3 l37 -15 40 -1 40 0 5 -15 5 -14 -6 -6 -6 -6 -23 11
-22 11 -43 11 -43 11 -19 -6 -20 -6 0 14 0 14 7 6 6 7 2 0 3 0 37 -16z m6025
-18 l0 -5 -10 -6 -10 -6 0 10 0 11 10 0 10 0 0 -4z m-1000 -16 l0 -10 -10 0
-10 0 0 10 0 10 10 0 10 0 0 -10z m-4813 -26 l-6 -6 -10 7 -11 6 6 11 6 10 11
-11 11 -11 -7 -6z m7810 4 l-5 -13 -1 19 -1 19 6 -6 6 -6 -5 -13z m2043 2 l0
-10 -10 0 -10 0 0 10 0 10 10 0 10 0 0 -10z m-10032 -67 l32 -15 30 5 29 6 -5
-12 -4 -12 -23 -11 -22 -10 -23 14 -22 14 -37 13 -37 13 -4 11 -4 12 29 -7 28
-6 33 -15z m10032 -13 l0 -10 -10 0 -10 0 0 10 0 10 10 0 10 0 0 -10z m-22242
-94 l27 -14 19 -21 18 -20 -6 -45 -7 -45 37 -3 37 -3 5 -13 4 -12 -34 4 -33 5
-75 16 -75 15 -21 9 -21 9 -7 42 -7 43 16 23 15 24 41 0 40 0 27 -14z m12259
-14 l33 4 0 -14 0 -15 -47 8 -48 8 -30 1 -30 1 -13 8 -12 8 5 9 5 9 52 -15 51
-16 34 4z m-174 -79 l-13 -5 -17 5 -18 5 30 0 30 0 -12 -5z m-46 -25 l-5 -13
-1 19 -1 19 6 -6 6 -6 -5 -13z m126 -4 l6 -7 -19 -25 -20 -25 0 -12 0 -12 -20
-18 -19 -17 -18 7 -18 7 15 5 15 6 18 15 17 15 0 34 0 33 18 0 19 0 6 -6z
m112 -10 l16 -16 -4 -4 -4 -4 -32 13 -31 13 7 7 6 7 13 0 13 0 16 -16z m5912
-66 l-5 -13 -1 19 -1 19 6 -6 6 -6 -5 -13z m-18197 -3 l28 -15 21 -26 21 -27
0 -22 0 -22 -21 -28 -22 -27 -36 7 -35 7 -28 14 -27 14 -15 22 -16 22 0 26 0
26 16 22 15 22 35 0 35 0 29 -15z m19220 -1 l0 -15 -10 6 -10 6 5 10 6 9 5 0
4 0 0 -16z m-2010 -4 l0 -10 -10 0 -10 0 0 10 0 10 10 0 10 0 0 -10z m-4965
-16 l24 -16 11 7 10 6 10 -6 9 -6 -5 -14 -6 -14 -26 12 -27 11 -24 18 -24 18
12 0 12 0 24 -16z m7975 6 l0 -10 -10 0 -10 0 0 10 0 10 10 0 10 0 0 -10z
m1020 0 l0 -10 -10 0 -10 0 0 10 0 10 10 0 10 0 0 -10z m-21180 -205 l0 -15
-44 0 -45 0 -5 -8 -5 -8 7 -10 7 -10 43 -18 42 -19 0 -19 0 -18 -54 0 -55 0
-6 -10 -6 -10 60 -28 60 -27 1 -13 0 -13 -7 4 -8 4 -67 32 -67 33 -11 14 -12
13 7 11 6 10 40 0 39 0 0 15 0 14 -47 24 -48 23 0 15 0 14 50 6 50 6 38 1 37
2 0 -15z m12131 -41 l49 -16 30 4 29 4 5 -12 5 -13 -9 -6 -9 -6 -28 7 -28 6
-35 13 -36 13 -18 -10 -18 -10 -5 6 -5 5 5 16 6 15 6 0 6 0 50 -16z m209 -48
l0 -5 -9 -6 -10 -5 -6 10 -6 10 15 0 16 0 0 -4z m-177 -72 l37 -14 20 0 20 0
0 -10 0 -10 -42 4 -43 4 -30 16 -30 16 -12 0 -13 0 0 10 0 10 28 -6 27 -6 38
-14z m-12187 -100 l21 -4 5 -52 6 -53 -5 -11 -4 -11 -22 -10 -22 -10 -20 7
-20 7 -52 8 -53 7 0 15 0 15 18 -7 17 -8 48 -8 48 -8 15 6 14 5 0 33 0 32 -17
15 -18 15 -30 7 -30 7 -27 6 -28 5 0 7 0 7 68 -9 67 -9 21 -4z m12178 -15 l9
-8 -48 3 -49 2 -4 12 -4 13 44 -7 43 -7 9 -8z m86 -4 l0 -25 -25 0 -25 0 0 5
0 5 18 19 17 19 8 1 7 1 0 -25z m-12380 -164 l0 -9 -16 -12 -15 -13 3 -36 3
-36 22 -3 21 -3 12 38 12 38 15 12 15 11 29 -10 29 -10 10 -40 11 -40 -13 -16
-13 -17 -10 -7 -9 -7 -9 6 -8 5 16 25 17 25 -6 24 -6 24 -17 0 -16 0 -13 -17
-13 -18 -1 -22 0 -23 -25 -6 -25 -6 -24 15 -24 16 -5 38 -5 38 14 23 14 22 15
0 15 0 0 -9z m21310 -1 l0 -10 -10 0 -10 0 0 10 0 10 10 0 10 0 0 -10z m-9090
-50 l0 -10 -11 0 -10 0 6 10 6 10 5 0 4 0 0 -10z m145 -40 l6 -10 -19 0 -19 0
-29 -25 -29 -25 -25 1 -25 0 19 12 18 12 32 22 31 21 17 1 17 1 6 -10z m10
-79 l-6 -11 -11 0 -10 0 12 15 13 15 4 -4 5 -5 -7 -10z m8935 9 l0 -10 -4 0
-5 0 -6 10 -6 10 10 0 11 0 0 -10z m-1020 -10 l0 -10 -4 0 -5 0 -6 10 -6 10
10 0 11 0 0 -10z m-20218 -35 l57 -2 13 -10 13 -10 20 -8 20 -8 -20 -5 -20 -4
-13 -11 -13 -10 -22 20 -22 20 -52 10 -52 10 -15 -16 -16 -15 0 15 0 15 12 12
12 12 21 -7 20 -7 57 -1z m12268 -51 l95 -24 21 0 22 0 6 -16 6 -16 -22 5 -23
6 -55 15 -54 16 -9 -9 -10 -10 -36 19 -36 19 -17 5 -18 5 0 12 0 11 18 -7 17
-8 95 -23z m-12265 -56 l40 -10 13 -4 13 -4 -11 -19 -10 -20 10 -6 10 -6 0
-10 0 -9 -13 0 -13 0 -10 28 -11 29 -51 16 -51 17 -15 0 -15 0 -7 11 -7 11 44
-7 44 -7 40 -10z m22235 -18 l0 -10 -10 0 -10 0 0 10 0 10 10 0 10 0 0 -10z
m-10015 -29 l50 -9 11 9 11 9 6 -7 7 -6 0 -13 0 -13 -17 -3 -18 -4 -45 14 -45
13 -27 -5 -27 -5 -7 10 -7 11 14 9 14 9 15 -5 15 -5 50 -9z m-12207 -78 l13
-13 8 0 8 0 11 -25 12 -26 0 -29 0 -30 -24 -15 -25 -16 -47 7 -48 7 -22 22
-23 23 -7 38 -7 38 27 23 27 23 42 -7 42 -6 13 -14z m12234 -40 l18 -16 -3 -4
-4 -3 -41 14 -40 15 -24 -5 -23 -5 20 16 20 16 29 -5 30 -6 18 -17z m48 -43
l0 -10 -4 0 -5 0 -6 10 -6 10 10 0 11 0 0 -10z m3910 -24 l0 -5 -10 -6 -10 -6
0 10 0 11 10 0 10 0 0 -4z m-3961 -66 l43 0 -12 -15 -12 -15 -21 0 -20 0 -44
25 -43 26 0 9 0 10 33 -20 32 -20 44 0z m9991 30 l0 -10 -10 0 -10 0 0 10 0
10 10 0 10 0 0 -10z m-22255 -60 l30 -9 45 -6 45 -6 9 -9 9 -9 -59 2 -59 2 0
-11 0 -11 33 -38 32 -38 0 -9 0 -8 -9 0 -8 0 -24 28 -24 28 -12 8 -12 7 -45
-21 -45 -20 -5 0 -6 0 0 15 0 15 40 16 40 16 0 19 0 18 -40 11 -40 11 0 10 0
10 38 -6 37 -7 30 -8z m22255 -14 l0 -5 -10 -6 -10 -6 0 10 0 11 10 0 10 0 0
-4z m-10075 -45 l5 -9 65 -7 65 -7 0 -4 0 -4 -12 -21 -13 -22 13 -4 12 -5 0
-20 0 -20 -12 4 -13 5 -3 22 -4 22 -31 20 -32 19 -37 11 -38 10 0 9 0 10 14 0
15 0 6 -9z m-12153 -137 l37 -24 11 -20 11 -21 -6 -29 -6 -29 -24 -15 -24 -16
-20 0 -21 0 -5 23 -5 22 -2 50 -3 50 -27 3 -27 3 -7 -26 -7 -26 12 -25 11 -25
0 -4 0 -5 -9 0 -10 0 -13 28 -14 28 8 29 8 30 14 11 15 11 33 0 33 0 37 -23z
m21228 16 l0 -10 -4 0 -5 0 -6 10 -6 10 10 0 11 0 0 -10z m-9030 -44 l54 -14
13 5 14 6 20 -21 19 -21 0 -6 0 -5 -18 0 -18 0 -11 11 -11 11 -38 10 -39 10
-34 2 -34 1 -4 13 -5 12 19 0 19 0 54 -14z m9030 -36 l0 -10 -10 0 -10 0 0 10
0 10 10 0 10 0 0 -10z m-9038 -82 l68 -21 -11 -13 -10 -13 -32 20 -32 19 -16
0 -15 0 -20 15 -19 14 10 1 10 0 67 -22z m3005 16 l-6 -6 -13 5 -13 5 19 1 19
1 -6 -6z m6033 -14 l0 -10 -10 0 -10 0 0 10 0 10 10 0 10 0 0 -10z m1000 -10
l0 -10 -10 0 -10 0 0 10 0 10 10 0 10 0 0 -10z m-9880 -26 l50 -7 0 -14 0 -15
-22 6 -23 7 -20 3 -20 3 -23 12 -22 12 0 5 0 6 15 -6 15 -5 50 -7z m-12440 -3
l0 -9 -16 -6 -15 -6 3 -42 3 -43 28 -3 27 -3 0 20 0 20 12 26 11 25 18 0 17 0
16 -6 16 -6 0 -8 0 -7 -25 5 -25 4 -4 -13 -4 -14 -6 -28 -7 -28 -25 -9 -25
-10 -19 12 -19 12 -12 27 -11 28 7 23 7 23 10 13 10 12 14 0 14 0 0 -9z
m21320 -41 l0 -10 -10 0 -10 0 0 10 0 10 10 0 10 0 0 -10z m-21180 -60 l0 -26
-12 -12 -12 -12 -15 0 -14 0 16 18 17 19 0 34 0 34 10 -15 10 -15 0 -25z
m12242 25 l5 -25 -5 -5 -5 -5 -30 0 -29 0 -33 16 -33 16 -21 -11 -20 -11 -5 0
-6 0 0 20 0 20 18 0 17 0 54 -15 54 -14 9 5 8 5 0 15 0 14 9 0 9 0 4 -25z
m6908 -29 l0 -5 -10 -6 -10 -6 0 10 0 11 10 0 10 0 0 -4z m-6994 -81 l19 -15
-38 6 -38 6 -18 -16 -19 -17 -6 17 -7 17 13 9 13 8 31 0 30 0 20 -15z m49
-115 l35 0 0 -21 0 -21 -17 7 -18 8 -49 13 -49 14 -23 -6 -24 -6 0 15 0 16 17
10 17 9 38 -19 37 -19 36 0z m8965 20 l0 -10 -10 0 -10 0 0 10 0 10 10 0 10 0
0 -10z m-2030 -76 l0 -15 -10 6 -10 6 5 10 6 9 5 0 4 0 0 -16z m-6973 -46 l63
-12 4 -13 5 -12 -29 -6 -29 -6 -19 19 -20 20 -41 7 -41 7 0 10 0 10 23 -6 22
-6 62 -12z m-32 -108 l6 -10 19 0 19 0 7 -11 7 -12 -39 8 -39 8 -27 2 -28 3
-6 1 -5 1 6 10 6 10 34 0 34 0 6 -10z m105 -25 l0 -15 -20 0 -20 0 0 8 0 9 7
6 6 7 14 0 13 0 0 -15z m-92 -90 l32 -7 0 -9 0 -10 -17 4 -18 5 -27 6 -27 6
-14 -20 -15 -21 -6 17 -6 17 17 13 18 13 15 -4 15 -4 33 -6z m-39 -109 l12
-14 -33 -5 -33 -5 -4 4 -5 4 20 15 19 14 6 1 7 0 11 -14z m159 -41 l43 -15 9
5 9 5 6 -11 7 -10 -4 -5 -5 -4 -77 19 -78 20 -6 5 -5 6 29 0 29 0 43 -15z
m-12348 -92 l15 -15 -10 3 -10 4 -53 30 -52 30 0 8 0 9 48 -27 47 -28 15 -14z
m131 -24 l-2 -73 -5 -8 -5 -8 -19 22 -18 23 14 16 14 16 0 53 0 54 12 -12 11
-11 -2 -72z m12034 31 l6 -10 -16 -6 -16 -6 -5 5 -6 6 7 10 6 11 9 0 9 0 6
-10z m-12120 -40 l6 -10 -10 0 -10 0 -6 10 -6 10 10 0 10 0 6 -10z m12265 -10
l0 -10 -10 0 -10 0 0 10 0 10 10 0 10 0 0 -10z"/>
<path d="M11337 15623 l-7 -6 0 -18 0 -18 16 -15 15 -16 28 0 29 0 10 13 11
13 -7 10 -7 9 -27 18 -27 17 -14 0 -14 0 -6 -7z"/>
<path d="M17623 15363 l-13 -5 0 -13 0 -14 16 -15 15 -16 28 0 29 0 12 15 12
14 -34 21 -33 20 -10 -1 -10 -1 -12 -5z"/>
<path d="M21580 15346 l-12 -15 4 -23 3 -22 25 -13 25 -13 37 0 37 0 6 -10 6
-10 17 9 17 9 28 11 28 11 -3 33 -3 32 -30 6 -30 7 -71 1 -72 1 -12 -14z"/>
<path d="M22712 15328 l-12 -12 0 -16 0 -17 18 -16 19 -17 21 0 21 0 15 22 16
22 0 8 0 7 -16 15 -15 16 -28 0 -27 0 -12 -12z"/>
<path d="M23611 15323 l-21 -14 0 -13 0 -14 18 -22 18 -23 23 8 22 7 10 25 9
25 -10 13 -11 13 -19 5 -19 5 -20 -15z"/>
<path d="M23737 15312 l-5 -7 5 -28 5 -27 28 0 28 0 6 16 6 17 -5 18 -6 19
-29 0 -29 0 -4 -8z"/>
<path d="M23608 13766 l-18 -13 0 -27 0 -26 20 -20 20 -20 13 0 14 0 21 23 22
23 0 21 0 20 -18 16 -19 17 -19 0 -19 -1 -17 -13z"/>
<path d="M19552 11868 l-12 -12 0 -33 0 -32 22 -21 22 -20 16 0 17 0 17 19 17
19 1 31 1 30 -13 16 -12 15 -32 0 -32 0 -12 -12z"/>
<path d="M14708 9788 l-5 -43 5 -12 4 -13 14 0 13 0 15 22 16 22 0 17 0 16
-18 16 -19 17 -10 0 -11 0 -4 -42z"/>
<path d="M14611 9536 l-22 -24 3 -33 3 -34 41 -14 40 -14 26 6 27 7 15 16 16
15 0 28 0 27 -20 22 -21 22 -43 0 -43 0 -22 -24z"/>
<path d="M10743 8668 l-31 -8 -6 -16 -6 -16 6 -23 6 -24 31 -3 32 -3 63 5 63
6 9 14 10 15 0 17 0 17 -17 10 -18 9 -56 4 -55 4 -31 -8z"/>
<path d="M11311 8648 l-8 -23 10 -23 11 -23 39 3 40 3 10 17 11 16 -12 26 -12
26 -40 0 -41 0 -8 -22z"/>
<path d="M11723 8658 l-10 -13 -6 -17 -6 -18 5 -15 6 -15 13 0 13 0 6 -16 6
-15 25 18 24 18 1 27 0 27 -22 15 -22 16 -12 0 -12 0 -9 -12z"/>
<path d="M11850 8650 l-20 -20 0 -8 0 -8 16 -22 15 -22 18 0 17 0 12 12 12 12
0 21 0 22 -18 16 -19 17 -6 0 -7 0 -20 -20z"/>
<path d="M12717 8633 l-13 -28 3 -17 4 -17 35 -7 34 -6 15 6 15 5 0 36 0 35
-26 10 -25 10 -14 0 -14 0 -14 -27z"/>
<path d="M14694 8106 l-5 -14 3 -34 3 -33 22 -3 22 -3 11 21 11 21 -7 22 -7
22 -11 7 -11 8 -13 0 -13 0 -5 -14z"/>
<path d="M1175 6041 l-6 -21 13 -26 13 -27 17 -11 17 -11 11 11 10 10 -13 44
-13 45 -21 3 -21 3 -7 -20z"/>
<path d="M1197 5753 l-17 -20 0 -21 0 -21 21 -20 21 -19 26 -5 27 -6 23 15 22
14 0 20 0 19 -22 25 -23 26 -30 6 -30 6 -18 -19z"/>
<path d="M1182 5108 l-12 -12 0 -26 0 -27 18 -16 17 -15 38 -7 37 -7 15 12 15
12 0 27 0 27 -20 22 -21 22 -37 0 -38 0 -12 -12z"/>
<path d="M1205 4912 l-20 -4 -7 -12 -8 -11 0 -26 0 -26 23 -21 23 -22 31 0 31
0 16 6 16 6 0 33 0 32 -18 16 -17 16 -25 8 -25 9 -20 -4z"/>
<path d="M1168 3810 l-18 -11 0 -25 0 -25 24 -24 24 -24 27 -7 26 -7 25 12 24
11 0 33 0 34 -19 17 -19 18 -39 4 -38 4 -17 -10z"/>
<path d="M1246 3395 l-6 -17 0 -39 0 -39 19 0 19 0 12 16 13 15 -9 37 -9 37
-16 3 -16 3 -7 -16z"/>
</g>
</svg>
