<?xml version="1.0" standalone="no"?>
<!DOCTYPE svg PUBLIC "-//W3C//DTD SVG 20010904//EN"
 "http://www.w3.org/TR/2001/REC-SVG-20010904/DTD/svg10.dtd">
<svg version="1.0" xmlns="http://www.w3.org/2000/svg"
 width="2480.000000pt" height="1748.000000pt" viewBox="0 0 2480.000000 1748.000000"
 preserveAspectRatio="xMidYMid meet">
<metadata>
Created by potrace 1.16, written by Peter Selinger 2001-2019
</metadata>
<g transform="translate(0.000000,1748.000000) scale(0.100000,-0.100000)"
fill="#000000" stroke="none">
<path d="M0 8740 l0 -8740 12400 0 12400 0 0 4805 0 4805 -15 0 -15 0 0 15 0
14 15 -5 15 -6 0 2760 0 2760 -30 6 -30 6 1 37 1 38 9 -30 8 -31 21 0 20 0 0
27 0 27 -30 7 -30 7 0 9 0 9 -35 0 -35 0 0 -10 0 -10 -18 0 -18 0 -21 19 -21
20 -20 -20 -21 -19 -24 0 -23 0 -12 12 -11 11 -16 -13 -15 -13 -19 17 -19 17
-5 -14 -5 -14 -47 -7 -46 -7 -18 22 -18 22 -33 -12 -34 -11 -9 9 -10 10 -17
-12 -18 -11 -17 14 -16 13 4 11 4 11 52 1 53 1 8 13 9 14 25 -12 26 -12 25 12
26 11 11 -11 12 -12 22 0 23 0 6 11 7 10 -18 20 -17 19 -53 0 -53 0 -6 -10 -6
-10 -10 0 -9 0 0 15 0 15 9 0 10 0 3 23 3 22 23 3 23 4 13 -11 12 -10 56 3 57
3 16 13 15 13 21 -19 20 -18 9 14 10 15 0 13 0 12 15 0 15 0 0 -32 0 -32 17
24 17 25 10 7 11 7 20 -19 21 -20 19 0 18 0 13 18 13 17 1 -17 0 -18 25 2 25
2 0 508 0 508 -14 0 -15 0 -7 12 -7 11 21 -5 22 -6 0 519 0 519 -12400 0
-12400 0 0 -8740z m23655 7710 l6 -10 -20 0 -21 0 0 10 0 10 14 0 15 0 6 -10z
m185 0 l0 -10 -27 0 -28 0 15 10 15 10 13 0 12 0 0 -10z m-275 -10 l6 -10 -43
1 -43 0 -20 9 -20 9 57 0 57 1 6 -10z m-3342 -685 l-5 -24 -16 15 -15 16 14 9
14 9 6 0 6 0 -4 -25z m-473 0 l12 -15 -15 0 -15 0 -17 6 -17 7 14 8 13 9 6 0
7 0 12 -15z m335 5 l-6 -10 -10 0 -9 0 0 10 0 10 16 0 15 0 -6 -10z m-495 -5
l0 -5 -20 -20 -20 -20 0 18 0 19 7 6 6 7 14 0 13 0 0 -5z m73 -2 l-13 -5 -12
5 -13 5 25 0 25 0 -12 -5z m-17854 -433 l0 -430 -9 0 -9 0 0 403 0 402 5 28 6
27 4 0 4 0 -1 -430z m17366 340 l20 -9 -70 1 -70 1 45 7 45 7 5 1 5 1 20 -9z
m918 -21 l-28 -5 -7 3 -8 4 0 13 0 13 36 -11 35 -11 -28 -6z m127 7 l0 -14
-20 5 -20 5 6 9 5 9 15 0 14 0 0 -14z m-1160 0 l0 -5 -10 -6 -10 -6 0 10 0 11
10 0 10 0 0 -4z m770 -21 l0 -15 -16 0 -16 0 12 15 12 15 4 0 4 0 0 -15z
m-253 -12 l4 -11 -16 -5 -15 -6 0 20 0 21 12 -4 12 -4 3 -11z m157 -3 l-9 -9
-30 8 -30 9 40 1 39 1 -10 -10z m2813 4 l-6 -6 -13 5 -13 5 19 1 19 1 -6 -6z
m1393 -71 l-1 -68 -10 18 -11 18 6 25 6 24 -9 19 -10 18 6 7 6 6 9 0 8 0 0
-67z m764 28 l6 -9 -15 -6 -14 -5 -5 8 -5 8 6 7 6 6 8 0 8 0 5 -9z m-4470 -25
l-6 -16 -27 1 -26 0 21 9 22 9 7 11 7 11 4 -4 4 -4 -6 -17z m3643 2 l-5 -13
-1 19 -1 19 6 -6 6 -6 -5 -13z m-4794 1 l12 0 -20 -9 -20 -9 -7 0 -8 -1 0 16
0 16 16 -6 16 -6 11 -1z m127 -5 l0 -16 -16 6 -16 6 -26 1 -27 2 35 7 35 7 8
2 7 1 0 -16z m3750 -19 l0 -15 -10 0 -10 0 0 15 0 15 10 0 10 0 0 -15z m80 -5
l0 -20 -15 0 -15 0 0 20 0 20 15 0 15 0 0 -20z m-3315 -9 l-6 -11 -11 0 -10 0
12 15 13 15 4 -4 5 -5 -7 -10z m-145 -12 l0 -9 -15 0 -15 0 0 15 0 14 15 -5
15 -6 0 -9z m2780 5 l0 -4 -26 0 -25 0 5 9 6 9 20 -5 20 -5 0 -4z m127 10 l-6
-6 -13 5 -13 5 19 1 19 1 -6 -6z m79 -5 l6 -11 -10 -10 -9 -9 -6 20 -5 21 8 0
9 0 7 -11z m1303 2 l15 -9 -14 -17 -14 -17 -12 16 -11 16 -19 -1 -19 -2 -20 3
-20 3 45 7 45 7 5 1 5 2 14 -9z m389 -14 l3 -17 -20 0 -20 0 -6 10 -6 10 6 11
7 10 16 -3 17 -3 3 -18z m-500 -5 l4 -14 -23 4 -22 3 -5 13 -4 14 23 -4 22 -3
5 -13z m680 0 l4 -14 -18 4 -17 3 -5 13 -4 14 18 -4 17 -3 5 -13z m132 2 l0
-16 -12 4 -12 4 -4 12 -4 12 16 0 16 0 0 -16z m70 6 l0 -10 -10 0 -10 0 0 10
0 10 10 0 10 0 0 -10z m-1480 -10 l0 -10 -11 0 -10 0 6 10 6 10 5 0 4 0 0 -10z
m-917 -7 l-13 -5 -12 5 -13 5 25 0 25 0 -12 -5z m104 -9 l-6 -6 -13 5 -13 5
19 1 19 1 -6 -6z m-3135 -36 l-21 -22 -7 7 -7 6 24 20 24 19 4 -4 5 -5 -22
-21z m-149 -14 l-5 -14 -7 0 -7 0 -1 19 -2 20 14 -5 14 -6 -6 -14z m3377 6 l0
-10 -46 0 -45 0 6 10 6 10 40 0 39 0 0 -10z m1210 -4 l0 -15 -9 -6 -10 -5 -6
10 -6 10 6 10 6 10 10 0 9 0 0 -14z m-3560 0 l0 -4 -15 -6 -15 -5 0 9 0 10 15
0 15 0 0 -4z m2515 -32 l0 -29 -227 -2 -226 -2 -13 15 -13 16 15 9 14 9 22 -5
21 -5 5 13 4 12 16 -14 17 -13 24 6 25 6 5 -9 6 -9 37 9 38 8 35 -6 35 -6 13
-10 13 -10 11 11 12 12 23 0 24 0 5 15 6 15 27 -3 26 -4 0 -29z m825 32 l0 -5
-10 -6 -10 -6 0 10 0 11 10 0 10 0 0 -4z m330 -6 l0 -10 25 -6 25 -6 14 12 15
11 21 -11 21 -11 26 3 26 3 4 -12 5 -13 -21 0 -21 0 0 -10 0 -10 -14 0 -15 0
-6 -20 -6 -20 -10 0 -9 0 0 20 0 20 -17 1 -18 1 -13 -1 -13 -2 -20 -20 -20
-20 4 -12 3 -11 67 -1 67 0 0 7 0 7 14 -5 13 -5 6 20 5 21 10 0 10 0 3 -32 4
-33 -3 -68 -4 -67 -9 5 -8 6 5 27 5 27 -9 30 -8 30 -45 -4 -44 -3 -13 -10 -13
-11 -24 13 -23 13 -29 -6 -28 -5 -20 -7 -20 -6 -20 14 -19 15 13 16 14 17 14
-6 14 -5 20 11 20 10 8 22 8 22 -31 5 -31 5 -3 27 -3 26 23 5 23 4 28 2 27 1
0 -10z m-4166 -21 l-19 -8 -9 0 -8 -1 12 14 11 15 16 -6 17 -6 -20 -8z m2526
-3 l0 -13 -25 -11 -25 -12 0 11 0 10 10 19 10 19 15 -5 15 -6 0 -12z m955 3
l9 -9 43 0 43 0 6 -24 6 -25 -7 -12 -8 -12 -9 17 -9 16 -19 0 -20 0 0 -13 0
-13 16 -22 16 -23 -18 -14 -19 -14 -25 -2 -25 -3 -20 2 -20 1 -55 6 -55 6 -15
0 -15 1 -14 -4 -14 -3 -8 35 -7 35 4 5 5 4 17 -12 17 -12 34 -15 33 -15 23 6
23 6 21 19 20 19 6 0 5 0 0 -15 0 -15 14 0 14 0 12 15 12 14 -4 13 -5 13 -24
2 -24 1 -60 2 -60 2 -17 -7 -18 -7 0 8 1 9 15 20 15 20 9 -15 9 -14 7 17 6 17
14 0 14 0 0 -17 1 -18 17 22 17 23 30 -6 30 -6 10 -9z m466 4 l34 -17 19 -1
19 0 4 -12 5 -13 -16 0 -16 0 -2 2 -3 1 -22 -12 -23 -12 0 10 0 10 -17 -1 -18
-1 -47 8 -48 7 0 -11 0 -11 -13 0 -13 0 -23 16 -23 17 12 7 12 7 53 1 54 0 18
11 18 10 1 1 1 0 34 -17z m699 -17 l0 -21 -55 -1 -55 -2 0 18 0 17 33 10 32 9
23 -4 22 -4 0 -22z m-4515 4 l6 -10 -10 0 -10 0 -6 10 -6 10 10 0 10 0 6 -10z
m2293 -17 l4 -13 -26 0 -26 0 0 16 0 15 22 -3 21 -3 5 -12z m826 -4 l-5 -9
-20 0 -19 0 0 8 0 9 6 5 5 6 19 -5 20 -5 -6 -9z m-3669 -39 l6 -10 -8 0 -8 0
-15 10 -15 10 17 0 17 0 6 -10z m3387 -15 l-4 -25 13 0 12 0 19 17 18 16 0
-17 0 -17 -11 -20 -10 -20 -32 3 -31 3 -7 -25 -7 -25 -1 16 -1 16 -39 13 -38
12 -134 -5 -135 -6 4 35 4 34 13 0 12 0 19 -21 19 -21 18 23 19 23 16 -22 17
-22 34 21 33 20 30 -10 30 -11 23 6 23 6 6 -11 7 -11 19 0 18 0 6 25 6 25 9 0
8 0 -5 -25z m738 15 l0 -10 -10 0 -10 0 0 10 0 10 10 0 10 0 0 -10z m-4217
-20 l-17 -19 -4 4 -4 4 5 16 6 15 16 0 15 0 -17 -20z m1037 16 l0 -4 -30 -4
-30 -5 0 9 0 8 30 0 30 0 0 -4z m-517 -26 l12 -1 -30 -13 -30 -13 -3 2 -2 2 6
17 7 17 14 -5 15 -6 11 0z m95 0 l17 0 -14 -9 -13 -9 -19 5 -19 5 0 10 0 10
16 -6 16 -6 16 0z m2440 -13 l3 -17 -20 0 -21 0 0 4 0 4 6 17 6 16 12 -4 11
-4 3 -16z m1085 9 l-3 -6 0 -8 0 -9 -27 -12 -26 -12 -7 12 -8 11 5 18 5 18 31
-3 32 -2 -2 -7z m-4172 -39 l-11 -11 0 15 0 16 7 7 8 7 3 -11 4 -12 -11 -11z
m3004 13 l0 -15 -20 3 -20 3 -32 2 -33 1 0 7 0 8 23 4 22 5 30 -2 30 -1 0 -15z
m761 -17 l-6 -6 -6 6 -6 6 8 12 8 13 4 -13 4 -12 -6 -6z m-1986 9 l0 -7 -97
-1 -98 -1 -32 -7 -33 -8 0 16 0 16 130 0 130 0 0 -8z m2950 -26 l0 -5 -10 -6
-10 -6 0 10 0 11 10 0 10 0 0 -4z m-3617 -13 l-13 -5 -17 5 -18 5 30 0 30 0
-12 -5z m-58 -13 l-6 -10 -10 0 -10 0 6 10 6 10 10 0 10 0 -6 -10z m-1025 -7
l0 -8 -10 -15 -9 -14 -7 6 -6 7 5 16 6 15 11 0 10 0 0 -7z m240 -3 l0 -10 -17
0 -18 0 15 10 15 10 3 0 2 0 0 -10z m3530 0 l0 -10 -11 0 -10 0 6 10 6 10 5 0
4 0 0 -10z m840 -10 l11 -20 -8 -15 -8 -14 -11 34 -11 35 8 0 8 0 11 -20z
m-4473 4 l-6 -6 -13 5 -13 5 19 1 19 1 -6 -6z m510 -17 l-5 -13 -36 4 -36 4 6
10 6 10 23 -6 24 -6 6 11 7 10 5 -5 5 -5 -5 -14z m-147 4 l0 -9 -15 -6 -15 -5
0 8 0 8 7 6 6 7 9 0 8 0 0 -9z m55 -1 l6 -10 -21 0 -21 0 6 10 6 10 9 0 9 0 6
-10z m432 -22 l-5 -13 0 25 0 25 5 -12 5 -13 -5 -12z m2223 22 l0 -10 -10 0
-10 0 0 10 0 10 10 0 10 0 0 -10z m2219 -4 l12 -14 -35 -6 -35 -7 -21 13 -20
13 0 7 0 8 44 0 44 0 11 -14z m-701 -23 l-3 -26 -12 -5 -13 -4 0 31 0 31 16 0
15 0 -3 -27z m-1318 1 l0 -16 -12 4 -12 4 -4 12 -4 12 16 0 16 0 0 -16z m488
10 l22 -6 0 -10 0 -9 -27 3 -26 3 -5 13 -4 12 9 0 8 0 23 -6z m362 -3 l0 -9
-15 -6 -15 -5 0 8 0 8 7 6 6 7 9 0 8 0 0 -9z m1280 -6 l0 -15 -10 0 -10 0 0
15 0 15 10 0 10 0 0 -15z m-3780 -5 l0 -10 -11 0 -10 0 6 10 6 10 5 0 4 0 0
-10z m1990 2 l0 -9 -6 -6 -7 -6 -9 5 -8 5 5 10 6 9 10 0 9 0 0 -8z m70 -7
l-12 -15 -9 6 -9 5 5 10 6 9 16 0 15 0 -12 -15z m1470 11 l0 -4 -5 -14 -5 -14
-52 6 -51 5 -5 13 -4 12 61 0 61 0 0 -4z m380 -43 l0 -27 -10 10 -11 11 7 16
6 17 4 0 4 0 0 -27z m-5020 -38 l-12 -15 -10 0 -9 0 18 31 18 30 3 -16 4 -16
-12 -14z m2780 26 l10 -20 0 -5 0 -6 -14 0 -14 0 -12 15 -12 14 7 11 6 10 9 0
9 0 11 -19z m1180 9 l0 -10 -10 0 -10 0 0 10 0 10 10 0 10 0 0 -10z m-3611
-14 l11 -13 -15 -13 -15 -12 0 26 0 26 4 0 4 0 11 -14z m261 -7 l0 -9 -27 0
-27 0 19 14 20 14 7 -4 8 -5 0 -10z m-100 1 l0 -10 -27 1 -28 0 20 9 20 9 8 0
7 1 0 -10z m4204 4 l17 -6 -12 -14 -11 -14 -9 0 -9 0 0 20 0 20 4 0 4 0 16 -6z
m206 -4 l0 -10 -10 0 -10 0 0 10 0 10 10 0 10 0 0 -10z m-5077 -21 l8 -6 -16
-13 -15 -12 0 27 0 28 8 -9 7 -9 8 -6z m580 14 l-13 -5 -17 5 -18 5 30 0 30 0
-12 -5z m433 -22 l-7 -11 -9 0 -8 0 5 21 6 20 9 -9 10 -10 -6 -11z m3145 6
l-11 -11 -6 7 -6 6 7 10 6 11 11 -6 10 -6 -11 -11z m634 14 l5 -10 -10 -6 -10
-6 0 15 0 16 4 0 5 0 6 -9z m-3535 -11 l0 -10 -15 0 -15 0 0 10 0 10 15 0 15
0 0 -10z m3107 -12 l-5 -13 -1 19 -1 19 6 -6 6 -6 -5 -13z m-4284 5 l-13 -5
-17 5 -18 5 30 0 30 0 -12 -5z m1064 1 l-6 -6 -13 5 -13 5 19 1 19 1 -6 -6z
m-582 -71 l-20 -5 -9 -9 -10 -9 -9 0 -9 0 12 15 12 15 27 -1 26 -1 -20 -5z
m52 1 l-6 -6 -13 5 -13 5 19 1 19 1 -6 -6z m-1052 -25 l-40 -9 -17 -21 -18
-21 0 -27 0 -26 -10 15 -10 15 0 13 0 14 29 29 29 29 39 -1 38 -1 -40 -9z
m937 -39 l-4 -40 -4 0 -4 0 0 40 0 40 8 0 8 0 -4 -40z m-490 15 l0 -9 -11 -4
-11 -4 0 17 0 17 11 -4 11 -3 0 -10z m248 5 l0 -10 -15 0 -15 0 0 10 0 10 15
0 15 0 0 -10z m-164 -27 l-3 -28 -15 -3 -15 -3 4 25 5 24 -19 5 -18 5 32 1 32
1 -3 -27z m62 20 l-18 -4 -17 4 -18 5 35 0 35 0 -17 -5z m3462 -35 l0 -8 -20
0 -20 0 0 8 0 8 20 0 20 0 0 -8z m1035 2 l-6 -10 -10 0 -9 0 0 10 0 10 16 0
15 0 -6 -10z m266 -5 l-1 -10 -12 0 -11 0 -5 13 -4 14 16 -4 17 -3 0 -10z
m-5267 -40 l-6 -15 -14 0 -14 0 0 9 0 9 13 5 12 5 7 1 7 1 -5 -15z m981 5 l-6
-10 -10 0 -9 0 0 10 0 10 16 0 15 0 -6 -10z m-605 -8 l0 -9 -25 -23 -25 -23 0
21 0 21 18 10 17 10 8 1 7 0 0 -8z m1060 -2 l0 -10 -22 0 -21 0 -19 -17 -18
-16 0 -29 0 -28 -9 0 -10 0 -3 18 -4 17 9 27 9 27 26 10 27 9 18 1 17 1 0 -10z
m-920 -10 l0 -10 -4 0 -5 0 -6 10 -6 10 10 0 11 0 0 -10z m967 4 l-6 -6 -13 5
-13 5 19 1 19 1 -6 -6z m-1542 -64 l6 -10 -25 0 -26 0 0 10 0 10 19 0 20 0 6
-10z m-17356 -182 l1 -182 -10 10 -9 9 -2 130 -1 130 1 43 1 42 9 0 8 0 2
-182z m17290 161 l-14 -9 -9 0 -8 0 12 15 12 15 10 -6 10 -6 -13 -9z m-29 -13
l0 -5 -10 -6 -10 -6 0 10 0 11 10 0 10 0 0 -4z m1631 -19 l-1 -7 -7 -1 -7 0
-4 12 -4 12 12 -4 12 -4 -1 -8z m-366 -97 l-6 -10 -10 0 -9 0 0 10 0 10 16 0
15 0 -6 -10z m-1189 -9 l-6 -9 -20 5 -20 5 0 4 0 4 26 0 25 0 -5 -9z m1003 5
l-4 -3 -37 -6 -38 -6 0 10 0 9 42 0 41 0 -4 -4z m140 0 l-4 -3 -32 -6 -33 -6
0 9 0 10 37 0 36 0 -4 -4z m-530 -25 l14 -9 -51 -7 -50 -7 -22 14 -23 13 -4
-12 -5 -13 -29 0 -29 0 0 15 0 15 93 0 92 0 14 -9z m69 -20 l4 -23 -11 6 -11
7 -11 20 -11 21 19 -4 18 -3 3 -24z m-613 -61 l-7 -22 -11 11 -10 10 13 16 13
15 4 -4 5 -4 -7 -22z m1035 18 l0 -12 -22 -23 -21 -23 -21 1 -21 0 20 8 20 9
14 26 14 26 9 0 8 0 0 -12z m-1173 -14 l-6 -6 -13 5 -13 5 19 1 19 1 -6 -6z
m90 0 l-6 -6 -13 5 -13 5 19 1 19 1 -6 -6z m1404 -37 l-11 -11 -6 7 -6 6 7 10
6 11 11 -6 10 -6 -11 -11z m-869 -19 l-12 -12 0 10 0 11 7 6 6 7 6 -5 5 -5
-12 -12z m112 -3 l-6 -15 -9 0 -8 0 5 15 6 15 9 0 8 0 -5 -15z m-204 -37 l0
-8 -7 0 -6 0 -19 17 -18 16 0 9 0 9 25 -18 24 -18 1 -7z m151 22 l9 0 0 -10 0
-10 -8 0 -8 0 -20 16 -19 16 18 -6 19 -6 9 0z m219 -40 l0 -10 -4 0 -5 0 -6
10 -6 10 10 0 11 0 0 -10z m823 -24 l6 -14 -52 -26 -52 -25 -22 -6 -23 -6 0
15 0 16 19 0 19 0 46 20 46 19 0 11 0 10 4 0 4 0 5 -14z m-18993 -67 l0 -20
-10 6 -10 6 0 20 0 20 10 -6 10 -6 0 -20z m17410 -4 l-12 -15 -9 0 -9 0 17 26
17 27 4 -12 4 -12 -12 -14z m384 10 l-19 -14 -7 -1 -7 0 5 15 6 15 21 0 21 0
-20 -15z m-543 -28 l-1 -7 -7 -1 -7 0 -4 12 -4 12 12 -4 12 -4 -1 -8z m39 3
l15 -10 -17 0 -17 0 -6 10 -6 10 8 0 8 0 15 -10z m65 0 l6 -10 -15 0 -16 0 0
10 0 10 9 0 10 0 6 -10z m1418 -25 l-5 -15 -9 0 -9 0 0 13 0 14 6 6 7 6 8 -5
8 -5 -6 -14z m47 21 l0 -4 -15 -6 -15 -5 0 9 0 10 15 0 15 0 0 -4z m-1060 -21
l0 -15 -10 0 -10 0 0 15 0 15 10 0 10 0 0 -15z m-17770 -53 l-9 -17 0 40 0 40
10 -23 9 -24 -10 -16z m18835 -62 l6 -10 -23 0 -24 0 -12 -12 -12 -12 -7 8 -8
8 19 14 20 14 17 0 18 0 6 -10z m75 6 l0 -5 -9 -6 -10 -5 -6 10 -6 10 15 0 16
0 0 -4z m-18900 -47 l0 -19 -10 0 -10 0 0 26 0 25 10 -6 10 -6 0 -20z m17406
-33 l-14 -27 -7 10 -6 11 -27 1 -27 1 34 8 34 8 10 18 11 18 3 -10 4 -11 -15
-27z m420 33 l5 -9 -40 0 -41 0 0 8 0 8 35 1 35 1 6 -9z m94 1 l0 -10 -22 0
-23 0 15 10 15 10 8 0 7 0 0 -10z m-622 -37 l-18 -4 -22 4 -23 4 40 0 40 1
-17 -5z m632 -28 l0 -15 -10 0 -10 0 0 15 0 15 10 0 10 0 0 -15z m520 3 l0 -8
-22 -1 -23 -1 -77 -2 -78 -1 0 13 0 12 100 -2 100 -3 0 -7z m60 -4 l0 -16 -12
4 -12 4 -4 12 -4 12 16 0 16 0 0 -16z m317 -4 l36 0 -6 -7 -7 -6 -45 -1 -45
-1 0 14 0 13 16 -6 16 -6 35 0z m86 -7 l-13 -5 -12 5 -13 5 25 0 25 0 -12 -5z
m-18914 -98 l0 -85 -9 0 -8 0 -7 74 -7 74 6 11 7 11 9 0 9 0 0 -85z m17417 49
l-6 -17 -5 5 -5 5 6 17 6 17 5 -5 5 -5 -6 -17z m524 -30 l0 -15 -10 6 -10 6 0
15 0 15 10 -6 10 -6 0 -15z m-621 0 l4 -4 -36 0 -37 0 -7 -1 -7 0 -4 9 -3 10
43 -5 43 -6 4 -3z m74 9 l-13 -5 -12 5 -13 5 25 0 25 0 -12 -5z m377 -23 l-25
-19 -4 4 -4 5 13 15 12 15 17 0 16 0 -25 -20z m626 -16 l-6 -17 -5 5 -5 5 6
17 6 17 5 -5 5 -5 -6 -17z m-139 -6 l-5 -13 -1 19 -1 19 6 -6 6 -6 -5 -13z
m689 11 l6 -11 -10 -10 -10 -10 -6 11 -7 11 -22 1 -22 1 25 8 25 8 7 1 7 1 7
-11z m-121 -6 l-40 -4 -13 -11 -12 -11 -6 6 -6 6 7 10 6 11 52 -2 52 -1 -40
-4z m-365 -28 l0 -15 -7 0 -8 1 -19 14 -20 15 27 0 27 0 0 -15z m35 5 l-6 -10
-10 0 -10 0 6 10 6 10 10 0 10 0 -6 -10z m-137 -17 l-11 -14 -35 3 -35 3 -4
10 -3 10 50 1 50 0 -12 -13z m-1078 -30 l-1 -8 -14 -19 -15 -20 0 -20 0 -20
-12 12 -12 12 17 35 17 35 10 0 10 0 0 -7z m1560 -62 l15 -3 -25 -8 -25 -8
-22 -1 -23 -1 0 13 0 12 33 -1 32 -1 15 -2z m-18849 -151 l2 -145 -2 -25 -1
-25 -9 14 -9 13 4 77 3 76 0 84 1 84 5 -4 4 -5 2 -144z m18941 138 l-11 -11
-33 10 -33 11 45 1 44 1 -12 -12z m-502 -5 l0 -8 -8 -12 -7 -12 -33 1 -32 1 0
9 0 8 24 0 25 0 6 10 6 10 10 0 9 0 0 -7z m-120 -17 l0 -4 -30 -4 -30 -5 0 9
0 8 30 0 30 0 0 -4z m-920 -10 l0 -5 -9 -6 -10 -5 -6 10 -6 10 15 0 16 0 0 -4z
m534 -47 l-5 -9 -21 0 -20 0 12 14 11 15 15 -6 14 -5 -6 -9z m-78 -2 l-18 -12
-34 -22 -34 -22 0 7 0 7 18 22 17 21 20 5 20 5 15 0 15 1 -19 -12z m114 -7 l0
-10 -4 0 -5 0 -6 10 -6 10 10 0 11 0 0 -10z m470 0 l0 -10 -11 0 -10 0 6 10 6
10 5 0 4 0 0 -10z m492 -12 l-12 -12 0 10 0 11 7 6 6 7 6 -5 5 -5 -12 -12z
m-63 -14 l4 -4 -51 0 -52 0 0 9 0 9 48 -6 47 -5 4 -3z m-1539 -24 l0 -10 -14
0 -15 0 -6 10 -6 10 20 0 21 0 0 -10z m80 0 l0 -10 -14 0 -15 0 -6 10 -6 10
20 0 21 0 0 -10z m347 -52 l-5 -13 0 25 0 25 5 -12 5 -13 -5 -12z m423 6 l0
-15 -10 6 -10 6 0 10 0 9 10 0 10 0 0 -16z m706 -19 l19 -16 -40 6 -40 6 -20
-15 -20 -15 -9 -1 -9 0 17 19 18 20 27 4 26 4 6 2 5 1 20 -15z m-1460 -30 l-6
-25 -17 0 -16 0 16 18 17 19 0 13 0 13 6 -6 6 -6 -6 -26z m909 15 l-6 -10 -10
0 -10 0 6 10 6 10 10 0 10 0 -6 -10z m-25 -20 l0 -10 -9 0 -10 0 -6 10 -6 10
15 0 16 0 0 -10z m-1034 -22 l-16 -9 -10 6 -10 6 5 9 5 8 21 -5 21 -6 -16 -9z
m744 -28 l0 -10 -11 0 -10 0 6 10 6 10 5 0 4 0 0 -10z m-18018 -95 l-4 -35 -4
0 -4 0 0 35 0 35 8 0 8 0 -4 -35z m17438 9 l0 -14 -9 0 -10 0 -6 10 -6 10 6
10 6 10 10 -5 9 -6 0 -15z m1450 16 l-15 -10 -20 0 -20 0 -15 10 -15 10 50 0
50 0 -15 -10z m-1605 -20 l-6 -10 -10 0 -9 0 0 10 0 10 16 0 15 0 -6 -10z
m640 0 l6 -10 -10 0 -10 0 -6 10 -6 10 10 0 10 0 6 -10z m389 4 l16 -6 0 -8 0
-8 -21 5 -22 6 -13 -18 -14 -19 0 21 0 22 18 4 17 5 2 1 1 1 16 -6z m106 -14
l0 -10 -4 0 -5 0 -6 10 -6 10 10 0 11 0 0 -10z m364 -71 l-5 -9 -10 5 -9 6 0
9 0 9 15 -5 15 -6 -6 -9z m89 4 l-13 -5 -17 5 -18 5 30 0 30 0 -12 -5z m54
-15 l-5 -13 -1 19 -1 19 6 -6 6 -6 -5 -13z m-1127 -8 l-15 -10 -13 0 -13 0 6
10 6 10 22 0 22 0 -15 -10z m103 3 l-13 -5 -17 5 -18 5 30 0 30 0 -12 -5z
m464 -9 l-6 -6 -13 5 -13 5 19 1 19 1 -6 -6z m573 -40 l0 -15 -10 6 -10 6 0
15 0 15 10 -6 10 -6 0 -15z m-1667 -15 l-18 -30 -3 16 -4 16 12 14 12 15 10 0
9 0 -18 -31z m522 -49 l20 -9 -20 0 -21 -1 -12 -12 -12 -12 0 6 0 6 6 16 6 16
7 -1 6 0 20 -9z m122 -12 l-5 -13 -1 19 -1 19 6 -6 6 -6 -5 -13z m363 -3 l12
-15 -16 0 -16 0 0 15 0 15 4 0 4 0 12 -15z m146 -10 l-6 -16 -10 6 -11 7 12
14 12 14 5 -4 4 -5 -6 -16z m-18426 -20 l0 -25 -10 0 -10 0 0 25 0 25 10 0 10
0 0 -25z m18870 5 l0 -10 -29 -32 -29 -33 -9 9 -8 9 13 4 12 5 15 29 16 29 9
0 10 0 0 -10z m-933 -52 l-5 -13 0 25 0 25 5 -12 5 -13 -5 -12z m-627 -28 l0
-10 -11 0 -10 0 6 10 6 10 5 0 4 0 0 -10z m470 0 l0 -10 -9 0 -10 0 -6 10 -6
10 15 0 16 0 0 -10z m-17780 -55 l0 -55 -10 0 -10 0 0 55 0 55 10 0 10 0 0
-55z m18425 45 l-6 -10 -10 0 -10 0 6 10 6 10 10 0 10 0 -6 -10z m-1165 -45
l0 -15 -10 0 -9 0 5 15 6 15 4 0 4 0 0 -15z m670 -54 l0 -10 -10 -6 -10 -6 0
15 0 16 10 0 10 0 0 -9z m-53 -7 l-6 -6 -13 5 -13 5 19 1 19 1 -6 -6z m-611
-31 l-6 -6 -6 6 -6 6 8 12 8 13 4 -13 4 -12 -6 -6z m164 17 l0 -10 -11 0 -10
0 6 10 6 10 5 0 4 0 0 -10z m-17430 -55 l0 -25 -10 0 -10 0 0 25 0 25 10 0 10
0 0 -25z m17940 -10 l0 -25 -9 0 -8 0 5 25 4 25 4 0 4 0 0 -25z m884 6 l6 -9
-30 -4 -30 -5 0 8 0 7 13 5 12 5 12 1 12 1 5 -9z m106 -11 l0 -10 -4 0 -5 0
-6 10 -6 10 10 0 11 0 0 -10z m-18933 -52 l-5 -13 -1 19 -1 19 6 -6 6 -6 -5
-13z m18448 2 l6 -10 -38 0 -38 0 15 10 15 10 17 0 17 0 6 -10z m-95 -10 l0
-10 -10 0 -10 0 0 10 0 10 10 0 10 0 0 -10z m450 -35 l12 -15 -21 0 -21 0 0
15 0 15 9 0 9 0 12 -15z m-18800 -56 l0 -30 -10 6 -10 6 0 25 0 24 10 0 10 0
0 -31z m17829 17 l-4 -3 -32 -6 -33 -6 0 9 0 10 37 0 36 0 -4 -4z m89 -3 l-18
-4 -22 4 -23 4 40 0 40 1 -17 -5z m-561 -39 l-6 -6 -13 5 -13 5 19 1 19 1 -6
-6z m1583 -37 l0 -14 -6 -5 -5 -6 -20 5 -19 5 17 14 18 13 8 1 7 0 0 -13z
m-150 -7 l0 -10 -10 0 -10 0 0 10 0 10 10 0 10 0 0 -10z m70 0 l-15 -10 -18 0
-18 0 6 10 6 10 27 0 27 0 -15 -10z m-18858 -117 l-4 -53 -9 6 -9 5 0 47 0 47
7 25 7 25 6 -25 6 -25 -4 -52z m17928 81 l0 -16 -16 6 -16 6 -71 2 -72 2 80 6
80 6 8 2 7 2 0 -16z m-630 -33 l0 -9 -16 -6 -16 -6 -4 0 -4 0 0 15 0 15 20 0
20 0 0 -9z m95 -1 l-20 -9 -7 0 -8 -1 0 10 0 10 28 -1 27 0 -20 -9z m1550 -30
l-6 -10 -17 0 -17 0 15 10 15 10 8 0 8 0 -6 -10z m-995 -19 l0 -10 -10 -6 -10
-6 0 15 0 16 10 0 10 0 0 -9z m415 -1 l6 -10 -10 0 -11 0 0 10 0 10 4 0 5 0 6
-10z m425 0 l0 -10 -10 0 -10 0 0 10 0 10 10 0 10 0 0 -10z m77 4 l-6 -6 -13
5 -13 5 19 1 19 1 -6 -6z m-557 -18 l0 -5 -10 -6 -10 -6 0 10 0 11 10 0 10 0
0 -4z m-522 -15 l14 -8 -15 -6 -15 -6 -6 6 -6 6 0 9 0 8 8 0 7 0 13 -9z m75
-8 l-13 -5 -17 5 -18 5 30 0 30 0 -12 -5z m50 0 l-13 -5 -12 5 -13 5 25 0 25
0 -12 -5z m-483 -38 l0 -15 -9 0 -10 0 -5 9 -5 8 6 7 6 6 9 0 8 0 0 -15z
m1400 -25 l0 -10 -16 0 -15 0 6 10 6 10 10 0 9 0 0 -10z m63 3 l-13 -5 -17 5
-18 5 30 0 30 0 -12 -5z m-1118 -43 l6 -10 -10 0 -11 0 0 10 0 10 4 0 5 0 6
-10z m-17775 -27 l0 -28 -10 15 -10 15 0 13 0 12 10 0 10 0 0 -27z m18378 10
l-18 -4 -17 4 -18 5 35 0 35 0 -17 -5z m-615 -56 l5 -14 -9 -14 -9 -14 0 28 0
27 4 0 4 0 5 -13z m-402 -6 l-14 -9 -14 5 -13 5 0 4 0 4 28 0 27 0 -14 -9z
m582 -11 l-5 -20 -15 0 -14 0 11 20 11 20 8 0 9 0 -5 -20z m427 -1 l0 -9 -15
0 -15 0 0 8 0 9 6 6 7 6 8 -5 9 -5 0 -10z m590 0 l0 -9 -21 0 -21 0 12 15 12
15 9 -6 9 -5 0 -10z m-150 1 l0 -9 -20 -11 -20 -11 0 14 0 14 7 6 6 7 14 0 13
0 0 -10z m57 -6 l-6 -6 -13 5 -13 5 19 1 19 1 -6 -6z m-557 -8 l0 -5 -10 -6
-10 -6 0 10 0 11 10 0 10 0 0 -4z m-935 -46 l6 -10 -20 0 -21 0 0 10 0 10 14
0 15 0 6 -10z m-17372 -89 l-2 -3 -10 7 -11 6 0 28 0 28 8 7 7 8 5 -39 6 -38
-3 -4z m18422 9 l-6 -10 -10 0 -10 0 6 10 6 10 10 0 10 0 -6 -10z m-18425 -95
l0 -45 -9 0 -10 0 3 28 4 27 1 18 1 17 5 0 5 0 0 -45z m19045 -24 l-6 -11 -11
0 -10 0 12 15 13 15 4 -4 5 -5 -7 -10z m-1188 3 l-6 -6 -13 5 -13 5 19 1 19 1
-6 -6z m482 2 l-4 -3 -37 -7 -38 -7 0 11 0 10 42 0 41 0 -4 -4z m91 -12 l0
-15 -10 6 -10 6 5 10 6 9 5 0 4 0 0 -16z m437 -1 l4 -12 -28 1 -28 2 -22 -8
-23 -7 0 21 0 21 47 -3 46 -3 4 -12z m81 5 l-5 -13 -10 0 -11 0 -8 -7 -7 -8
-9 0 -8 0 0 14 0 14 13 5 12 5 18 1 19 1 -4 -12z m50 -9 l-3 -10 -10 0 -9 0
-4 10 -4 11 17 0 17 0 -4 -11z m-18998 -29 l0 -10 -10 0 -10 0 0 10 0 10 10 0
10 0 0 -10z m17310 -16 l0 -4 -25 0 -25 0 0 9 0 8 25 -5 25 -4 0 -4z m120 6
l0 -10 -52 2 -53 1 45 7 45 7 8 1 7 2 0 -10z m1007 -61 l-15 -20 -6 9 -6 10
17 31 18 31 3 -20 3 -20 -14 -21z m-18437 -13 l0 -65 -9 -5 -9 -6 -4 10 -3 10
3 60 4 60 9 0 9 0 0 -64z m17880 34 l-15 -10 -8 0 -8 0 6 10 6 10 17 0 17 0
-15 -10z m412 -25 l0 -9 -11 -4 -11 -4 0 17 0 17 11 -4 11 -3 0 -10z m673 -30
l30 -9 -23 -4 -23 -4 -25 16 -24 16 0 18 1 17 17 -21 18 -21 29 -8z m-1141 20
l-6 -15 -9 6 -9 5 5 10 6 9 9 0 9 0 -5 -15z m533 9 l-6 -6 -13 5 -13 5 19 1
19 1 -6 -6z m-917 -17 l0 -13 -12 -12 -12 -12 -7 0 -7 0 11 25 12 25 8 0 7 0
0 -13z m1585 -6 l-6 -11 -11 0 -10 0 12 15 13 15 4 -4 5 -5 -7 -10z m-1740
-31 l6 -10 -15 0 -16 0 0 10 0 10 9 0 10 0 6 -10z m72 -6 l-6 -6 -13 5 -13 5
19 1 19 1 -6 -6z m1077 -45 l-17 -19 -26 1 -26 1 34 14 33 15 6 22 6 22 4 -18
4 -18 -18 -20z m-18434 -35 l0 -35 -10 6 -10 6 0 35 0 35 10 -6 10 -6 0 -35z
m18290 20 l0 -14 -10 0 -10 0 0 4 0 4 -6 16 -6 16 16 -6 16 -6 0 -14z m65 6
l-6 -10 -22 0 -22 0 15 10 15 10 13 0 13 0 -6 -10z m486 -17 l-25 -5 -23 -15
-23 -15 0 10 0 11 18 10 17 10 30 -1 30 -1 -24 -4z m92 0 l-13 -5 -17 5 -18 5
30 0 30 0 -12 -5z m-893 -22 l0 -10 -10 -6 -10 -6 0 15 0 16 10 0 10 0 0 -9z
m-206 -11 l-9 -9 -24 -3 -24 -3 -3 10 -4 10 36 2 37 2 -9 -9z m101 -10 l-6
-10 -10 0 -9 0 0 10 0 10 16 0 15 0 -6 -10z m605 -46 l0 -15 -10 6 -10 6 5 10
6 9 5 0 4 0 0 -16z m-90 -8 l0 -5 -9 -6 -10 -5 -6 10 -6 10 15 0 16 0 0 -4z
m347 -12 l-6 -6 -13 5 -13 5 19 1 19 1 -6 -6z m132 2 l-4 -3 -27 -7 -28 -6 0
10 0 10 32 0 31 0 -4 -4z m-18929 -46 l0 -10 -10 0 -10 0 0 10 0 10 10 0 10 0
0 -10z m4 -84 l-2 -21 -1 -7 -1 -8 -10 0 -10 0 0 38 0 39 7 7 7 7 6 -17 6 -17
-2 -21z m18435 38 l-13 -16 -21 -8 -20 -8 -40 8 -40 8 51 1 52 1 12 15 12 15
10 0 10 0 -13 -16z m-559 -36 l0 -10 -16 6 -16 6 -9 0 -10 0 5 9 6 9 20 -5 20
-5 0 -10z m935 12 l-20 -9 -7 0 -8 -1 0 10 0 10 28 -1 27 0 -20 -9z m83 3
l-18 -4 -22 4 -23 4 40 0 40 1 -17 -5z m102 3 l0 -4 -35 -4 -35 -4 0 8 0 8 35
0 35 0 0 -4z m-1697 -63 l-13 -5 -17 5 -18 5 30 0 30 0 -12 -5z m60 0 l-13 -5
-12 5 -13 5 25 0 25 0 -12 -5z m77 -3 l0 -10 -9 0 -10 0 -6 10 -6 10 15 0 16
0 0 -10z m1486 -66 l-20 -14 -10 0 -11 0 25 20 25 19 5 -6 5 -5 -19 -14z m-63
-11 l-13 -5 -12 5 -13 5 25 0 25 0 -12 -5z m-953 -11 l0 -7 -20 -12 -19 -13
-6 10 -6 10 23 9 23 10 3 0 2 1 0 -8z m-630 -58 l0 -15 -10 6 -10 6 5 10 6 9
5 0 4 0 0 -16z m1566 -14 l37 0 -6 -7 -7 -7 -50 0 -50 -1 0 18 0 18 19 -11 20
-10 37 0z m204 5 l0 -15 -10 0 -10 0 0 15 0 15 10 0 10 0 0 -15z m-75 -5 l6
-10 -16 0 -16 0 6 10 6 10 4 0 4 0 6 -10z m-58 -6 l-6 -6 -13 5 -13 5 19 1 19
1 -6 -6z m-18920 -116 l-5 -13 -1 19 -1 19 6 -6 6 -6 -5 -13z m17918 12 l6
-10 -16 0 -16 0 6 10 6 10 4 0 4 0 6 -10z m903 -11 l-26 -7 -11 -7 -11 -6 0
18 0 19 38 -5 37 -4 -27 -8z m82 5 l0 -4 -27 0 -28 0 14 9 14 9 14 -5 13 -5 0
-4z m40 6 l0 -10 -16 0 -15 0 6 10 6 10 10 0 9 0 0 -10z m110 -6 l0 -15 -10 6
-10 6 0 10 0 9 10 0 10 0 0 -16z m-1160 -8 l0 -5 -10 -6 -10 -6 0 10 0 11 10
0 10 0 0 -4z m-39 -53 l-10 -18 -1 16 0 16 7 6 6 7 5 -4 4 -4 -11 -19z m596 0
l-6 -5 -11 7 -12 8 13 8 14 8 4 -10 3 -10 -5 -6z m-127 10 l-25 -5 -12 -10
-13 -10 0 16 0 16 38 -1 37 -2 -25 -4z m-490 -37 l0 -5 -10 -6 -10 -6 0 10 0
11 10 0 10 0 0 -4z m1083 -13 l7 -6 -22 -11 -21 -11 -20 -37 -19 -38 -21 0
-22 1 17 9 16 10 29 45 28 45 11 0 11 0 6 -7z m-18913 -35 l0 -22 -11 11 -11
11 6 11 7 11 5 0 4 0 0 -22z m17887 -34 l-6 -6 -13 5 -13 5 19 1 19 1 -6 -6z
m458 -3 l-10 -9 -25 -7 -25 -8 14 17 13 16 21 0 21 0 -9 -9z m-545 -15 l0 -5
-10 -6 -10 -6 0 10 0 11 10 0 10 0 0 -4z m-17800 -48 l-1 -33 -9 17 -10 16 6
16 6 16 4 0 4 0 0 -32z m17944 -52 l-6 -16 -10 6 -9 6 12 14 12 14 4 -3 3 -4
-6 -17z m911 3 l9 -9 -47 0 -47 0 0 14 0 15 38 -6 37 -6 10 -8z m187 -1 l-12
-12 -7 8 -7 7 14 9 14 9 5 -5 5 -4 -12 -12z m-32 2 l0 -10 -64 0 -65 0 -5 8
-5 9 69 1 70 2 0 -10z m-19005 -134 l0 -79 -10 -4 -10 -3 1 73 2 72 2 40 2 40
7 -30 6 -30 0 -79z m18435 120 l0 -5 -10 -6 -10 -6 0 10 0 11 10 0 10 0 0 -4z
m-613 -22 l-6 -6 -13 5 -13 5 19 1 19 1 -6 -6z m68 -4 l-20 -9 -7 0 -8 -1 0
10 0 10 28 -1 27 0 -20 -9z m432 4 l-6 -6 -13 5 -13 5 19 1 19 1 -6 -6z m43
-4 l0 -10 -10 0 -10 0 0 10 0 10 10 0 10 0 0 -10z m581 -63 l-11 -11 -5 6 -6
5 13 29 12 29 4 -24 4 -23 -11 -11z m-140 -18 l-24 -10 -11 11 -10 10 35 -1
34 0 -24 -10z m72 4 l-13 -5 -17 5 -18 5 30 0 30 0 -12 -5z m-72 -119 l-21
-27 0 -18 0 -18 -10 -6 -10 -6 0 32 0 32 17 19 16 18 14 0 14 0 -20 -26z
m-939 1 l14 -6 -4 -29 -4 -30 -14 0 -14 0 6 26 7 26 -47 -3 -46 -4 0 7 0 7 38
4 37 4 7 1 6 2 14 -5z m133 -5 l20 -9 -38 0 -38 -1 6 10 6 10 12 -1 12 0 20
-9z m455 -25 l0 -15 -52 2 -53 1 35 4 35 4 10 10 9 9 8 0 8 0 0 -15z m-131 -9
l-4 -3 -27 -7 -28 -6 0 10 0 10 32 0 31 0 -4 -4z m-18332 -48 l-5 -13 0 25 0
25 5 -12 5 -13 -5 -12z m18928 -8 l-6 -10 -15 0 -14 0 0 10 0 10 21 0 20 0 -6
-10z m-1125 -15 l-13 -15 -4 4 -5 5 7 10 6 11 11 0 10 0 -12 -15z m736 -72
l-6 -6 -6 6 -6 6 8 12 8 13 4 -13 4 -12 -6 -6z m-196 7 l0 -10 -30 0 -30 0 0
10 0 10 30 0 30 0 0 -10z m110 -5 l0 -15 -15 0 -15 0 0 15 0 15 15 0 15 0 0
-15z m336 -43 l-16 -16 0 33 0 32 16 -16 17 -16 -17 -17z m164 16 l0 -18 -14
0 -15 0 -7 11 -7 11 -43 -6 -43 -5 -6 8 -5 9 17 4 18 3 53 0 52 0 0 -17z
m-1010 -23 l0 -15 -15 0 -15 0 0 9 0 9 13 5 12 5 3 1 2 1 0 -15z m-74 -8 l7
-7 -51 0 -52 0 0 8 0 7 44 0 45 0 7 -8z m580 -45 l-16 -16 -6 7 -7 7 19 21 18
21 4 -12 4 -12 -16 -16z m514 12 l0 -14 -15 0 -15 0 0 4 0 4 6 16 6 16 9 -6 9
-5 0 -15z m-18954 -66 l3 -73 -5 -19 -6 -19 -7 11 -6 10 3 87 4 87 5 -6 6 -6
3 -72z m18284 47 l0 -15 -10 0 -10 0 0 15 0 15 10 0 10 0 0 -15z m2527 -7 l-5
-13 -1 19 -1 19 6 -6 6 -6 -5 -13z m-2430 6 l-6 -6 -13 5 -13 5 19 1 19 1 -6
-6z m-442 -54 l6 -10 -9 -16 -9 -15 -12 15 -13 15 7 11 6 10 9 0 9 0 6 -10z
m948 -24 l-28 -35 -7 0 -8 -1 0 9 0 8 21 27 20 26 16 0 15 0 -29 -34z m-1108
14 l6 -10 -10 0 -11 0 0 10 0 10 4 0 5 0 6 -10z m65 0 l0 -10 -15 0 -15 0 0
10 0 10 15 0 15 0 0 -10z m35 0 l6 -10 -10 0 -11 0 0 10 0 10 4 0 5 0 6 -10z
m428 -46 l-12 -5 -12 -36 -11 -35 -10 10 -10 10 18 31 18 31 16 -1 15 -1 -12
-4z m647 -24 l0 -10 -11 0 -10 0 6 10 6 10 5 0 4 0 0 -10z m-1013 -25 l-6 -15
-11 0 -10 0 12 20 12 19 4 -4 4 -4 -5 -16z m-17938 -52 l0 -38 -8 -20 -8 -20
-4 53 -4 54 4 4 4 4 9 0 8 0 -1 -37z m17839 30 l-18 -4 -17 4 -18 5 35 0 35 0
-17 -5z m-28 -103 l0 -10 -11 0 -10 0 6 10 6 10 5 0 4 0 0 -10z m-17819 -67
l-10 -18 -1 27 0 26 8 19 7 18 3 -27 3 -27 -10 -18z m17793 42 l-6 -15 -4 0
-4 0 0 15 0 15 10 0 9 0 -5 -15z m913 -42 l-15 -18 -5 -35 -4 -35 -1 47 -2 46
13 5 12 5 9 1 9 1 -16 -17z m75 -72 l-4 -61 -10 0 -11 0 7 38 6 37 0 28 0 28
8 -4 7 -5 -3 -61z m121 62 l-13 -5 -12 5 -13 5 25 0 25 0 -12 -5z m-43 -7 l0
-5 -10 -6 -10 -6 0 10 0 11 10 0 10 0 0 -4z m-890 -41 l12 -15 -26 0 -26 0 0
15 0 15 14 0 14 0 12 -15z m70 0 l0 -15 -15 0 -15 0 0 9 0 9 13 5 12 5 3 1 2
1 0 -15z m-253 -17 l-5 -13 -1 19 -1 19 6 -6 6 -6 -5 -13z m663 -24 l0 -15
-10 6 -10 6 5 10 6 9 5 0 4 0 0 -16z m500 -14 l0 -9 -30 1 -30 1 0 4 0 4 23 8
22 9 8 -5 7 -4 0 -9z m-18941 -157 l2 -133 -10 0 -10 0 0 148 -1 147 9 -14 9
-14 1 -134z m18361 147 l0 -10 -11 0 -10 0 6 10 6 10 5 0 4 0 0 -10z m-43 -37
l-5 -5 -24 8 -23 8 25 6 25 6 4 -8 3 -9 -5 -6z m-286 -16 l-1 -7 -5 0 -5 0
-17 0 -18 0 15 10 15 10 8 -3 9 -2 -1 -8z m-86 -3 l-30 -4 -73 -2 -72 -3 0 8
0 7 103 -2 102 -1 -30 -3z m495 -19 l0 -15 -15 0 -16 0 13 15 13 14 3 1 2 0 0
-15z m-50 -15 l0 -11 -15 -6 -16 -5 -5 5 -6 6 7 10 6 11 15 0 14 0 0 -10z
m454 -10 l72 0 12 12 12 12 0 -9 0 -10 -9 -13 -8 -13 -72 2 -73 2 -9 -14 -9
-14 1 35 1 35 5 -12 5 -13 72 0z m-531 -41 l-11 -11 -13 8 -13 7 20 7 19 7 4
-3 5 -4 -11 -11z m-633 -30 l0 -9 -10 0 -10 0 0 16 0 15 10 -6 10 -6 0 -10z
m250 1 l0 -10 -27 1 -28 1 25 8 25 8 3 1 2 1 0 -10z m1020 -5 l0 -15 -10 0
-10 0 0 15 0 15 10 0 10 0 0 -15z m-1144 -62 l-5 -5 -18 7 -18 7 20 8 20 7 4
-9 3 -9 -6 -6z m994 -13 l-15 -10 -8 0 -8 0 6 10 6 10 17 0 17 0 -15 -10z
m-360 -30 l0 -10 -11 0 -10 0 6 10 6 10 5 0 4 0 0 -10z m-57 -17 l-13 -5 -12
5 -13 5 25 0 25 0 -12 -5z m-18383 -128 l0 -104 -9 -6 -10 -5 -3 92 -3 93 3
23 3 22 10 -5 9 -6 0 -104z m18442 53 l-12 -12 0 24 0 24 12 -12 12 -12 -12
-12z m486 18 l5 -6 -34 -1 -34 -1 -32 -3 -32 -3 -15 -5 -15 -6 -6 9 -5 9 14 8
15 8 66 -2 67 -2 6 -5z m-488 -80 l0 -14 -20 -5 -20 -5 -6 9 -5 9 20 0 21 0 0
10 0 10 5 0 5 0 0 -14z m96 -23 l-6 -6 -6 6 -6 6 8 12 8 13 4 -13 4 -12 -6 -6z
m-236 7 l0 -10 -15 0 -15 0 0 10 0 10 15 0 15 0 0 -10z m80 0 l0 -10 -4 0 -5
0 -6 10 -6 10 10 0 11 0 0 -10z m579 -36 l-12 -14 -13 11 -14 12 11 13 12 14
13 -11 14 -12 -11 -13z m-1134 -5 l40 -1 -35 -9 -35 -8 -17 5 -18 5 0 17 0 16
12 -12 12 -12 41 -1z m109 -21 l-4 -6 -25 11 -25 12 20 3 20 3 1 12 0 12 8
-20 8 -20 -3 -7z m915 38 l-4 -3 -38 -7 -39 -7 7 10 6 11 36 0 36 0 -4 -4z
m44 -3 l-13 -5 -12 5 -13 5 25 0 25 0 -12 -5z m1662 -13 l6 -10 -10 0 -11 0 0
10 0 10 4 0 5 0 6 -10z m-2615 -76 l0 -14 -10 0 -10 0 0 21 0 20 10 -6 10 -6
0 -15z m526 15 l6 -11 -11 -11 -11 -11 -11 11 -11 11 6 11 7 11 9 0 9 0 7 -11z
m-18476 -453 l-10 -10 0 225 0 226 8 7 7 8 3 -223 2 -223 -10 -10z m18350 435
l-55 -6 -12 -8 -13 -8 0 9 0 9 7 6 6 7 61 -1 61 -2 -55 -6z m544 -17 l16 -6
-6 -10 -6 -9 -14 12 -14 11 -32 -19 -33 -19 -12 -34 -11 -35 -7 18 -7 17 6 25
6 25 33 14 32 14 17 1 16 1 16 -6z m-999 -44 l6 -10 -8 0 -8 0 -15 10 -15 10
17 0 17 0 6 -10z m-87 -27 l-15 -18 -8 -20 -9 -20 -4 24 -4 25 18 13 18 13 9
0 10 0 -15 -17z m557 -48 l10 -3 -47 -1 -48 -1 0 8 0 8 38 -4 37 -3 10 -4z
m85 5 l0 -10 -22 0 -23 0 15 10 15 10 8 0 7 0 0 -10z m100 0 l0 -10 -10 0 -10
0 0 10 0 10 10 0 10 0 0 -10z m390 -9 l0 -9 -16 -6 -16 -6 -4 0 -4 0 0 15 0
15 20 0 20 0 0 -9z m-1009 -41 l-23 -20 -9 6 -9 5 0 9 0 9 23 4 22 4 10 1 10
1 -24 -19z m387 -69 l-13 -4 -17 -9 -18 -9 0 25 0 24 30 -11 31 -12 -13 -4z
m132 -2 l0 -20 -7 4 -8 4 -20 7 -19 7 14 9 15 10 13 0 12 0 0 -21z m429 -3
l-4 -3 -47 -5 -48 -6 6 9 5 9 46 0 46 0 -4 -4z m48 -2 l-6 -6 -13 5 -13 5 19
1 19 1 -6 -6z m82 2 l-4 -3 -27 -7 -28 -6 0 10 0 10 32 0 31 0 -4 -4z m-553
-91 l-5 -15 -18 0 -18 1 18 10 17 10 1 17 1 17 5 -13 5 -13 -6 -14z m-162 -27
l-6 -10 -9 13 -9 14 0 9 0 8 15 -12 15 -12 -6 -10z m121 12 l6 -10 -15 0 -16
0 0 10 0 10 9 0 10 0 6 -10z m545 -15 l0 -15 -82 1 -83 2 45 7 45 8 21 -5 22
-5 6 11 7 11 10 0 9 0 0 -15z m-1140 -4 l0 -9 -20 -5 -20 -5 0 14 0 14 20 0
20 0 0 -9z m88 -8 l-18 -4 -22 4 -23 4 40 0 40 1 -17 -5z m879 -35 l-5 -13 -1
19 -1 19 6 -6 6 -6 -5 -13z m-18779 -242 l0 -203 -9 -14 -9 -14 -1 35 -1 35 0
115 0 115 1 73 1 73 9 -5 9 -6 0 -204z m18287 194 l-6 -10 -3 -50 -2 -50 -13
-12 -14 -13 7 34 6 34 0 38 0 39 16 0 15 0 -6 -10z m105 0 l-15 -10 -13 0 -13
0 6 10 6 10 22 0 22 0 -15 -10z m-537 -7 l-13 -5 -12 5 -13 5 25 0 25 0 -12
-5z m47 -3 l0 -9 -15 5 -15 6 0 4 0 4 15 0 15 0 0 -10z m-112 -31 l-23 -30 -3
11 -4 11 18 20 17 19 9 0 9 0 -23 -31z m1053 21 l30 0 -6 -10 -6 -10 -45 0
-44 0 0 8 0 9 7 7 7 7 14 -6 14 -5 29 0z m94 -10 l-6 -10 -20 0 -19 0 0 10 0
10 26 0 25 0 -6 -10z m-495 -75 l0 -25 -20 12 -20 13 0 7 0 7 18 4 17 5 3 1 2
1 0 -25z m-490 -36 l0 -9 -52 2 -53 1 35 4 35 4 9 9 9 9 9 -5 8 -5 0 -10z
m1091 -2 l-11 -11 -6 7 -6 6 7 10 6 11 11 -6 10 -6 -11 -11z m-1243 -8 l-13
-9 -7 0 -8 0 0 14 0 14 21 -5 21 -6 -14 -8z m232 11 l0 -10 -27 0 -28 0 15 10
15 10 13 0 12 0 0 -10z m863 -1 l92 -2 -25 -3 -25 -3 -82 -3 -83 -3 0 13 0 14
16 -6 16 -6 91 -1z m0 -109 l87 0 0 -9 0 -10 -90 0 -90 0 -11 -7 -11 -7 -9 14
-9 14 0 9 0 8 23 -6 22 -6 88 0z m147 -5 l0 -15 -15 0 -15 0 0 9 0 9 13 5 12
5 3 1 2 1 0 -15z m-645 -75 l6 -10 -46 0 -46 0 6 10 6 10 34 0 34 0 6 -10z
m-437 -27 l17 -16 -49 6 -49 7 -21 2 -21 1 50 7 50 7 3 1 3 2 17 -17z m732
-19 l0 -25 -10 6 -10 6 0 20 0 19 10 0 10 0 0 -26z m260 11 l0 -15 -7 0 -8 0
-25 -6 -25 -6 24 21 23 21 9 0 9 0 0 -15z m-1150 1 l0 -4 -15 -6 -15 -5 0 9 0
10 15 0 15 0 0 -4z m1037 -51 l-37 -26 -12 7 -11 7 34 17 34 18 15 1 15 1 -38
-25z m-437 -59 l0 -5 -10 -6 -10 -6 0 10 0 11 10 0 10 0 0 -4z m-465 -26 l6
-10 -10 0 -10 0 -6 10 -6 10 10 0 10 0 6 -10z m-17940 -160 l-2 -45 -2 -10 -2
-10 -9 22 -9 22 6 53 6 52 7 -20 7 -19 -2 -45z m17790 51 l5 -10 -10 -6 -10
-6 0 15 0 16 4 0 5 0 6 -9z m761 -48 l-6 -6 -6 6 -6 6 8 12 8 13 4 -13 4 -12
-6 -6z m274 -33 l15 -10 -28 0 -28 0 6 10 6 10 7 0 7 0 15 -10z m120 -10 l0
-9 -15 5 -15 6 0 4 0 4 15 0 15 0 0 -10z m-1000 -28 l0 -19 -6 -6 -6 -6 -13
12 -13 12 10 13 10 12 9 0 9 0 0 -18z m-130 -2 l15 -10 -32 0 -33 0 0 10 0 10
18 0 17 0 15 -10z m140 -72 l0 -8 -10 0 -10 0 0 23 0 22 10 -15 10 -15 0 -7z
m900 3 l0 -9 -37 -4 -38 -5 -4 3 -3 3 7 10 6 11 35 0 34 0 0 -9z m80 -3 l0 -8
-29 0 -30 0 -5 9 -6 9 35 -1 35 -1 0 -8z m-460 -53 l12 -15 -31 0 -31 0 0 9 0
9 13 5 12 5 6 1 7 1 12 -15z m-120 -5 l0 -10 -36 0 -35 0 6 10 6 10 30 0 29 0
0 -10z m-497 -7 l-13 -5 -12 5 -13 5 25 0 25 0 -12 -5z m47 -3 l0 -9 -15 5
-15 6 0 4 0 4 15 0 15 0 0 -10z m-17910 -47 l0 -37 -9 10 -9 9 5 28 5 27 4 0
4 0 0 -37z m18915 26 l7 -10 -24 2 -23 2 -22 -1 -22 -2 -15 -16 -16 -15 0 -25
0 -24 -10 0 -10 0 0 25 0 26 18 18 17 18 15 6 15 5 32 1 32 1 6 -11z m-18915
-149 l0 -70 -7 0 -8 0 2 67 2 68 1 3 0 2 5 0 5 0 0 -70z m18460 35 l-12 -15
-21 11 -20 11 -46 -5 -46 -5 -17 -7 -18 -7 0 18 0 19 96 -3 95 -3 -11 -14z
m90 15 l0 -10 -27 0 -28 0 15 10 15 10 13 0 12 0 0 -10z m410 -10 l-11 -20 -9
0 -10 0 0 14 0 14 13 5 12 5 8 1 8 1 -11 -20z m-1039 -10 l-23 -20 -17 1 -16
1 -25 8 -25 8 47 1 47 1 6 10 6 10 12 0 12 -1 -24 -19z m549 -64 l0 -5 -10 -6
-10 -6 0 10 0 11 10 0 10 0 0 -4z m356 -21 l19 -14 -17 -1 -16 0 -16 -6 -16
-6 0 21 0 21 13 0 13 0 20 -15z m119 6 l19 -8 -33 -6 -33 -7 -5 -17 -5 -18
-48 -37 -48 -37 -6 15 -5 14 34 14 33 14 12 23 12 22 -18 11 -19 11 40 6 40 6
5 1 5 1 20 -8z m105 0 l0 -9 -18 -4 -17 -5 -20 7 -20 8 30 4 30 5 8 2 7 1 0
-9z m-605 -20 l-6 -11 -27 1 -27 1 30 13 30 13 4 -3 3 -4 -7 -10z m-499 -2 l5
-9 -68 1 -68 0 20 8 20 8 42 1 43 0 6 -9z m386 1 l21 0 -4 -4 -4 -3 -32 -6
-33 -6 0 15 0 16 16 -6 16 -6 20 0z m-546 -41 l-16 -23 0 25 0 26 7 6 7 7 9
-9 9 -9 -16 -23z m-17786 -1 l0 -31 -7 6 -6 7 -3 25 -3 25 10 0 9 0 0 -32z
m18317 -74 l-6 -6 -13 5 -13 5 19 1 19 1 -6 -6z m-18317 -164 l0 -10 -10 0
-10 0 0 10 0 10 10 0 10 0 0 -10z m18970 -25 l0 -15 -10 0 -10 0 0 15 0 15 10
0 10 0 0 -15z m-1017 -29 l-8 -15 -15 9 -15 9 20 15 20 15 3 -9 3 -9 -8 -15z
m-60 7 l-13 -5 -12 5 -13 5 25 0 25 0 -12 -5z m912 -2 l5 -10 -9 -5 -9 -6 -6
15 -5 15 9 0 9 0 6 -9z m140 -1 l-6 -10 -15 0 -15 0 6 10 6 10 15 0 15 0 -6
-10z m-62 -7 l-13 -5 -12 5 -13 5 25 0 25 0 -12 -5z m-18883 -140 l0 -118 -9
13 -8 13 0 105 -1 104 9 0 9 0 0 -117z m20817 95 l-5 -13 -1 19 -1 19 6 -6 6
-6 -5 -13z m-1912 -38 l6 -10 -30 0 -30 0 -25 -10 -26 -10 0 9 0 8 23 11 22
11 27 0 27 1 6 -10z m-1075 -21 l25 -1 -30 -7 -30 -7 -7 3 -8 4 0 17 0 16 12
-12 12 -12 26 -1z m150 2 l0 -9 -20 -5 -20 -5 -22 6 -23 7 40 6 40 6 3 2 2 1
0 -9z m70 -1 l0 -10 -22 0 -23 0 15 10 15 10 8 0 7 0 0 -10z m-97 -111 l-9 -9
-34 -5 -35 -6 38 21 37 20 1 18 2 17 4 -24 5 -23 -9 -9z m382 32 l20 -8 -33
-5 -32 -5 0 7 0 7 7 6 6 7 6 -1 6 0 20 -8z m220 -1 l-6 -10 -15 0 -14 0 0 10
0 10 21 0 20 0 -6 -10z m-85 -10 l0 -10 -14 0 -15 0 -6 10 -6 10 20 0 21 0 0
-10z m-660 -30 l0 -8 -15 -6 -15 -5 0 19 0 19 15 -5 15 -6 0 -8z m1145 10 l-6
-10 -10 0 -10 0 6 10 6 10 10 0 10 0 -6 -10z m-1090 -10 l6 -10 -15 0 -16 0 0
10 0 10 9 0 10 0 6 -10z m1040 -4 l25 6 0 -10 0 -10 -25 -4 -25 -5 -40 10 -40
11 0 7 0 7 40 -9 41 -9 24 6z m-435 -40 l0 -13 -25 -27 -24 -26 -16 0 -15 0 0
10 0 10 15 0 14 0 23 30 22 30 3 0 3 0 0 -14z m500 -44 l0 -9 -6 -6 -7 -6 -9
5 -8 5 5 10 6 9 10 0 9 0 0 -8z m-595 -12 l6 -10 -13 1 -13 0 -20 9 -20 9 27
0 27 1 6 -10z m545 -9 l0 -9 -37 -13 -38 -12 -12 -9 -12 -10 -13 5 -13 4 40
18 40 17 15 9 15 8 8 0 7 1 0 -9z m2760 -41 l0 -10 -10 0 -10 0 0 10 0 10 10
0 10 0 0 -10z m-21689 -2 l1 -3 5 -87 5 -88 -11 0 -11 0 -1 23 -1 22 -2 68 -1
67 7 0 8 0 1 -2z m18384 -18 l6 -10 -13 0 -13 0 -25 -6 -25 -5 25 15 25 15 7
1 7 0 6 -10z m593 -31 l-3 -21 -42 -3 -43 -3 0 9 0 9 23 0 23 0 20 15 19 14 3
1 3 0 -3 -21z m-995 -14 l6 -14 -8 -5 -8 -5 -21 6 -22 5 0 8 0 9 18 4 17 5 6
1 7 1 5 -15z m-174 -22 l-13 -18 -3 -4 -3 -4 0 21 0 22 16 0 16 0 -13 -17z
m78 11 l-6 -6 -13 5 -13 5 19 1 19 1 -6 -6z m977 -32 l-17 -21 -21 11 -21 11
35 12 35 12 3 -2 3 -3 -17 -20z m-430 -66 l-6 -15 -14 6 -14 5 6 9 5 9 14 0
14 0 -5 -14z m-54 0 l0 -5 -9 -6 -10 -5 -6 10 -6 10 15 0 16 0 0 -4z m-310
-31 l0 -15 -15 0 -15 0 0 8 0 9 7 6 6 7 9 0 8 0 0 -15z m-182 -10 l5 -5 -46 0
-47 0 0 9 0 9 42 -4 41 -4 5 -5z m132 5 l5 -3 -35 -6 -35 -6 -22 3 -23 4 4 7
4 7 49 -2 48 -1 5 -3z m790 -50 l0 -20 -9 0 -9 0 5 20 5 20 4 0 4 0 0 -20z
m-18800 -35 l0 -34 -9 -5 -9 -6 -5 13 -4 12 4 32 5 33 9 -6 9 -5 0 -34z
m18320 29 l0 -5 -15 -15 -15 -15 0 14 0 14 7 6 6 7 9 0 8 0 0 -6z m-355 -34
l6 -9 -30 -16 -30 -15 -8 0 -8 0 30 25 30 24 2 1 2 0 6 -10z m-156 -41 l-14
-9 -7 0 -8 0 0 20 0 21 21 -12 22 -11 -14 -9z m71 11 l15 -10 -22 0 -23 0 0
10 0 10 8 0 7 0 15 -10z m981 -28 l-15 -5 -23 -23 -23 -23 0 -28 0 -27 -12 12
-11 11 13 40 12 39 32 9 31 10 5 -5 5 -5 -14 -5z m-18874 -54 l-5 -13 0 25 0
25 5 -12 5 -13 -5 -12z m18433 12 l-15 -10 -30 1 -30 1 -25 8 -25 8 70 1 70 1
-15 -10z m-592 -33 l-26 -22 -10 -35 -10 -35 -1 37 -1 37 26 20 27 21 11 0 11
-1 -27 -22z m1112 -36 l0 -10 -11 -6 -10 -7 -6 5 -5 6 7 10 6 11 10 0 9 0 0
-9z m-623 -43 l-12 -8 -7 0 -8 0 0 20 0 20 20 -12 19 -12 -12 -8z m243 23 l0
-10 -11 -6 -10 -7 -6 5 -5 6 7 10 6 11 10 0 9 0 0 -9z m-95 -11 l-7 -11 -18 6
-18 6 -16 -16 -16 -16 0 -14 0 -13 -20 -5 -20 -5 0 4 0 4 13 21 12 22 -12 4
-13 5 0 6 0 7 61 3 61 3 -7 -11z m430 -60 l-6 -10 -22 0 -23 0 -22 -16 -22
-15 0 15 0 14 28 10 27 10 23 1 23 1 -6 -10z m-576 -42 l-24 -23 -3 14 -4 14
14 8 13 9 14 0 14 0 -24 -22z m-18328 -81 l-11 -11 1 50 1 49 10 -38 10 -39
-11 -11z m18805 46 l-6 -6 -6 6 -6 6 8 12 8 13 4 -13 4 -12 -6 -6z m34 -63 l0
-8 -14 -5 -14 -6 -5 14 -6 13 6 5 5 6 14 -6 14 -5 0 -8z m228 5 l-5 -6 -65 -4
-64 -5 -45 9 -44 9 114 1 114 1 -5 -5z m-19071 -37 l-5 -13 -1 19 -1 19 6 -6
6 -6 -5 -13z m17911 5 l-18 -4 -22 4 -23 4 40 0 40 1 -17 -5z m404 -25 l-12
-12 0 24 0 24 12 -12 12 -12 -12 -12z m-486 -7 l-28 -29 7 -22 7 -23 -11 7
-11 7 0 26 0 26 22 18 21 19 10 0 11 0 -28 -29z m-18341 -31 l18 -20 -7 0 -7
0 -20 10 -19 11 0 9 0 10 8 0 9 0 18 -20z m19248 -5 l-22 -15 -4 -23 -4 -22
-2 26 -1 25 12 12 12 12 15 0 15 0 -21 -15z m-18725 -70 l4 -65 -11 0 -10 0
-6 43 -5 42 4 20 4 20 1 9 1 9 7 -6 7 -7 4 -65z m18809 43 l-6 -33 -6 -42 -7
-43 -14 0 -15 0 10 18 9 17 3 50 2 50 4 8 4 7 11 0 10 0 -5 -32z m88 12 l-6
-10 -22 1 -22 0 20 9 20 9 8 0 8 1 -6 -10z m-19353 -22 l31 -21 -18 -13 -17
-13 4 -48 3 -48 -22 -3 -23 -3 0 10 0 11 10 0 10 0 0 63 0 63 -12 12 -12 12 8
0 8 0 30 -22z m75 -44 l-6 -6 -13 5 -13 5 19 1 19 1 -6 -6z m33 -19 l12 -15
-10 0 -10 0 -12 15 -12 15 10 0 10 0 12 -15z m19320 -9 l0 -24 -31 11 -30 12
28 12 28 12 3 1 2 0 0 -24z m-1107 -13 l-13 -5 -12 5 -13 5 25 0 25 0 -12 -5z
m-18173 -16 l0 -13 -46 -12 -47 -13 -4 5 -5 5 44 20 43 20 8 1 7 0 0 -13z
m18130 3 l0 -10 -11 0 -10 0 6 10 6 10 5 0 4 0 0 -10z m740 -52 l0 -23 -10 15
-10 15 0 8 0 7 10 0 10 0 0 -22z m-19100 2 l0 -10 -11 0 -10 0 6 10 6 10 5 0
4 0 0 -10z m540 1 l0 -8 -6 -32 -6 -31 -8 0 -7 0 3 38 2 37 1 3 1 2 10 0 10 0
0 -9z m18916 -18 l-7 -7 -32 2 -33 3 -16 -18 -15 -18 -7 -28 -7 -28 -10 6 -10
7 7 21 7 22 15 23 14 22 51 0 50 0 -7 -7z m-19383 -60 l-23 -4 -22 4 -23 4 45
0 45 0 -22 -4z m18355 -2 l14 -8 -23 -6 -22 -6 -10 6 -9 6 13 8 14 9 5 0 5 0
13 -9z m42 5 l0 -5 -10 -6 -10 -6 0 10 0 11 10 0 10 0 0 -4z m415 -27 l-20 -8
-22 0 -22 -1 5 13 5 13 37 -4 37 -5 -20 -8z m215 11 l0 -11 -15 -6 -16 -5 -7
6 -6 7 14 9 15 10 8 0 7 0 0 -10z m-18955 -10 l6 -10 -15 0 -16 0 0 10 0 10 9
0 10 0 6 -10z m18820 4 l17 -7 -11 -7 -11 -6 -33 4 -32 5 20 8 20 8 7 0 6 1
17 -6z m52 -10 l-6 -6 -13 5 -13 5 19 1 19 1 -6 -6z m-19018 -59 l0 -10 -14
19 -14 19 6 10 6 11 8 -20 8 -19 0 -10z m171 3 l0 -31 -17 -19 -16 -18 -10 0
-9 0 16 25 16 24 0 31 0 31 10 -6 10 -6 0 -31z m19309 33 l13 -8 -11 -7 -11
-7 -10 6 -10 6 0 10 0 9 8 0 7 0 14 -9z m-18952 -33 l-5 -13 -1 19 -1 19 6 -6
6 -6 -5 -13z m17966 -28 l-5 -20 -15 11 -14 12 13 8 13 9 7 0 6 0 -5 -20z
m-148 0 l-6 -10 -10 0 -10 0 6 10 6 10 10 0 10 0 -6 -10z m5005 -21 l0 -9 -15
0 -15 0 0 8 0 9 6 6 7 6 8 -5 9 -5 0 -10z m-4250 -9 l0 -10 -16 0 -15 0 6 10
6 10 10 0 9 0 0 -10z m-594 -57 l-6 -6 -6 6 -6 6 7 18 8 18 4 -18 5 -19 -6 -5z
m-18479 11 l-6 -6 -13 5 -13 5 19 1 19 1 -6 -6z m93 -15 l15 -1 -29 -8 -29 -9
-9 5 -8 5 0 11 0 10 23 -6 22 -6 15 -1z m407 -21 l-5 -13 -1 19 -1 19 6 -6 6
-6 -5 -13z m17813 18 l0 -5 -10 -6 -10 -6 0 10 0 11 10 0 10 0 0 -4z m768 -14
l4 -12 -16 6 -16 6 0 10 0 10 12 -4 12 -4 4 -12z m-18883 -2 l6 -10 -15 0 -16
0 0 10 0 10 9 0 10 0 6 -10z m18150 0 l-6 -9 -14 6 -15 5 0 4 0 4 21 0 20 0
-6 -10z m105 0 l0 -10 -4 0 -5 0 -6 10 -6 10 10 0 11 0 0 -10z m384 4 l16 -6
-6 -9 -5 -9 -20 0 -19 0 0 15 0 15 9 0 9 0 16 -6z m51 -4 l6 -10 -15 0 -16 0
0 10 0 10 9 0 10 0 6 -10z m65 -6 l0 -4 -15 0 -15 0 0 10 0 9 15 -5 15 -6 0
-4z m60 6 l0 -10 -10 0 -10 0 0 10 0 10 10 0 10 0 0 -10z m-35 -10 l6 -10 -16
0 -16 0 6 10 6 10 4 0 4 0 6 -10z m-18895 -32 l0 -8 -37 1 -38 1 15 5 15 6 14
14 14 14 8 -13 9 -13 0 -7z m430 -62 l0 -55 -9 -5 -9 -6 -6 15 -6 15 7 45 6
45 8 0 9 0 0 -54z m-520 34 l0 -10 -21 0 -20 0 6 10 6 10 15 0 14 0 0 -10z
m19000 -10 l0 -20 -9 0 -9 0 5 20 5 20 4 0 4 0 0 -20z m504 4 l6 -17 -4 -4 -4
-5 -22 7 -21 7 12 14 11 14 8 0 8 0 6 -16z m-115 -14 l-56 -7 -12 -7 -11 -7 0
9 0 9 7 6 6 7 61 -1 61 -2 -56 -7z m-1012 -24 l6 -6 -41 0 -42 0 0 14 0 14 36
-8 36 -8 5 -6z m88 4 l-6 -10 -30 0 -30 0 6 10 6 10 30 0 30 0 -6 -10z m510 0
l-6 -10 -17 0 -17 0 15 10 15 10 8 0 8 0 -6 -10z m-151 -15 l-6 -15 -4 0 -4 0
0 15 0 15 10 0 9 0 -5 -15z m99 8 l-13 -5 -17 5 -18 5 30 0 30 0 -12 -5z
m-18938 -23 l6 -10 -10 0 -11 0 0 10 0 10 4 0 5 0 6 -10z m37 -22 l-12 -12
-12 12 -12 12 24 0 24 0 -12 -12z m114 -11 l2 -2 6 -50 7 -50 -13 -17 -13 -18
-25 7 -25 7 25 6 25 6 0 44 0 45 -35 18 -35 19 40 -7 40 -7 1 -1z m379 -36 l5
-10 -10 -6 -10 -6 0 15 0 16 4 0 5 0 6 -9z m17873 -11 l82 5 0 -11 0 -12 -67
2 -68 1 -10 -4 -10 -3 -52 1 -53 1 0 13 0 13 48 -6 47 -5 83 5z m477 -2 l-20
-10 -12 -16 -13 -16 0 -30 -1 -31 -9 17 -10 16 10 29 11 28 16 13 17 12 15 0
16 -1 -20 -11z m85 2 l0 -10 -9 0 -10 0 -6 10 -6 10 15 0 16 0 0 -10z m630 -2
l0 -8 -42 -2 -43 -1 -85 -1 -85 -1 -8 3 -7 3 4 8 5 7 130 0 131 -1 0 -7z
m-19557 -65 l-13 -5 -12 5 -13 5 25 0 25 0 -12 -5z m47 -3 l0 -10 -16 0 -15 0
6 10 6 10 10 0 9 0 0 -10z m446 -53 l2 -42 1 -144 2 -144 -10 -10 -9 -9 -4
194 -4 193 4 8 4 8 7 -6 6 -7 1 -41z m17958 2 l-17 -19 -8 0 -8 0 22 34 22 33
3 -14 4 -14 -18 -20z m1026 27 l0 -14 -13 -10 -12 -11 -80 -2 -79 -2 -3 10 -4
11 70 -4 71 -4 17 19 18 19 8 1 7 1 0 -14z m-540 -27 l0 -9 -15 0 -15 0 0 15
0 14 15 -5 15 -6 0 -9z m-18928 -29 l-44 -7 -9 -14 -9 -14 5 -32 6 -33 -9 0
-10 0 -6 16 -6 16 0 23 0 24 22 15 22 16 41 -1 40 -2 -43 -7z m18388 0 l0 -10
-20 0 -20 0 0 10 0 10 20 0 20 0 0 -10z m-18323 -6 l-6 -6 -13 5 -13 5 19 1
19 1 -6 -6z m48 -47 l6 -23 -4 -30 -4 -29 -19 -4 -18 -3 13 16 13 16 -4 40 -4
40 8 0 8 0 5 -23z m18585 -14 l-1 -28 -10 18 -10 17 6 10 6 10 5 0 4 0 0 -27z
m254 4 l-4 -13 -25 -2 -25 -2 0 5 0 6 23 9 22 9 7 0 7 1 -5 -13z m426 9 l0 -5
-10 -6 -10 -6 0 10 0 11 10 0 10 0 0 -4z m-59 -32 l-21 -27 0 -31 0 -31 -10
15 -10 15 0 20 0 21 16 22 15 22 15 0 15 0 -20 -26z m102 19 l-13 -5 -12 5
-13 5 25 0 25 0 -12 -5z m-873 -25 l0 -8 -141 0 -140 0 4 8 5 7 136 0 136 0 0
-7z m280 -23 l-12 -15 -22 0 -21 1 25 14 25 14 9 1 8 0 -12 -15z m-18767 -32
l-13 -5 -12 5 -13 5 25 0 25 0 -12 -5z m19377 -33 l0 -10 -15 0 -15 0 0 10 0
10 15 0 15 0 0 -10z m-1090 -7 l-15 -6 -22 -20 -23 -20 0 -29 0 -29 -10 6 -10
6 0 21 0 20 17 29 17 29 31 -1 30 -1 -15 -5z m80 3 l0 -4 -20 -5 -20 -5 -6 9
-5 9 25 0 26 0 0 -4z m-18335 -36 l6 -10 -15 0 -16 0 0 10 0 10 9 0 10 0 6
-10z m-95 -26 l0 -26 -16 6 -16 6 -4 0 -5 0 7 11 7 11 -22 -7 -21 -6 0 9 0 9
5 4 4 5 31 2 30 2 0 -26z m47 20 l-6 -6 -13 5 -13 5 19 1 19 1 -6 -6z m31 -75
l30 -10 6 -15 5 -14 -48 0 -49 0 -13 -16 -13 -16 24 -20 25 -19 -24 6 -23 7
-34 20 -34 20 0 8 0 9 60 7 60 7 0 6 0 7 -12 12 -12 12 11 0 10 0 31 -11z
m18357 -9 l-6 -10 -15 0 -14 0 0 10 0 10 21 0 20 0 -6 -10z m-17946 -215 l0
-145 -9 0 -10 0 0 138 0 139 7 6 6 7 3 0 4 0 -1 -145z m17981 109 l0 -14 -9 0
-10 0 -6 10 -6 10 6 10 6 10 10 -5 9 -6 0 -15z m370 16 l0 -10 -25 0 -25 0 0
10 0 10 25 0 25 0 0 -10z m110 -5 l12 -15 -16 0 -16 0 0 15 0 15 4 0 4 0 12
-15z m-658 -27 l-22 -22 0 16 0 17 17 10 18 9 4 -4 5 -5 -22 -21z m-18182 -4
l14 -14 -11 0 -12 0 -6 10 -6 10 -19 0 -19 0 -7 11 -7 12 29 -7 29 -7 15 -15z
m18677 -6 l-5 -13 0 25 0 25 5 -12 5 -13 -5 -12z m583 22 l-35 -8 -18 -23 -18
-22 7 -31 6 -31 -13 12 -12 12 0 32 0 32 22 19 23 18 37 -1 36 -1 -35 -8z
m-19315 -71 l7 -10 -3 -4 -4 -3 -60 13 -60 13 57 1 57 1 6 -11z m18874 -25 l4
-4 -71 0 -72 0 0 9 0 10 48 3 47 3 20 -9 20 -9 4 -3z m-18768 6 l19 0 0 -15 0
-16 -19 11 -20 10 -30 0 -31 0 0 11 0 12 31 -7 32 -6 18 0z m18213 -9 l6 -9
-24 -6 -25 -6 -21 -31 -22 -30 5 -19 5 -20 -8 0 -8 0 -7 30 -6 29 9 17 10 17
33 18 34 17 7 1 7 1 5 -9z m1096 0 l0 -10 -11 -6 -10 -7 -6 5 -5 6 7 10 6 11
10 0 9 0 0 -9z m-1060 -15 l0 -5 -10 -6 -10 -6 0 10 0 11 10 0 10 0 0 -4z
m-18340 -47 l38 -22 6 -21 6 -21 0 -26 0 -27 -25 -16 -24 -16 -21 0 -20 0 0
14 0 14 20 -5 20 -5 15 12 15 12 0 27 0 27 -13 18 -13 18 -20 -4 -19 -4 3 -42
3 -42 -10 0 -11 0 -1 28 -2 27 -1 25 -1 25 -23 3 -23 4 -16 -13 -15 -13 6 -40
7 -39 -16 13 -15 12 0 27 0 27 16 22 15 22 41 0 40 0 38 -21z m19350 -19 l0
-10 -44 0 -45 0 -6 -10 -6 -10 -10 0 -9 0 0 8 0 9 23 11 22 11 38 0 37 1 0
-10z m-610 -25 l0 -13 -15 -6 -15 -5 0 24 0 24 15 -5 15 -6 0 -13z m250 5 l0
-20 -9 0 -10 0 -6 10 -6 10 6 10 6 10 10 0 9 0 0 -20z m-91 0 l56 0 -11 -8
-12 -7 -93 4 -94 3 20 9 20 8 29 -4 29 -5 56 0z m-539 -30 l0 -10 -15 0 -15 0
0 10 0 10 15 0 15 0 0 -10z m-18450 -46 l0 -4 -15 0 -15 0 0 10 0 9 15 -5 15
-6 0 -4z m510 -195 l0 -200 -10 6 -10 6 0 188 1 189 6 6 6 6 4 0 3 0 0 -201z
m18413 163 l-11 -7 -3 -19 -4 -19 -12 -5 -13 -4 0 14 0 14 21 23 21 22 6 -6 6
-6 -11 -7z m-518 -2 l6 -10 -18 0 -18 0 -29 -15 -28 -15 -4 0 -4 0 0 9 0 9 38
15 37 16 7 0 7 1 6 -10z m1065 -1 l0 -10 -34 -14 -35 -15 -23 9 -23 10 20 1
20 1 35 13 35 14 3 1 2 1 0 -11z m-19359 -70 l32 -31 -6 -49 -6 -49 29 0 29 0
6 -10 6 -10 -43 5 -43 6 -22 5 -23 4 0 10 0 10 15 0 14 0 11 19 10 20 0 19 0
19 -22 20 -23 21 -35 6 -35 6 -27 -14 -28 -15 0 8 0 7 12 12 12 12 53 0 52 0
32 -31z m-155 -46 l-6 -6 -6 6 -6 6 8 12 8 13 4 -13 4 -12 -6 -6z m19524 -8
l0 -14 -10 -6 -10 -6 0 9 0 10 -27 5 -28 5 -47 -7 -48 -8 0 16 0 16 85 -3 85
-3 0 -14z m-965 -18 l30 -4 -65 -1 -65 -1 30 13 30 13 5 -8 5 -7 30 -5z m60 3
l-6 -10 -10 0 -10 0 6 10 6 10 10 0 10 0 -6 -10z m345 0 l25 -8 -55 -1 -55 -1
15 10 15 10 15 -1 15 -1 25 -8z m-511 -4 l-4 -4 -47 -3 -47 -3 -7 7 -7 7 58 0
58 0 -4 -4z m-18413 -21 l29 -15 -32 0 -33 0 0 15 0 15 4 0 4 0 28 -15z
m18824 -15 l-14 -9 -5 5 -5 5 14 9 14 9 5 -5 5 -5 -14 -9z m-18767 -7 l-13 -5
-12 5 -13 5 25 0 25 0 -12 -5z m19447 -9 l0 -5 -10 -20 -11 -19 -42 2 -42 1
34 4 33 4 5 20 5 19 14 0 14 0 0 -6z m-130 -38 l0 -4 -30 -4 -30 -5 0 9 0 8
30 0 30 0 0 -4z m-19330 -16 l15 -10 -17 0 -18 0 -5 0 -5 0 -20 -10 -20 -11 0
-39 0 -39 28 -15 27 -15 -40 0 -40 -1 -15 10 -15 10 22 6 21 6 -5 33 -5 32 11
21 11 21 22 4 23 4 5 1 5 2 15 -10z m-150 -72 l9 -28 -8 0 -8 0 -12 26 -12 26
8 22 7 21 4 -20 3 -20 9 -27z m215 51 l7 -10 -4 -4 -3 -3 -25 13 -25 14 22 1
22 0 6 -11z m18840 -19 l-6 -10 -42 1 -42 2 35 7 35 7 13 2 13 1 -6 -10z
m-18811 -25 l6 -25 -6 -40 -7 -40 -34 4 -34 3 -6 7 -6 6 20 0 20 0 18 20 18
20 -6 35 -6 35 9 0 8 0 6 -25z m19366 -19 l0 -15 18 -4 17 -5 -37 -1 -38 -1 0
5 0 6 13 14 12 14 8 1 7 0 0 -14z m-1030 -19 l0 -14 -6 -6 -7 -6 -21 11 -21
11 20 8 20 8 8 0 7 1 0 -13z m930 3 l-25 -8 -27 -1 -28 -1 0 -12 0 -11 -6 6
-6 6 5 16 6 15 53 -1 53 -1 -25 -8z m-1024 -7 l-6 -7 -35 -2 -35 -3 0 9 0 10
42 0 41 0 -7 -7z m-17866 -73 l0 -40 -10 0 -10 0 0 33 0 34 7 6 6 7 4 0 3 0 0
-40z m17958 -36 l-3 -16 -83 -1 -82 -2 0 11 0 11 53 -5 52 -4 25 11 25 10 8 0
8 1 -3 -16z m-18374 -15 l35 -21 7 -33 6 -33 -12 -21 -11 -22 -26 -10 -26 -10
-14 5 -13 5 0 16 0 15 10 0 10 0 0 -10 0 -10 12 0 11 0 19 17 18 16 0 25 0 25
-17 19 -16 18 -13 0 -13 0 -6 -20 -6 -20 6 -19 6 -19 -11 -7 -10 -6 0 44 0 45
-15 12 -16 13 -26 -12 -26 -12 6 -40 5 -40 -11 4 -12 4 -3 32 -3 33 17 19 17
19 43 0 43 0 35 -21z m19266 -2 l18 5 6 -10 6 -10 -40 -4 -40 -4 0 19 0 18 16
-9 17 -9 17 4z m117 -23 l-4 -4 -18 6 -18 7 19 14 19 14 3 -16 4 -17 -5 -4z
m-18968 -86 l-1 -78 -8 0 -8 0 -5 33 -4 32 5 58 5 58 8 -13 9 -13 -1 -77z
m18456 62 l-6 -10 -27 1 -27 1 25 8 25 8 8 1 8 1 -6 -10z m-489 -48 l-6 -5 -5
4 -4 5 7 24 7 25 3 -23 4 -24 -6 -6z m1014 23 l0 -15 -10 0 -10 0 0 15 0 15
10 0 10 0 0 -15z m-610 -3 l0 -7 -20 -12 -19 -13 -6 10 -6 10 23 9 23 10 3 0
2 1 0 -8z m-435 -34 l7 -7 -61 1 -61 1 -15 -13 -15 -12 0 23 0 24 69 -5 69 -5
7 -7z m533 -39 l-3 -10 -10 0 -9 0 -4 10 -4 11 17 0 17 0 -4 -11z m491 -20
l-14 -9 -72 0 -73 0 0 13 0 12 66 -5 66 -6 17 12 16 13 4 -11 3 -10 -13 -9z
m-567 -9 l-30 -18 -4 -13 -5 -14 -23 11 -23 10 49 25 49 25 8 -4 9 -4 -30 -18z
m688 14 l0 -15 -10 6 -10 6 5 10 6 9 5 0 4 0 0 -16z m-19543 -24 l61 -8 12 -7
11 -7 -4 -11 -4 -12 8 -22 8 -22 -11 -33 -11 -33 -3 -3 -2 -3 -19 9 -18 10
-25 10 -25 11 43 -1 42 -1 6 6 6 6 -9 38 -9 37 -29 8 -30 7 -44 8 -44 8 -5 14
-5 14 19 -7 19 -8 62 -8z m18298 -18 l-20 -4 -12 -16 -13 -16 0 17 0 16 17 9
17 10 15 -6 16 -6 -20 -4z m-17837 -141 l3 -141 -9 0 -10 0 -4 33 -3 33 3 112
4 112 7 -4 7 -5 2 -140z m17957 139 l6 -10 -10 0 -10 0 -6 10 -6 10 10 0 10 0
6 -10z m1125 -55 l0 -15 -15 0 -15 0 0 9 0 9 13 5 12 5 3 1 2 1 0 -15z m-181
-11 l4 -4 -31 0 -30 0 -19 -7 -18 -7 13 17 14 16 31 -6 32 -6 4 -3z m96 -5
l-30 -8 -9 9 -10 10 40 -1 39 -1 -30 -9z m-19495 -29 l0 -10 -9 0 -10 0 -6 10
-6 10 15 0 16 0 0 -10z m18425 1 l20 -1 -14 -9 -14 -9 -50 4 -50 4 -14 -11
-13 -11 0 15 0 15 10 4 10 3 48 -1 47 -1 20 -2z m545 -36 l0 -15 -90 0 -90 0
0 9 0 8 80 -3 79 -4 6 10 6 10 5 0 4 0 0 -15z m110 -5 l0 -10 -10 0 -10 0 0
10 0 10 10 0 10 0 0 -10z m396 -45 l-16 -25 -55 0 -55 0 0 11 0 10 10 -6 11
-7 38 7 37 6 19 32 19 32 4 -18 4 -18 -16 -24z m-19346 -6 l0 -27 -15 -12 -15
-12 -63 12 -63 12 -15 10 -14 10 45 -8 45 -7 35 -1 35 -1 3 39 3 40 10 -15 9
-14 0 -26z m18340 -46 l0 -38 5 -20 5 -20 -7 -11 -8 -11 -22 -7 -23 -7 0 10 0
10 21 6 20 7 -3 36 -3 37 -45 8 -45 8 -38 -5 -37 -4 6 9 5 9 62 0 62 0 15 10
15 10 8 0 7 0 0 -37z m469 -8 l-25 -14 -29 -40 -28 -41 -15 0 -16 0 20 18 19
18 25 37 25 37 25 0 25 -1 -26 -14z m545 -49 l-6 -16 -22 1 -21 2 -50 -1 -50
-2 -17 -27 -17 -28 -1 25 0 26 12 12 12 12 66 0 65 0 15 10 14 9 3 -3 3 -3 -6
-17z m-19514 -24 l-22 -29 16 -36 15 -37 -4 0 -5 0 -20 17 -20 17 0 30 0 29
17 19 16 18 14 0 14 0 -21 -28z m108 11 l27 -17 13 -15 12 -15 0 -30 0 -29
-17 -19 -16 -18 -34 0 -33 0 -1 23 -2 22 -1 48 -1 48 -15 9 -15 10 28 0 28 0
27 -17z m18252 -33 l0 -8 -20 -5 -20 -5 0 12 0 13 6 6 6 6 14 -6 14 -5 0 -8z
m55 0 l6 -10 -8 0 -8 0 -15 10 -15 10 17 0 17 0 6 -10z m683 -85 l-4 -5 -132
-3 -132 -4 0 13 0 13 125 -1 125 -2 7 8 8 7 3 -11 4 -11 -4 -4z m412 13 l0 -8
-69 0 -69 0 -12 -15 -12 -15 -9 6 -9 5 0 19 0 19 90 -2 90 -2 0 -7z m-18978
-20 l4 -23 -2 -60 -1 -60 -2 -33 -1 -33 -10 6 -10 6 0 110 0 109 9 0 9 0 4
-22z m17968 -7 l0 -8 -72 -7 -73 -6 -17 -21 -18 -21 0 20 0 21 13 8 12 8 70 6
70 6 8 1 7 2 0 -9z m-18425 -71 l-3 -5 -46 3 -46 4 0 12 0 13 49 -11 50 -10
-4 -6z m18939 -5 l-6 -14 -21 -7 -22 -7 -55 -1 -55 -2 -12 -7 -13 -8 0 18 0
18 74 -3 74 -4 13 16 14 15 7 1 7 0 -5 -15z m-18875 -4 l14 -9 4 -54 4 -55
-16 -13 -16 -13 -75 19 -76 18 13 5 12 4 55 -13 54 -12 15 15 14 14 -7 38 -7
38 -18 4 -19 5 0 9 0 9 18 0 17 0 14 -9z m19387 -6 l15 -15 -10 0 -11 0 0 -17
-1 -18 -10 18 -10 17 -74 0 -74 0 -11 -17 -11 -18 3 20 3 20 75 3 75 3 9 9 10
10 4 0 3 0 15 -15z m-1101 -28 l50 3 13 5 12 4 0 -13 0 -14 -82 -4 -83 -4 -4
2 -3 3 6 16 6 16 17 -9 18 -9 50 4z m-17895 -142 l0 -45 -10 0 -9 0 1 45 1 45
8 0 9 0 0 -45z m17960 36 l0 -9 -20 5 -20 5 0 4 0 4 20 0 20 0 0 -9z m1006 -4
l7 -7 -86 0 -87 0 0 8 0 7 80 -1 79 0 7 -7z m114 -3 l0 -15 -10 6 -10 6 5 10
6 9 5 0 4 0 0 -16z m-1181 -34 l-23 -40 -8 0 -8 0 0 4 0 4 13 23 12 24 8 13 8
12 10 0 10 0 -22 -40z m-18436 -20 l-5 -20 -9 0 -9 0 0 13 0 14 7 6 6 7 8 0 7
0 -5 -20z m21657 10 l0 -10 -11 0 -10 0 6 10 6 10 5 0 4 0 0 -10z m-21585 -10
l20 -9 -25 0 -25 0 -20 9 -20 9 25 0 25 0 20 -9z m110 -16 l20 -15 -15 -9 -15
-10 -12 0 -13 0 0 9 0 10 -22 7 -23 7 20 8 20 8 10 0 10 0 20 -15z m355 -54
l0 -40 -10 0 -10 0 0 33 0 34 7 6 6 7 4 0 3 0 0 -40z m18925 30 l20 -9 -28 0
-28 -1 -33 -14 -34 -14 -11 -19 -12 -18 3 20 3 19 34 23 34 23 16 -1 16 0 20
-9z m-427 -36 l-7 -6 -32 7 -33 7 25 14 24 13 14 -14 15 -15 -6 -6z m-89 10
l4 -4 -41 0 -41 0 -21 -22 -20 -22 0 14 0 13 16 18 15 17 42 -5 42 -6 4 -3z
m-18931 -28 l-18 -13 0 -32 0 -33 -12 4 -13 5 -3 17 -4 17 16 24 16 25 18 0
17 -1 -17 -13z m18422 4 l0 -10 -23 0 -23 0 -23 -17 -24 -16 5 14 5 14 34 12
34 12 8 0 7 1 0 -10z m-18305 -20 l6 -10 -15 0 -16 0 -21 -45 -21 -45 -12 0
-13 0 26 55 25 55 18 0 17 0 6 -10z m45 -66 l0 -23 -16 -16 -16 -16 -6 5 -5 6
13 15 12 15 -6 31 -6 31 15 -12 15 -12 0 -24z m360 -16 l0 -51 -7 7 -7 6 -4
45 -3 45 10 0 11 0 0 -52z m18420 12 l15 -10 -15 0 -15 -1 -42 -8 -43 -8 0 8
0 7 28 10 27 10 15 1 15 1 15 -10z m531 -10 l-23 -20 -27 1 -26 1 -25 8 -25 8
50 1 50 1 15 10 15 10 10 0 10 -1 -24 -19z m-984 -27 l-6 -5 -11 7 -12 8 13 8
14 8 4 -10 3 -10 -5 -6z m3043 7 l0 -10 -10 0 -10 0 0 10 0 10 10 0 10 0 0
-10z m-2159 -70 l40 0 -5 -9 -6 -9 -40 -4 -40 -4 1 26 1 25 5 -12 5 -13 39 0z
m127 -6 l-3 -15 -7 0 -8 1 -37 1 -38 1 40 13 40 13 8 1 8 1 -3 -16z m-1161
-17 l-3 -11 -12 -4 -12 -4 0 21 0 20 15 -6 16 -5 -4 -11z m149 -14 l-5 -5 -27
6 -27 7 9 9 9 8 20 4 20 4 3 -14 4 -14 -6 -5z m-73 17 l12 0 -13 -9 -13 -8
-26 5 -25 5 14 8 13 9 13 -5 14 -5 11 0z m557 -20 l0 -10 -11 0 -10 0 6 10 6
10 5 0 4 0 0 -10z m-50 -10 l25 -8 -35 -1 -35 -1 -15 10 -15 10 25 -1 25 -1
25 -8z m-428 -52 l-12 -12 0 24 0 24 12 -12 12 -12 -12 -12z m1002 -19 l-17
-19 -79 0 -78 0 0 10 0 10 73 0 74 0 19 21 18 21 4 -12 4 -11 -18 -20z
m-18974 -274 l0 -254 -9 -5 -9 -6 -1 266 -1 265 10 -6 10 -6 0 -254z m17967
209 l-5 -6 -24 4 -23 5 25 10 25 11 4 -10 3 -9 -5 -5z m-152 6 l-6 -10 -10 0
-10 0 6 10 6 10 10 0 10 0 -6 -10z m57 -2 l-12 -12 -12 12 -12 12 24 0 24 0
-12 -12z m203 2 l6 -10 -10 0 -11 0 0 10 0 10 4 0 5 0 6 -10z m-108 -115 l-6
-15 -11 0 -10 0 12 20 12 19 4 -4 4 -4 -5 -16z m-247 -5 l0 -10 -10 0 -10 0 0
10 0 10 10 0 10 0 0 -10z m163 3 l-13 -5 -12 5 -13 5 25 0 25 0 -12 -5z m-60
-10 l-13 -5 -17 5 -18 5 30 0 30 0 -12 -5z m154 -85 l-5 -13 0 25 0 25 5 -12
5 -13 -5 -12z m-67 -48 l0 -10 -4 0 -5 0 -6 10 -6 10 10 0 11 0 0 -10z
m-18287 -137 l-13 -5 -12 5 -13 5 25 0 25 0 -12 -5z m-55 -10 l-18 -4 -22 4
-23 4 40 0 40 1 -17 -5z m-68 -7 l0 -4 -6 -16 -6 -16 -19 11 -19 10 0 9 0 10
25 0 25 0 0 -4z m105 -86 l6 -10 -10 0 -10 0 -6 10 -6 10 10 0 10 0 6 -10z
m22515 -270 l0 -10 -10 0 -10 0 0 10 0 10 10 0 10 0 0 -10z m436 -1286 l-7
-17 -11 11 -11 11 7 17 7 17 11 -11 11 -11 -7 -17z"/>
<path d="M23498 15383 l13 -5 6 6 6 6 -19 -1 -19 -1 13 -5z"/>
<path d="M1350 3665 l0 -55 18 0 18 0 12 12 12 12 0 26 0 27 -18 16 -19 17
-11 0 -12 0 0 -55z"/>
<path d="M24474 15346 l-31 -11 13 -13 13 -12 25 0 25 0 15 16 16 15 0 10 0 9
-22 -1 -23 -1 -31 -12z"/>
<path d="M24587 15354 l-6 -6 15 -15 15 -15 6 6 7 6 -15 15 -15 15 -7 -6z"/>
<path d="M24670 15341 l0 -21 26 -12 26 -12 14 19 14 19 0 -12 0 -12 25 0 25
0 0 9 0 9 -17 8 -18 8 -15 2 -15 2 -32 7 -33 8 0 -22z"/>
</g>
</svg>
